<?xml version="1.0" encoding="utf-8" ?>
<svg xmlns="http://www.w3.org/2000/svg" xmlns:xlink="http://www.w3.org/1999/xlink" width="1024" height="1024">
	<g>
		<path fill="#9D754D" d="M516.258 27.4276C516.818 27.4224 517.152 27.4003 517.735 27.4933C525.961 28.8058 541.462 52.7433 546.471 59.5029Q552.097 67.1833 558.126 74.552C560.426 74.4285 563.006 74.0197 564.83 75.7338C570.122 80.7069 573.297 90.1412 576.648 96.4759C586.234 114.596 602.157 140.982 618.388 153.58C621.678 149.736 631.238 137.106 635.795 136.062C640.276 135.036 651.842 156.778 654.296 160.753Q672.123 189.196 689.208 218.092C697.753 232.549 705.83 248.141 716.037 261.477C722.673 270.149 734.748 271.434 740.967 280.298C744.937 285.954 746.873 293.14 749.082 299.63C757.922 325.596 767.794 334.202 790.804 348.245C793.378 346.884 796.734 345.159 799.731 345.901C802.289 346.534 803.766 349.265 805.023 351.382C809.131 358.299 812.09 366.293 815.436 373.628L835.912 418.428C839.471 426.135 843.103 434.977 847.936 441.969C856.016 453.66 870.236 453.298 878.172 463.223C887.619 475.038 888.499 491.884 897.717 503.811C903.748 511.615 913.642 515.336 919.402 523.405C925.654 532.163 927.084 544.269 935.36 551.64C942.627 558.112 953.844 556.527 960.558 563.943C966.939 570.99 970.488 581.397 975.289 589.62C984.729 605.789 994.85 621.694 1004.84 637.531C993.63 636.267 982.5 634.232 971.325 632.68C953.777 630.243 935.953 628.328 918.853 623.516C903.136 619.092 882.658 606.373 866.712 607.639C852.399 608.776 836.823 624.378 824.33 631.356C797.672 646.246 766.638 652.19 741.351 669.368C730.867 676.49 721.514 685.988 713.703 695.93C708.089 703.075 702.882 710.831 695.768 716.592C689.275 721.85 681.458 725.434 674.131 729.351Q664.472 734.459 655.505 740.703C634.012 755.787 615.795 775.213 594.091 789.85C575.662 802.278 554.062 808.454 534.154 817.97C522.757 823.417 512.552 830.639 501.685 836.984C478.394 850.581 457.691 857.089 431.373 862.37C446.587 854.412 460.018 843.944 474.528 834.866C491.674 824.138 514.124 812.866 524.289 794.713C528.623 786.972 531.215 778.409 534.077 770.055Q541.276 749.531 548.777 729.116C541.978 735.811 534.417 742.014 526.996 748.011Q518.658 754.781 509.895 760.992Q501.133 767.203 491.984 772.83Q482.836 778.456 473.34 783.474Q463.843 788.492 454.04 792.879C451.192 794.177 445.165 797.631 442.288 797.327C445.976 794.979 449.986 793.137 453.68 790.769C464.832 783.621 475.706 775.727 486.181 767.625C511.9 747.732 534.215 724.861 557.528 702.354C570.617 689.717 584.397 677.893 596.763 664.522C598.374 670.674 599 677.163 600.42 683.39C606.398 709.618 616.23 717.758 634.4 735.684C628.472 724.013 622.629 711.883 618.696 699.376C611.538 676.614 609.297 647.746 614.004 624.324C616.813 610.347 622.305 596.965 626.391 583.331Q628.995 574.632 631.095 565.798Q633.194 556.964 634.783 548.024Q636.372 539.084 637.445 530.067Q638.517 521.05 639.07 511.987C631.231 519.972 623.406 528.457 614.501 535.281C605.713 542.015 595.711 547.19 587.742 554.986C577.046 565.45 561.311 594.567 553.881 608.466C558.792 593.358 565.824 579.374 571.341 564.545C563.168 571.046 554.893 577.814 548.078 585.762C539.2 596.116 532.02 607.893 521.234 616.508Q518.059 619.024 514.665 621.235Q511.271 623.446 507.687 625.333Q504.103 627.221 500.36 628.768Q496.617 630.316 492.746 631.51C484.651 633.948 476.269 635.831 468.728 639.768C457.585 645.587 448.448 655.175 438.108 662.298C416.68 677.058 392.58 686.366 368.219 695.059C386.172 677.706 399.185 654.144 412.56 633.245C418.663 623.71 424.884 613.907 432.567 605.543C440.271 597.156 450.609 593.932 460.086 588.187C474.248 579.602 488.225 569.052 499.631 557.01C509.411 546.685 508.051 535.156 515.292 525.518C519.571 519.822 526.76 517.598 531.377 512.414C535.566 507.711 536.268 500.277 540.353 495.141C554.029 477.942 570.574 466.076 582.722 446.424C587.575 438.576 591.124 429.9 593.676 421.049C598.908 402.906 597.99 383.234 604.621 365.556C609.191 353.374 621.679 347.228 627.413 335.978C632.88 325.249 634.299 312.487 638.287 301.099C642.775 288.284 649.058 276.195 653.927 263.521C650.404 252.479 645.292 233.967 643.309 222.63C636.119 239.847 627.466 256.41 619.033 273.038C614.574 281.827 609.292 290.853 606.057 300.173C602.477 310.487 607.075 321.632 603.034 331.753C598.847 342.241 588.064 348.234 584.581 359.471C581.547 369.263 581.49 379.856 580.665 389.992C579.052 409.808 574.331 429.225 565.519 447.121C559.822 458.69 549.449 466.176 539.584 473.943C519.343 489.878 500.507 508.238 489.669 532.022C486.157 539.73 483.606 547.867 480.981 555.911C484.905 526.041 494.051 498.621 511.051 473.544C516.107 466.085 523.083 459.774 527.372 451.84C532.604 442.159 536.634 431.498 540.692 421.29C550.605 396.347 558.816 370.232 562.316 343.545C563.698 333.013 564.134 322.426 564.836 311.836C565.468 302.296 566.337 292.722 566.541 283.162C555.473 284.031 537.356 285.833 527.682 290.911C523.09 298.543 520.793 309.191 518.348 317.733C513.893 333.296 510.024 349.17 505.068 364.569C502.378 372.927 495.647 380.032 494.037 388.492C492.838 394.789 493.433 401.62 493.288 408.014C492.899 425.185 490.639 442.19 483.663 458.035L483.77 456.852L483.275 457.524C484.771 455.502 485.178 449.813 485.684 447.23C490.426 423.033 491.563 402.598 489.752 377.971C486.78 382.177 484.739 386.549 483.302 391.49C479.923 403.111 479.073 415.681 477.605 427.667Q474.898 449.254 471.92 470.805C471.025 477.316 470.556 484.529 468.614 490.82C467.515 494.38 465.084 497.51 463.822 501.028C459.966 511.771 459.491 524.765 452.869 534.319C447.445 542.144 439.881 544.665 435.646 554.318C421.275 587.071 420.411 602.192 393.132 629.047C404.644 609.29 411.338 587.123 417.734 565.307C420.675 555.279 423.369 545.098 427.176 535.356C429.548 529.715 433.361 524.827 435.74 519.203C441.082 506.577 441.084 487.479 441.545 473.776C424.94 488.893 412.299 507.001 392.695 518.829C386.631 522.488 380.081 523.847 373.27 525.461C344.01 532.397 341.899 536.381 322.419 558.594C327.04 550.09 336.282 531.749 343.261 525.784C353.524 517.01 381.765 514.231 395.65 506.314C408.688 498.881 420.633 480.983 431.223 469.882C433.436 467.562 435.789 464.851 438.338 462.923C446.335 456.874 456.019 457.58 462.367 453.223C466.865 450.136 468.614 391.245 470.505 381.547C470.544 381.347 470.587 381.149 470.628 380.95C476.282 374.325 483.72 369.362 488.6 361.983C500.647 343.766 504.687 296.994 506.013 275.265C494.561 287.461 487.506 303.279 479.722 317.943C470.156 335.964 460.616 354.099 452.735 372.936C448.202 383.77 444.87 398.358 438.226 407.915C413.354 420.867 410.296 425.147 394.92 447.541C391.837 452.031 389.249 457.156 385.336 460.982C381.069 462.196 376.494 462.134 372.206 463.329C361.515 466.309 356.393 477.382 348.722 484.477L348.542 484.008C356.086 474.543 363.231 464.582 372.007 456.204C376.798 455.258 381.88 455.271 386.753 455.011C392.591 447.008 397.322 438.377 402.865 430.197C407.405 423.498 412.522 417.35 417.914 411.329C422.628 406.065 433.269 401.668 436.126 396.893C439.976 390.457 442.047 382.41 444.767 375.411C447.9 367.353 451.506 359.462 454.909 351.513C467.143 322.933 479.791 293.592 497.205 267.726C502.225 260.27 509.422 254.748 514.306 247.412C520.174 238.6 523.075 227.641 530.468 219.912C536.181 213.94 544.138 211.172 550.393 205.991C550.533 205.875 550.669 205.755 550.807 205.637C553.299 199.277 554.373 191.934 555.868 185.276Q559.145 170.357 562.949 155.563C550.454 139.908 548.205 129.894 546.272 110.478C542.13 121.972 539.45 134.07 535.369 145.658Q527.564 167.205 518.421 188.219Q509.279 209.234 498.835 229.633C493.656 239.983 488.55 250.981 482.272 260.701C491.619 235.561 501.226 210.645 509.96 185.273Q505.191 175.093 499.966 165.138C495.803 157.305 489.97 148.921 487.931 140.279C485.815 131.313 487.943 120.986 487.751 111.806C487.508 100.23 482.979 88.8097 479.132 78.0291C474.138 84.1228 470.184 91.0085 465.453 97.3049C459.712 104.945 451.802 112.44 447.604 121.055C443.083 130.331 433.697 203.666 435.223 215.119C437.089 229.121 445.338 242.885 445.133 257.027C444.965 268.549 437.47 290.077 434.928 302.887C438.777 315.792 445.793 328.441 451.778 340.464C448.573 349.645 445.482 358.992 440.136 367.196C431.157 380.973 418.929 393.223 408.051 405.538C386.289 430.176 364.202 455.046 340.618 477.965C331.124 487.191 321.173 495.88 311.206 504.584C302.731 511.986 294.292 520.032 285.137 526.568C292.806 518.025 299.277 507.81 305.529 498.197Q316.527 481.353 326.904 464.119C331.785 455.934 336.42 447.401 341.993 439.663C350.928 427.258 364.74 419.397 373.017 405.414C378.76 395.713 379.192 384.021 383.384 373.713C385.91 367.499 390.487 361.984 394.379 356.577C387.879 339.199 377.537 324.697 379.636 305.124C381.759 285.332 403.682 271.376 409.955 252.932C414.497 239.578 416.314 224.762 418.754 210.879C423.298 185.031 427.316 158.823 433.001 133.208C428.723 136.082 423.881 139.036 420.988 143.415C412.037 156.966 397.34 212.499 393.243 229.919C391.41 237.717 390.689 249.059 386.028 255.645C381.512 262.028 372.528 266.277 366.101 270.625C361.028 283.562 359.715 297.536 355.651 310.706C352.117 322.159 343.594 323.036 334.126 328.06C331.461 337.592 330.221 347.459 326.618 356.732C322.219 360.141 317.044 362.469 312.903 366.236C295.787 381.805 290.174 399.594 283.924 420.965Q279.797 435.316 275.402 449.588C273.295 456.545 271.973 464.923 268.979 471.463C268.847 471.75 268.709 472.034 268.574 472.319Q269.225 467.293 269.803 462.258C271.016 452.032 272.859 441.912 274.274 431.717C275.421 423.447 275.926 414.918 278.097 406.839C281.749 393.248 292.319 372.588 302.323 362.889C307.185 358.176 313.699 356.103 318.891 351.922C319.022 351.817 319.15 351.707 319.279 351.599C321.445 343.919 322.792 336.053 324.626 328.3C325.071 326.419 325.508 324.689 326.81 323.205C330.798 318.664 342.361 314.99 347.987 311.421L348.583 311.038C353.296 296.966 352.452 278.688 364.737 268.578C370.121 264.147 376.394 260.505 382.039 256.354C386.208 243.983 388.042 230.553 390.634 217.773C392.823 206.975 395.659 196.116 397.26 185.223C389.517 190.362 372.885 201.287 367.332 207.984C360.804 215.859 356.189 225.95 351.374 234.932C336.908 261.919 324.673 289.721 311.008 317.062C299.199 340.689 285.293 363.15 271.608 385.715C276.99 369.287 283.628 353.143 288.279 336.501C293.378 318.26 296.261 299.18 299.38 280.507C301.419 268.296 303.94 255.801 303.567 243.381C289.326 254.962 280.478 296.051 275.14 314.017Q271.104 327.748 265.869 341.068C259.322 357.583 250.67 372.947 242.253 388.544C239.854 392.988 236.024 402.295 233.145 405.786C232.804 401.968 250.112 359.463 252.726 352.064C257.62 338.211 261.305 323.957 265.821 309.982C262.24 312.201 259.237 314.816 256.46 317.973C249.072 326.366 237.374 345.61 232.369 355.799C225.887 368.996 220.852 382.766 213.795 395.716C216.88 382.133 222.184 367.759 228.71 355.489C222.616 362.535 216.324 369.424 210.885 376.998C211.623 370.605 212.254 363.886 214.91 357.95C219.123 348.531 227.514 341.774 233.165 333.255C239.133 324.261 242.398 313.764 249.666 305.533C254.408 300.161 262.464 297.34 266.225 291.355C271.088 283.615 272.752 273.802 276.514 265.459C279.394 259.072 283.248 253.088 286.554 246.912C289.441 241.519 291.876 235.881 294.364 230.297C308.191 233.225 322.151 235.496 335.981 238.455C343.666 223.916 354.391 200.341 368.296 191.564C376.853 186.163 386.54 182.492 393.174 174.505C402.347 163.462 404.921 148.369 413.383 136.946C417.883 130.87 424.775 128.358 430.188 123.427C434.653 119.36 436.891 113.483 441.048 109.128C444.331 105.688 448.984 103.918 452.278 100.363C460.284 91.7225 464.533 80.9842 471.574 71.8117C473.771 68.9498 476.716 67.4345 479.62 65.3899C493.028 55.9495 501.43 37.8721 516.258 27.4276ZM623.462 515.071C630.933 510.494 638.382 505.11 646.325 501.433C655.83 521.754 668.219 539.134 680.618 557.708C687.808 568.479 694.414 579.78 702.935 589.581C709.468 597.094 717.848 602.88 724.899 609.888C735.273 620.197 743.172 633.489 750.735 645.955C747.292 631.726 743.712 616.982 737.502 603.656C730.435 588.978 719.727 576.271 713.79 561.021C703.803 535.368 711.716 507.122 714.653 480.872C716.272 466.395 717.113 450.948 716.263 436.42C724.405 463.447 728.019 491.318 734.476 518.741C737.218 530.389 740.046 541.767 744.741 552.817C738.824 518.481 740.258 482.667 731.274 448.851C727.832 435.893 722.489 423.692 717.028 411.485C714.04 404.805 710.281 393.574 706.121 387.813C696.825 412.511 684.329 417.664 671.542 437.435C664.689 448.031 660.228 460.042 654.342 471.174C645.94 487.063 634.884 501.276 623.462 515.071ZM490.348 70.5125C493.295 80.5097 497.265 91.1681 498.006 101.584C498.409 107.241 497.974 113.023 497.692 118.682C497.379 124.952 496.626 131.504 497.066 137.755C497.889 149.468 506.969 160.556 513.32 169.968L516.577 174.845C522.163 164.705 533.577 144.54 535.206 133.659C536.369 125.895 521.858 54.1161 518.582 42.9263C518.243 41.7711 518.022 40.4662 516.909 39.8203C507.038 49.226 499.443 60.4518 490.348 70.5125ZM541.35 283.603C549.932 281.017 558.651 278.633 566.892 275.078C573.914 272.049 580.899 268.006 586.481 262.725C597.248 252.54 608.133 230.098 615.474 216.43C625.816 197.172 631.265 184.98 633.887 162.919C634.415 158.474 635.219 152.827 634.332 148.396C622.558 163.094 612.745 179.304 601.985 194.744C595.729 203.721 541.196 278.81 541.35 283.603ZM776.596 461.234C771.732 456.958 767.582 452.254 763.837 446.964C764.415 453.149 764.228 459.768 765.9 465.769C769.759 479.619 779.604 494.153 786.641 506.779Q795.181 522.372 803.284 538.197C801.236 528.839 799.631 519.444 798.161 509.981C796.08 495.79 794.028 481.61 795.128 467.225C808.232 475.493 822.922 482.735 833.745 494.007C830.363 488.331 826.038 483.073 822.05 477.81C810.635 462.747 799.328 447.68 783.251 437.232C781.335 445.317 779.548 453.448 776.596 461.234ZM766.395 340.288C770.911 349.231 788.778 386.084 797.161 388.868C797.642 387.88 797.639 387.213 797.619 386.125C797.458 375.057 798.24 364.208 799.083 353.187C796.928 354.171 794.826 355.104 792.557 355.81C782.536 352.348 775.809 344.424 766.395 340.288ZM640.174 185.864Q624.95 210.979 610.388 236.484C605.377 245.29 601.089 255.023 594.98 263.114C590.246 269.385 583.302 273.911 578.108 279.853C577.28 286.08 575.237 316.124 576.827 320.695C581.262 304.976 585.421 288.268 593.307 273.889C598.588 264.262 607.902 257.184 614.305 248.319Q618.993 241.697 622.716 234.489C627.063 226.05 641.69 194.04 640.174 185.864Z"/>
		<path fill="#9D754D" d="M696.474 425.249C699.815 431.116 698.653 451.107 698.355 458.204C697.338 482.432 690.36 501.174 672.314 517.789C671.794 517.999 672.165 517.882 671.151 517.896C669.762 513.912 680.877 494.123 683.108 489.369C685.022 485.291 686.814 481.081 688.306 476.83C693.846 461.05 696.654 442.019 696.474 425.249Z"/>
		<path fill="#6C4325" d="M204.922 429.721C187.584 399.351 168.33 369.716 159.476 335.441C157.904 329.356 156.334 322.845 156.31 316.527C156.302 314.454 156.446 311.634 157.98 310.094L158.894 310.126C165.587 315.187 187.043 368.986 191.715 379.863C194.544 386.449 197.226 394.519 201.333 400.357C201.425 400.488 201.522 400.615 201.617 400.745C196.153 385.503 190.971 367.805 192.26 351.533C192.587 347.404 193.659 339.836 197.146 337.241C197.787 336.764 197.658 336.92 198.486 337.079C199.448 338.209 199.891 339.195 200.304 340.623C201.528 344.843 201.853 349.476 202.658 353.803C205.102 366.945 207.192 380.366 210.858 393.225C214.114 404.642 218.847 415.268 224.005 425.921C227.944 434.055 232.346 442.232 234.865 450.941C237.67 460.636 236.035 471.149 237.314 481.116C240.385 505.066 251.45 529.913 262.873 550.997C284.49 590.896 303.617 579.788 335.634 599.598C339.919 602.249 344.306 605.461 347.069 609.752C350.767 615.495 350.458 621.449 349.018 627.816C346.086 624.862 344.41 620.996 342.282 617.454C342.994 620.892 344.216 624.377 344.447 627.884C340.578 625.411 336.342 623.413 332.207 621.423C325.864 623.935 318.992 624.433 312.663 626.718C309.51 627.856 305.875 631.502 302.67 631.761C300.975 633.357 300.803 635.546 300.458 637.743C307.926 651.657 319.325 661.793 332.128 670.699C336.773 673.929 341.769 676.913 345.829 680.88C349.436 684.404 351.868 689.036 354.785 693.106C357.64 697.088 361.396 700.479 365.284 703.428C373.277 709.491 381.605 715.376 389.971 720.911C398.175 726.339 407.224 731.084 414.093 738.243C396.623 736.836 382.499 723.899 367.233 716.459C374.648 723.593 398.074 745.28 400.995 753.545L401.315 754.439C385.901 751.055 375.292 738.435 364.864 727.48C369.228 734.782 379.589 751.711 377.498 760.439C377.255 761.456 377.079 761.432 376.356 762.091C374.252 761.989 373.189 760.923 371.803 759.411C362.618 749.394 357.306 737.02 352.088 724.672C354.094 733.293 357.237 745.552 352.144 753.631C351.368 754.862 350.721 755.532 349.285 755.94C347.472 755.242 346.755 754.234 345.954 752.484C341.834 743.477 340.681 731 339.641 721.153C338.634 730.134 336.568 742.393 328.893 748.388C327.922 749.146 327.17 749.403 325.925 749.484C324.51 748.747 323.894 748.122 323.472 746.542C321.567 739.401 324.974 727.994 326.833 721.008C318.62 723.615 307.838 728.766 299.473 723.868C298.728 723.431 298.72 723.379 298.181 722.876L298.321 722.097C303.287 719.515 311.21 718.985 316.841 717.04C316.65 717.046 316.459 717.049 316.269 717.058C302.962 717.646 294.461 725.565 282.441 715.274C280.235 714.864 277.639 714.57 275.585 713.668C271.858 712.03 268.35 709.423 264.757 707.455C259 704.301 252.685 701.906 247.419 697.924C245.762 696.671 244.467 694.992 243.144 693.409C239.323 692.389 235.693 691.502 232.219 689.557C228.24 687.33 215.082 675.924 213.269 675.467C212.659 675.313 212.054 675.141 211.442 674.988L208.593 670.334C207.263 669.79 205.822 669.277 204.705 668.351C203.175 667.082 201.964 662.772 200.081 662.27C197.337 661.538 192.146 663.085 189.185 663.22C183.828 663.464 174.85 661.313 172.413 655.995C172.585 654.865 172.942 654.151 173.504 653.16C177.414 651.793 182.223 653.676 185.55 651.21C186.458 649.54 186.319 648.909 186.278 647.049L186.589 646.56C174.048 640.579 165.631 643.313 152.602 644.301C149.836 644.511 134.634 645.409 133.054 644.02C128.936 640.401 120.204 638.894 114.991 636.145C109.106 633.041 104.032 627.778 99.0855 623.374C97.1321 621.635 94.4902 619.776 94.363 616.993C94.3583 616.891 94.3295 615.953 94.3076 615.823C94.0353 614.203 91.8088 612.988 90.5256 612.066C94.1467 606.643 90.5035 607.389 91.6519 603.08C93.1417 601.332 95.5385 600.585 97.6022 599.672C96.1239 598.853 95.2956 598.626 94.4484 597.135L94.8003 596.024C96.8638 594.096 100.165 593.203 102.766 592.153C101.573 591.161 100.507 590.484 100.157 588.884C101.639 585.583 105.731 586.43 108.683 585.306C110.249 584.709 111.246 583.436 112.696 582.654C120.817 578.276 167.287 590.794 177.12 594.089C168.783 588.499 161.109 581.862 155.63 573.307C153.865 570.552 152.998 567.038 151.009 564.47C148.252 560.909 143.745 558.839 141.767 554.602C139.695 550.161 141.16 544.87 139.045 540.492C137.331 536.944 133.305 534.719 131.681 531.133C130.662 528.883 131.261 526.03 130.257 523.748C129.007 520.902 125.659 518.586 124.862 515.591C124.255 513.309 125.626 511.225 125.328 509.24C124.964 506.816 118.582 497.778 117.052 493.904C117.446 491.159 118.21 488.476 118.888 485.79C118.593 484.852 118.257 483.926 117.935 482.997C116.664 479.329 115.101 475.499 114.538 471.65C113.903 467.303 114.421 462.652 114.289 458.253C114.164 454.056 113.467 449.786 113.701 445.593C113.824 443.377 114.245 441.416 115.212 439.423C115.698 439.1 116.553 438.591 116.847 438.123C118.264 435.873 116.885 426.729 117.837 423.148C118.229 421.67 118.777 421.047 120.079 420.305C120.824 420.359 121.304 420.489 121.928 420.916C129.671 426.204 136.887 432.612 144.396 438.265C153.227 444.915 162.572 450.957 171.736 457.139C165.711 449.825 142.757 436.042 133.835 429.139C128.77 425.219 124.552 420.106 119.404 416.371C115.838 413.784 104.166 409.706 102.461 406.092C102.97 405.207 103.303 405.148 104.324 404.91C107.058 404.273 112.786 406.381 115.442 407.128C142.867 414.839 164.554 430.421 187.023 447.179C177.866 435.354 151.107 419.97 138.178 411.023Q124.844 401.654 112.753 390.729C109.437 387.745 103.778 383.048 102.589 378.593C102.297 377.498 102.302 376.897 102.849 375.885C113.671 374.776 163.324 415.308 176.054 423.515C169.941 416.638 162.543 410.56 155.933 404.136C143.244 391.803 131.267 378.928 120.773 364.674C117.757 360.577 113.415 352.392 113.734 347.11C113.799 346.044 113.658 346.459 114.502 345.684C118.413 346.323 124.83 354.051 127.765 356.983C141.716 370.915 155.161 384.961 167.675 400.214Q175.537 409.879 183.194 419.708C185.728 422.95 188.027 426.594 190.986 429.448C188.451 424.033 183.784 418.701 180.361 413.718C166.663 393.776 149.018 372.929 138.166 351.502C135.425 346.09 128.025 328.326 130.361 322.665C130.682 321.889 130.678 322.121 131.576 321.866C139.007 324.986 161.011 363.889 167.077 373.196C173.315 382.766 180.148 391.942 186.272 401.591C191.961 410.554 196.843 421.612 204.345 429.146L204.922 429.721ZM301.93 594.417C298.249 593.539 294.551 592.703 290.893 591.737L287.023 587.249C286.078 586.505 285.011 585.862 284.013 585.186L284.301 585.616C287.47 590.274 291.79 591.901 295.373 595.841L294.947 596.169C294.812 596.049 294.679 595.927 294.543 595.808C292.297 593.851 290.074 592.878 287.196 592.204C286.208 592.5 286.548 592.24 286.051 592.784L286.368 593.198C287.916 595.191 290.143 596.788 291.285 599.012C289.553 599.821 287.061 598.684 285.059 599.435C285.839 600.624 288.074 601.515 289.441 601.743C291.278 602.049 293.318 601.811 294.762 603.203C292.585 605.075 286.296 603.853 283.386 603.931C286.411 605.527 289.418 607.208 292.49 608.709C290.149 609.966 288.038 611.26 285.9 612.854C289.304 613.085 292.574 613.458 295.929 614.075C294.231 615.422 292.513 616.74 290.916 618.207L292.252 618.053L293.238 618.875C293.223 620.265 292.734 621.445 292.274 622.735C294.552 622.89 297.34 622.765 299.401 623.786C300.946 625.791 300.777 628.204 302.257 630.129Q302.614 629.198 303.029 628.292C304.118 625.94 306.69 621.173 309.19 620.294C309.8 622.274 308.441 624.82 307.675 626.678C312.317 622.854 316.527 618.801 321.523 615.407L317.737 621.386C321.434 621.069 325.015 620.436 328.658 619.739C326.553 618.802 324.335 618.042 322.688 616.384L323.129 615.814C329.184 614.907 337.978 616.127 343.602 618.367C342.706 614.087 341.194 607.706 338.244 604.402C334.55 602.975 332.374 609.346 327.782 608.918C326.147 608.766 324.98 607.643 323.964 606.48C322.96 605.331 321.925 604.309 320.801 603.278C319.463 604.143 318.887 604.333 318.191 605.801C318.752 609.129 323.899 611.688 326.521 613.778C322.977 612.458 318.072 610.939 315.452 608.093C314.554 607.116 314.292 606.563 314.369 605.261C315.409 604.318 316.105 603.989 317.398 603.541C320.153 602.979 322.02 601.878 324.414 600.456C325.465 600.518 326.336 600.588 327.359 600.312L327.186 599.373C321.572 592.864 297.73 587.08 288.636 585.407C293.317 588.25 297.83 590.707 301.93 594.417ZM241.161 630.621C235.978 631.567 231.561 632.686 228.473 637.382C224.587 643.294 225.81 652.108 217.481 654.265C209.591 656.308 200.886 654.284 192.706 655.917C195.994 656.378 199.599 657.316 202.875 657.515C209.188 657.48 219.176 658.165 224.077 653.409C226.033 651.511 226.755 649.004 227.515 646.47C231.279 633.916 238.915 632.714 250.539 631.263C247.445 630.92 244.273 630.374 241.161 630.621ZM199.714 445.341C189.635 482.897 189.823 512.117 209.69 546.565Q217.785 560.535 226.98 573.807L227.418 573.299C222.873 564.895 217.58 556.911 212.905 548.578C200.161 525.861 194.012 501.728 195.763 475.584C196.002 472.016 196.272 468.404 196.839 464.872C197.724 459.358 200.882 450.727 199.714 445.341Z"/>
		<path fill="#603113" d="M307.675 626.678C312.317 622.854 316.527 618.801 321.523 615.407L317.737 621.386C321.434 621.069 325.015 620.436 328.658 619.739C330.168 620.093 331.115 620.28 332.207 621.423C325.864 623.935 318.992 624.433 312.663 626.718C309.51 627.856 305.875 631.502 302.67 631.761L302.257 630.129Q302.614 629.198 303.029 628.292C304.118 625.94 306.69 621.173 309.19 620.294C309.8 622.274 308.441 624.82 307.675 626.678Z"/>
		<path fill="#603113" d="M286.051 592.784L284.491 593.038C282.671 591.439 282.368 588.115 281.573 585.805C281.236 584.824 281.254 585.389 281.643 584.233C283.005 584.154 282.949 584.296 284.013 585.186L284.301 585.616C287.47 590.274 291.79 591.901 295.373 595.841L294.947 596.169C294.812 596.049 294.679 595.927 294.543 595.808C292.297 593.851 290.074 592.878 287.196 592.204C286.208 592.5 286.548 592.24 286.051 592.784Z"/>
		<path fill="#9D754D" d="M865.518 619.592C878.292 617.992 890.947 625.598 902.338 630.425Q909.901 633.595 917.779 635.868C945.217 643.65 977.482 643.024 1006.27 649.427C975.423 665.201 931.725 682.895 909.344 710.214C901.048 720.34 895.997 732.597 887.878 742.877C860.502 777.539 817.685 780.603 780.133 797.476C766.924 803.411 754.79 811.215 742.453 818.727Q726.196 828.789 709.172 837.493C673.418 855.645 634.68 865.601 596.145 875.842C574.839 881.504 552.982 887.795 531.058 890.409C582.72 873.966 634.011 846.574 674.886 810.789C679.704 806.571 684.891 802.416 689.299 797.78Q662.04 814.74 634.204 830.734Q600.562 850.941 565.195 867.951C545.34 877.643 525.454 886.993 504.114 892.961C490.022 896.901 476.037 898.807 461.607 900.899C484.14 890.165 507.352 879.081 526.663 862.985C536.269 854.979 543.619 843.164 554.586 837.013C562.887 832.356 572.145 829.478 581.207 826.698C599.342 821.133 618.033 816.265 633.998 805.58C651.045 794.17 659.39 772.671 678.215 763.604C694.301 755.855 712.045 754.954 729.512 753.368C782.499 748.556 815.004 735.016 856.362 701.307C847.362 704.063 837.647 705.486 828.395 707.178C805.74 711.321 782.243 713.643 760.041 719.736C751.66 722.036 743.633 725.11 735.615 728.435C737.282 725.341 738.919 722.212 740.738 719.205C752.035 700.528 767.643 688.329 788.23 681.254C795.552 678.738 803.33 676.729 809.528 671.883C815.264 667.398 819.201 661.261 823.292 655.347C834.112 639.706 846.213 624.331 865.518 619.592Z"/>
		<path fill="#6C4325" d="M59.3189 631.488C63.9484 641.951 68.4338 652.545 73.5739 662.768C76.3871 655.991 79.0909 649.128 82.2962 642.525Q88.2216 656.931 94.4816 671.194C97.5503 678.242 100.483 685.615 104.503 692.179C107.558 687.333 109.827 681.965 112.24 676.778C115.09 681.554 118.09 686.559 120.392 691.62C122.843 685.425 125.698 679.165 127.724 672.827C132.763 681.32 136.497 690.609 140.474 699.632Q147.59 715.469 154.448 731.42C157.62 725.715 160.414 719.801 163.609 714.118C166.503 720.544 169.211 727.249 172.527 733.463C174.703 728.997 176.903 724.565 178.7 719.928C182.808 728.473 186.02 737.465 190.789 745.687C196.331 735.616 201.37 724.585 205.668 713.933C214.513 733.786 223.266 753.679 233.654 772.789C238.073 764.146 241.361 754.763 246.331 746.434C255.034 763.025 261.387 780.675 269.78 797.386C272.663 790.379 275.329 783.227 278.467 776.334C283.496 786.624 288.369 797.106 293.931 807.117C296.395 801.949 298.736 796.665 301.506 791.655C304.541 797.205 306.93 803.125 309.47 808.915C315.229 798.699 318.231 786.705 324.421 776.893C334.076 797.233 342.265 818.308 350.603 839.212C353.23 832.94 355.756 826.59 358.629 820.429C365.272 833.898 370.406 850.271 377.957 862.824C380.493 858.266 382.848 853.572 385.506 849.088C388.413 855.034 391.181 861.167 394.719 866.771C398.523 859.754 401.676 852.379 404.815 845.045Q410.006 855.879 414.49 867.025C416.633 872.394 418.494 878.1 421.038 883.277C423.414 879.249 425.406 875.089 427.3 870.815C430.451 879.923 434.412 888.428 439.149 896.807C444.137 900.565 458.626 905.013 465.038 907.397Q484.35 914.455 503.472 922.011Q511.293 925.11 518.989 928.506Q526.686 931.902 534.247 935.589Q541.808 939.277 549.223 943.25Q556.637 947.224 563.895 951.478Q571.153 955.732 578.242 960.26Q585.332 964.788 592.244 969.584Q599.155 974.379 605.878 979.435Q612.602 984.492 619.127 989.801L619.224 991.265L618.971 991.284L619.508 990.232L619.724 991.016C617.3 990.683 612.719 986.606 610.319 985.096C604.039 981.144 597.582 977.573 591.038 974.079Q546.739 950.494 500.649 930.635C448.143 907.543 393.598 888.717 339.173 870.7C300.058 857.751 260.81 845.737 222.647 830.053Q210.441 825.041 198.612 819.195Q186.783 813.35 175.387 806.699C158.662 796.985 142.533 786.334 125.521 777.097C101.315 763.953 76.411 754.621 50.3592 745.929C57.2491 745.776 66.5067 749.273 73.1412 751.191Q89.4619 755.775 105.316 761.776Q121.17 767.777 136.435 775.15C146.811 780.253 156.81 786.17 166.983 791.666C184.965 801.38 203.459 810.817 222.373 818.588C247.093 828.744 272.323 838.287 297.427 847.456C309.473 851.855 324.846 855.767 335.886 861.872L336.55 862.245C326.012 853.146 314.329 845.434 302.835 837.613Q275.005 818.538 246.286 800.829C228.512 789.73 211.011 777.577 191.941 768.779C180.172 763.349 167.79 759.146 155.594 754.8L110.496 738.87C92.2118 732.51 73.7029 726.857 55.2924 720.876C46.8909 718.147 37.7514 715.855 29.723 712.193C32.1624 711.629 40.6503 714.051 43.5081 714.609Q64.3678 718.742 84.9255 724.182Q105.483 729.622 125.657 736.347C138.884 740.828 151.785 746.276 164.974 750.752C154.483 743.779 144.071 736.868 132.929 730.961C121.755 725.036 110.055 720.213 98.4059 715.318C71.8637 707.18 41.7035 699.578 13.9399 698.368C19.1711 685.65 23.8879 672.038 31.1962 660.339C33.4849 665.899 36.3081 671.067 39.4153 676.207C46.0572 661.415 51.5691 645.719 59.3189 631.488Z"/>
		<path fill="#9D754D" d="M336.55 862.245C326.012 853.146 314.329 845.434 302.835 837.613Q275.005 818.538 246.286 800.829C228.512 789.73 211.011 777.577 191.941 768.779C180.172 763.349 167.79 759.146 155.594 754.8L110.496 738.87C92.2118 732.51 73.7029 726.857 55.2924 720.876C46.8909 718.147 37.7514 715.855 29.723 712.193C32.1624 711.629 40.6503 714.051 43.5081 714.609Q64.3678 718.742 84.9255 724.182Q105.483 729.622 125.657 736.347C138.884 740.828 151.785 746.276 164.974 750.752C154.483 743.779 144.071 736.868 132.929 730.961C121.755 725.036 110.055 720.213 98.4059 715.318C109.904 713.388 145.627 734.235 155.804 741.451C161.291 745.342 166.464 749.977 172.175 753.496C179.378 757.934 187.459 760.901 194.92 764.877Q216.867 776.855 238.118 790.029Q273.988 812.371 308.761 836.384C324.45 847.085 340.054 859.15 357.126 867.545C370.423 874.084 389.963 879.404 404.484 884.59C415.325 888.461 428.23 894.558 439.149 896.807C444.137 900.565 458.626 905.013 465.038 907.397Q484.35 914.455 503.472 922.011Q511.293 925.11 518.989 928.506Q526.686 931.902 534.247 935.589Q541.808 939.277 549.223 943.25Q556.637 947.224 563.895 951.478Q571.153 955.732 578.242 960.26Q585.332 964.788 592.244 969.584Q599.155 974.379 605.878 979.435Q612.602 984.492 619.127 989.801L619.224 991.265L618.971 991.284L619.508 990.232L619.724 991.016C617.3 990.683 612.719 986.606 610.319 985.096C604.039 981.144 597.582 977.573 591.038 974.079Q546.739 950.494 500.649 930.635C448.143 907.543 393.598 888.717 339.173 870.7C300.058 857.751 260.81 845.737 222.647 830.053Q210.441 825.041 198.612 819.195Q186.783 813.35 175.387 806.699C158.662 796.985 142.533 786.334 125.521 777.097C101.315 763.953 76.411 754.621 50.3592 745.929C57.2491 745.776 66.5067 749.273 73.1412 751.191Q89.4619 755.775 105.316 761.776Q121.17 767.777 136.435 775.15C146.811 780.253 156.81 786.17 166.983 791.666C184.965 801.38 203.459 810.817 222.373 818.588C247.093 828.744 272.323 838.287 297.427 847.456C309.473 851.855 324.846 855.767 335.886 861.872L336.55 862.245Z"/>
		<path fill="#9D754D" d="M1000.54 678.16L1000.7 678.624C997.389 681.441 993.627 683.844 990.12 686.423C973.717 698.487 961.835 708.132 953.649 727.344C949.23 737.715 946.254 748.427 940.053 757.991C927.294 777.672 906.072 784.025 887.051 795.52C873.185 803.9 863.032 816.912 849.118 824.952C836.364 832.321 821.461 837.341 807.876 843.079C759.177 863.645 709.047 884.108 657.162 895.079L656.916 894.882L657.103 894.428Q660.036 893.628 662.94 892.731C686.619 885.366 709.19 875.739 732.04 866.245C753.138 857.479 774.694 848.979 794.566 837.632C804.89 831.738 813.417 823.409 823.597 817.407C831.766 812.592 841.068 809.82 849.016 804.573C857.429 799.02 862.504 789.93 870.782 784.4C875.786 781.057 881.515 778.915 886.973 776.439C897.77 771.54 907.375 765.125 915.755 756.7C926.749 745.646 932.09 732.939 939.257 719.522C952.156 695.376 975.61 685.76 1000.54 678.16Z"/>
		<path fill="#9D754D" d="M986.034 763.021L986.376 763.542C986.255 763.77 986.138 764.001 986.011 764.226C984.834 766.318 982.459 768.315 980.733 769.973C966.36 783.779 947.877 789.604 931.068 799.458C925.464 802.744 920.365 806.575 915.805 811.21C908.792 818.338 902.707 826.928 894.176 832.368C883.486 839.184 871.372 843.984 859.724 848.909Q844.974 855.12 829.978 860.714Q814.983 866.308 799.769 871.276Q784.555 876.244 769.147 880.576Q753.74 884.909 738.167 888.6L737.788 888.22C745.231 885.348 753.022 883.142 760.525 880.287Q786.278 870.196 811.637 859.151C835.112 849.081 858.919 838.75 880.793 825.472C884.741 823.076 888.503 820.483 891.767 817.198C898.933 809.988 904.462 800.17 913.64 795.212C921.125 791.168 929.134 788.324 937.098 785.402C954.077 779.172 971.003 773.345 986.034 763.021Z"/>
		<path fill="#9D754D" d="M105.661 503.056C111.279 515.125 117.943 526 126.955 535.876C110.905 548.117 95.6787 560.314 77.4556 569.238Q78.579 568.223 79.6148 567.119C92.5997 553.216 101.474 538.464 100.954 518.992C89.3607 534.277 79.5023 551.64 66.2094 565.511C63.7497 568.078 58.4073 573.955 54.671 574.034L55.4179 573.067Q67.9098 556.595 79.953 539.792C61.2227 557.381 42.6336 570.072 18.326 578.745C32.9095 566.442 49.3954 556.636 63.8495 544.249C78.7976 531.439 91.1115 516.185 105.661 503.056Z"/>
		<path fill="#9D754D" d="M598.891 596.49L599.274 596.872C588.547 612.815 576.189 627.441 565.383 643.259C557.989 654.082 552.275 665.956 544.351 676.438C520.075 708.552 481.113 727.329 445.469 743.688L445.326 743.195C473.436 726.929 512.472 698.133 532.033 671.722C540.865 659.798 547 645.88 556.793 634.66C569.194 620.451 585.49 609.791 598.891 596.49Z"/>
		<path fill="#9D754D" d="M73.86 775.497C81.4503 776.405 89.3321 779.844 96.4668 782.498C117.515 790.327 136.637 800.248 154.843 813.42C165.43 821.08 175.506 829.427 186.203 836.939Q208.912 852.662 233.07 866.054C227.541 865.415 220.88 861.105 215.801 858.614C199.552 850.643 183.651 842.474 168.523 832.499C152.739 822.091 137.921 810.269 121.746 800.444C106.333 791.082 89.9095 783.654 73.86 775.497Z"/>
	</g>
	<g>
		<path fill="#603113" d="M173.504 653.16C172.535 652.311 172.319 651.979 171.036 651.679C170.778 652.652 170.915 652.765 170.085 653.421C169.459 653.347 168.765 653.298 168.161 653.09C167.07 652.713 166.3 652.008 165.767 651.001C167.681 647.364 180.875 649.868 186.278 647.049C186.319 648.909 186.458 649.54 185.55 651.21C182.223 653.676 177.414 651.793 173.504 653.16Z"/>
		<path fill="#603113" d="M342.282 617.454C344.41 620.996 346.086 624.862 349.018 627.816C348.623 628.793 348.336 629.381 347.57 630.111C345.961 629.912 345.548 629.031 344.447 627.884C344.216 624.377 342.994 620.892 342.282 617.454Z"/>
	</g>
</svg>
