<?xml version="1.0" encoding="utf-8" ?>
<svg xmlns="http://www.w3.org/2000/svg" xmlns:xlink="http://www.w3.org/1999/xlink" width="1024" height="1024">
	<path fill="#FEFCDE" d="M346.752 618.788C336.409 610.47 326.895 601.399 317.105 592.458Q298.946 575.984 280.529 559.799C261.634 543.274 243.197 526.301 224.445 509.625C201.324 489.064 177.474 469.303 155.648 447.332C144.751 436.363 134.998 424.293 125.366 412.219C109.346 392.137 86.2794 365.074 83.5938 338.757Q83.3627 336.299 83.3399 333.83Q83.317 331.361 83.5026 328.899Q83.6882 326.437 84.0808 323.999Q84.4734 321.562 85.0703 319.166C88.0812 306.923 92.6861 295.107 97.0166 283.289L110.841 245.042L130.616 190.783C136.222 175.46 141.712 160.015 148.607 145.211C152.271 137.343 156.708 129.701 162.264 123.006Q162.957 122.17 163.677 121.358C183.976 98.4722 218.605 97.0123 246.719 91.4808C262.578 88.3605 278.068 84.5995 293.027 78.3498Q305.01 73.3908 316.332 67.0656C337.899 55.018 361.437 37.6077 386.685 35.5216C402.772 34.1924 418.659 40.7858 430.69 51.2275C436.298 56.0943 440.637 61.7688 444.679 67.945C452.949 64.0855 461.568 61.5059 470.413 59.359C509.463 49.8801 548.683 55.4049 586.027 68.9738C615.297 79.6089 635.969 90.6598 660.08 110.459C675.036 110.457 689.849 110.174 704.653 112.735C735.469 118.064 766.421 137.469 788.35 159.496C798.301 169.491 806.685 181.015 814.189 192.921C826.531 195.573 838.161 198.717 849.245 205.002C874.865 219.529 914.785 265.609 931.319 291.203C943.318 309.777 949.425 329.925 944.708 351.946Q943.729 356.528 942.344 361.003Q940.958 365.479 939.178 369.813Q937.398 374.147 935.238 378.304Q933.077 382.461 930.553 386.408C934.755 403.873 937.598 419.278 927.726 435.513C922.118 444.736 913.704 452.585 904.634 458.345C904.583 458.528 904.529 458.711 904.48 458.895C903.285 463.362 902.914 468.059 902.171 472.619Q900.52 482.385 897.893 491.934C885.607 535.374 858.26 576.678 819.462 600.537C808.271 629.935 796.891 645.359 767.475 658.574C763.055 660.559 758.483 662.335 754.139 664.469C748.433 676.174 741.743 687.856 732.741 697.368C726.231 704.246 713.913 711.123 709.957 719.518C704.788 730.486 701.811 743.208 698.234 754.816Q686.717 792.631 675.59 830.562Q665.361 863.876 654.706 897.056L616.439 1024L598.143 1024L587.67 1024L572.082 1024L510.238 1024L428.804 1024L426.21 1024L303.664 1024L290.86 1024L134.558 1024L120.921 1024L98.111 1024L230.429 809.029L289.177 712.494Q302.25 690.671 315.585 669.007C325.762 652.124 335.786 635.185 346.752 618.788Z"/>
	<path fill="#4D4E5C" d="M346.752 618.788C336.409 610.47 326.895 601.399 317.105 592.458Q298.946 575.984 280.529 559.799C261.634 543.274 243.197 526.301 224.445 509.625C201.324 489.064 177.474 469.303 155.648 447.332C144.751 436.363 134.998 424.293 125.366 412.219C109.346 392.137 86.2794 365.074 83.5938 338.757Q83.3627 336.299 83.3399 333.83Q83.317 331.361 83.5026 328.899Q83.6882 326.437 84.0808 323.999Q84.4734 321.562 85.0703 319.166C88.0812 306.923 92.6861 295.107 97.0166 283.289L110.841 245.042L130.616 190.783C136.222 175.46 141.712 160.015 148.607 145.211C152.271 137.343 156.708 129.701 162.264 123.006Q162.957 122.17 163.677 121.358C183.976 98.4722 218.605 97.0123 246.719 91.4808C262.578 88.3605 278.068 84.5995 293.027 78.3498Q305.01 73.3908 316.332 67.0656C337.899 55.018 361.437 37.6077 386.685 35.5216C402.772 34.1924 418.659 40.7858 430.69 51.2275C436.298 56.0943 440.637 61.7688 444.679 67.945C452.949 64.0855 461.568 61.5059 470.413 59.359C509.463 49.8801 548.683 55.4049 586.027 68.9738C615.297 79.6089 635.969 90.6598 660.08 110.459C675.036 110.457 689.849 110.174 704.653 112.735C735.469 118.064 766.421 137.469 788.35 159.496C798.301 169.491 806.685 181.015 814.189 192.921C826.531 195.573 838.161 198.717 849.245 205.002C874.865 219.529 914.785 265.609 931.319 291.203C943.318 309.777 949.425 329.925 944.708 351.946Q943.729 356.528 942.344 361.003Q940.958 365.479 939.178 369.813Q937.398 374.147 935.238 378.304Q933.077 382.461 930.553 386.408C934.755 403.873 937.598 419.278 927.726 435.513C922.118 444.736 913.704 452.585 904.634 458.345C904.583 458.528 904.529 458.711 904.48 458.895C903.285 463.362 902.914 468.059 902.171 472.619Q900.52 482.385 897.893 491.934C885.607 535.374 858.26 576.678 819.462 600.537C808.271 629.935 796.891 645.359 767.475 658.574C763.055 660.559 758.483 662.335 754.139 664.469C748.433 676.174 741.743 687.856 732.741 697.368C726.231 704.246 713.913 711.123 709.957 719.518C704.788 730.486 701.811 743.208 698.234 754.816Q686.717 792.631 675.59 830.562Q665.361 863.876 654.706 897.056L616.439 1024L598.143 1024L587.67 1024C590.866 1014.61 593.27 1004.78 596.031 995.244L612.592 938.74Q635.758 861.059 660.153 783.753L672.793 743.121C676.994 729.375 680.977 715.761 686.428 702.444C669.825 703.018 648.307 703.929 632.907 697.289C649.148 699.435 668.281 699.196 684.31 695.899C708.467 690.931 719.721 669.889 732.34 650.837C719.56 652.525 703.605 654.782 691.447 649.547C719.752 649.562 753.516 641.102 775.286 622.148C788.18 610.921 793.596 597.015 794.841 580.257C806.195 578.384 815.06 572.706 823.457 565.049C853.793 537.387 875.102 491.53 877.081 450.905C863.981 454.302 850.775 455.63 837.352 453.489C854.76 451.216 872.769 448.382 887.367 437.887C896.446 431.36 904.823 422.303 906.61 410.881C908.107 401.317 905.368 392.364 899.702 384.684C893.991 389.34 888.669 393.068 881.803 395.82C898.054 384.576 911.95 370.174 917.282 350.648C920.989 337.073 919.548 323.906 912.56 311.664C900.144 289.914 861.585 245.412 840.958 231.318C834.51 226.912 827.581 223.973 820.057 221.937C787.854 213.225 702.696 202.429 673.484 219.653C665.146 224.569 659.452 233.595 655.193 242.037C648.973 254.366 644.723 267.698 640.201 280.709C633.708 299.388 627.37 318.15 620.109 336.549Q610.089 361.408 599.368 385.973C595.815 393.963 591.209 401.086 588.999 409.651C593.78 421.252 603.528 430.657 614.186 436.953C634.692 449.067 655.74 450.348 678.467 444.569C678.537 432.028 684.333 421.13 690.372 410.475C705.156 384.388 732.193 349.261 736.625 320.232C738.057 310.849 737.274 302.15 735.521 292.873C741.423 302.424 742.412 311.669 742.478 322.715C750.561 314.761 757.438 307.688 763.412 297.97C762.209 302.064 760.767 305.973 759.156 309.923C778.329 303.859 798.55 299.978 818.127 295.318C828.24 292.91 838.249 290.722 847.944 286.874C848.961 279.759 847.801 273.289 846.373 266.303C850.225 273.02 851.702 280.142 853.337 287.617C858.595 286.632 863.869 286.166 869.213 286.019C846.218 299.203 814.363 304.476 788.598 310.149C778.694 312.33 767.808 313.882 758.736 318.586C753.269 321.421 748.99 325.901 745.651 330.998C737.68 343.17 732.349 356.751 724.987 369.277C715.822 384.869 705.599 399.819 696.653 415.547C693.797 420.569 690.717 425.653 688.396 430.946C686.549 435.158 685.034 439.493 686.106 444.127C688.272 453.489 698.05 461.798 705.79 466.721C723.375 477.906 744.346 482.109 764.759 477.536C778.06 474.557 791.384 467.357 798.725 455.515C813.261 432.067 808.304 393.259 802.302 367.291C808.969 378.885 811.461 392.752 813.587 405.797C813.546 410.031 814.109 414.291 814.516 418.502L815.059 425.892C820.638 424.456 826.04 422.901 831.365 420.658C865.952 406.086 885.206 375.034 898.818 341.781C892.712 370.313 877.555 394.237 856.543 414.161C847.426 420.642 838.597 425.7 827.914 429.106C824.895 429.846 822.086 430.711 818.957 430.413C817.38 430.263 816.341 430.16 814.876 430.903C814.101 431.99 813.841 432.499 813.791 433.84C814.624 435.202 815.263 435.719 816.854 436.058C820.26 436.782 824.378 436.114 827.823 435.761C848.099 433.68 867.902 427.084 886.157 418.102C869.125 431.991 845.468 441.826 823.239 439.458C820.031 439.117 816.798 438.534 813.655 437.809C812.707 441.033 811.872 444.363 810.692 447.507C809.518 450.283 808.215 453.062 807.184 455.892C806.095 457.799 804.961 459.683 804.049 461.683C817.055 474.904 833.484 493.314 853.507 493.874C855.35 493.925 857.136 493.762 858.942 493.41L859.145 493.971C854.648 495.974 849.582 496.478 844.724 495.851C826.633 493.513 813.367 477.269 802.891 463.821L799.167 467.733C795.877 470.822 791.977 473.444 788.905 476.688C767.373 487.345 744.607 491.071 721.421 483.155C716.818 481.584 712.506 479.524 708.185 477.307C729.242 500.402 740.398 521.603 750.386 550.95C753.202 559.224 756.126 567.426 757.72 576.044C751.683 564.422 747.392 551.868 742.399 539.775C735.689 523.526 727.418 507.624 717.375 493.179C712.812 486.616 707.498 480.289 701.653 474.825C693.02 466.755 686.777 462.565 680.407 452.237C657.667 458.694 634.86 457.645 613.964 445.86C610.154 443.711 606.578 441.223 603.045 438.651C614.599 459.867 617.517 483.593 610.475 506.844C610.358 507.23 610.232 507.614 610.101 507.995L609.931 505.249C611.565 473.269 609.697 455.913 590.936 428.738C587.16 423.269 583.496 417.437 579.047 412.494C576.901 410.109 574.771 408.284 572.112 406.488C565.289 406.528 558.482 406.64 551.703 405.726C535.246 403.506 518.492 394.873 506.728 383.214C497.002 373.575 489.494 360.146 489.435 346.162C489.435 345.995 489.437 345.827 489.438 345.66C476.423 352.794 466.367 354.151 451.848 355.678C476.006 367.055 492.317 376.035 510.662 396.235C501.548 390.401 492.874 384.051 483.438 378.707C451.862 360.824 387.952 334.974 351.684 331.605C338.566 330.387 324.56 331.669 311.675 334.496C296.24 337.883 282.749 345.151 268.193 350.823C295.851 331.16 332.222 321.882 365.83 327.52C374.353 328.95 382.633 331.355 390.846 334.003C382.734 327.353 374.545 320.788 367.367 313.106C351.987 296.648 337.368 271.537 335.081 248.884Q334.902 247.083 334.772 245.278C324.233 263.546 320.651 277.384 317.784 297.854C331.977 304.069 350.959 313.12 363.776 321.421C339.064 313.626 315.892 302.204 290.057 298.518C286.344 302.941 282.612 307.247 278.12 310.915C262.68 323.525 240.446 329.295 220.956 331.034C216.179 331.46 211.429 331.602 206.65 331.153C206.844 331.072 207.035 330.987 207.23 330.91C210.18 329.747 222.653 328.67 227.162 327.709C251.362 322.555 276.028 309.734 286.955 286.5C293.188 273.25 294.728 257.019 293.204 242.574C266.079 243.735 242.707 235.848 222.623 217.332C214.813 210.132 207.625 201.874 203.088 192.189C221.784 214.207 245.097 231.98 274.836 234.303C311.212 237.145 347.779 221.573 374.991 198.101C400.994 175.672 422.128 143.505 424.791 108.621C425.711 96.5584 424.173 83.7352 415.981 74.2491C408.829 65.9664 398.596 62.5123 387.951 61.7967C394.456 81.1798 393.06 98.9506 383.902 117.301C374.597 135.945 357.655 154.75 337.383 161.4C328.899 164.183 319.151 164.978 310.985 160.762C303.1 156.692 297.674 148.545 295.226 140.186C291.622 127.877 295.066 115.291 300.136 103.923C287.374 108.402 274.637 112.878 261.428 115.89Q248.056 118.805 234.555 121.053C221.679 123.164 205.905 123.776 194.456 130.591C184.796 136.34 177.832 146.421 173.05 156.357C166.052 170.897 160.968 186.585 155.416 201.733Q142.135 237.658 129.341 273.759L116.835 308.803C114.185 316.059 110.844 323.38 109.152 330.913C108.298 334.714 108.784 336.843 110.074 340.455C114.599 353.122 122.719 365.328 130.523 376.24C165.473 425.112 211.901 464.266 256.862 503.552L323.917 562.156Q342.793 578.805 361.031 596.151C368.213 602.876 375.122 610.257 383.188 615.931C387.796 619.173 392.926 621.556 398.02 623.932Q400.43 625.034 402.866 626.077Q405.301 627.12 407.762 628.103Q410.222 629.087 412.705 630.011Q415.189 630.935 417.694 631.799Q420.199 632.662 422.724 633.465Q425.249 634.267 427.793 635.009Q430.337 635.75 432.898 636.43Q435.459 637.109 438.036 637.727Q440.612 638.344 443.203 638.899Q445.794 639.453 448.398 639.945Q451.001 640.437 453.616 640.866Q456.231 641.295 458.855 641.66Q461.48 642.026 464.112 642.328Q466.745 642.629 469.384 642.867Q472.023 643.105 474.667 643.279Q477.31 643.453 479.958 643.564Q482.605 643.674 485.255 643.719Q487.904 643.765 490.553 643.747Q493.203 643.729 495.851 643.647Q498.5 643.564 501.145 643.418Q503.791 643.271 506.432 643.061Q509.074 642.851 511.709 642.576Q514.345 642.302 516.973 641.964Q519.601 641.626 522.22 641.225Q524.839 640.823 527.448 640.359Q530.056 639.894 532.653 639.366Q535.249 638.839 537.832 638.248Q540.415 637.658 542.983 637.005Q545.551 636.352 548.103 635.638Q550.654 634.923 553.188 634.147Q555.721 633.37 558.235 632.533Q560.749 631.696 563.242 630.798C593.247 619.77 620.276 599.188 633.905 569.717Q635.502 566.187 636.96 562.598C632.088 586.545 617.736 605.618 597.502 618.985C559.035 644.396 484.895 654.534 440.064 645.317C422.92 641.792 406.976 635.634 391.301 627.957C402.346 638.953 414.683 648.6 426.789 658.385C433.573 663.868 440.166 669.663 447.046 675.015C423.791 664.408 395.688 641.633 377.19 624.107C371.666 631.911 366.95 640.325 362.013 648.507L338.592 687.215L258.612 819.6L173.939 959.558C160.908 981.032 146.477 1001.89 134.558 1024L120.921 1024L98.111 1024L230.429 809.029L289.177 712.494Q302.25 690.671 315.585 669.007C325.762 652.124 335.786 635.185 346.752 618.788Z"/>
	<path fill="#FEFCDE" d="M346.752 618.788C336.409 610.47 326.895 601.399 317.105 592.458Q298.946 575.984 280.529 559.799C261.634 543.274 243.197 526.301 224.445 509.625C201.324 489.064 177.474 469.303 155.648 447.332C144.751 436.363 134.998 424.293 125.366 412.219C109.346 392.137 86.2794 365.074 83.5938 338.757Q83.3627 336.299 83.3399 333.83Q83.317 331.361 83.5026 328.899Q83.6882 326.437 84.0808 323.999Q84.4734 321.562 85.0703 319.166C88.0812 306.923 92.6861 295.107 97.0166 283.289L110.841 245.042L130.616 190.783C136.222 175.46 141.712 160.015 148.607 145.211C152.271 137.343 156.708 129.701 162.264 123.006Q162.957 122.17 163.677 121.358C183.976 98.4722 218.605 97.0123 246.719 91.4808C262.578 88.3605 278.068 84.5995 293.027 78.3498Q305.01 73.3908 316.332 67.0656C337.899 55.018 361.437 37.6077 386.685 35.5216C402.772 34.1924 418.659 40.7858 430.69 51.2275C436.298 56.0943 440.637 61.7688 444.679 67.945C452.949 64.0855 461.568 61.5059 470.413 59.359C509.463 49.8801 548.683 55.4049 586.027 68.9738C615.297 79.6089 635.969 90.6598 660.08 110.459C675.036 110.457 689.849 110.174 704.653 112.735C735.469 118.064 766.421 137.469 788.35 159.496C798.301 169.491 806.685 181.015 814.189 192.921C826.531 195.573 838.161 198.717 849.245 205.002C874.865 219.529 914.785 265.609 931.319 291.203C943.318 309.777 949.425 329.925 944.708 351.946Q943.729 356.528 942.344 361.003Q940.958 365.479 939.178 369.813Q937.398 374.147 935.238 378.304Q933.077 382.461 930.553 386.408C934.755 403.873 937.598 419.278 927.726 435.513C922.118 444.736 913.704 452.585 904.634 458.345C904.583 458.528 904.529 458.711 904.48 458.895C903.285 463.362 902.914 468.059 902.171 472.619Q900.52 482.385 897.893 491.934C885.607 535.374 858.26 576.678 819.462 600.537C808.271 629.935 796.891 645.359 767.475 658.574C763.055 660.559 758.483 662.335 754.139 664.469C748.433 676.174 741.743 687.856 732.741 697.368C726.231 704.246 713.913 711.123 709.957 719.518C704.788 730.486 701.811 743.208 698.234 754.816Q686.717 792.631 675.59 830.562Q665.361 863.876 654.706 897.056L616.439 1024L598.143 1024L660.882 815.825L680.329 751.982C685.449 735.062 690.312 718.133 696.413 701.529C720.505 691.448 729.667 669.927 742.364 649.098C752.47 645.556 762.652 641.593 771.743 635.872C790.48 624.08 798.485 608.178 803.168 587.149C814.461 583.777 823.578 577.124 832.013 569.03C864.063 538.277 884.679 492.653 885.544 448.273C896.249 442.482 907.498 434.701 912.739 423.298C918.911 409.869 914.858 396.192 909.936 383.137C918.199 370.858 925.729 357.757 927.384 342.776C930.155 317.712 915.911 299.366 901.063 280.906Q887.873 264.553 873.435 249.292C850.683 224.999 837.014 214.015 802.596 210.308Q799.155 203.117 794.883 196.386Q790.611 189.655 785.569 183.48C765.67 159.289 730.842 134.591 699.566 130.185C684.124 128.009 668.48 129.645 653.06 127.991L652.157 127.889C627.093 105.05 597.664 91.1815 565.344 81.7388C517.884 67.873 478.133 69.091 433.927 93.3224C431.501 85.1264 428.514 76.7426 423.361 69.8355C416.859 61.1215 406.615 54.8299 395.802 53.3589C378.745 51.0387 354.161 67.679 339.37 75.7438C320.165 86.2153 301.218 95.5396 280.202 101.837Q262.093 107.19 243.515 110.577C225.298 114.035 199.912 114.481 185.023 126.068C176.308 132.85 169.9 143.079 165.039 152.832C156.433 170.098 150.36 188.427 143.941 206.576L121.489 269.798C115.823 285.605 101.8 317.31 100.063 332.346C98.6736 344.366 107.133 355.889 113.007 365.723C141.998 414.263 185.281 452.635 227.04 489.976L313.38 566.054L345.124 594.206C353.065 601.263 361.984 608.326 368.495 616.749L368.92 617.303C353.302 640.844 339.2 665.582 324.371 689.64L209.249 879.394L146.669 981.602C138.178 995.572 128.164 1009.38 120.921 1024L98.111 1024L230.429 809.029L289.177 712.494Q302.25 690.671 315.585 669.007C325.762 652.124 335.786 635.185 346.752 618.788Z"/>
	<path fill="#FEFCDE" d="M434.56 101.659C462.413 88.9924 495.91 73.8344 526.576 85.2744C545.241 92.2372 559.537 105.959 567.724 124.068C571.79 133.063 573.571 142.843 575.416 152.48Q556.643 202.431 535.191 251.292C524.842 275.21 514.879 300.123 499.7 321.477C493.39 330.355 486.319 338.43 476.23 342.98C459.073 350.718 438.679 347.856 421.677 341.276Q420.191 340.689 418.719 340.065Q417.248 339.442 415.792 338.782Q414.336 338.123 412.897 337.428Q411.458 336.732 410.037 336.002Q408.615 335.272 407.212 334.506Q405.809 333.741 404.426 332.942Q403.042 332.142 401.678 331.309Q400.315 330.475 398.972 329.609Q397.629 328.742 396.308 327.842Q394.987 326.943 393.689 326.011Q392.391 325.079 391.116 324.116Q389.841 323.152 388.59 322.158Q387.339 321.163 386.113 320.138Q384.887 319.113 383.686 318.058Q382.486 317.003 381.312 315.919Q380.138 314.835 378.991 313.722Q377.843 312.609 376.724 311.469Q375.605 310.328 374.514 309.16Q373.423 307.992 372.361 306.798Q371.3 305.603 370.268 304.383Q369.236 303.163 368.234 301.917Q367.232 300.672 366.262 299.403Q365.291 298.133 364.352 296.84Q363.413 295.547 362.506 294.231Q361.599 292.915 360.725 291.578Q359.85 290.24 359.009 288.881Q358.168 287.522 357.361 286.143Q356.553 284.764 355.78 283.365Q355.007 281.966 354.269 280.549Q353.53 279.132 352.827 277.697Q352.123 276.262 351.456 274.81Q350.788 273.358 350.156 271.89C344.133 258.145 340.739 243.608 343.254 228.625Q348.127 225.978 352.851 223.074Q357.576 220.17 362.138 217.018Q366.7 213.866 371.088 210.474Q375.475 207.083 379.675 203.461Q383.875 199.84 387.875 195.999Q391.875 192.159 395.664 188.11Q399.453 184.061 403.021 179.815Q406.588 175.569 409.923 171.139C411.872 167.548 414.113 164.137 416.319 160.701C417.194 162.503 418.163 164.254 419.119 166.015C420.064 167.403 420.728 168.02 420.833 169.719C418.526 174.891 415.115 179.385 412.435 184.35C406.295 195.723 401.28 209.283 399.193 222.122C383.277 231.299 366.914 243.023 361.789 261.678C358.996 271.843 360.655 279.928 364.355 289.541C362.135 275.525 364.069 263.844 372.492 252.227C379.27 242.879 388.456 235.172 397.971 228.747C391.598 252.432 392.362 289.998 402.971 312.946C393.208 269.59 402.984 210.996 426.788 173.44C440.735 151.435 460.332 135.434 482.53 122.342Q479.434 123.321 476.404 124.49Q473.375 125.659 470.424 127.014Q467.473 128.369 464.612 129.905Q461.751 131.44 458.992 133.151Q456.232 134.862 453.583 136.741Q450.935 138.62 448.409 140.66Q445.882 142.699 443.488 144.892Q441.093 147.085 438.839 149.423C434.097 154.304 429.804 159.616 425.144 164.58C424.075 161.24 422.9 157.895 422.093 154.483C427.524 136.794 432.395 120.101 434.56 101.659Z"/>
	<path fill="#F3B392" d="M416.319 160.701C417.194 162.503 418.163 164.254 419.119 166.015C416.001 173.031 411.6 179.28 408.079 186.078C402.544 196.765 399.407 207.35 396.16 218.845C372.841 232.246 362.99 240.664 354.031 266.5C351.469 256.053 346.358 238.972 352.596 229.066C357.678 220.996 372.403 214.305 379.98 207.951C389.756 199.752 398.389 189.778 405.85 179.454C407.104 177.718 410.707 173.862 410.11 171.615C410.066 171.451 409.986 171.298 409.923 171.139C411.872 167.548 414.113 164.137 416.319 160.701Z"/>
	<path fill="#F3B392" d="M468.408 139.024L468.598 139.182C468.375 140.973 459.094 152.234 457.554 154.496C434.492 188.377 415.888 235.854 417.058 277.406C417.253 284.307 418.385 291.016 419.662 297.778L416.4 291.356C409.892 275.121 408.402 258.278 410.499 240.972C415.524 199.505 435.574 164.694 468.408 139.024Z"/>
	<path fill="#4D4E5C" d="M423.317 289.411C427.454 293.008 430.717 297.855 434.712 301.69C444.673 311.253 458.215 318.636 471.785 321.362C476.214 322.252 480.745 322.331 485.153 323.238C485.808 323.373 485.497 323.223 485.982 323.965C485.77 324.035 485.562 324.116 485.347 324.176C473.634 327.482 457.621 322.558 447.422 316.774C437.385 311.081 426.495 300.87 423.317 289.411Z"/>
	<path fill="#4D4E5C" d="M419.368 305.85C422.113 307.665 424.301 310.555 426.511 312.963C432.395 319.372 438.639 324.613 446.623 328.263C451.296 330.399 456.81 331.633 461.857 332.489C465.474 333.103 473.861 333.089 476.576 334.745C466.113 336.051 455.801 334.987 446 330.923C434.469 326.142 424.246 317.519 419.368 305.85Z"/>
	<path fill="#4D4E5C" d="M535.784 97.1409C536.9 97.836 537.888 98.6686 538.71 99.7025C545.569 108.327 544.559 121.517 543.31 131.732L542.915 131.815L542.225 131.313C539.464 120.036 536.988 108.702 535.784 97.1409Z"/>
	<path fill="#4D4E5C" d="M547.869 106.527C550.136 107.47 551.994 109.372 553.267 111.438C558.051 119.197 556.362 129.067 554.459 137.403L553.71 138.65L553.148 138.367C552.253 134.495 552.644 130.295 552.279 126.332C551.654 119.559 549.795 113.02 547.869 106.527Z"/>
	<path fill="#4D4E5C" d="M511.787 92.8435Q513.253 93.651 514.525 94.7399C524.039 102.979 524.268 118.044 524.825 129.602C521.597 126.042 520.161 112.482 518.703 107.34C517.262 102.257 514.254 97.4901 511.787 92.8435Z"/>
	<path fill="#4D4E5C" d="M524.843 94.7535C527.063 95.7607 528.614 97.4164 529.943 99.4336C534.505 106.357 533.816 115.138 532.124 122.815L531.931 123.121C531.208 122.755 531.241 121.874 531.106 121.099C530.557 117.95 530.636 114.698 530.151 111.529C529.264 105.744 526.882 100.209 524.843 94.7535Z"/>
	<path fill="#F3B392" d="M438.865 142.032L439.205 142.359C437.534 146.764 428.884 152.079 425.509 161.271L424.692 160.373C424.336 158.865 424.144 157.579 424.54 156.05C426.188 149.69 433.612 145.194 438.865 142.032Z"/>
	<path fill="#FEFCDE" d="M620.837 136.717C629.484 135.863 638.555 136.867 647.257 136.965C666.743 137.185 690.363 134.97 709.002 141.084C742.357 152.027 776.068 177.371 791.919 208.877C765.331 202.22 712.836 199.279 686.29 205.625C682.55 194.127 677.519 186.029 669.803 176.847C675.574 186.81 679.323 195.52 681.097 206.992Q677.672 208.324 674.347 209.889C650.292 221.365 641.712 251.505 633.795 274.829Q628.279 291.198 622.487 307.472C611.802 337.195 600.075 368.658 584.748 396.25C558.73 398.833 537.187 397.996 515.948 380.727C506.326 372.903 498.268 361.391 497.181 348.74C496.02 335.214 504.638 328.975 511.302 318.897C515.019 313.275 518.236 306.937 521.28 300.923C534.79 274.224 546.69 246.235 558.279 218.634Q564.729 202.883 570.835 186.995C575.774 174.041 579.413 158.382 588.684 147.767C596.494 138.824 609.776 137.585 620.837 136.717Z"/>
	<path fill="#F3B392" d="M502.983 342.321C506.745 345.344 509.29 350.914 512.199 354.785C515.373 359.01 520.034 362.441 524.222 365.593C545.465 381.584 564.451 381.257 589.43 384.67L585.928 390.282C585.644 390.736 585.429 391.13 585.039 391.519C583.493 393.06 580.404 393.235 578.335 393.345C557.461 394.457 534.976 388.005 519.318 373.914C509.708 365.266 503.691 355.361 502.983 342.321Z"/>
	<path fill="#4D4E5C" d="M511.29 341.938C515.484 344.672 519.161 348.653 523.23 351.662Q525.742 353.502 528.36 355.186Q530.979 356.871 533.694 358.395Q536.409 359.919 539.211 361.276Q542.014 362.634 544.893 363.82Q547.771 365.005 550.717 366.016Q553.662 367.026 556.663 367.856Q559.663 368.687 562.709 369.335Q565.754 369.984 568.833 370.447C573.363 371.117 588.711 370.867 590.442 371.448L589.9 372.063Q587.8 372.536 585.677 372.892Q583.554 373.248 581.414 373.485Q579.275 373.723 577.125 373.841Q574.976 373.959 572.823 373.957Q570.671 373.956 568.521 373.835Q566.372 373.714 564.233 373.473Q562.094 373.233 559.971 372.874Q557.848 372.515 555.749 372.039C537.994 368.051 521.148 357.423 511.29 341.938Z"/>
	<path fill="#4D4E5C" d="M610.086 142.717C616.241 142.184 622.67 142.867 628.448 145.116Q629.22 145.415 629.976 145.752Q630.732 146.089 631.47 146.463Q632.209 146.837 632.928 147.247Q633.647 147.656 634.346 148.101Q635.044 148.546 635.719 149.024Q636.395 149.503 637.046 150.014Q637.697 150.525 638.322 151.068Q638.947 151.61 639.544 152.183Q640.142 152.756 640.71 153.358Q641.279 153.959 641.817 154.588Q642.355 155.217 642.862 155.871Q643.369 156.526 643.842 157.205Q644.316 157.884 644.756 158.585Q645.196 159.286 645.6 160.008Q646.005 160.73 646.374 161.471Q646.742 162.213 647.074 162.971C649.393 168.27 651.401 175.64 649.274 181.211C647.67 178.367 646.777 174.575 645.565 171.509C641.554 161.354 635.064 150.858 624.457 146.662C620.067 144.926 612.911 145.15 609.897 143.531L610.086 142.717Z"/>
	<path fill="#4D4E5C" d="M615.937 156.357C616.086 156.364 616.235 156.363 616.383 156.377C621.812 156.887 626.878 160.345 630.258 164.47C635.372 170.712 636.647 177.36 635.798 185.161C632.299 182.581 631.297 173.865 628.81 169.94C625.52 164.747 620.388 160.529 615.937 156.357Z"/>
	<path fill="#4D4E5C" d="M593.5 146.534C598.15 146.755 602.685 148.873 606.201 151.85C613.963 158.424 617.196 167.846 617.94 177.702C616.119 176.211 615.06 173.718 614.152 171.583C609.135 159.784 605.667 152.406 593.5 146.534Z"/>
	<path fill="#FEFCDE" d="M371.534 68.3879C372.065 68.5049 372.612 68.591 373.094 68.8674C374.642 69.7538 375.359 71.8292 375.919 73.3938C379.868 84.4413 375.657 97.1847 370.784 107.248C363.463 122.366 348.988 142.454 332.275 147.992C327.078 149.715 322.721 149.463 317.823 147.104C315.283 145.01 313.324 142.729 311.795 139.796C306.838 130.288 307.958 118.502 311.099 108.616C312.338 104.717 314.019 100.24 317.163 97.4861C322.992 92.3798 332.091 89.3176 339 85.7159L371.534 68.3879Z"/>
	<path fill="#FEFCDE" d="M550.409 87.0846C575.338 91.1818 620.111 111.79 638.745 128.456L625.625 128.475C608.4 128.517 595.963 131.62 582.255 142.242C578.361 118.005 568.498 103.193 550.409 87.0846Z"/>
	<path fill="#FEFCDE" d="M334.405 232.528L334.692 232.728C335.518 235.108 332.31 239.098 330.898 241.074C318.778 258.035 313.527 275.15 309.147 295.178C305.187 293.684 301.316 292.655 297.121 292.103C296.238 291.94 295.957 291.768 295.226 291.291C295.145 290.873 294.929 290.458 294.984 290.035C295.231 288.133 296.665 285.799 297.322 283.917Q299.614 277.37 300.666 270.513C302.145 260.843 301.648 251.411 299.702 241.857C311.715 240.28 323.074 236.657 334.405 232.528Z"/>
	<path fill="#F3B392" d="M321.653 239.981L323.001 240.295L323.404 241.443C322.799 245.514 318.065 253.28 316.149 257.486C312.088 266.4 309.323 276.09 305.024 284.797C303.994 286.884 302.79 288.359 301.122 289.97C300.604 289.576 302.026 285.406 302.293 284.48C305.914 271.914 307.603 259.303 304.238 246.509C309.725 243.732 315.842 241.956 321.653 239.981Z"/>
	<path fill="#FEFCDE" d="M380.504 64.3974C381.776 64.967 382.482 65.967 383.117 67.177C388.199 76.8649 386.524 90.3571 383.564 100.415Q383.252 101.444 382.915 102.466Q382.578 103.487 382.216 104.5Q381.854 105.513 381.468 106.517Q381.081 107.521 380.671 108.515Q380.26 109.509 379.825 110.493Q379.39 111.477 378.932 112.45Q378.473 113.423 377.991 114.385Q377.509 115.346 377.003 116.296Q376.498 117.245 375.969 118.182Q375.441 119.119 374.89 120.043Q374.339 120.966 373.765 121.876Q373.192 122.787 372.596 123.682Q372.001 124.578 371.384 125.459Q370.767 126.34 370.128 127.206Q369.49 128.072 368.831 128.922Q368.171 129.772 367.491 130.605Q366.812 131.439 366.112 132.256Q365.412 133.072 364.692 133.872Q363.973 134.672 363.234 135.453Q362.495 136.235 361.737 136.999Q360.98 137.762 360.204 138.507Q359.428 139.252 358.634 139.978Q357.84 140.703 357.028 141.41Q356.217 142.116 355.389 142.802Q354.56 143.488 353.715 144.154Q352.871 144.82 352.01 145.465Q351.149 146.11 350.273 146.734Q349.397 147.358 348.505 147.96Q347.614 148.562 346.709 149.143Q345.803 149.723 344.884 150.282Q343.964 150.84 343.031 151.376Q342.099 151.911 341.153 152.424C333.763 156.37 324.691 159.391 316.376 156.634C309.818 154.46 305.215 149.033 302.303 142.976C296.638 131.194 299.412 119.689 303.469 107.943C304.275 106.099 305.562 102.678 307.368 101.633C307.497 101.558 307.644 101.521 307.782 101.466L307.84 101.112L308.499 101.401C305.807 111.907 303.037 122.079 305.188 132.969C306.456 139.395 309.432 146.453 315.158 150.077C319.976 153.126 325.954 153.419 331.367 152.002C347.881 147.68 362.73 128.126 370.719 114.099C376.494 103.96 382.217 90.5684 380.339 78.6024C379.729 74.714 378.006 70.6768 376.955 66.8512C377.77 65.5904 379.202 65.096 380.504 64.3974Z"/>
	<path fill="#FEFCDE" d="M575.347 404.491L582.54 404.501C582.689 406.98 582.722 409.467 582.786 411.949C579.882 410.962 577.247 406.801 575.347 404.491Z"/>
	<path fill="#F3B392" d="M668 711.321Q672.018 710.265 675.958 708.945C672.537 730.339 662.722 750.361 654.585 770.271C650.629 779.952 647.131 789.85 643.468 799.648C640.167 808.478 636.642 817.235 633.646 826.175C627.478 844.581 622.037 863.208 616.255 881.736Q604.367 919.009 592.958 956.43C586.16 978.892 579.908 1001.89 572.082 1024L510.238 1024C536.738 976.685 561.197 928.503 585.833 880.222C589.054 873.911 592.708 867.824 595.951 861.522Q613.242 827.505 629.422 792.945C641.478 766.736 650.736 739.457 662.574 713.186C664.568 712.741 666.216 712.336 668 711.321Z"/>
	<path fill="#4D4E5C" d="M468.877 664.998C481.387 669.089 493.022 675.159 505.208 680.043C517.942 685.146 530.987 689.653 543.903 694.277C576.156 705.822 610.264 716.348 644.95 714.37C652.706 713.928 660.355 712.642 668 711.321C666.216 712.336 664.568 712.741 662.574 713.186C622.265 721.64 581.434 712.183 542.976 699.966C526.163 694.625 509.75 688.811 493.467 682.013C508.971 698.767 524.34 715.805 541.642 730.744C558.055 744.915 575.953 757.143 593.092 770.391C561.524 757.033 529.967 728.827 505.143 705.491C503.162 715.415 501.48 725.476 499.108 735.312C485.592 791.358 464.274 848.035 443.338 901.711Q434.608 924.469 424.992 946.868C422.226 953.463 419.881 960.399 416.637 966.761C420.221 952.426 426.159 938.566 431.075 924.644Q442.871 891.016 454.085 857.189C457.89 845.818 462.745 833.878 464.956 822.1C466.845 812.044 463.11 801.391 464.542 791.118L464.647 790.394C467.744 796.352 469.021 802.186 469.843 808.814C474.675 792.356 472.293 786.335 470.713 769.943C473.769 775.429 475.392 780.602 476.871 786.699C479.111 781.927 480.747 776.938 482.141 771.863C479.912 764.735 478.826 757.256 478.303 749.823C481.06 754.513 482.939 759.373 484.668 764.519C492.725 745.17 498.477 724.318 504.32 704.191Q497.262 696.704 490.826 688.675C483.961 680.088 478.116 671.264 468.877 664.998Z"/>
	<path fill="#4D4E5C" d="M290.86 1024C299.779 1003.54 309.267 983.359 318.44 963.017Q371.29 848.251 422.112 732.573L422.512 732.759C421.764 737.226 419.137 741.974 417.557 746.247C411.257 763.289 404.413 780.104 397.679 796.977Q351.882 910.99 303.664 1024L290.86 1024Z"/>
	<path fill="#F3B392" d="M799.167 467.733L802.891 463.821C813.367 477.269 826.633 493.513 844.724 495.851C849.582 496.478 854.648 495.974 859.145 493.971L858.942 493.41C861.364 492.802 863.556 491.707 865.813 490.663C858.903 509.02 847.301 527.364 834.597 542.257C818.187 527.151 816.451 500.125 801.468 486.56C795.957 481.571 790.599 481.246 783.561 481.54C785.696 480.263 788.178 479.166 788.905 476.688C791.977 473.444 795.877 470.822 799.167 467.733Z"/>
	<path fill="#FEFCDE" d="M799.167 467.733L802.891 463.821C813.367 477.269 826.633 493.513 844.724 495.851C849.582 496.478 854.648 495.974 859.145 493.971C860.291 494.332 860.375 494.354 861.1 495.305C860.997 495.779 860.993 495.943 860.705 496.413C858.817 499.484 854.341 501.842 850.94 502.634C846.24 503.728 842.033 502.825 837.598 501.274C816.252 493.804 814.288 477.357 799.695 468.062C799.52 467.951 799.343 467.843 799.167 467.733Z"/>
	<path fill="#4D4E5C" d="M426.21 1024C431.436 1007.01 438.494 990.343 444.804 973.722L475.98 890.998C489.026 856.281 501.329 821.258 515.367 786.923C521.478 771.975 527.365 755.684 536.209 742.096Q531.671 760.106 525.491 777.62Q495.297 863.726 460.929 948.252L442.112 995.708C439.138 1003.22 436.637 1011.31 433.01 1018.5C431.879 1020.75 430.706 1022.36 428.804 1024L426.21 1024Z"/>
	<path fill="#F3B392" d="M807.184 455.892C808.215 453.062 809.518 450.283 810.692 447.507C827.822 459.117 842.132 462.926 862.636 458.992L871.935 457.146C870.624 466.221 868.92 475.279 867.844 484.379C861.58 488.191 855.49 490.431 848.06 488.715C831.549 484.903 817.68 468.279 807.184 455.892Z"/>
	<path fill="#F3B392" d="M856.543 414.161C856.697 414.123 856.853 414.087 857.007 414.047C860.337 413.184 863.418 411.6 866.618 410.362C876.692 406.465 883.703 404.142 892.739 398.05C894.286 397.007 896.252 395.982 897.293 394.416C897.055 393.116 896.573 392.17 897.223 390.98C898.517 391.314 898.914 391.905 899.566 393.067C902.635 398.532 903.008 404.064 901.019 409.972C896.606 423.079 884.526 433.344 872.417 439.212C858.844 445.79 844.38 448.651 829.366 449.125C824.509 449.279 819.424 449.453 814.724 447.99C813.649 447.655 812.97 447.412 812.319 446.461C815.213 445.219 824.744 445.373 828.428 444.845C851.523 441.531 884.251 433.666 893.852 409.612L894.04 409.132C882.904 415.471 841.274 433.084 829.684 429.899C829.03 429.719 828.493 429.452 827.914 429.106C838.597 425.7 847.426 420.642 856.543 414.161Z"/>
	<path fill="#F3B392" d="M547.809 408.055C556.941 411.402 566.851 411.547 575.031 417.373C593.166 430.289 603.374 458.069 605.849 479.36C606.704 486.719 605.753 494.428 607.144 501.688C607.56 503.862 608.255 504.128 609.931 505.249L610.101 507.995C609.589 509.997 608.65 511.893 607.827 513.785C601.476 502.899 600.511 488.856 596.274 477.032C589.908 459.263 578.2 441.269 565.678 427.243C560.057 420.947 553.679 415.271 548.35 408.726L547.809 408.055Z"/>
	<path fill="#F3B392" d="M813.587 405.797C830.01 401.238 844.696 394.537 858.221 384.031C861.832 381.227 866.436 375.769 870.222 373.94C870.913 374.38 871.007 374.206 871.104 374.918C871.771 379.79 864.227 388.707 861.231 392.046C852.28 402.023 840.322 409.597 827.763 414.161C823.436 415.734 818.73 416.717 814.516 418.502C814.109 414.291 813.546 410.031 813.587 405.797Z"/>
	<path fill="#F3B392" d="M615.126 453.936C635.894 462.912 657.182 462.552 679.133 459.282C684.692 465.842 690.648 472.061 696.195 478.638C708.243 492.927 719.652 508.59 728.778 524.926C738.65 542.597 748.358 568.612 755.876 587.873C759.614 588.488 763.491 588.696 767.264 589.041C764.317 569.749 750.98 528.208 740.941 511.772C735.576 502.989 728.598 495.263 722.549 486.952C746.188 492.657 765.419 494.942 788 483.866C793.26 491.599 795.849 499.893 798.594 508.731C803.993 526.113 810.983 540.855 826.412 551.427C816.825 560.944 804.539 568.452 793.522 576.217C783.95 563.42 770.074 522.705 761.001 515.402L760.375 515.656L759.758 516.837C758.342 511.333 756.079 508.217 752.083 504.327C756.939 525.766 764.275 558.295 777.267 576.078C780.867 581.006 785.042 584.774 790.135 588.093C788.301 591.79 786.373 595.376 784.074 598.808C763.536 629.476 729.149 637.325 695.234 643.972C706.445 635.365 716.631 624.698 723.51 612.291C734.577 592.333 735.311 569.986 728.962 548.37C723.293 529.069 718.634 526.549 706.522 512.086C691.738 494.432 683.583 484.155 662.507 472.764C670.091 479.484 675.316 486.591 679.147 496.017C688.215 518.327 685.935 543.14 676.597 565.009C664.187 594.071 642.695 607.942 614.276 619.383C616.039 617.711 617.844 616.082 619.579 614.379C640.874 593.473 647.189 562.735 647.51 533.903L647.15 534.243Q645.148 536.101 643.113 537.922Q641.078 539.743 639.011 541.528Q636.943 543.312 634.844 545.059Q632.745 546.806 630.615 548.515Q628.485 550.224 626.324 551.895Q624.163 553.565 621.973 555.196Q619.783 556.827 617.563 558.419Q615.344 560.01 613.096 561.562Q610.849 563.113 608.573 564.624Q606.298 566.135 603.996 567.604Q601.694 569.073 599.366 570.501Q597.038 571.929 594.685 573.315Q592.332 574.701 589.954 576.044Q587.576 577.387 585.174 578.687Q582.773 579.987 580.348 581.244Q577.923 582.501 575.476 583.714Q573.029 584.927 570.561 586.095Q568.093 587.264 565.604 588.388Q563.115 589.512 560.606 590.591Q558.097 591.671 555.57 592.705Q553.042 593.738 550.496 594.727Q547.95 595.715 545.387 596.657Q542.823 597.599 540.243 598.495Q537.664 599.391 535.068 600.241Q532.472 601.09 529.862 601.893Q527.252 602.695 524.627 603.451Q522.003 604.206 519.365 604.915Q516.728 605.623 514.078 606.283Q511.428 606.944 508.766 607.557Q506.105 608.17 503.433 608.734Q500.761 609.299 498.079 609.816Q495.398 610.333 492.707 610.801C484.813 612.141 476.973 614.596 468.909 614.375C470.176 613.048 473.706 613.289 475.546 613.018C514.321 607.303 556.797 584.906 587.75 561.509C594.862 556.133 602.878 550.458 608.048 543.09C610.403 539.734 611.664 535.642 612.509 531.666C614.072 524.31 614.015 516.554 614.822 509.08C616.015 498.033 618.139 487.175 617.975 476.005C617.865 468.584 616.421 461.221 615.126 453.936Z"/>
	<path fill="#F3B392" d="M350.524 343.237C358.183 342.302 367.08 343.607 374.74 344.6C413.309 349.596 438.93 361.224 473.282 378.424C499.341 391.472 528.596 406.803 548.229 428.812C557.08 438.735 564.244 450.143 571.107 461.489C580.308 476.701 588.478 492.818 594.113 509.708C590.708 507.524 585.478 500.123 582.256 496.851Q565.841 480.061 548.52 464.207C536.179 452.9 523.829 441.481 510.797 430.968C474.176 401.426 423.59 369.117 379.963 352.208C370.506 348.543 360.939 346.549 351.36 343.507L350.524 343.237Z"/>
	<path fill="#F3B392" d="M714.113 537.33C714.228 537.424 714.361 537.499 714.457 537.612C716.034 539.475 717.589 565.806 717.584 569.85Q717.603 576.825 716.63 583.732C711.592 619.695 693.823 635.229 666.528 655.805C670.154 654.994 682.08 652.975 685.1 654.135C682.758 656.214 675.445 656.248 672.296 656.682C648.362 659.981 624.865 661.893 600.694 662.218C592.058 662.218 583.433 662.382 574.794 662.298C609.268 654.685 662.774 633.509 688.587 609C708.505 590.089 713.442 563.676 714.113 537.33Z"/>
	<path fill="#F3B392" d="M409.393 100.196C409.517 100.363 409.66 100.516 409.764 100.695C412.616 105.605 410.053 120.02 408.841 125.53C402.196 155.762 372.595 187.441 346.842 203.842C317.916 222.262 285.872 226.639 252.621 219.341L247.733 217.724C272.39 219.937 296.514 214.33 318.513 203.215C349.102 187.761 378.778 162.761 395.755 132.752C401.621 122.381 405.703 111.481 409.393 100.196Z"/>
	<path fill="#F3B392" d="M276.144 246.631C280.46 246.315 284.653 246.379 288.975 246.571C289.284 264.474 285.435 280.73 273.118 294.289C256.554 312.523 231.9 315.649 208.63 316.807C204.095 317.067 199.518 316.345 195.058 315.606C207.122 312.626 218.721 310.368 230.145 305.114C244.976 298.293 257.597 287.196 265.03 272.55C268.685 265.347 270.411 254.134 273.789 248.593C274.381 247.623 275.176 247.174 276.144 246.631Z"/>
	<path fill="#F3B392" d="M289.745 303.485C295.588 304.711 301.575 305.188 307.416 306.462C321.261 309.483 334.462 314.74 347.38 320.461C331.111 320.776 315.136 322.396 299.035 324.682C281.739 327.13 264.976 331.114 247.453 332.032C267.419 325.709 276.221 319.069 289.745 303.485Z"/>
	<path fill="#F3B392" d="M798.826 389.457C800.071 411.494 802.259 439.192 786.318 456.855C776.647 467.571 761.931 470.777 748.114 471.915L748.294 471.264L746.199 470.559C748.859 465.535 756.954 463.597 761.631 460.538C785.475 444.946 791.709 415 798.826 389.457Z"/>
	<path fill="#4D4E5C" d="M635.164 548.489L635.26 548.975C631.746 558.865 611.704 575.957 602.824 581.849C563.584 607.89 505.737 623.055 458.808 622.013C446.013 621.729 433.695 619.953 421.173 617.416C420.1 617.204 419.269 616.977 418.294 616.479C423.302 616.018 429.232 617.69 434.306 618.11C441.881 618.736 449.578 618.771 457.175 618.652C520.604 617.659 590.342 594.72 635.164 548.489Z"/>
	<path fill="#4D4E5C" d="M396.871 422.877C400.102 424.281 411.554 437.794 415.317 441.195Q426.98 451.893 439.503 461.572Q452.025 471.25 465.318 479.84Q475.237 486.313 485.509 492.21Q495.782 498.107 506.374 503.408Q516.966 508.709 527.843 513.397Q538.72 518.085 549.847 522.145C555.575 524.199 561.307 526.163 567.181 527.76C572.449 529.192 578.479 530.27 583.476 532.41C583.763 532.533 584.047 532.663 584.333 532.789C581.98 532.967 579.471 532.724 577.133 532.422C525.787 525.788 460.256 487.93 423.096 452.701C413.38 443.49 405.025 433.475 396.871 422.877Z"/>
	<path fill="#F3B392" d="M720.08 654.169C721.527 653.98 722.299 654.067 723.493 654.852L723.573 656.023C721.881 660.119 718.068 663.863 715.061 667.032C696.613 686.474 673.749 690.958 647.875 691.582C646.539 691.727 645.194 691.727 643.852 691.756Q652.506 688.674 660.837 684.801Q669.167 680.928 677.102 676.298C690.747 668.389 704.04 656.461 720.08 654.169Z"/>
	<path fill="#F3B392" d="M334.088 257.247C334.491 257.618 334.634 257.697 334.911 258.257C336.118 260.695 336.375 265.161 337.032 267.895C338.236 272.906 339.942 278.005 342.041 282.709C348.155 296.412 358.191 306.192 366.631 318.197C364.013 316.327 361.432 314.589 358.608 313.041C346.604 307.618 334.433 302.348 323.477 294.959C323.745 281.615 328.163 269.062 334.088 257.247Z"/>
	<path fill="#4D4E5C" d="M678.639 487.769C679.144 487.918 679.142 487.896 679.693 488.187C685.844 491.434 691.207 504.737 693.372 510.968C700.076 530.269 696.296 552.996 687.531 571.025C673.655 599.57 647.371 616.162 618.321 626.307C617.668 626.467 616.878 626.548 616.21 626.655C617.283 624.875 629.487 620.934 632.214 619.666C634.432 618.635 636.576 617.388 638.673 616.134C663.275 601.42 682.949 577.926 689.98 549.811C695.939 525.981 690.995 508.344 678.639 487.769Z"/>
	<path fill="#4D4E5C" d="M518.645 395.095C528.037 397.359 536.741 405.38 543.619 411.746C573.127 439.056 602.469 485.344 604.021 526.393C600.608 519.507 600.16 510.951 597.741 503.627C591.367 484.333 581.215 465.387 569.462 448.854Q563.191 440.047 556.195 431.803Q549.2 423.559 541.531 415.938C538.946 413.351 536.345 410.735 533.552 408.374C529.909 405.293 520.436 399.348 518.645 395.095Z"/>
	<path fill="#4D4E5C" d="M518.604 660.18C531.154 660.221 545.444 664.324 558.149 665.816Q570.191 667.288 582.302 668.007Q594.412 668.726 606.544 668.689Q618.675 668.651 630.781 667.859Q642.887 667.066 654.92 665.52C661.231 664.673 675.333 661.129 680.71 661.719L679.886 661.883L680.587 661.946L677.803 663.149C668.967 666.257 659.749 668.059 650.536 669.634C614.809 675.742 579.385 674.096 543.98 666.733C535.557 664.982 526.664 663.235 518.604 660.18Z"/>
	<path fill="#F3B392" d="M597.158 413.719Q605.315 420.413 614.396 425.787C632.736 436.725 652.001 440.191 672.846 434.988C671.421 436.347 669.889 437.603 668.395 438.886C667.311 439.595 666.168 440.188 665.002 440.749C653.495 446.282 638.027 443.908 626.491 439.722C612.599 434.681 603.485 427.166 597.158 413.719Z"/>
	<path fill="#4D4E5C" d="M433.502 472.885C441.063 475.633 451.471 485.073 458.467 490.005C463.621 493.637 469.022 496.997 474.394 500.295C489.356 509.479 505.309 518.262 521.724 524.567C528.556 527.191 535.701 528.861 542.513 531.434L543.4 531.774C543.196 531.793 542.993 531.82 542.789 531.832C536.167 532.223 528.954 530.328 522.628 528.588C487.835 519.014 460.072 496.258 433.502 472.885Z"/>
	<path fill="#4D4E5C" d="M267.34 243.387C267.829 243.886 267.911 244.233 267.975 244.961C269.003 256.624 259.422 271.789 251.821 279.867C233.633 299.193 207.844 306.12 182.127 306.984L181.735 306.557C183.952 305.052 190.835 305.012 193.891 304.271C204.444 301.709 215.042 298.448 224.758 293.542C246.38 282.622 259.779 266.217 267.34 243.387Z"/>
	<path fill="#4D4E5C" d="M298.698 358.394C298.884 360.382 286.859 393.974 285.447 398.656C280.162 416.177 276.897 433.305 273.789 451.296C271.999 461.662 270.07 471.898 269.216 482.4C269.011 481.991 268.872 481.763 268.741 481.344C267.531 477.459 268.462 471.145 268.605 466.992C269.561 439.166 276.069 412.806 285.846 386.816C289.533 377.014 293.408 367.466 298.698 358.394Z"/>
	<path fill="#F3B392" d="M908.927 317.368C913.143 321.917 914.041 330.979 914.039 336.927C914.032 352.984 905.334 366.175 894.359 377.193C893.466 377.894 893.204 378.474 892.034 378.39C891.246 374.751 904.423 347.463 906.298 340.651C908.405 333.001 908.927 325.268 908.927 317.368Z"/>
	<path fill="#4D4E5C" d="M715.19 525.291C715.457 525.499 715.749 525.677 715.99 525.914C718.207 528.081 720.032 532.704 721.147 535.553Q722.304 538.459 723.275 541.433Q724.246 544.407 725.026 547.436Q725.806 550.465 726.392 553.538Q726.979 556.611 727.369 559.714Q727.759 562.818 727.952 565.94Q728.145 569.063 728.139 572.191Q728.133 575.319 727.929 578.44Q727.725 581.562 727.323 584.664C724.275 607.339 712.745 625.993 694.748 639.853L693.706 640.573L693.408 640.289C695.423 636.837 699.594 633.612 702.383 630.662C708.417 624.282 713.013 616.32 716.464 608.288C728.123 581.149 726.067 552.303 715.19 525.291Z"/>
	<path fill="#4D4E5C" d="M399.75 592.975C405.474 592.767 412.413 595.849 418.07 597.046C426.024 598.729 434.183 599.917 442.269 600.777C450.836 601.689 459.787 602.294 468.39 601.837C473.759 601.552 479.231 600.561 484.594 600.701L484.989 601.142L483.667 602.026Q481.709 602.744 479.712 603.342C453.957 610.872 423.008 605.661 399.75 592.975Z"/>
	<path fill="#4D4E5C" d="M368.756 572.347C379.255 575.157 389.264 579.593 399.788 582.427C409.645 585.081 420.04 585.912 430.063 587.809C432.411 588.253 435.969 588.427 437.477 590.245Q432.679 590.91 427.839 591.111C408.532 592.001 383.325 585.537 368.756 572.347Z"/>
	<path fill="#F3B392" d="M485.553 351.528C488.483 353.57 493.094 370.87 494.044 374.945C489.467 372.741 485.338 369.668 481.159 366.799C475.46 363.301 469.414 360.588 463.399 357.704C471.455 357.262 478.401 355.162 485.553 351.528Z"/>
	<path fill="#4D4E5C" d="M793.16 486.248C803.205 488.891 814.186 521.727 819.694 531.324C822.984 537.056 827.843 542.061 831.927 547.252C829.468 546.66 827.142 545.021 825.11 543.542C810.205 532.692 807.535 513.591 800.37 497.868C798.413 493.573 796.067 489.957 793.16 486.248Z"/>
	<path fill="#4D4E5C" d="M278.812 394.977L279.083 395.194C279.469 398.69 277.39 403.538 276.212 406.802C266.923 432.536 251.465 447.477 227.082 458.97L226.938 458.865C226.972 457.782 233.701 453.746 234.96 452.871C256.941 437.6 267.66 418.449 278.812 394.977Z"/>
	<path fill="#4D4E5C" d="M337.476 549.382C343.353 550.974 349.025 554.433 354.603 556.88C360.212 559.341 366.142 561.258 371.943 563.217C380.564 566.128 396.5 569.066 403.449 572.75C379.911 574.489 355.281 564.308 337.476 549.382Z"/>
	<path fill="#4D4E5C" d="M596.378 404.807C601.369 405.806 606.064 410.989 610.263 413.772C629.106 426.256 649.792 431.2 672.134 431.271L672.473 431.739C667.993 433.097 663.409 433.602 658.741 433.661C633.469 433.982 613.969 421.926 596.378 404.807Z"/>
	<path fill="#4D4E5C" d="M675.379 224.183C678.006 224.058 680.725 224.204 683.214 225.11C691.093 227.978 696.738 235.189 700.172 242.583C705.004 252.987 706.008 265.524 702.059 276.348L701.505 276.77C700.198 273.47 700.726 267.877 700.447 264.234C699.917 257.302 698.094 249.899 695.127 243.597C692.314 237.621 687.318 229.386 681.136 226.586C679.126 225.676 676.9 225.581 674.824 224.839L675.379 224.183Z"/>
	<path fill="#4D4E5C" d="M310.807 523.395C317.286 525.938 328.293 534.778 336.04 538.527C346.762 543.716 359.639 545.906 369.569 552.446C366.605 552.685 363.753 552.508 360.826 552.036C343.028 549.16 321.482 538.287 310.807 523.395Z"/>
	<path fill="#4D4E5C" d="M693.27 219.676C701.512 218.541 710.54 221.513 717.14 226.374C727.965 234.347 731.662 245.408 733.679 258.185C732.595 256.22 731.56 254.224 730.504 252.244C727.287 245.711 723.669 239.334 718.72 233.938C708.811 223.134 696.838 221.794 682.947 221.149L693.27 219.676Z"/>
	<path fill="#4D4E5C" d="M759.758 516.837L760.375 515.656C762.477 522.521 765.582 529.168 768.37 535.781C775.105 551.755 782.537 567.469 789.13 583.483C776.448 569.563 770.25 550.842 764.873 533.108C763.245 527.741 761.898 522.01 759.758 516.837Z"/>
	<path fill="#4D4E5C" d="M760.561 321.577C766.239 322.401 771.119 324.672 775.875 327.811C788.334 336.033 797.38 345.918 800.387 360.826C798.667 359.703 790.313 346.249 787.055 342.668C779.451 334.31 769.995 327.688 760.561 321.577Z"/>
	<path fill="#4D4E5C" d="M210.785 128.871C211.416 132.041 205.872 146.268 205.08 151.304C204.469 155.189 204.298 159.328 204.835 163.232C205.124 165.329 205.852 167.463 205.671 169.58L204.848 169.842L203.316 169.034C201.386 166.27 200.197 163.324 199.63 159.992C197.612 148.144 204.233 138.012 210.785 128.871Z"/>
	<path fill="#4D4E5C" d="M700.073 226.416C705.351 228.715 709.221 232.723 712.227 237.538C717.577 246.109 720.071 256.883 717.827 266.842L716.887 266.804C715.134 263.427 715.226 258.246 714.291 254.483C711.744 244.236 705.861 235.089 700.073 226.416Z"/>
	<path fill="#4D4E5C" d="M748.114 471.915Q743.346 472.144 738.595 471.685Q733.844 471.225 729.208 470.086C715.13 466.622 702.886 458.501 695.357 446.019C708.983 460.302 726.807 467.902 746.199 470.559L748.294 471.264L748.114 471.915Z"/>
	<path fill="#4D4E5C" d="M674.757 229.306C674.939 229.331 675.124 229.337 675.302 229.379C679.061 230.263 682.683 234.58 684.809 237.621C690.531 245.807 693.91 256.264 692.102 266.261C692.016 266.264 691.925 266.294 691.842 266.269C690.768 265.946 690.639 264.609 690.312 263.622C689.11 259.993 688.369 256.184 687.317 252.505C684.782 243.63 680.402 236.535 674.757 229.306Z"/>
	<path fill="#4D4E5C" d="M196.314 139.427C197.222 141.366 193.803 154.101 194.572 158.55C195.519 164.03 198.497 167.209 202.835 170.297L202.711 170.879L200.476 171.478C198.645 170.956 196.909 170.41 195.399 169.204C192.036 166.52 190.482 162.597 190.095 158.4C189.432 151.206 191.83 144.921 196.314 139.427Z"/>
	<path fill="#4D4E5C" d="M778.617 321.415C781.125 322.006 783.465 322.926 785.734 324.141Q786.807 324.718 787.85 325.348Q788.893 325.978 789.903 326.659Q790.914 327.339 791.889 328.07Q792.864 328.8 793.802 329.578Q794.74 330.356 795.638 331.179Q796.536 332.003 797.392 332.87Q798.247 333.737 799.059 334.646Q799.871 335.554 800.636 336.502Q801.402 337.45 802.119 338.435Q802.837 339.42 803.504 340.439Q804.172 341.458 804.788 342.509Q805.404 343.561 805.967 344.641Q806.53 345.722 807.038 346.829Q807.547 347.936 808 349.067Q808.453 350.198 808.849 351.35Q809.245 352.503 809.583 353.673C807.322 352.027 798.374 339.403 795.04 335.86C790.035 330.541 784.018 326.316 778.617 321.415Z"/>
	<path fill="#4D4E5C" d="M188.32 138.411C189.307 140.047 186.02 148.711 185.682 151.125C185.308 153.794 185.323 156.54 185.926 159.175C186.987 163.804 192.035 169.592 192.14 170.678L190.811 170.754C189.705 170.207 188.666 169.65 187.676 168.906C184.195 166.29 182.313 162.048 181.846 157.796C181.059 150.629 183.788 143.835 188.32 138.411Z"/>
	<path fill="#4D4E5C" d="M753.178 329.08C756.289 329.744 758.884 331.069 761.414 332.994C768.977 338.752 772.76 347.465 773.958 356.653C770.292 353.677 768.847 347.296 766.217 343.301C762.658 337.896 757.704 333.635 753.178 329.08Z"/>
	<path fill="#4D4E5C" d="M398.305 71.9243C400.857 72.4372 403.059 73.5841 404.978 75.3551C412.066 81.8965 412.893 93.6056 413.387 102.589C410.259 99.3382 411.622 83.7326 398.305 71.9243Z"/>
	<path fill="#4D4E5C" d="M771.612 336.275C772.27 336.555 772.811 336.873 773.379 337.31C780.445 342.742 782.114 350.831 783.288 359.134C779.922 356.174 773.749 340.788 771.612 336.275Z"/>
</svg>
