<?xml version="1.0" encoding="utf-8" ?>
<svg xmlns="http://www.w3.org/2000/svg" xmlns:xlink="http://www.w3.org/1999/xlink" width="981" height="981">
	<g>
		<path transform="scale(0.958008 0.958008)" d="M937.53 53.1867C944.309 52.1024 952.396 50.0331 958.549 54.3162C961.904 56.6519 963.219 60.4891 963.811 64.3755C966.527 82.1856 961.472 117.487 955.386 134.554C953.037 141.142 949.823 147.504 945.543 153.055C936.925 164.233 920.975 170.507 907.326 172.162C902.23 172.78 895.933 171.221 891.224 173.031C887.202 174.578 884.167 178.173 880.338 180.07C876.661 181.891 872.231 181.887 868.951 184.546C863.591 188.891 859.938 195.807 854.973 200.726C845.045 210.561 829.732 222.056 821.478 232.371C809.539 247.291 809.458 263.357 803.351 279.566C800.221 287.872 795.008 295.537 790.179 302.945C783.572 313.08 776.47 323.108 767.764 331.578C762.507 336.692 754.445 339.677 750.576 345.985C747.841 350.445 747.782 355.769 748.353 360.811C749.165 367.988 753.087 374.219 756.556 380.385C768.69 401.947 783.726 421.302 803.277 436.661C813.141 444.41 827.03 454.477 839.146 457.846C845.4 459.586 851.981 460.289 858.34 461.588C861.076 462.148 868.58 463.561 869.591 466.257C868.505 468.468 865.98 469.827 863.881 470.972C853.776 476.483 842.718 480.956 832.171 485.556L795.961 501.634C783.776 507.046 771.622 514.197 759.04 518.478C756.561 519.322 753.994 519.705 751.403 520.016C751.385 512.827 751.969 505.327 751.336 498.184C748.868 470.293 736.381 444.795 722.341 421.076C699.964 432.324 683.117 443.138 663.433 458.457C669.811 462.144 680.526 467.046 682.393 474.896C682.828 476.727 682.56 478.454 681.448 480.003C679.822 482.268 676.806 483.929 674.243 484.874C670.614 486.213 666.512 485.93 662.792 487.016C654.014 489.579 645.25 493.744 637.01 497.684C616.741 507.375 599.727 521.191 582.219 535.053C571.227 543.755 560.009 552.462 549.942 562.236C527.923 583.615 506.475 605.593 484.639 627.159L313.173 797.126C283.403 826.867 253.822 856.71 223.198 885.576C210.166 897.859 197.568 911.091 183.15 921.763C157.966 940.405 128.17 950.603 98.5162 959.69C84.9892 963.836 71.1201 967.948 57.1367 970.216C53.9911 942.635 68.671 894.317 81.5093 869.211C86.029 860.373 91.5729 852.275 97.7446 844.523C111.699 826.996 127.622 810.767 143.216 794.706C168.232 768.94 193.895 743.855 219.167 718.341L424.222 510.569L482.871 451.581C495.264 438.965 515.738 419.104 524.499 404.665C531.711 392.779 533.985 379.575 535.636 366.002C536.501 358.886 537.207 351.641 540.249 345.052C545.27 341.346 551.608 339.959 557.793 340.844C561.821 341.421 565.136 342.997 568.605 344.999C581.332 330.678 590.045 317.052 595.795 298.634C576.706 288.986 556.482 278.167 534.818 276.045C532.267 275.795 529.551 276.106 527.057 276.629C524.011 277.268 511.212 282.074 510.053 278.388C508.975 274.958 511.098 269.342 511.768 265.835C512.794 260.466 513.213 254.936 514.562 249.64C519.714 229.411 533.547 198.225 544.434 180.092C546.427 176.773 550.046 170.538 553.949 169.453C554.812 169.213 555.027 169.395 555.849 169.628C557.833 172.3 557.473 179.567 557.92 182.903C559.738 196.462 567.307 212.379 576.708 222.263C579.961 225.683 583.863 228.23 587.199 231.47L589.677 227.023C593.715 228.898 597.362 232.472 600.697 235.413C607.464 241.379 613.615 247.012 621.771 251.043C622.968 250.11 623.937 249.242 625.563 249.387C627.621 249.57 629.605 250.949 631.363 251.957C637.2 254.193 643.047 256.248 649.342 256.594C670.362 257.749 693.1 242.439 711.6 233.673C742.859 218.862 777.433 204.973 802.856 180.79C807.716 176.167 811.927 171 816.113 165.775C821.504 159.045 826.943 151.849 830.133 143.767C833.459 135.343 834.331 126.069 837.29 117.486C838.029 115.34 838.771 113.231 840.016 111.316C842.172 108.002 845.157 105.208 847.745 102.227C854.88 94.0062 861.837 85.9656 869.911 78.6261C871.253 77.0676 872.72 75.6578 874.228 74.2613C890.805 58.9041 915.215 52.3203 937.53 53.1867Z"/>
		<path fill="#636363" transform="scale(0.958008 0.958008)" d="M517.196 258.891C520.387 238.138 529.021 221.084 537.852 202.349C540.411 196.919 542.516 191.305 545.048 185.866C546.233 186.374 547.449 187.002 548.686 187.357C543.828 199.516 539.679 210.481 539.918 223.78C534.199 228.821 527.867 235.089 527.32 243.221C527.202 244.98 527.534 247.04 528.906 248.283C529.906 249.188 531.216 249.438 532.52 249.285C537.293 248.725 543.093 243.158 545.871 239.397C549.13 234.984 551.742 227.531 550.629 221.962C550.416 220.892 550.019 220.228 549.369 219.37C548.172 218.749 547.727 218.515 546.317 218.792C545.083 219.035 543.513 220.366 542.526 221.099C544.079 208.832 547.97 197.549 552.555 186.133C557.011 198.579 561.321 211.404 570.355 221.406L569.002 221.927C567.075 219.833 564.169 216.157 561.168 215.953C559.994 215.874 559.347 216.088 558.4 216.806C554.461 219.789 554.92 232.101 554.82 236.595C561.548 242.617 593.079 268.008 600.355 268.232C601.148 267.604 601.206 267.81 601.362 266.732C602.183 264.226 602.376 259.161 604.554 257.637C621.4 268.91 638.997 279.054 656.047 290.032C651.787 300.427 643.734 306.964 635.661 314.416C628.572 305.844 623.002 296.087 615.755 287.685C598.377 267.539 573.187 254.746 550.498 241.594C553.801 246.53 556.445 249.728 561.745 252.602C551.506 256.583 542.632 261.494 533.421 267.443C537.003 263.344 540.782 260.037 545.076 256.693C547.828 254.55 551.253 252.408 553.469 249.752C553.353 248.569 553.411 248.567 552.556 247.757C552.324 247.09 552.013 246.869 551.514 246.388C550.047 246.034 549.363 246.256 547.965 246.675L547.097 246.267C537.747 246.324 527.322 255.42 520.373 261.003C522.44 253.672 524.963 246.675 526.204 239.115C522.003 245.354 520.576 252.33 517.196 258.891Z"/>
		<path fill="#9F9E9D" transform="scale(0.958008 0.958008)" d="M621.203 263.212C618.775 257.602 607.265 255.821 605.409 250.852L606.144 249.652C610.538 247.208 617.191 255.702 622.103 256.773C622.245 256.804 622.388 256.829 622.53 256.856C628.771 259.64 634.704 264.279 640.581 267.833C671.643 286.615 702.89 307.523 725.332 336.639C735.815 350.239 743.082 366.016 751.8 380.736C769.935 411.354 798.151 445.511 831.441 459.996C837.115 462.465 843.404 463.767 849.411 465.201C849.039 466.637 848.78 466.771 849.486 468.046Q851.908 469.455 854.381 470.772Q830.34 480.465 806.592 490.858L805.069 489.113C819.431 482.175 835.611 477.274 848.921 468.467C848.846 468.433 848.772 468.399 848.698 468.364C841.098 464.761 832.6 463.676 824.96 459.929C787.596 441.6 761.07 409.284 740.987 373.708C731.664 357.192 722.721 339.902 709.652 325.954C699.62 315.248 687.063 307.027 675.18 298.554C665.137 291.392 655.125 284 644.647 277.485C636.877 272.653 628.538 268.724 621.203 263.212Z"/>
		<path fill="#636363" transform="scale(0.958008 0.958008)" d="M660.081 267.999C686.619 277.024 711.784 293.75 730.808 314.33C735.608 319.523 740.55 325.256 743.664 331.665C746.819 338.158 747.115 347.114 744.299 353.878C744.002 354.591 743.935 354.649 743.568 355.204C743.02 354.93 742.716 354.913 742.422 354.357C742.487 354.199 742.573 354.049 742.616 353.884C743.31 351.215 741.726 346.795 741.013 344.112C739.793 339.513 738.203 335.459 735.598 331.458C725.547 316.024 697.985 294.228 682.37 283.921C675.359 279.294 664.57 275.371 660.081 267.999Z"/>
		<defs>
			<linearGradient id="gradient_0" gradientUnits="userSpaceOnUse" x1="689.39691" y1="311.77423" x2="704.31805" y2="297.91907">
				<stop offset="0" stop-color="#8D8C8E"/>
				<stop offset="1" stop-color="#A6A5A5"/>
			</linearGradient>
		</defs>
		<path fill="url(#gradient_0)" transform="scale(0.958008 0.958008)" d="M643.939 264.706C645.28 263.651 646.296 263.109 647.929 262.598C651.956 264.445 655.967 266.353 660.081 267.999C664.57 275.371 675.359 279.294 682.37 283.921C697.985 294.228 725.547 316.024 735.598 331.458C738.203 335.459 739.793 339.513 741.013 344.112C741.726 346.795 743.31 351.215 742.616 353.884C742.573 354.049 742.487 354.199 742.422 354.357C740.627 352.099 739.251 349.178 737.762 346.679C734.995 342.038 732.141 337.564 728.753 333.347C705.802 304.785 674.835 283.691 643.939 264.706Z"/>
		<path fill="#C9C9C8" transform="scale(0.958008 0.958008)" d="M547.965 246.675C549.363 246.256 550.047 246.034 551.514 246.388C552.013 246.869 552.324 247.09 552.556 247.757C542.063 253.496 529.456 270.649 517.879 271.637C516.72 271.736 516.613 271.814 515.695 271.042C515.747 270.438 515.714 270.38 515.987 269.728C519.012 262.504 540.393 250.553 547.965 246.675Z"/>
		<defs>
			<linearGradient id="gradient_1" gradientUnits="userSpaceOnUse" x1="587.67273" y1="240.06628" x2="607.87305" y2="247.35191">
				<stop offset="0" stop-color="#4D4E44"/>
				<stop offset="1" stop-color="#7B7170"/>
			</linearGradient>
		</defs>
		<path fill="url(#gradient_1)" transform="scale(0.958008 0.958008)" d="M589.076 233.61C590.333 234.697 591.496 235.796 592.647 236.996C593.878 238.279 594.852 239.229 596.722 239.374C597.781 239.456 598.632 238.715 599.505 238.171C603.091 241.417 606.654 244.754 610.515 247.673C614.464 250.659 619.176 253.211 622.53 256.856C622.388 256.829 622.245 256.804 622.103 256.773C617.191 255.702 610.538 247.208 606.144 249.652L605.409 250.852C607.265 255.821 618.775 257.602 621.203 263.212C611.296 259.119 595.618 248.498 588.993 240.163C588.789 237.931 588.911 235.837 589.076 233.61Z"/>
		<path fill="#FFFEFE" transform="scale(0.958008 0.958008)" d="M805.069 489.113L806.592 490.858C792.534 496.911 778.249 504.417 763.677 508.906C776.428 500.231 790.807 494.747 805.069 489.113Z"/>
		<path fill="#3D3D3D" transform="scale(0.958008 0.958008)" d="M570.355 221.406C575.622 225.325 581.321 230.709 587.645 232.697L589.076 233.61C588.911 235.837 588.789 237.931 588.993 240.163C582.402 233.929 575.174 228.653 569.002 221.927L570.355 221.406Z"/>
		<path fill="#6E480E" transform="scale(0.958008 0.958008)" d="M621.771 251.043C622.968 250.11 623.937 249.242 625.563 249.387C627.621 249.57 629.605 250.949 631.363 251.957C633.405 254.314 636.357 255.9 638.951 257.599C638.585 258.952 638.429 260.023 638.4 261.425C632.622 258.681 627.092 254.584 621.771 251.043Z"/>
		<path fill="#6E480E" transform="scale(0.958008 0.958008)" d="M587.199 231.47L589.677 227.023C592.709 230.945 596.317 234.378 599.505 238.171C598.632 238.715 597.781 239.456 596.722 239.374C594.852 239.229 593.878 238.279 592.647 236.996C591.496 235.796 590.333 234.697 589.076 233.61L587.645 232.697L587.199 231.47Z"/>
		<path fill="#C9C9C8" transform="scale(0.958008 0.958008)" d="M849.411 465.201C853.685 465.861 857.982 466.454 862.242 467.199C859.641 468.41 857.049 469.716 854.381 470.772Q851.908 469.455 849.486 468.046C848.78 466.771 849.039 466.637 849.411 465.201Z"/>
		<path fill="#767676" transform="scale(0.958008 0.958008)" d="M638.951 257.599C642.037 259.151 645.011 260.748 647.929 262.598C646.296 263.109 645.28 263.651 643.939 264.706C642.063 263.935 640.152 262.484 638.4 261.425C638.429 260.023 638.585 258.952 638.951 257.599Z"/>
		<path fill="#565453" transform="scale(0.958008 0.958008)" d="M598.544 253.436C600.655 254.735 602.595 256.125 604.554 257.637C602.376 259.161 602.183 264.226 601.362 266.732C600.567 262.283 599.496 257.856 598.544 253.436Z"/>
		<path fill="#9F9E9D" transform="scale(0.958008 0.958008)" d="M547.108 182.414C548.324 182.921 549.295 183.169 550.582 183.355L548.686 187.357C547.449 187.002 546.233 186.374 545.048 185.866C545.665 184.659 546.369 183.547 547.108 182.414Z"/>
		<path fill="#C9C9C8" transform="scale(0.958008 0.958008)" d="M547.108 182.414C548.179 180.888 549.023 179.417 550.684 178.497L551.391 178.777C551.745 180.399 551.081 181.829 550.582 183.355C549.295 183.169 548.324 182.921 547.108 182.414Z"/>
		<path fill="#636363" transform="scale(0.958008 0.958008)" d="M542.636 347.134C547.783 349.458 552.31 352.838 556.313 356.801C585.297 385.499 564.167 424.96 564.488 459.531C564.16 459.371 563.829 459.217 563.503 459.053C560.918 457.759 558.899 456.958 555.949 457.329C552.678 457.74 549.804 459.536 547.909 462.233C546.405 464.373 545.494 467.124 546.058 469.736C546.547 472.002 548.045 473.916 550.013 475.106C552.943 476.879 556.621 477.165 559.894 476.291C562.485 475.599 564.836 474.112 566.148 471.723C568.115 468.139 567.297 464.797 566.188 461.148C594.721 456.319 612.845 450.995 642.494 456.432C651.452 458.075 660.422 460.523 668.507 464.804C671.442 466.358 677.114 470.111 677.774 473.575C678.004 474.789 677.722 476.41 676.91 477.407C675.515 479.119 672.906 478.786 670.803 478.891C665.452 479.156 659.884 482.2 654.963 484.235C644.584 488.527 634.311 492.782 624.62 498.513C612.958 505.409 602.568 513.978 591.768 522.091C585.377 526.892 578.687 531.167 572.542 536.313C557.298 549.078 543.369 563.303 529.327 577.352L473.777 632.941Q362.097 745.297 248.747 855.965Q228.775 875.376 208.506 894.478C197.729 904.646 187.071 915.431 174.621 923.579C142.243 944.769 100.631 956.693 63.1397 964.933C67.4676 958.422 77.7583 946.733 84.7449 942.912C89.9442 940.069 100.749 939.384 107.064 937.777Q112.498 936.442 117.837 934.768Q123.177 933.094 128.4 931.087Q133.623 929.08 138.71 926.749Q143.797 924.417 148.727 921.77C171.084 909.518 190.17 891.155 208.152 873.35L455.132 626.492L511.024 570.748C536.326 545.326 561.71 519.39 591.039 498.54C611.634 483.899 635.246 476.525 657.654 465.443C641.696 461.445 627.243 462.587 611.075 464.172C566.598 469.046 526.162 506.045 492.866 533.194C498.646 518.827 508.726 507.063 517.472 494.489C532.784 472.474 551.768 442.617 558.045 416.281C561.323 402.525 562.752 381.06 563.344 366.743C554.011 376.436 549.308 395.776 542.283 408.331C530.916 428.642 516.156 447.361 500.545 464.553C489.055 477.208 476.645 489.063 464.523 501.107L403.716 561.604L215.269 751.866L150.038 817.536C135.935 831.73 120.422 845.299 108.921 861.801C93.5493 883.857 83.577 912.904 82.354 939.85Q71.0918 951.344 60.3939 963.364C60.6355 953.594 62.9615 943.541 64.9359 933.994C70.6028 906.593 77.7715 880.964 93.025 857.183C107.986 833.858 129.13 813.953 148.394 794.191Q183.954 757.455 220.258 721.455L444.321 495.399L488.568 450.546C502.121 436.752 518.113 422.618 527.945 405.836C539.167 386.684 540.998 368.674 542.636 347.134Z"/>
		<path fill="#C9C9C8" transform="scale(0.958008 0.958008)" d="M557.912 383.921C558.643 384.92 558.584 385.864 558.586 387.058C558.68 428.498 528.292 470.666 506.61 504.063C498.6 516.4 491.348 529.435 482.194 540.976C477.046 547.466 470.946 553.058 464.999 558.793Q454.037 569.276 443.304 579.993L360.436 662.817L86.6688 936.051C86.4888 935.792 86.4378 935.747 86.3307 935.359C85.3953 931.969 87.6549 925.536 88.483 922.144C93.7226 900.684 99.8374 879.348 113.329 861.381C122.965 848.549 135.166 837.548 146.478 826.235L190.137 782.064L410.938 559.107Q438.875 530.764 467.26 502.869C488.295 482.045 508.996 461.796 527.219 438.365C540.895 420.779 549.07 404.135 557.912 383.921Z"/>
		<path fill="#9F9E9D" transform="scale(0.958008 0.958008)" d="M628.328 466.696C631.751 466.115 637.186 465.828 640.346 467.31L640.462 468.111C635.899 472.421 624.936 475.204 618.969 477.804Q611.921 480.937 605.234 484.78C586.571 495.502 569.746 509.27 553.863 523.712C538.872 537.342 524.775 551.811 510.437 566.108L452.04 624.276L277.564 798.258L213.298 862.248C196.563 878.797 180.09 896.28 160.865 909.986C142.487 923.088 121.161 929.69 99.8025 936.157L87.9247 939.017C92.1382 934.541 96.6841 930.322 100.978 925.913C121.086 905.262 141.588 885.092 161.977 864.726L298.103 728.61L408.372 618.467L444.594 582.188C455.346 571.271 465.957 560.097 477.332 549.822C486.917 541.164 497.537 533.995 507.764 526.154C522.849 514.589 537.681 502.479 553.68 492.178C578.683 476.08 598.743 469.79 628.328 466.696Z"/>
		<path fill="#9F9E9D" transform="scale(0.958008 0.958008)" d="M932.391 69.9341C933.354 66.2278 934.518 62.2988 937.263 59.4963C941.19 55.4876 946.633 55.469 951.839 55.521C955.254 57.6017 957.771 59.7249 959.334 63.4715C961.326 89.717 958.068 132.333 940.577 152.912C934.226 160.384 922.404 167.727 912.492 168.57C910.599 168.731 909.069 168.878 907.574 167.574C906.9 166.003 906.053 164.515 905.242 163.012C903.077 156.839 900.443 151.17 897.332 145.418L894.741 142.053C893.854 139.913 891.432 137.507 889.804 135.919C880.37 124.765 866.362 117.971 852.794 113.386C850.593 113.104 848.268 112.971 846.394 111.68L846.23 110.766C847.378 109.297 849.124 108.887 850.909 108.689C860.082 107.67 874.69 114.024 881.744 119.873C883.269 121.138 884.659 122.552 886.161 123.839C886.642 124.251 886.488 124.116 887.205 124.306Q886.644 121.426 886.474 118.497C885.775 107.089 887.861 94.9673 895.718 86.1902C903.962 76.9815 915.267 75.6464 926.936 74.9514C927.604 74.8157 927.852 74.7863 928.445 74.6063C930.529 73.9736 931.41 71.7057 932.391 69.9341Z"/>
		<path transform="scale(0.958008 0.958008)" d="M887.205 124.306Q886.644 121.426 886.474 118.497C885.775 107.089 887.861 94.9673 895.718 86.1902C903.962 76.9815 915.267 75.6464 926.936 74.9514C926.954 77.2872 927.087 79.3076 925.543 81.1494C923.54 81.8316 921.583 81.5917 919.524 82.1028C926.696 82.7547 933.62 83.5609 940.62 85.3538C944.112 95.6343 944.937 106.19 939.974 116.204C937.199 121.805 932.661 126.041 926.7 128.037C917.021 131.276 903.339 129.322 894.014 125.747L893.942 118.956C893.557 121.9 894.163 132.429 892.899 133.641L890.897 133.607C893.332 136.572 897.45 140.647 897.691 144.578L897.332 145.418L894.741 142.053C893.854 139.913 891.432 137.507 889.804 135.919C880.37 124.765 866.362 117.971 852.794 113.386C850.593 113.104 848.268 112.971 846.394 111.68L846.23 110.766C847.378 109.297 849.124 108.887 850.909 108.689C860.082 107.67 874.69 114.024 881.744 119.873C883.269 121.138 884.659 122.552 886.161 123.839C886.642 124.251 886.488 124.116 887.205 124.306Z"/>
		<path fill="#C9C9C8" transform="scale(0.958008 0.958008)" d="M887.205 124.306Q886.644 121.426 886.474 118.497C885.775 107.089 887.861 94.9673 895.718 86.1902C903.962 76.9815 915.267 75.6464 926.936 74.9514C926.954 77.2872 927.087 79.3076 925.543 81.1494C923.54 81.8316 921.583 81.5917 919.524 82.1028C910.567 84.1774 902.763 86.9824 897.717 95.3622C893.299 102.7 893.796 110.737 893.942 118.956C893.557 121.9 894.163 132.429 892.899 133.641L890.897 133.607C893.332 136.572 897.45 140.647 897.691 144.578L897.332 145.418L894.741 142.053C893.854 139.913 891.432 137.507 889.804 135.919C880.37 124.765 866.362 117.971 852.794 113.386C850.593 113.104 848.268 112.971 846.394 111.68L846.23 110.766C847.378 109.297 849.124 108.887 850.909 108.689C860.082 107.67 874.69 114.024 881.744 119.873C883.269 121.138 884.659 122.552 886.161 123.839C886.642 124.251 886.488 124.116 887.205 124.306Z"/>
		<path fill="#FFFEFE" transform="scale(0.958008 0.958008)" d="M852.794 113.386C853.748 112.271 854.209 111.609 855.724 111.392C858.871 110.94 863.151 113.851 865.844 115.289C871.079 118.319 877.025 120.751 881.691 124.628C884.846 127.249 887.599 131.415 890.897 133.607C893.332 136.572 897.45 140.647 897.691 144.578L897.332 145.418L894.741 142.053C893.854 139.913 891.432 137.507 889.804 135.919C880.37 124.765 866.362 117.971 852.794 113.386Z"/>
		<path fill="#3D3D3D" transform="scale(0.958008 0.958008)" d="M920.28 85.6212C925.354 85.3684 931.289 84.7908 935.689 87.8304C938.366 89.6801 939.824 92.4826 940.379 95.6359C941.658 102.909 939.266 112.359 934.871 118.272C930.704 123.877 925.751 125.44 919.203 126.511Q908.555 126.028 898.116 123.873C896.687 114.818 896.705 103.74 902.003 95.8464C906.388 89.3124 912.905 86.9945 920.28 85.6212Z"/>
		<path fill="#636363" transform="scale(0.958008 0.958008)" d="M920.675 91.0543C923.436 90.845 926.155 90.5897 928.847 91.442C931.121 92.1622 933.114 93.5121 934.153 95.7162C935.821 99.2552 934.955 103.867 933.542 107.341C930.638 114.478 925.515 118.329 918.671 121.218C917.447 121.357 916.209 121.504 914.977 121.545C910.39 121.699 907.105 119.139 904.002 116.092C903.863 110.715 904.381 104.566 907.094 99.8192C910.15 94.4709 915.006 92.4809 920.675 91.0543Z"/>
		<path transform="scale(0.958008 0.958008)" d="M953.082 97.5742C956.22 85.9759 955.111 74.5763 955.507 62.7766L956.249 62.4771C957.179 63.2532 957.296 63.7332 957.742 64.83C958.333 63.7009 958.264 63.9289 959.334 63.4715C961.326 89.717 958.068 132.333 940.577 152.912C934.226 160.384 922.404 167.727 912.492 168.57C910.599 168.731 909.069 168.878 907.574 167.574C909.166 166.114 909.837 166.188 911.916 165.842L911.048 165.543L910.713 164.786C911.243 163.57 911.778 162.425 911.862 161.082C911.88 160.793 911.887 160.504 911.9 160.214C909.968 157.32 908.578 153.78 906.913 150.69C904.376 145.984 901.49 141.647 898.378 137.314C912.021 138.073 925.697 141.311 937.624 132.487C948.451 124.476 951.11 110.017 953.082 97.5742Z"/>
		<path fill="#FFFEFE" transform="scale(0.958008 0.958008)" d="M957.742 64.83C958.333 63.7009 958.264 63.9289 959.334 63.4715C961.326 89.717 958.068 132.333 940.577 152.912C934.226 160.384 922.404 167.727 912.492 168.57C910.599 168.731 909.069 168.878 907.574 167.574C909.166 166.114 909.837 166.188 911.916 165.842C922.649 163.874 934.128 156.722 940.789 148.098C953.069 132.2 955.445 110.557 957.265 91.166C958.097 82.2933 958.937 73.7132 957.742 64.83Z"/>
		<path fill="#636363" transform="scale(0.958008 0.958008)" d="M947.617 125.411C948.184 128.188 946.66 131.932 945.511 134.496C939.726 147.409 927.775 156.438 914.874 161.393L912.007 153.969C910.006 149.583 907.647 145.539 905.176 141.409C910.3 141.792 915.427 142.234 920.563 141.781C932.816 140.699 940.003 134.538 947.617 125.411Z"/>
		<defs>
			<linearGradient id="gradient_2" gradientUnits="userSpaceOnUse" x1="955.32233" y1="94.020447" x2="942.46985" y2="56.989845">
				<stop offset="0" stop-color="#5D5D5D"/>
				<stop offset="1" stop-color="#7B7B7B"/>
			</linearGradient>
		</defs>
		<path fill="url(#gradient_2)" transform="scale(0.958008 0.958008)" d="M932.391 69.9341C933.354 66.2278 934.518 62.2988 937.263 59.4963C941.19 55.4876 946.633 55.469 951.839 55.521C955.254 57.6017 957.771 59.7249 959.334 63.4715C958.264 63.9289 958.333 63.7009 957.742 64.83C957.296 63.7332 957.179 63.2532 956.249 62.4771L955.507 62.7766C955.111 74.5763 956.22 85.9759 953.082 97.5742C947.107 87.603 951.201 77.379 949.92 67.4074C949.852 66.8735 949.88 66.3868 949.351 66.1138C946.017 64.393 936.064 68.9441 932.391 69.9341Z"/>
		<path fill="#C9C9C8" transform="scale(0.958008 0.958008)" d="M911.9 160.214C911.887 160.504 911.88 160.793 911.862 161.082C911.778 162.425 911.243 163.57 910.713 164.786L911.048 165.543L911.916 165.842C909.837 166.188 909.166 166.114 907.574 167.574C906.9 166.003 906.053 164.515 905.242 163.012C907.427 161.65 909.463 160.933 911.9 160.214Z"/>
		<path fill="#FFFEFE" transform="scale(0.958008 0.958008)" d="M626.185 382.132C626.531 382.096 626.879 382.076 627.226 382.054C630.819 381.829 634.525 381.925 637.3 384.567C647.201 393.993 629.395 424.954 626.38 435.553C624.981 440.473 624.921 445.634 624.868 450.708C609.262 448.8 595.313 450.964 580.131 454.33L567.965 457.388C570.594 436.904 574.107 416.607 576.126 396.038C594.035 397.477 609.146 385.595 626.185 382.132Z"/>
		<path transform="scale(0.958008 0.958008)" d="M631.076 385.589L633.563 385.535C634.613 386.101 634.91 386.249 635.347 387.45C637.336 392.928 626.13 419.66 622.844 425.248C614.981 438.615 594.227 442.797 580.182 446.513C579.588 446.586 578.598 446.789 577.974 446.708C576.719 446.547 576.528 446.264 575.837 445.327C574.781 437.202 583.857 417.296 588.147 410.264C597.611 394.747 614.411 389.657 631.076 385.589Z"/>
		<path fill="#636363" transform="scale(0.958008 0.958008)" d="M629.908 390.66L630.339 391.444C629.784 400.538 620.792 419.782 616.941 428.637Q599.087 435.816 581.117 442.701L580.44 441.945C579.752 434.099 587.339 419.878 591.395 413.238C600.5 398.33 613.811 394.603 629.908 390.66Z"/>
		<path transform="scale(0.958008 0.958008)" d="M647.224 363.508C648.745 351.745 645.867 339.551 648.032 327.827C649.116 321.95 650.932 317.318 656.154 313.906C662.807 309.557 674.603 308.278 682.311 309.963C693.655 312.443 706.446 326.342 712.574 335.731C711.53 336.777 710.135 337.97 709.364 339.219C708.454 340.695 708.923 341.999 709.188 343.579C710.889 349.052 710.586 353.487 707.979 358.657C704.997 364.567 699.901 369.028 696.114 374.368L694.978 375.429C678.757 375.878 661.823 377.226 645.701 375.099C648.65 373.056 652.115 371.19 654.363 368.371C653.37 366.878 652.621 365.137 651.801 363.537L647.224 363.508Z"/>
		<path fill="#636363" transform="scale(0.958008 0.958008)" d="M647.224 363.508C648.745 351.745 645.867 339.551 648.032 327.827C649.116 321.95 650.932 317.318 656.154 313.906C662.807 309.557 674.603 308.278 682.311 309.963C693.655 312.443 706.446 326.342 712.574 335.731C711.53 336.777 710.135 337.97 709.364 339.219C708.454 340.695 708.923 341.999 709.188 343.579L708.114 344.595Q708.088 343.821 708.023 343.05Q707.959 342.279 707.858 341.512Q707.756 340.744 707.618 339.983Q707.479 339.221 707.303 338.468Q707.127 337.714 706.915 336.97Q706.702 336.225 706.454 335.492Q706.206 334.759 705.922 334.039Q705.638 333.319 705.32 332.614Q705.001 331.908 704.648 331.219Q704.296 330.53 703.91 329.859Q703.524 329.188 703.107 328.537Q702.689 327.885 702.239 327.255Q701.79 326.625 701.311 326.017Q700.831 325.409 700.323 324.826Q699.814 324.242 699.278 323.684Q698.742 323.126 698.179 322.595C692.236 317.037 683.853 313.617 675.688 313.834Q675.057 313.847 674.427 313.892Q673.797 313.937 673.171 314.014Q672.544 314.091 671.922 314.199Q671.3 314.308 670.685 314.448Q670.069 314.587 669.461 314.758Q668.853 314.928 668.255 315.13Q667.657 315.331 667.069 315.562Q666.482 315.793 665.907 316.054Q665.332 316.314 664.771 316.603Q664.21 316.893 663.664 317.21Q663.118 317.527 662.589 317.872Q662.06 318.216 661.549 318.587Q661.038 318.958 660.546 319.354Q660.055 319.75 659.584 320.17Q659.113 320.591 658.664 321.034Q658.215 321.478 657.789 321.944C650.789 329.619 648.843 340.701 649.468 350.76C649.742 355.171 650.618 359.294 651.801 363.537L647.224 363.508Z"/>
		<path fill="#9F9E9D" transform="scale(0.958008 0.958008)" d="M708.114 344.595L709.188 343.579C710.889 349.052 710.586 353.487 707.979 358.657C704.997 364.567 699.901 369.028 696.114 374.368L694.978 375.429C678.757 375.878 661.823 377.226 645.701 375.099C648.65 373.056 652.115 371.19 654.363 368.371C658.559 371.748 663.956 373.452 669.245 374.109C678.897 375.307 689.682 373.213 697.412 367.079C704.944 361.101 707.008 353.668 708.114 344.595Z"/>
		<path fill="#C9C9C8" transform="scale(0.958008 0.958008)" d="M670.293 317.582C676.46 316.972 682.408 317.335 688.166 319.794Q688.827 320.074 689.472 320.386Q690.118 320.699 690.747 321.043Q691.376 321.387 691.988 321.763Q692.599 322.138 693.191 322.544Q693.782 322.95 694.353 323.384Q694.923 323.819 695.472 324.282Q696.02 324.744 696.544 325.234Q697.068 325.724 697.567 326.239Q698.066 326.754 698.539 327.294Q699.012 327.833 699.457 328.396Q699.902 328.959 700.318 329.543Q700.734 330.127 701.121 330.731Q701.507 331.336 701.863 331.958Q702.219 332.581 702.543 333.221Q702.867 333.861 703.159 334.517Q703.451 335.172 703.709 335.841C706.277 342.518 706.46 350.399 703.331 356.928C699.802 364.294 693.467 367.677 686.142 370.284C678.29 371.728 669.394 372.829 661.961 369.085C657.681 366.929 654.835 363.232 653.432 358.688C650.656 349.702 651.918 337.478 656.254 329.153C659.456 323.004 663.824 319.622 670.293 317.582Z"/>
		<path transform="scale(0.958008 0.958008)" d="M676.901 326.571C680.457 326.372 683.932 326.626 687.288 327.915C691.644 329.588 695.058 332.881 696.793 337.225Q696.97 337.672 697.125 338.128Q697.279 338.584 697.411 339.048Q697.542 339.511 697.649 339.98Q697.757 340.449 697.841 340.923Q697.924 341.397 697.983 341.875Q698.043 342.353 698.078 342.833Q698.113 343.313 698.124 343.794Q698.135 344.276 698.121 344.757Q698.107 345.238 698.069 345.718Q698.031 346.198 697.969 346.675Q697.906 347.153 697.82 347.626Q697.733 348.1 697.623 348.568Q697.513 349.037 697.379 349.499Q697.245 349.962 697.087 350.417Q696.93 350.871 696.75 351.318Q696.57 351.764 696.367 352.201C693.353 358.62 687.813 361.311 681.478 363.456C676.853 364.053 672.288 364.075 668.024 361.931C664.076 359.945 661.283 356.411 660.069 352.182C658.633 347.172 659.321 341.434 661.847 336.883C665.219 330.81 670.536 328.386 676.901 326.571Z"/>
		<path fill="#6E480E" transform="scale(0.958008 0.958008)" d="M680.566 333.335Q682.593 334.033 684.628 334.707C686.85 337.395 689.168 340.02 690.936 343.038C689.154 347.002 687.002 352.858 682.74 354.664C681.386 354.745 680.835 354.272 679.737 353.571C678.769 353.881 677.936 354.22 676.995 354.593C675.752 355.086 674.601 354.981 673.346 354.536C671.217 351.335 670.258 348.346 669.552 344.623C672.095 339.07 675.812 336.806 680.566 333.335Z"/>
		<path fill="#FFFEFE" transform="scale(0.958008 0.958008)" d="M674.68 345.566C675.784 343.447 677.143 340.419 679.773 339.883C681.42 339.547 682.995 340.228 684.214 341.285C684.759 341.758 685.262 342.273 685.774 342.779L686.503 343.493C684.455 345.838 682.589 347.521 679.769 348.896C678.839 348.833 677.552 348.871 676.68 348.576C675.202 348.077 675.141 346.869 674.68 345.566Z"/>
		<path fill="#636363" transform="scale(0.958008 0.958008)" d="M669.552 344.623C671.16 345.148 673.004 346.019 674.68 345.566C675.141 346.869 675.202 348.077 676.68 348.576C677.552 348.871 678.839 348.833 679.769 348.896C678.371 349.021 676.526 348.791 675.59 350.045C675.388 350.317 675.114 351.006 674.954 351.374C674.484 352.458 673.9 353.493 673.346 354.536C671.217 351.335 670.258 348.346 669.552 344.623Z"/>
		<path fill="#3D3D3D" transform="scale(0.958008 0.958008)" d="M680.566 333.335C678.08 333.093 676.285 333.336 674.256 334.908C671.626 336.947 669.957 340.33 668.331 343.186C668.161 343.28 667.979 343.354 667.821 343.467C667.75 343.518 667.712 343.603 667.657 343.671C667.319 341.347 669.329 338.856 670.664 337.068C672.631 334.433 675.886 330.486 679.258 330.082C682.903 329.645 686.982 331.228 689.76 333.537Q690.302 333.983 690.797 334.481Q691.291 334.979 691.733 335.525Q692.176 336.07 692.561 336.657Q692.946 337.243 693.271 337.866Q693.596 338.488 693.857 339.14Q694.117 339.792 694.312 340.466Q694.506 341.141 694.631 341.832Q694.757 342.522 694.813 343.222C695.159 347.348 693.74 351.086 690.993 354.129C690.334 354.858 689.667 355.548 688.9 356.164L686.143 355.011C686.228 354.986 686.317 354.973 686.397 354.937C689.102 353.706 691.42 351.354 692.334 348.502C693.25 345.646 692.86 342.482 691.414 339.871Q691.145 339.393 690.828 338.945Q690.512 338.497 690.152 338.084Q689.791 337.67 689.391 337.295Q688.99 336.921 688.554 336.589Q688.118 336.256 687.65 335.97Q687.182 335.684 686.687 335.447Q686.193 335.21 685.676 335.025Q685.16 334.839 684.628 334.707Q682.593 334.033 680.566 333.335Z"/>
		<path fill="#3D3D3D" transform="scale(0.958008 0.958008)" d="M668.374 358.877C667.463 358.088 666.679 357.283 665.933 356.332C663.406 353.113 662.585 349.185 663.194 345.162C664.099 339.185 667.583 334.969 672.331 331.56C671.233 332.867 670.045 334.149 669.06 335.542C664.28 342.301 667.564 348.516 669.051 355.598C668.724 356.723 668.421 357.697 668.374 358.877Z"/>
		<path fill="#636363" transform="scale(0.958008 0.958008)" d="M686.143 355.011L688.9 356.164C684.343 359.665 679.381 361.421 673.604 360.594C671.749 360.328 670.033 359.729 668.374 358.877C668.421 357.697 668.724 356.723 669.051 355.598C669.452 356.11 669.861 356.628 670.311 357.097C674.089 361.033 674.361 356.305 676.903 356.846C677.805 357.038 677.681 358.079 679.256 358.134C680.16 357.386 680.829 356.868 681.947 356.488C682.26 356.66 682.58 356.823 682.881 357.015C683.168 357.198 683.445 357.396 683.727 357.586C684.781 356.882 685.372 355.998 686.143 355.011Z"/>
		<path fill="#636363" transform="scale(0.958008 0.958008)" d="M604.882 306.175C609.08 308.608 613.065 311.283 617.069 314.014C611.732 326.373 605.888 338.858 597.9 349.768C592.684 356.891 586.154 363.301 581.66 370.922C579.292 374.938 577.868 380.895 579.371 385.46C579.724 386.531 580.028 386.932 581.041 387.469C583.273 384.855 582.311 379.602 584.258 376.428C590.135 366.847 598.469 358.944 604.664 349.528C611.088 339.764 615.126 328.55 621.656 318.948L622.054 318.368C629.294 323.421 633.714 331.751 635.999 340.139C639.59 353.317 635.217 366.856 628.632 378.385C622.451 379.495 616.633 380.759 610.704 382.872C599.23 386.962 588.71 392.359 576.658 394.823C575.292 384.759 573.499 375.024 568.501 366.053Q566.682 362.787 564.406 359.822Q562.13 356.856 559.446 354.254C556.906 351.766 548.945 347.419 548.257 344.624C548.762 344.355 548.864 344.264 549.507 344.133C556.087 342.791 563.596 346.536 568.759 350.161C571.049 352.068 573.308 353.472 573.537 356.731C573.585 357.411 573.564 357.831 573.551 358.489C573.019 359.953 572.468 361.731 572.386 363.288C572.282 365.252 573.18 368.326 574.433 369.792L575.334 369.753L575.258 368.65L575.539 369.137C576.009 366.813 576.453 364.284 577.404 362.105C579.112 358.188 583.122 354.307 585.739 350.895Q589.052 346.55 591.742 341.795C598.126 330.7 602.066 318.604 604.882 306.175Z"/>
		<path fill="#636363" transform="scale(0.958008 0.958008)" d="M567.194 255.503C584.312 264.228 600.286 275.008 612.283 290.283C616.669 295.867 620.227 302.08 624.648 307.635C630.726 315.271 637.829 322.131 644.383 329.354C646.281 345.775 643.256 360.725 643.468 376.9Q652.66 378.292 661.953 378.564C672.314 378.88 692.284 376.743 700.898 381.156C708.897 385.254 721.085 400.658 726.641 408.089C728.457 410.518 730.197 413.043 731.464 415.806C721.013 411.024 717.127 397.065 707.314 391.173C705.785 390.255 704.877 390.159 703.165 390.559C690.574 383.024 676.946 380.568 662.61 384.15C656.621 385.646 651.302 388.203 645.866 391.047C643.345 385.063 641.607 380.007 635.189 377.337Q634.427 377.022 633.658 376.726C639.701 363.258 644.402 350.343 638.787 335.817C636.539 330.002 633.08 324.765 628.871 320.185C617.31 307.602 590.319 290.465 574.574 283.614C561.236 277.811 548.186 275.028 534.047 272.154C543.153 264.085 555.736 259.248 567.194 255.503Z"/>
		<path fill="#636363" transform="scale(0.958008 0.958008)" d="M668.753 387.641C682.137 386.982 691.695 388.873 702.893 396.404C684.995 407.707 664.171 425.665 649.28 440.95C646.081 444.85 643.072 448.876 640.064 452.923C635.701 452.108 631.293 451.586 626.943 450.685C630.578 431.857 638.708 413.234 645.525 395.386C652.989 391.579 660.488 389.005 668.753 387.641Z"/>
		<path fill="#636363" transform="scale(0.958008 0.958008)" d="M862.069 94.3655C877.96 80.5162 891.823 61.924 913.418 57.0772C921.023 55.3701 929.121 55.0139 936.85 53.711C934.409 60.4138 930.11 66.1479 927.589 72.8353C916.869 71.6104 906.243 73.6351 897.639 80.483C889.947 86.6051 885.468 94.9355 883.359 104.408C882.933 108.26 882.635 112.087 882.44 115.958C872.856 110.833 862.495 107.471 852.056 104.592C853.952 100.824 856.583 97.4609 859.131 94.1136L862.069 94.3655Z"/>
		<path fill="#3D3D3D" transform="scale(0.958008 0.958008)" d="M859.131 94.1136L862.069 94.3655C864.313 98.3488 878.701 102.638 883.359 104.408C882.933 108.26 882.635 112.087 882.44 115.958C872.856 110.833 862.495 107.471 852.056 104.592C853.952 100.824 856.583 97.4609 859.131 94.1136Z"/>
		<defs>
			<linearGradient id="gradient_3" gradientUnits="userSpaceOnUse" x1="874.06305" y1="139.99141" x2="853.78058" y2="158.49254">
				<stop offset="0" stop-color="#424242"/>
				<stop offset="1" stop-color="#787878"/>
			</linearGradient>
		</defs>
		<path fill="url(#gradient_3)" transform="scale(0.958008 0.958008)" d="M842.382 123.566C869.255 132.194 881.773 142.923 894.786 167.799C890.353 169.194 887.172 170.83 883.6 173.818C881.542 175.666 879.603 177.037 877.188 178.382C864.438 159.578 858.354 146.736 835.085 140.201C836.817 134.329 839.025 128.696 842.382 123.566Z"/>
		<path fill="#636363" transform="scale(0.958008 0.958008)" d="M669.623 256.737C677.158 253.847 683.129 253.389 691.042 254.593L692.565 255.165C719.34 263.543 747.287 282.964 760.528 308.037C764.05 314.706 766.422 321.07 764.132 328.646C763.785 329.793 763.361 330.542 762.606 331.457L761.677 331.744C760.058 328.402 759.388 324.772 757.969 321.367C756.762 318.471 754.91 316.032 753.763 313.023C738.543 294.256 718.051 277.82 696.208 267.488C687.673 263.451 678.358 260.425 669.623 256.737Z"/>
		<defs>
			<linearGradient id="gradient_4" gradientUnits="userSpaceOnUse" x1="705.21387" y1="290.18726" x2="721.70752" y2="273.92542">
				<stop offset="0" stop-color="#717070"/>
				<stop offset="1" stop-color="#A8A7A7"/>
			</linearGradient>
		</defs>
		<path fill="url(#gradient_4)" transform="scale(0.958008 0.958008)" d="M669.623 256.737C677.158 253.847 683.129 253.389 691.042 254.593L692.565 255.165L692.386 256.246C693.61 257.494 695.061 258.313 695.4 260.047L695.056 260.827C700.492 265.123 706.709 266.563 712.6 269.998C726.899 278.336 739.022 288.55 748.922 301.875C750.815 304.421 753.549 307.768 753.931 311.008C754.011 311.69 753.876 312.355 753.763 313.023C738.543 294.256 718.051 277.82 696.208 267.488C687.673 263.451 678.358 260.425 669.623 256.737Z"/>
		<path fill="#565453" transform="scale(0.958008 0.958008)" d="M691.042 254.593L692.565 255.165L692.386 256.246C693.61 257.494 695.061 258.313 695.4 260.047L695.056 260.827C693.2 259.979 690.977 259.348 690.151 257.458C690.469 256.749 690.679 256.137 690.864 255.374C690.927 255.115 690.983 254.854 691.042 254.593Z"/>
		<path fill="#636363" transform="scale(0.958008 0.958008)" d="M708.001 246.255C715.232 247.527 723.018 249.826 728.989 254.257C747.352 265.128 770.955 288.55 776.477 309.776Q776.638 310.399 776.785 311.025L773.398 317.693L770.572 323.235Q770.46 322.72 770.336 322.208C768.925 316.387 766.93 310.365 764.011 305.117C753.873 286.888 733.611 270.317 715.162 260.812C708.025 257.135 699.281 254.879 692.593 250.843C694.044 249.759 696.212 250.05 697.952 250.119L702.439 248.618C704.279 247.801 706.109 246.944 708.001 246.255Z"/>
		<path fill="#9F9E9D" transform="scale(0.958008 0.958008)" d="M770.572 323.235Q770.46 322.72 770.336 322.208C768.925 316.387 766.93 310.365 764.011 305.117C753.873 286.888 733.611 270.317 715.162 260.812C708.025 257.135 699.281 254.879 692.593 250.843C694.044 249.759 696.212 250.05 697.952 250.119C722.193 254.113 746.867 272.996 760.93 292.558C767.244 301.342 768.452 310.049 773.398 317.693L770.572 323.235Z"/>
		<path fill="#565453" transform="scale(0.958008 0.958008)" d="M708.001 246.255C715.232 247.527 723.018 249.826 728.989 254.257C724.314 253.827 720.104 250.909 715.485 249.955C711.198 249.07 706.644 249.846 702.439 248.618C704.279 247.801 706.109 246.944 708.001 246.255Z"/>
		<path fill="#636363" transform="scale(0.958008 0.958008)" d="M719.934 241.745C720.89 240.801 721.319 239.472 721.832 238.247C724.99 236.767 730.477 239.569 734.112 239.529C734.27 239.527 734.427 239.518 734.584 239.513C752.31 248.411 778.746 269.79 784.907 289.318C786.739 295.125 786.204 299.463 783.347 304.792Q782.247 306.843 781.071 308.851Q777.129 300.605 772.889 292.509C757.652 270.485 740.952 254.917 715.973 244.765L712.483 243.473L712.983 242.552C714.641 241.466 717.891 241.974 719.934 241.745Z"/>
		<path fill="#9F9E9D" transform="scale(0.958008 0.958008)" d="M715.973 244.765C718.361 243.37 719.879 243.618 722.503 244.287C725.981 245.172 729.265 246.77 732.509 248.278C744.568 253.881 753.094 261.1 761.577 271.24C763.569 273.62 765.798 276.028 767.406 278.689C767.806 279.352 768.044 279.998 768.224 280.748L767.844 281.056C767.42 280.481 767.001 279.912 766.613 279.312C765.194 277.116 763.103 275.354 761.091 273.704C763.392 278.565 773.143 287.969 772.889 292.509C757.652 270.485 740.952 254.917 715.973 244.765Z"/>
		<path fill="#636363" transform="scale(0.958008 0.958008)" d="M746.221 389.519C750.594 395.231 754.776 401.451 758.076 407.846C764.133 419.584 764.111 428.54 760.09 440.945C765.853 446.776 771.863 451.973 778.654 456.581C780.735 461.514 782.414 466.457 783.854 471.614L781.477 472.545C781.205 469.362 780.747 465.306 778.86 462.641C774.003 455.778 765.782 452.213 760.279 445.963C754.788 439.726 750.301 432.478 745.485 425.715C740.702 418.996 735.526 412.625 730.25 406.291C735.804 400.925 740.987 395.195 746.221 389.519Z"/>
		<path fill="#636363" transform="scale(0.958008 0.958008)" d="M740.15 224.753Q741.022 224.4 741.91 224.091Q742.798 223.782 743.7 223.518Q744.603 223.253 745.517 223.034Q746.432 222.815 747.356 222.641Q748.28 222.468 749.212 222.34Q750.144 222.213 751.081 222.132Q752.017 222.051 752.957 222.017Q753.897 221.983 754.837 221.995Q755.778 222.008 756.716 222.067Q757.655 222.126 758.589 222.232Q759.523 222.338 760.451 222.49Q761.379 222.642 762.299 222.84Q763.218 223.038 764.126 223.282Q765.034 223.525 765.93 223.814Q766.825 224.102 767.704 224.435Q768.584 224.767 769.446 225.143C781.981 230.481 795.327 241.711 800.498 254.59C804.206 263.825 801.282 273.627 797.451 282.341Q797.191 282.946 796.9 283.536C796.263 280.68 795.828 277.716 794.812 274.97C793.562 271.593 791.497 267.987 790.696 264.521C784.198 254.705 776.382 246.521 767.88 238.461C761.348 233.217 753.973 229.816 746.424 226.339L740.15 224.753Z"/>
		<path fill="#9F9E9D" transform="scale(0.958008 0.958008)" d="M769.075 233.024C778.193 236.727 785.659 247.026 789.35 255.884C790.524 258.7 791.344 261.476 790.696 264.521C784.198 254.705 776.382 246.521 767.88 238.461C768.912 237.901 769.905 237.312 770.901 236.693C770.988 235.153 769.938 234.262 769.075 233.024Z"/>
		<path fill="#C9C9C8" transform="scale(0.958008 0.958008)" d="M746.424 226.339C748.907 224.864 751.891 225.601 754.555 226.267C760.012 227.633 764.072 231.023 769.075 233.024C769.938 234.262 770.988 235.153 770.901 236.693C769.905 237.312 768.912 237.901 767.88 238.461C761.348 233.217 753.973 229.816 746.424 226.339Z"/>
		<path fill="#636363" transform="scale(0.958008 0.958008)" d="M672.869 261.98C698.381 268.511 736.559 293.385 749.749 315.807C753.399 322.012 755.22 328.222 755.697 335.38C754.56 336.772 754.174 337.585 752.451 338.183C750.145 336.983 749.437 333.8 748.559 331.462C737.246 313.535 721.424 297.994 703.763 286.252C698.17 282.534 692.177 279.421 686.486 275.851C685.345 273.392 682.011 272.183 679.718 270.975L689.066 272.723C688.985 272.63 688.904 272.538 688.825 272.444C683.907 266.588 676.921 267.368 672.869 261.98Z"/>
		<path fill="#9F9E9D" transform="scale(0.958008 0.958008)" d="M679.718 270.975L689.066 272.723C693.686 274.527 698.255 277.722 702.469 280.34C720.061 291.271 738.022 304.978 746.67 324.49C747.685 326.779 748.455 328.935 748.559 331.462C737.246 313.535 721.424 297.994 703.763 286.252C698.17 282.534 692.177 279.421 686.486 275.851C685.345 273.392 682.011 272.183 679.718 270.975Z"/>
		<path fill="#636363" transform="scale(0.958008 0.958008)" d="M706.326 400.879C710.032 404.213 712.787 408.43 715.576 412.522C707.443 419.082 697.993 423.137 689.179 428.596C676.866 436.224 665.713 445.501 655.052 455.256L645.3 453.449C662.212 432.363 684.351 416.258 706.326 400.879Z"/>
		<path fill="#636363" transform="scale(0.958008 0.958008)" d="M736.817 228.386C745.183 228.661 753.26 230.878 759.559 236.691C773.07 245.625 787.833 259.626 791.187 276.189C792.055 280.478 792.449 286.574 790.642 290.642L789.929 290.899L789.604 290.5L789.824 289.963L789.664 289.486L789.159 289.727C786.192 283.735 782.523 278.303 779.426 272.44C768.2 258.938 755.61 248.871 740.968 239.38C736.981 237.394 732.989 235.538 728.872 233.835C731.325 233.101 734.065 233.413 736.605 233.468C736.015 231.4 735.976 230.334 736.817 228.386Z"/>
		<path fill="#9F9E9D" transform="scale(0.958008 0.958008)" d="M740.968 239.38L742.981 238.177C754.92 243.624 764.831 249.718 773.495 259.738C775.91 262.531 778.333 265.431 779.556 268.976C780.027 270.34 780.073 271.134 779.426 272.44C768.2 258.938 755.61 248.871 740.968 239.38Z"/>
		<path fill="#565453" transform="scale(0.958008 0.958008)" d="M736.817 228.386C745.183 228.661 753.26 230.878 759.559 236.691C754.233 236.21 749.712 232.187 744.167 231.702C741.775 231.493 738.612 231.897 736.747 233.503L736.605 233.468C736.015 231.4 735.976 230.334 736.817 228.386Z"/>
		<path fill="#767676" transform="scale(0.958008 0.958008)" d="M728.872 233.835C731.325 233.101 734.065 233.413 736.605 233.468L736.747 233.503C736.905 233.62 737.061 233.74 737.221 233.853C739.293 235.324 741.211 236.276 742.981 238.177L740.968 239.38C736.981 237.394 732.989 235.538 728.872 233.835Z"/>
		<path fill="#636363" transform="scale(0.958008 0.958008)" d="M825.187 159.893C826.781 157.673 827.932 156.351 830.716 155.882C837.425 154.75 845.672 160.082 850.768 163.984Q852.949 165.681 855.001 167.532Q857.054 169.382 858.967 171.377Q860.88 173.371 862.643 175.499Q864.407 177.626 866.012 179.876C863.116 184.696 859.979 189.108 856.248 193.316L851.088 185.447C847.209 181.233 842.893 177.738 838.26 174.387C835.662 173.123 833.011 171.755 830.196 171.047C825.516 169.87 822.258 171.287 818.368 173.699L815.621 176.006L814.032 173.342L817.128 169.958Q821.295 165.035 825.187 159.893Z"/>
		<defs>
			<linearGradient id="gradient_5" gradientUnits="userSpaceOnUse" x1="819.60291" y1="165.03922" x2="843.28436" y2="170.89435">
				<stop offset="0" stop-color="#8F8D8D"/>
				<stop offset="1" stop-color="#B3B2B2"/>
			</linearGradient>
		</defs>
		<path fill="url(#gradient_5)" transform="scale(0.958008 0.958008)" d="M825.187 159.893C832.851 160.057 839.314 163.52 845.441 167.848C843.794 170.889 842.429 173.282 838.895 174.245C838.685 174.302 838.472 174.34 838.26 174.387C835.662 173.123 833.011 171.755 830.196 171.047C825.516 169.87 822.258 171.287 818.368 173.699L815.621 176.006L814.032 173.342L817.128 169.958Q821.295 165.035 825.187 159.893Z"/>
		<path fill="#636363" transform="scale(0.958008 0.958008)" d="M814.032 173.342L817.128 169.958L818.368 173.699L815.621 176.006L814.032 173.342Z"/>
		<path fill="#9F9E9D" transform="scale(0.958008 0.958008)" d="M845.441 167.848C847.644 169.376 849.979 170.836 852.057 172.527C851.779 176.778 851.764 181.248 851.088 185.447C847.209 181.233 842.893 177.738 838.26 174.387C838.472 174.34 838.685 174.302 838.895 174.245C842.429 173.282 843.794 170.889 845.441 167.848Z"/>
		<path fill="#9F9E9D" transform="scale(0.958008 0.958008)" d="M703.165 390.559C704.877 390.159 705.785 390.255 707.314 391.173C717.127 397.065 721.013 411.024 731.464 415.806C737.151 422.305 742.978 428.879 747.871 436.007C755.971 447.808 760.051 460.266 757.273 474.614C756.948 476.294 756.622 478.228 755.122 479.255C752.647 477.561 744.789 455.506 742.971 451.467C732.488 428.181 721.299 408.845 703.165 390.559Z"/>
		<path fill="#636363" transform="scale(0.958008 0.958008)" d="M753.698 218.37C756.848 216.365 760.085 214.844 763.506 213.36C764.918 213.95 765.376 214.385 766.889 214C781.808 213.309 793.139 215.775 804.428 226.157Q806.688 228.228 808.672 230.566Q810.655 232.903 812.33 235.471C808.826 240.366 805.303 245.186 802.271 250.394L797.294 242.991C793.402 238.31 788.834 234.309 784.321 230.249C781.449 228.263 778.504 226.489 775.479 224.746C773.477 224.092 771.472 222.994 769.542 222.128L763.457 219.665C760.16 218.869 757.077 218.544 753.698 218.37Z"/>
		<path fill="#9F9E9D" transform="scale(0.958008 0.958008)" d="M789.017 226.259C792.994 229.491 797.715 233.69 798.364 239.074C798.519 240.354 798.48 241.489 797.675 242.559C797.559 242.712 797.421 242.847 797.294 242.991C793.402 238.31 788.834 234.309 784.321 230.249C786.066 229.059 787.504 227.728 789.017 226.259Z"/>
		<path fill="#767676" transform="scale(0.958008 0.958008)" d="M763.457 219.665C764.864 218.134 766.112 217.813 768.171 217.713C771.261 217.564 774.164 218.323 776.438 220.45L780.678 222.214C778.615 222.48 777.249 222.587 775.828 224.284C775.704 224.432 775.595 224.592 775.479 224.746C773.477 224.092 771.472 222.994 769.542 222.128L763.457 219.665Z"/>
		<path fill="#9F9E9D" transform="scale(0.958008 0.958008)" d="M776.438 220.45L780.678 222.214C778.615 222.48 777.249 222.587 775.828 224.284C775.704 224.432 775.595 224.592 775.479 224.746C773.477 224.092 771.472 222.994 769.542 222.128C769.705 221.942 769.857 221.746 770.032 221.571C771.609 219.99 774.354 220.431 776.438 220.45Z"/>
		<path fill="#C9C9C8" transform="scale(0.958008 0.958008)" d="M775.479 224.746C775.595 224.592 775.704 224.432 775.828 224.284C777.249 222.587 778.615 222.48 780.678 222.214L789.017 226.259C787.504 227.728 786.066 229.059 784.321 230.249C781.449 228.263 778.504 226.489 775.479 224.746Z"/>
		<path fill="#636363" transform="scale(0.958008 0.958008)" d="M725.583 354.361C729.789 358.393 733.813 369.118 736.867 374.555C739.376 379.021 742.211 383.295 745.036 387.566C739.037 391.78 733.878 396.562 728.652 401.664L727.563 401.984C723.037 399.716 714.366 388.082 710.347 383.741C714.154 376.803 720.342 371.495 726.059 366.171Q725.851 360.265 725.583 354.361Z"/>
		<path fill="#636363" transform="scale(0.958008 0.958008)" d="M789.024 201.448C793.674 198.997 798.149 198.82 803.171 200.363C813.168 203.436 821.479 211.186 826.535 220.144C822.539 224.092 818.625 228.257 814.308 231.854C813.045 230.375 811.823 228.738 810.461 227.359C806.981 224.33 803.436 221.459 799.76 218.671C793.646 215.111 787.324 212.697 780.523 210.804L780.418 210.024L784.36 206.457C785.925 204.805 787.552 203.183 789.024 201.448Z"/>
		<defs>
			<linearGradient id="gradient_6" gradientUnits="userSpaceOnUse" x1="785.25708" y1="206.24777" x2="799.24182" y2="220.25336">
				<stop offset="0" stop-color="#888687"/>
				<stop offset="1" stop-color="#B7B6B8"/>
			</linearGradient>
		</defs>
		<path fill="url(#gradient_6)" transform="scale(0.958008 0.958008)" d="M784.36 206.457C785.765 207.254 787.085 208.319 788.509 209.03C792.673 211.109 797.502 211.757 801.576 214.102C802.31 215.236 802.989 216.348 803.595 217.559C802.508 218.561 801.209 218.51 799.76 218.671C793.646 215.111 787.324 212.697 780.523 210.804L780.418 210.024L784.36 206.457Z"/>
		<path fill="#9F9E9D" transform="scale(0.958008 0.958008)" d="M801.576 214.102C805.066 215.691 810.424 218.721 811.765 222.54C812.168 223.685 812.246 224.935 811.617 226.035C811.341 226.517 810.852 226.966 810.461 227.359C806.981 224.33 803.436 221.459 799.76 218.671C801.209 218.51 802.508 218.561 803.595 217.559C802.989 216.348 802.31 215.236 801.576 214.102Z"/>
		<path fill="#636363" transform="scale(0.958008 0.958008)" d="M788.442 477.234C786.979 472.312 785.57 467.397 784.643 462.34C783.119 454.016 782.614 445.118 779.29 437.253C775.344 427.911 771.234 428.005 766.463 421.711C765.652 420.642 765.474 419.537 765.272 418.258L765.777 418.001C771.303 421.055 776.817 428.704 781.761 433.058C787.344 437.975 793.647 442.101 799.072 447.182C800.965 448.954 802.592 450.803 803.922 453.042C804.611 454.564 804.25 455.767 803.958 457.333C803.821 459.318 803.64 461.371 803.09 463.289C801.09 470.261 794.275 473.882 788.442 477.234Z"/>
		<path fill="#9F9E9D" transform="scale(0.958008 0.958008)" d="M784.795 441.686C791.104 445.82 796.879 450.196 803.922 453.042C804.611 454.564 804.25 455.767 803.958 457.333C799.685 461.719 795.42 465.056 790.251 468.341C786.526 459.735 785.69 450.908 784.795 441.686Z"/>
		<path fill="#636363" transform="scale(0.958008 0.958008)" d="M800.507 190.392C803.372 187.381 805.489 185.734 809.891 185.666C818.5 185.532 827.634 192.1 833.376 198.014C836.28 201.004 838.793 204.332 841.207 207.72C838.079 210.932 834.719 215.274 830.378 216.695C828.827 216.433 828.873 216.271 827.849 215.043Q822.167 209.013 816.24 203.224C813.752 201.818 811.205 200.502 808.684 199.155C804.482 197.699 800.336 196.415 795.921 195.806L798.96 191.666L800.507 190.392Z"/>
		<path fill="#C9C9C8" transform="scale(0.958008 0.958008)" d="M809.284 193.587C813.888 195.369 818.035 197.557 821.814 200.778C819.903 202.29 818.723 203.023 816.24 203.224C813.752 201.818 811.205 200.502 808.684 199.155C808.015 197.967 807.196 196.969 806.576 195.726C807.216 194.328 807.936 194.26 809.284 193.587Z"/>
		<path fill="#9F9E9D" transform="scale(0.958008 0.958008)" d="M821.814 200.778C824.757 204.132 828.528 208.885 828.09 213.627C828.04 214.175 827.962 214.468 827.849 215.043Q822.167 209.013 816.24 203.224C818.723 203.023 819.903 202.29 821.814 200.778Z"/>
		<path fill="#9F9E9D" transform="scale(0.958008 0.958008)" d="M800.507 190.392C803.042 191.58 806.444 193.676 809.284 193.587C807.936 194.26 807.216 194.328 806.576 195.726C807.196 196.969 808.015 197.967 808.684 199.155C804.482 197.699 800.336 196.415 795.921 195.806L798.96 191.666L800.507 190.392Z"/>
		<defs>
			<linearGradient id="gradient_7" gradientUnits="userSpaceOnUse" x1="866.86597" y1="139.49583" x2="874.12665" y2="131.92693">
				<stop offset="0" stop-color="#767576"/>
				<stop offset="1" stop-color="#A1A0A0"/>
			</linearGradient>
		</defs>
		<path fill="url(#gradient_7)" transform="scale(0.958008 0.958008)" d="M844.229 114.9C846.036 113.842 847.234 114.189 849.246 114.706C854.545 116.066 860.066 118.458 864.37 121.849C869.142 123.791 873.606 126.046 877.982 128.772C880.789 130.521 886.502 135.833 889.443 136.145L889.804 135.919C891.432 137.507 893.854 139.913 894.741 142.053C894.077 144.481 897.738 151.069 898.314 154.073C899.785 158.611 902.72 163.444 902.546 168.284C901.925 168.7 901.432 168.865 900.729 169.098C899.086 168.58 898.636 167.879 897.463 166.649C897.242 164.749 896.37 162.726 895.788 160.893C888.22 145.895 874.343 133.554 859.227 126.526C854.189 124.183 848.438 122.739 844.066 119.223C843.466 117.579 843.9 116.596 844.229 114.9Z"/>
		<defs>
			<linearGradient id="gradient_8" gradientUnits="userSpaceOnUse" x1="889.11725" y1="135.48137" x2="878.06171" y2="141.16933">
				<stop offset="0" stop-color="#3C3B3C"/>
				<stop offset="1" stop-color="#565657"/>
			</linearGradient>
		</defs>
		<path fill="url(#gradient_8)" transform="scale(0.958008 0.958008)" d="M864.37 121.849C869.142 123.791 873.606 126.046 877.982 128.772C880.789 130.521 886.502 135.833 889.443 136.145L889.804 135.919C891.432 137.507 893.854 139.913 894.741 142.053C894.077 144.481 897.738 151.069 898.314 154.073C896.259 152.578 894.771 150.671 892.446 149.534C887.77 142.487 881.002 138.043 874.89 132.415C872.886 126.921 867.206 126.473 864.37 121.849Z"/>
		<path fill="#636363" transform="scale(0.958008 0.958008)" d="M844.229 114.9C846.036 113.842 847.234 114.189 849.246 114.706C854.545 116.066 860.066 118.458 864.37 121.849C867.206 126.473 872.886 126.921 874.89 132.415C864.194 127.196 855.472 119.441 844.229 114.9Z"/>
		<path fill="#636363" transform="scale(0.958008 0.958008)" d="M892.446 149.534C894.771 150.671 896.259 152.578 898.314 154.073C899.785 158.611 902.72 163.444 902.546 168.284C901.925 168.7 901.432 168.865 900.729 169.098C899.086 168.58 898.636 167.879 897.463 166.649C897.242 164.749 896.37 162.726 895.788 160.893C895.891 160.676 896.022 160.469 896.097 160.24C897.037 157.355 893.678 152.156 892.446 149.534Z"/>
		<path fill="#767676" transform="scale(0.958008 0.958008)" d="M897.463 166.649C898.723 166.099 899.769 165.489 901.182 165.745C902.124 166.602 902.162 167.047 902.546 168.284C901.925 168.7 901.432 168.865 900.729 169.098C899.086 168.58 898.636 167.879 897.463 166.649Z"/>
		<path fill="#636363" transform="scale(0.958008 0.958008)" d="M819.049 176.054C823.621 173.824 827.48 172.8 832.497 174.553C841.779 177.794 848.418 187.39 853.089 195.522Q848.336 200.018 843.785 204.718L837.425 196.847C834.559 194.366 831.583 192.001 828.65 189.598Q824.588 187.34 820.411 185.302C817.846 184.596 815.124 184.268 812.501 183.819C811.908 183.276 812.209 183.643 811.775 182.594L813.111 180.451C815.037 178.855 816.97 177.44 819.049 176.054Z"/>
		<path fill="#9F9E9D" transform="scale(0.958008 0.958008)" d="M819.049 176.054C821.575 177.998 824.278 179.865 826.409 182.25C824.044 182.97 822.253 183.626 820.411 185.302C817.846 184.596 815.124 184.268 812.501 183.819C811.908 183.276 812.209 183.643 811.775 182.594L813.111 180.451C815.037 178.855 816.97 177.44 819.049 176.054Z"/>
		<path fill="#C9C9C8" transform="scale(0.958008 0.958008)" d="M826.409 182.25L831.928 186.348L828.65 189.598Q824.588 187.34 820.411 185.302C822.253 183.626 824.044 182.97 826.409 182.25Z"/>
		<path fill="#9F9E9D" transform="scale(0.958008 0.958008)" d="M831.928 186.348C834.31 188.532 837.438 191.594 837.551 195.083C837.581 195.991 837.55 195.922 837.425 196.847C834.559 194.366 831.583 192.001 828.65 189.598L831.928 186.348Z"/>
		<path fill="#636363" transform="scale(0.958008 0.958008)" d="M715.39 338.15C721.097 345.847 723.199 354.482 723.712 363.921C717.928 371.434 711.168 372.887 707.14 382.522L703.754 378.389C700.756 376.417 698.574 375.584 694.978 375.429L696.114 374.368C696.829 374.286 697.552 374.221 698.242 374C711.709 369.676 710.308 348.469 715.39 338.15Z"/>
		<path fill="#9F9E9D" transform="scale(0.958008 0.958008)" d="M723.712 363.921C717.928 371.434 711.168 372.887 707.14 382.522L703.754 378.389C707.307 372.856 711.821 368.629 716.52 364.096C719.032 364.978 720.419 364.788 722.88 363.903L723.712 363.921Z"/>
		<path transform="scale(0.958008 0.958008)" d="M716.52 364.096C715.064 363.347 713.734 362.815 712.814 361.39L713.333 360.683C716.889 360.375 719.769 361.338 722.518 363.597C722.64 363.698 722.759 363.801 722.88 363.903C720.419 364.788 719.032 364.978 716.52 364.096Z"/>
		<path fill="#6E480E" transform="scale(0.958008 0.958008)" d="M568.759 350.161C581.904 337.135 588.064 329.483 594.272 311.984C595.033 309.838 597.406 301.768 599.79 301.654C600.961 303.174 600.925 304.684 600.683 306.549C598.568 322.836 584.922 347.05 573.551 358.489C573.564 357.831 573.585 357.411 573.537 356.731C573.308 353.472 571.049 352.068 568.759 350.161Z"/>
		<defs>
			<linearGradient id="gradient_9" gradientUnits="userSpaceOnUse" x1="794.32581" y1="487.90582" x2="823.47791" y2="464.4996">
				<stop offset="0" stop-color="#747374"/>
				<stop offset="1" stop-color="#8F8E8E"/>
			</linearGradient>
		</defs>
		<path fill="url(#gradient_9)" transform="scale(0.958008 0.958008)" d="M805.037 465.631C814.66 472.366 824.03 471.674 835.213 471.167C820.258 476.722 806.859 485.721 791.363 489.79C794.437 485.471 798.171 481.642 801.859 477.851C800.507 476.949 799.001 476.193 797.588 475.388C800.75 472.368 803.03 469.558 805.037 465.631Z"/>
		<path fill="#C9C9C8" transform="scale(0.958008 0.958008)" d="M834.627 143.806C838.652 145.08 842.526 146.408 846.25 148.418C856.55 153.978 868.369 166.56 871.695 177.89L871.226 178.484L869.639 178.056C866.392 175.124 863.562 171.672 860.508 168.533C851.724 159.507 842.613 155.234 830.714 151.715L834.627 143.806Z"/>
		<path fill="#9F9E9D" transform="scale(0.958008 0.958008)" d="M781.477 472.545L783.854 471.614C784.797 474.744 785.652 477.939 786.743 481.019C790.367 479.174 794.054 477.4 797.588 475.388C799.001 476.193 800.507 476.949 801.859 477.851C798.171 481.642 794.437 485.471 791.363 489.79L775.366 497.615C779.283 489.091 781.352 481.955 781.477 472.545Z"/>
		<path fill="#3D3D3D" transform="scale(0.958008 0.958008)" d="M719.844 233.655C723.061 231.786 732.928 226.366 736.151 226.911L736.817 228.386C735.976 230.334 736.015 231.4 736.605 233.468C734.065 233.413 731.325 233.101 728.872 233.835C727.344 234.044 726.169 234.196 724.811 235.003C725.162 236.034 724.838 235.656 725.937 236.181C728.814 237.557 731.83 237.745 734.584 239.513C734.427 239.518 734.27 239.527 734.112 239.529C730.477 239.569 724.99 236.767 721.832 238.247C721.319 239.472 720.89 240.801 719.934 241.745C717.891 241.974 714.641 241.466 712.983 242.552L712.483 243.473C708.24 242.616 703.256 243.818 698.888 244.013C705.023 239.412 712.841 236.729 719.844 233.655Z"/>
		<path fill="#565453" transform="scale(0.958008 0.958008)" d="M698.888 244.013C705.023 239.412 712.841 236.729 719.844 233.655C720.223 234.929 720.674 235.678 719.992 236.948C719.108 238.595 716.786 239.729 715.221 240.694C715.997 241.625 717.706 241.548 718.905 241.656L719.934 241.745C717.891 241.974 714.641 241.466 712.983 242.552L712.483 243.473C708.24 242.616 703.256 243.818 698.888 244.013Z"/>
		<defs>
			<linearGradient id="gradient_10" gradientUnits="userSpaceOnUse" x1="664.2749" y1="255.71344" x2="679.2251" y2="276.28656">
				<stop offset="0" stop-color="#716F70"/>
				<stop offset="1" stop-color="#868587"/>
			</linearGradient>
		</defs>
		<path fill="url(#gradient_10)" transform="scale(0.958008 0.958008)" d="M686.486 275.851C681.93 274.365 659.722 264.795 657.591 262.611C656.761 261.761 656.759 261.602 656.78 260.485C657.264 260.05 657.325 259.947 657.978 259.624C661.768 257.756 669.152 260.58 672.869 261.98C676.921 267.368 683.907 266.588 688.825 272.444C688.904 272.538 688.985 272.63 689.066 272.723L679.718 270.975C682.011 272.183 685.345 273.392 686.486 275.851Z"/>
		<path fill="#FFFEFE" transform="scale(0.958008 0.958008)" d="M767.779 426.699C773.138 430.355 776.516 438.281 777.753 444.519C778.156 446.547 778.791 449.421 777.573 451.256C776.328 451.364 776.17 451.138 775.076 450.488L763.01 440.072C765.723 435.795 767.111 431.693 767.779 426.699Z"/>
		<defs>
			<linearGradient id="gradient_11" gradientUnits="userSpaceOnUse" x1="573.50183" y1="234.12193" x2="570.43268" y2="244.60168">
				<stop offset="0" stop-color="#6C6B6B"/>
				<stop offset="1" stop-color="#8A8989"/>
			</linearGradient>
		</defs>
		<path fill="url(#gradient_11)" transform="scale(0.958008 0.958008)" d="M575.45 234.144C576.135 234.276 576.834 234.39 577.482 234.659C579.247 235.391 580.943 236.828 581.603 238.661C582.149 240.18 581.993 241.907 581.333 243.362C580.663 244.837 579.433 246.031 577.893 246.558C575.527 247.368 573.223 246.595 571.095 245.536C567.413 243.188 564.14 240.321 560.87 237.445Q568.061 235.359 575.45 234.144Z"/>
		<path fill="#FFFEFE" transform="scale(0.958008 0.958008)" d="M546.699 222.864C547.283 223.666 547.421 224.208 547.591 225.2C549.036 233.644 536.366 240.201 531.811 246.094C531.666 246.282 531.525 246.472 531.383 246.662C530.77 245.277 530.409 243.946 530.568 242.422C531.39 234.51 540.984 227.415 546.699 222.864Z"/>
		<path fill="#FFFEFE" transform="scale(0.958008 0.958008)" d="M561.395 217.779C564.149 220.184 567.788 223.006 569.783 226.06C570.642 227.376 571.082 228.505 570.779 230.097C569.635 231.394 569.014 231.399 567.386 231.869C565.889 232.423 564.298 233.086 562.712 233.323C561.111 233.561 560.207 232.992 559.017 232.019C557.062 227.73 559.948 221.908 561.395 217.779Z"/>
		<path fill="#565453" transform="scale(0.958008 0.958008)" d="M763.506 213.36C768.338 209.881 782.601 198.831 787.9 198.683C788.787 198.659 788.554 198.733 789.259 199.443L789.024 201.448C787.552 203.183 785.925 204.805 784.36 206.457L780.418 210.024L780.523 210.804C776.743 210.562 771.122 209.979 768.026 212.534C767.591 212.893 767.198 213.549 766.889 214C765.376 214.385 764.918 213.95 763.506 213.36Z"/>
		<path fill="#FFFEFE" transform="scale(0.958008 0.958008)" d="M773.824 475.392C774.274 475.854 774.377 476.277 774.487 476.926C775.888 485.157 767.155 497.808 762.744 504.091C762.308 503.601 762.348 503.792 762.263 503.16C761.06 494.192 768.623 482.187 773.824 475.392Z"/>
		<path fill="#FFFEFE" transform="scale(0.958008 0.958008)" d="M585.721 245.501C591.076 249.788 593.649 256.541 595.677 262.857L589.789 258.996Q583.411 255.278 576.981 251.648L585.721 245.501Z"/>
		<path fill="#FFFEFE" transform="scale(0.958008 0.958008)" d="M555.53 460.89C557.819 461.07 560.336 461.352 561.945 463.194C562.837 464.216 562.99 465.36 562.874 466.669C562.614 469.607 560.052 471.495 557.916 473.134C555.617 473.098 552.989 473.14 551.388 471.17C550.532 470.115 550.409 468.892 550.61 467.599C551.068 464.646 553.329 462.644 555.53 460.89Z"/>
		<path fill="#636363" transform="scale(0.958008 0.958008)" d="M762.274 451.869C767.152 453.902 770.465 458.012 773.896 461.847C773.39 465.759 772.476 469.263 771.168 472.976C770.5 474.124 769.812 474.898 768.893 475.836L768.081 475.743C767.411 474.282 767.503 472.625 767.419 471.045C766.987 462.917 766.588 459.071 762.274 451.869Z"/>
		<path fill="#9F9E9D" transform="scale(0.958008 0.958008)" d="M651.148 304.508L653.534 306.603C655.189 307.388 656.94 308.106 658.513 309.04C654.039 311.295 651.055 315.413 646.692 317.747C645.215 318.536 644.26 318.654 642.674 318.188C642.169 317.441 641.902 317.309 641.911 316.36C641.949 312.218 648.277 307.234 651.148 304.508Z"/>
		<path fill="#636363" transform="scale(0.958008 0.958008)" d="M651.148 304.508C653.761 300.88 656.66 295.858 660.62 293.676L661.602 293.828C662.82 296.721 660.721 301.972 659.668 304.778C659.57 306.257 659.889 307.949 658.715 308.959C658.66 309.006 658.58 309.013 658.513 309.04C656.94 308.106 655.189 307.388 653.534 306.603L651.148 304.508Z"/>
		<path fill="#3D3D3D" transform="scale(0.958008 0.958008)" d="M653.534 306.603C655.403 305.669 657.642 305.298 659.668 304.778C659.57 306.257 659.889 307.949 658.715 308.959C658.66 309.006 658.58 309.013 658.513 309.04C656.94 308.106 655.189 307.388 653.534 306.603Z"/>
		<path fill="#636363" transform="scale(0.958008 0.958008)" d="M666.684 297.312C671.222 300.33 676.237 303.903 680.128 307.701L679.38 307.925C674.317 307.056 669.243 307.31 664.139 307.57C664.874 304.125 665.8 300.721 666.684 297.312Z"/>
		<path fill="#C9C9C8" transform="scale(0.958008 0.958008)" d="M753.844 482.623C755.294 483.79 757.393 485.164 758.405 486.731C760.495 489.966 758.894 494.246 758.42 497.781C758.375 501.405 758.449 504.841 756.838 508.183L755.99 508.817C754.765 504.848 755.353 499.203 755.156 494.999Q754.86 488.773 753.844 482.623Z"/>
		<path fill="#FFFEFE" transform="scale(0.958008 0.958008)" d="M755.99 508.817C756.259 505.795 755.258 502.079 756.269 499.253C756.579 498.387 757.63 498.161 758.42 497.781C758.375 501.405 758.449 504.841 756.838 508.183L755.99 508.817Z"/>
		<path fill="#9F9E9D" transform="scale(0.958008 0.958008)" d="M762.207 457.866C762.709 458.343 762.641 458.209 762.961 458.742C766.871 465.269 764.428 476.784 762.64 483.707L761.809 483.849C758.902 476.245 761.2 465.765 762.207 457.866Z"/>
		<path fill="#FFFEFE" transform="scale(0.958008 0.958008)" d="M810.602 457.798C815.52 458.711 820.54 461.99 825.141 464.031C828.633 465.58 832.262 466.776 835.759 468.312C832.891 468.445 829.958 468.098 827.131 467.631C820.192 466.484 814.7 463.593 810.602 457.798Z"/>
		<path fill="#636363" transform="scale(0.958008 0.958008)" d="M777.17 464.829C777.929 465.52 777.777 465.25 778.218 466.15C781.393 472.623 777.629 484.556 775.579 490.931L775.038 491.415L774.56 491.048C774.419 487.403 775.75 483.72 776.205 480.093C776.835 475.07 776.912 469.887 777.17 464.829Z"/>
		<path fill="#565453" transform="scale(0.958008 0.958008)" d="M814.032 173.342L815.621 176.006C814.424 177.47 813.683 178.642 813.111 180.451L811.775 182.594C812.209 183.643 811.908 183.276 812.501 183.819C810.464 184.066 808.36 183.998 806.306 184.032C808.381 180.034 811.035 176.68 814.032 173.342Z"/>
		<path fill="#9F9E9D" transform="scale(0.958008 0.958008)" d="M651.801 363.537C652.621 365.137 653.37 366.878 654.363 368.371C651.443 368.506 649.015 369.731 646.403 370.902L647.224 363.508L651.801 363.537Z"/>
		<path fill="#3D3D3D" transform="scale(0.958008 0.958008)" d="M811.341 242.467L811.687 242.937C811.556 247.116 808.8 251.483 806.288 254.705C805.986 254.05 805.909 254.017 805.825 253.269C805.379 249.267 809.054 245.386 811.341 242.467Z"/>
		<path fill="#3A2A10" transform="scale(0.958008 0.958008)" d="M788.812 196.347C790.516 194.925 792.253 193.354 794.175 192.237C796.008 191.171 796.931 191.122 798.96 191.666L795.921 195.806C793.623 196.236 791.149 196.21 788.812 196.347Z"/>
	</g>
	<g/>
</svg>
