<?xml version="1.0" encoding="utf-8" ?>
<svg xmlns="http://www.w3.org/2000/svg" xmlns:xlink="http://www.w3.org/1999/xlink" width="1024" height="1024">
	<g>
		<path fill="#2D2A28" d="M282.873 62.7455C287.547 65.0454 299.905 78.0527 305.02 82.3429C313.559 89.506 322.535 95.9266 331.85 102.036C341.407 108.304 352.551 116.8 363.828 119.192C366.889 119.841 370.224 120.351 372.77 122.313C376.801 125.42 377.456 130.944 378.195 135.633C384.075 138.714 390.573 140.337 396.422 143.49C397.135 145.123 397.734 146.816 398.373 148.48C425.935 138.644 452.724 130.354 482.229 129.695Q484.106 129.647 485.983 129.645Q487.86 129.642 489.737 129.686Q491.613 129.73 493.488 129.82Q495.363 129.91 497.235 130.046Q499.108 130.182 500.976 130.363Q502.844 130.545 504.708 130.773Q506.571 131 508.428 131.273Q510.285 131.546 512.135 131.865Q513.985 132.184 515.827 132.548Q517.668 132.911 519.5 133.32Q521.332 133.729 523.154 134.183Q524.975 134.637 526.785 135.135Q528.595 135.634 530.392 136.176Q532.189 136.719 533.972 137.305Q535.755 137.892 537.524 138.522Q539.292 139.152 541.044 139.825Q542.797 140.498 544.532 141.214Q546.267 141.93 547.984 142.689Q549.701 143.447 551.399 144.247Q553.097 145.048 554.775 145.889Q556.453 146.731 558.11 147.613Q559.767 148.496 561.401 149.419Q563.036 150.342 564.647 151.305Q566.259 152.267 567.846 153.269Q569.434 154.271 570.996 155.312Q572.558 156.353 574.094 157.431Q575.631 158.51 577.14 159.626Q578.65 160.742 580.131 161.895Q581.613 163.047 583.066 164.236Q584.518 165.425 585.942 166.649Q587.365 167.873 588.758 169.131Q590.151 170.39 591.512 171.682C610.351 189.852 622.657 212.532 623.048 238.982C601.052 224.624 577.554 210.928 550.652 209.546C519.01 207.92 488.634 219.74 465.236 240.736C469.608 246.9 474.842 253.09 477.198 260.348C475.278 267.059 471.555 272.956 468.107 278.967C473.32 285.858 476.795 293.801 481.908 300.597C485.254 305.045 490.653 307.584 494.103 312.011C496.215 314.721 497.359 318.419 498.877 321.499C500.494 324.778 502.437 327.645 504.599 330.588C521.778 353.972 540.787 376.18 556.664 400.5C560.127 402.346 564.111 404.707 566.6 407.773C569.202 410.979 569.559 413.366 569.06 417.341C572.405 421.966 575.749 426.557 579.356 430.984C582.495 431.909 584.899 432.711 587.425 434.931C590.343 437.496 592.778 440.996 592.916 444.994C593.022 448.067 591.915 449.342 589.864 451.514C594.211 457.909 599.677 463.849 604.538 469.874Q617.109 485.502 629.361 501.381C665.691 548.513 702.326 595.155 737.059 643.504Q753.501 666.544 769.28 690.043C775.025 698.659 780.311 707.804 786.508 716.087C787.839 717.867 789.338 719.952 791.433 720.819C793.756 720.082 795.831 719.62 798.158 720.636C800.81 721.793 802.581 724.213 803.644 726.826C804.963 730.068 804.358 732.195 802.965 735.284C812.079 746.064 819.623 757.854 828.361 768.86C829.777 768.958 831.089 769.124 832.483 769.395C835.099 771.403 837.209 773.894 838.837 776.763C840.846 780.303 841.831 782.722 840.742 786.796C852.927 804.927 866.534 822.994 880.627 839.699C887.444 847.78 893.453 850.615 899.855 860.714C899.648 862.361 899.228 864.011 898.892 865.637C905.738 875.458 915.131 884.824 924.169 892.635C926.366 894.533 929.453 894.531 932.071 895.632C937.977 898.117 942.249 903.81 944.71 909.567C946.867 914.614 947.906 919.187 945.65 924.46C937.102 944.43 890.224 972.2 870.004 979.772C863.599 982.17 852.809 985.984 846.219 982.706C841.087 980.152 836.41 972.496 834.611 967.113C833.165 962.788 834.357 959.491 836.255 955.631C826.058 934.305 815.259 912.915 804.062 892.094C799.8 884.167 794.685 876.605 790.711 868.536C788.902 864.863 788.998 860.687 787.076 857.027C779.261 842.146 769.694 828.473 762.709 813.066C760.688 811.789 758.421 810.481 756.836 808.659C752.585 803.774 752.447 797.203 750.494 791.318C749.046 786.957 746.813 782.845 744.159 779.107C740.747 774.303 732.371 768.811 730.614 763.886C728.666 758.425 733.998 753.497 732.632 748.439C716.802 722.744 701.757 696.62 685.093 671.445C655.673 626.998 623.586 584.541 591.431 542.065C577.003 523.007 563.308 503.085 548.051 484.701L539.729 483.106C536.953 480.977 533.746 477.672 532.051 474.619C530.818 472.4 531.373 471.324 531.947 469.02C528.417 459.394 513.596 441.574 507.114 432.628C503.823 428.086 500.939 423.214 497.523 418.776C494.375 414.686 490.81 410.927 487.674 406.822C479.487 396.106 472.094 384.653 464.08 373.774C460.172 368.469 456.327 363.097 452.266 357.909C448.979 353.71 445.367 349.674 442.257 345.347C438.593 340.248 436.667 334.095 432.808 329.054C428.439 323.347 422.87 318.282 418.111 312.851C414.746 314.129 411.632 314.962 408.062 315.405C399.582 312.213 395.876 303.84 391.371 296.593C372.098 314.283 358.032 334.87 349.029 359.454C329.177 413.665 336.535 471.185 356.914 523.977C362.738 539.065 369.909 553.605 376.726 568.259C362.506 564.718 348.07 562.867 333.982 558.538C272.279 539.579 212.023 501.563 171.973 450.55C177.814 447.349 183.313 443.699 188.809 439.952Q177.085 440.375 165.422 441.636Q152.413 424.493 140.611 406.498C83.1368 317.696 64.8802 217.218 87.0506 113.734Q88.1909 115.614 89.3696 117.47Q90.5482 119.326 91.7646 121.158Q92.9811 122.989 94.2348 124.796Q95.4886 126.602 96.7791 128.382Q98.0697 130.162 99.3964 131.915Q100.723 133.669 102.086 135.394Q103.448 137.12 104.846 138.818Q106.243 140.515 107.675 142.183Q109.107 143.852 110.573 145.491Q112.039 147.129 113.539 148.737Q115.038 150.346 116.57 151.923Q118.102 153.5 119.666 155.046Q121.23 156.591 122.825 158.104Q124.421 159.617 126.047 161.097Q127.673 162.577 129.329 164.023Q130.985 165.47 132.67 166.882Q134.356 168.294 136.069 169.671Q137.783 171.048 139.525 172.39Q141.267 173.732 143.036 175.038Q144.805 176.343 146.601 177.613Q148.396 178.882 150.217 180.114Q152.038 181.346 153.884 182.54Q155.73 183.735 157.6 184.891Q159.47 186.048 161.364 187.166Q163.257 188.283 165.173 189.362Q167.089 190.441 169.026 191.48Q170.964 192.519 172.923 193.519Q174.881 194.518 176.86 195.477Q178.838 196.436 180.836 197.354Q182.834 198.272 184.85 199.149Q186.867 200.026 188.901 200.861Q190.934 201.696 192.985 202.49C227.131 215.394 279.126 219.359 312.849 204.146C313.146 195.506 319.274 188.457 322.073 180.374Q320.262 179.522 318.493 178.586C313.828 176.081 308.976 172.514 307.53 167.148C306.355 162.79 307.75 160.114 309.873 156.466C310.178 122.731 296.534 92.736 282.873 62.7455Z"/>
		<path fill="#E3E3D8" d="M89.9777 129.185C94.51 135.823 98.6728 142.47 103.795 148.717C125.413 175.083 155.683 196.45 187.487 208.682C229.134 224.7 278.248 227.668 319.52 209.378C324.35 213.752 321.582 214.398 328.713 217.733C314.096 228.749 294.458 233.546 276.513 235.635Q274.577 235.87 272.636 236.065Q270.695 236.26 268.751 236.415Q266.807 236.57 264.859 236.684Q262.912 236.798 260.963 236.871Q259.014 236.945 257.064 236.978Q255.114 237.011 253.163 237.004Q251.213 236.996 249.263 236.948Q247.313 236.9 245.364 236.812Q243.416 236.723 241.47 236.594Q239.524 236.465 237.58 236.295Q235.637 236.126 233.698 235.916Q231.759 235.706 229.825 235.456Q227.89 235.206 225.961 234.916Q224.033 234.625 222.11 234.295Q220.188 233.965 218.273 233.594Q216.358 233.224 214.451 232.814Q212.544 232.404 210.646 231.955Q208.748 231.505 206.86 231.016Q204.972 230.527 203.094 229.999Q201.217 229.471 199.35 228.904Q197.484 228.337 195.63 227.731Q193.776 227.126 191.935 226.482Q190.094 225.837 188.266 225.155Q186.439 224.473 184.626 223.753Q182.814 223.033 181.016 222.275Q179.219 221.518 177.438 220.723Q175.657 219.928 173.892 219.096Q172.128 218.264 170.382 217.396Q168.635 216.528 166.907 215.624Q165.179 214.719 163.47 213.779Q161.761 212.839 160.072 211.864Q158.382 210.888 156.714 209.878C145.385 202.966 134.976 194.691 124.591 186.463C128.217 191.647 132.094 196.31 136.548 200.809C136.367 256.564 158.209 326.461 185.163 374.874C213.096 425.048 261.281 476.058 318.053 492.219C319.595 499.71 322.743 506.251 326.365 512.914C318.949 489.39 312.966 444.856 313.004 420.097C313.061 382.848 323.595 344.324 345.915 314.198C354.909 302.057 365.705 291.412 376.376 280.773C377.74 279.289 379.075 277.757 380.484 276.316C382.336 278.877 385.633 284.777 387.89 286.43C388.299 287.825 388.637 288.587 387.952 289.95C386.42 292.996 381.94 295.469 379.203 297.42C360.635 313.445 346.258 340.668 338.87 363.791C318.105 428.774 332.176 498.453 362.819 557.992C294.462 538.908 229.175 507.851 182.946 452.267C188.348 447.117 193.966 442.223 199.13 436.826C189.062 434.879 179.05 434.505 168.834 434.416C157.814 418.149 146.186 402.318 136.381 385.263Q133.271 379.912 130.34 374.462Q127.409 369.011 124.66 363.467Q121.911 357.922 119.347 352.29Q116.782 346.657 114.405 340.943Q112.028 335.229 109.842 329.44Q107.655 323.65 105.661 317.792Q103.667 311.933 101.867 306.012Q100.068 300.091 98.4654 294.113Q96.8628 288.135 95.4586 282.108Q94.0544 276.081 92.8503 270.011Q91.6461 263.94 90.6432 257.833Q89.6404 251.726 88.8399 245.59Q88.0395 239.453 87.4423 233.293Q86.8452 227.134 86.452 220.957Q86.0587 214.781 85.8699 208.595Q85.6811 202.41 85.6968 196.221C85.6428 173.879 87.5258 151.387 89.9777 129.185Z"/>
		<path fill="#BAB7A8" d="M376.376 280.773C377.74 279.289 379.075 277.757 380.484 276.316C382.336 278.877 385.633 284.777 387.89 286.43C388.299 287.825 388.637 288.587 387.952 289.95C386.42 292.996 381.94 295.469 379.203 297.42L377.569 294.444L376.8 293.068C375.154 290.895 373.961 288.169 372.668 285.764Q374.943 283.507 377.154 281.186L376.376 280.773Z"/>
		<path fill="#DEDAC9" d="M377.569 294.444C381.363 292.1 384.236 288.86 387.89 286.43C388.299 287.825 388.637 288.587 387.952 289.95C386.42 292.996 381.94 295.469 379.203 297.42L377.569 294.444Z"/>
		<path fill="#CAC6B8" d="M378.506 282.505C379.575 283.866 381.128 285.861 380.989 287.685C380.976 287.858 380.913 288.024 380.874 288.193L379.991 288.739L377.886 288.192C377.38 285.783 377.144 284.675 378.506 282.505Z"/>
		<path fill="#BAB7A8" d="M294.331 251.195C296.57 250.589 315.018 260.143 317.985 261.529C308.238 284.336 305.505 284.494 285.337 297.682C288.906 300.506 293.253 302.248 296.731 305.192C299.928 307.899 301.07 311.332 301.267 315.436C301.784 326.216 294.749 350.447 286.819 357.962C281.845 362.676 275.455 365.397 270.73 370.509L270.209 371.077C273.931 373.128 277.801 374.072 281.902 375.041C285.713 382.802 286.919 391.431 288.529 399.84C290.206 395.125 291.701 389.64 294.628 385.544C298.448 380.196 304.208 379.152 310.258 378.14C305.934 370.285 301.041 362.69 300.144 353.577C299.054 342.509 301.104 325.099 308.634 316.365C313.874 310.287 323.009 310.341 330.404 309.866C326.437 306.537 320.498 304.133 317.852 299.536C312.674 290.54 318.309 272.437 320.98 263.045Q343.49 273.69 365.546 285.247C360.576 290.118 355.665 295.032 351.125 300.311C319.054 337.606 305.619 386.779 309.25 435.448C310.036 446.501 311.742 457.542 313.212 468.523C306.22 465.27 299.074 462.177 292.258 458.572C290.801 454.219 290.465 448.518 287.917 444.677L287.533 445.356C287.478 449.856 288.417 453.038 289.867 457.24C284.541 454.724 279.713 450.936 274.933 447.519C283.33 442.135 286.901 434.568 290.778 425.766C291.587 435.29 291.362 445.631 294.659 454.718C295.367 456.671 296.022 458.929 297.932 459.821L297.624 460.199C298.22 459.22 298.043 458.318 297.9 457.228C297.496 454.154 296.27 451.12 295.67 448.056C294.524 442.196 293.949 436.167 293.209 430.243C294.697 433.901 297.805 445.125 299.621 447.306C299.707 447.41 299.816 447.493 299.913 447.587L299.826 447.802L299.124 446.529L299.936 446.869C298.966 444.858 298.474 442.09 297.783 439.923C296.307 435.295 294.607 430.611 293.681 425.834C292.11 417.725 291.522 410.042 288.88 402.072C285.644 423.683 289.181 429.126 272.605 446.115C256.343 435.478 243.311 421.31 230.066 407.268L233.877 401.401C236.479 407.647 238.963 413.403 243.035 418.854C241.106 412.714 237.578 407.198 235.166 401.233C236.871 390.752 234.253 380.012 240.287 371.121C244.725 369.25 249.317 367.651 253.838 365.987C252.346 363.96 250.992 361.758 249.713 359.59C238.36 340.361 239.843 321.219 245.346 300.323C247.515 298.156 249.614 296.059 252.102 294.252C256.995 293.547 261.932 293.264 266.86 292.917C265.148 290.68 263.425 288.324 262.101 285.832C256.512 275.309 258.507 265.226 261.833 254.419C272.725 253.405 283.485 252.771 294.331 251.195Z"/>
		<path fill="#2D2A28" d="M238.363 386.756C238.492 386.825 238.631 386.877 238.75 386.961C240.014 387.855 240.729 389.79 241.303 391.174C243.701 396.958 245.12 403.252 247.184 409.178C249.588 416.083 254.045 423.403 254.958 430.629C254.433 430.349 254.21 430.253 253.752 429.938C244.575 423.636 240.171 397.35 238.363 386.756Z"/>
		<path fill="#BAB7A8" d="M584.705 458.018C585.954 459.106 587.019 460.342 588.117 461.577C606.584 482.57 622.836 505.157 639.972 527.21Q688.038 588.299 733.441 651.392Q751.127 676.567 768.372 702.047C773.909 710.234 778.764 719.263 785.372 726.632C776.952 738.171 768.347 747.589 754.831 753.018C747.59 738.541 738.616 725.409 729.639 711.968Q713.089 686.961 695.713 662.522C690.053 654.676 683.969 647.146 678.334 639.277C640.007 585.759 602.381 531.833 561.578 480.144C560.752 479.14 560.454 478.283 560.465 477.012C562.218 473.659 567.36 472.063 570.406 470.021C575.554 466.57 579.429 461.484 584.705 458.018Z"/>
		<path fill="#8C897E" d="M584.705 458.018C585.954 459.106 587.019 460.342 588.117 461.577C583.602 464.777 579.079 468.391 574.354 471.245C576.752 474.823 579.034 478.353 581.04 482.173C577.638 479.334 574.98 475.849 572.123 472.492C568.757 474.853 564.43 477.232 561.578 480.144C560.752 479.14 560.454 478.283 560.465 477.012C562.218 473.659 567.36 472.063 570.406 470.021C575.554 466.57 579.429 461.484 584.705 458.018Z"/>
		<path fill="#2D2A28" d="M697.156 643.251C697.306 643.325 697.463 643.387 697.606 643.473C705.577 648.238 726.609 683.221 731.641 692.953C733.617 696.774 735.196 700.548 736.513 704.641C731.929 700.723 700.954 651.015 697.156 643.251Z"/>
		<path fill="#2D2A28" d="M633.011 567.896C637.266 570.059 641.635 576.145 644.779 579.842C658.288 595.727 672.351 612.884 681.752 631.614C674.725 625.405 669.053 616.001 663.323 608.505C653.114 595.149 642.201 581.972 633.011 567.896Z"/>
		<path fill="#2D2A28" d="M593.364 505.869C593.516 505.94 593.673 505.999 593.818 506.082C596.279 507.486 598.736 510.505 600.723 512.535C611.416 523.459 622.11 535.582 627.177 550.223C626.015 549.549 625.121 548.444 624.296 547.401C620.433 542.509 617.176 537.126 613.346 532.195C606.607 523.519 598.989 515.34 593.364 505.869Z"/>
		<path fill="#2D2A28" d="M752.342 702.315C759.493 706.185 767.808 723.959 770.645 731.736C765.174 728.681 755.423 708.158 752.342 702.315Z"/>
		<path fill="#E3E3D8" d="M368.505 163.576C372.747 163.542 376.89 163.628 381.115 164.017C387.983 175.145 396.299 185.505 404.02 196.059C420.844 219.057 437.995 242.044 452.582 266.537C452.049 271.417 451.906 275.8 452.66 280.669C454.081 276.15 454.55 271.408 455.36 266.751C458.152 269.117 460.625 271.62 463.093 274.32C458.918 281.692 454.529 287.159 448.288 292.899C443.345 296.7 438.127 298.605 432.213 300.397C423.131 291.4 415.759 281.02 408.206 270.755L381.461 233.997C370.694 219.199 358.801 204.954 348.808 189.653C349.5 184.766 350.351 179.955 351.316 175.118C356.887 170.978 362.479 167.034 368.505 163.576Z"/>
		<path fill="#2D2A28" d="M373.387 187.556C375.222 187.49 376.945 187.494 378.731 187.981C383.251 189.212 387.681 192.341 389.996 196.458C391.155 198.52 391.712 200.941 391.004 203.25C389.992 206.553 387.29 208.028 384.397 209.487C382.771 209.528 381.058 209.632 379.444 209.415C375.259 208.854 370.785 205.919 368.444 202.448C366.953 200.239 366.089 197.524 366.736 194.873C367.607 191.311 370.402 189.314 373.387 187.556Z"/>
		<path fill="#E3E3D8" d="M375.576 193.423C379.059 193.629 382.171 194.326 384.847 196.733C385.955 197.73 386.783 199.031 386.643 200.587C386.461 202.606 384.983 203.63 383.505 204.74Q382.84 204.708 382.177 204.653C379.177 204.396 374.698 202.867 372.925 200.253C372.206 199.192 371.81 198.121 372.191 196.846C372.698 195.15 374.185 194.338 375.576 193.423Z"/>
		<path fill="#2D2A28" d="M405.056 229.483C406.518 229.447 408.023 229.415 409.473 229.633C413.693 230.27 418.492 232.911 421.039 236.379C422.326 238.131 423.277 240.404 422.745 242.606C421.961 245.844 418.922 247.671 416.165 249.035C414.254 249.329 412.416 249.48 410.491 249.194C406.428 248.592 402.232 246.466 399.91 242.986C398.625 241.06 398.089 238.773 398.64 236.502C399.489 233.007 402.234 231.295 405.056 229.483Z"/>
		<path fill="#E3E3D8" d="M405.952 234.438L406.569 234.448C409.6 234.517 415.076 235.333 417.042 237.983C417.958 239.219 417.875 239.672 417.826 241.139C417.054 242.708 416.15 243.42 414.77 244.465C411.277 244.629 407.115 243.972 404.494 241.424C403.455 240.415 403.23 239.476 403.192 238.055C403.72 236.317 404.602 235.606 405.952 234.438Z"/>
		<path fill="#2D2A28" d="M426.094 265.487C427.73 265.567 429.432 265.67 431.026 266.058C435.431 267.131 440.201 270.709 442.389 274.689C443.338 276.416 443.818 278.326 443.183 280.247C442.307 282.901 439.914 284.301 437.566 285.491C437.426 285.509 437.287 285.53 437.147 285.543C432.76 285.962 427.964 285.527 424.487 282.547C421 279.559 420.311 275.524 419.906 271.211C421.863 269.111 423.868 267.294 426.094 265.487Z"/>
		<path fill="#E3E3D8" d="M429.04 270.985C432.368 271.329 435.382 272.216 437.725 274.788C438.597 275.746 439.208 277.006 439.008 278.333C438.707 280.341 436.983 281.158 435.405 282.055C432.474 281.811 429.61 281.231 427.325 279.234C426.218 278.267 425.396 276.97 425.523 275.435C425.705 273.24 427.419 272.152 429.04 270.985Z"/>
		<path fill="#BAB7A8" d="M139.543 203.371C160.458 218.271 176.099 227.362 201.082 234.302C245.129 246.537 293.166 244.777 333.516 221.958C335.691 223.884 337.993 225.615 340.312 227.361L341.532 228.488C341.416 229.717 341.332 229.759 340.427 230.542C335.015 235.229 309.947 244.129 302.588 245.164C301.965 245.423 302.226 245.339 301.522 245.521C288.474 248.901 274.882 250.083 261.446 250.625C217.38 252.4 189.867 244.693 152.13 222.545C157.044 264.937 166.987 305.744 185.086 344.497C210.182 398.23 256.801 452.573 313.755 473.244L316.433 487.046C283.472 473.437 260.068 459.818 234.715 434.16C183.79 382.622 155.347 308.452 144.141 237.909C142.325 226.474 139.485 215.008 139.543 203.371Z"/>
		<path fill="#DEDAC9" d="M340.312 227.361L341.532 228.488C341.416 229.717 341.332 229.759 340.427 230.542C335.015 235.229 309.947 244.129 302.588 245.164L302.674 244.609C304.108 242.352 309.676 241.33 312.214 240.517C322.026 237.371 330.93 231.582 340.312 227.361Z"/>
		<path fill="#BAB7A8" d="M208.716 251.253C224.866 253.657 240.939 254.711 257.254 255.002C251.667 273.248 244.126 277.999 228.403 287.514C231.971 289.041 236.241 289.909 239.504 292.015C240.971 292.962 241.771 294.067 242.055 295.821C243.738 306.23 230.82 343.056 225.29 351.551C222.409 355.976 217.329 358.852 214.153 363.216L213.728 363.806C224.271 370.833 225.668 366.742 233 380.235C233.339 380.851 233.552 381.568 233.733 382.245C235.666 389.486 231.156 398.089 227.77 404.22C217.849 395.272 191.211 354.535 189.453 341.676C188.535 334.967 188.945 307.418 193.374 302.812C196.93 299.114 207.123 300.162 212.028 300.186C208.102 296.103 204.208 291.634 202.187 286.264C197.752 274.483 204.045 261.925 208.716 251.253Z"/>
		<path fill="#E3E3D8" d="M558.164 163.75C563.695 163.11 567.529 163.243 572.51 166.04C591.659 176.794 606.49 201.011 612.151 221.757C601.867 216.492 591.564 211.343 580.607 207.603C550.142 197.205 517.452 200.932 488.75 214.922C478.585 219.307 468.847 227.341 460.105 234.068L452.809 224.429C481.16 192.917 521.887 187.915 561.454 182.592C555.738 176.212 549.518 170.292 541.964 166.157C547.268 164.945 552.763 164.372 558.164 163.75Z"/>
		<path fill="#BAB7A8" d="M469.171 154.709C500.509 152.166 530.251 159.588 554.695 179.843C540.709 180.903 526.322 182.554 512.709 186.026C506.45 187.622 497.362 191.762 491.444 192.324C490.983 191.985 490.539 191.7 490.184 191.229C488.284 188.706 489.306 184.038 489.645 181.14L490.467 181.774C491.733 182.764 493.122 184.051 494.649 184.6C496.399 185.229 498.213 185.094 499.896 184.371L499.747 183.916C498.21 183.382 496.601 182.849 495.33 181.794C491.238 178.397 491.309 172.221 490.941 167.388C503.315 168.33 514.99 170.675 527.055 173.497C519.976 176.441 512.047 177.935 505.258 181.43C509.976 180.646 514.717 179.904 519.389 178.873C525.178 177.594 531.097 175.785 537.012 175.356L537.668 175.248C537.456 175.024 537.27 174.771 537.031 174.577C535.446 173.284 531.934 172.229 529.981 171.469C510.841 164.02 486.573 162.503 466.148 164.799C452.105 166.378 430.599 172.385 421.396 183.842C429.542 181.081 436.632 175.907 444.452 172.402C444.89 184.295 442.109 194.092 437.955 205.096C430.077 194.062 421.43 183.1 414.337 171.566C432.119 162.65 449.231 156.578 469.171 154.709Z"/>
		<path fill="#E3E3D8" d="M484.24 137.722C512.021 137.829 537.403 145.004 561.501 158.711C553.878 159.957 546.547 161.684 539.166 163.936C517.169 154.654 499.511 149.433 475.189 149.604C451.676 152.079 432.728 156.079 411.606 167.743L402.748 154.455C409.514 152.252 416.158 149.737 422.991 147.725C443.197 141.773 463.238 138.78 484.24 137.722Z"/>
		<path fill="#E3E3D8" d="M932.695 903.32C936.543 907.478 940.863 912.553 940.635 918.586C940.318 926.941 929.275 935.388 923.346 940.569C910.669 951.648 895.154 963.083 878.925 967.956C868.686 968.147 859.399 967.193 849.723 963.721L847.866 962.901L847.798 962.222C852.341 960.395 857.587 963.811 862.179 964.507C861.087 963.603 859.772 963.179 858.471 962.66C859.706 962.111 861.017 961.869 862.329 961.572L854.126 960.776L854.915 960.327C861.508 956.62 868.663 954.064 875.396 950.634C898.022 939.108 917.806 924.104 932.695 903.32Z"/>
		<path fill="#110F0E" d="M862.329 961.572C870.552 961.471 879.495 962.175 887.571 963.664C879.097 965.568 870.762 966.191 862.179 964.507C861.087 963.603 859.772 963.179 858.471 962.66C859.706 962.111 861.017 961.869 862.329 961.572Z"/>
		<path fill="#BAB7A8" d="M299.299 249.916C313.642 245.867 333.465 240.102 344.928 230.567C352.859 238.96 361.423 247.925 367.069 258.049Q372.805 265.481 377.918 273.355L374.109 276.901C371.957 278.636 369.983 280.91 368.003 282.859C346.79 268.179 323.624 258.194 299.299 249.916Z"/>
		<path fill="#DEDAC9" d="M367.069 258.049Q372.805 265.481 377.918 273.355L374.109 276.901C371.28 273.139 368.176 265.794 366.829 261.281C366.403 259.852 366.41 259.377 367.069 258.049Z"/>
		<path fill="#BAB7A8" d="M156.867 229.639C162.796 232.031 168.553 235.978 174.328 238.831C184.256 243.737 194.502 247.355 205.022 250.751C196.294 267.899 186.451 282.998 172.712 296.649C171.584 286.975 169.315 277.828 166.948 268.401C165.294 259.46 163.883 250.399 161.27 241.678C161.632 255.606 166.708 270.151 169.755 283.734C171.113 289.789 171.779 295.942 172.94 302.033C164.4 284.901 158.863 249.161 156.867 229.639Z"/>
		<path fill="#E3E3D8" d="M296.84 81.8323C306.201 89.7918 314.573 98.5054 324.62 105.713C334.737 112.97 346.051 118.425 355.975 125.827Q354.995 128.496 353.823 131.087C348.254 143.234 337.591 149.081 325.606 153.535L324.163 154.661C323.101 154.367 321.968 154.419 321.554 153.252C320.77 151.039 321.306 146.582 320.875 144.02C318.71 131.141 315.462 116.559 308.801 105.284C311.193 113.698 321.052 149.232 318.661 155.62C315.686 153.528 315.737 142.448 315.256 138.756Q314.798 135.021 314.163 131.312Q313.528 127.603 312.716 123.929Q311.905 120.255 310.919 116.624Q309.933 112.992 308.774 109.412Q307.616 105.832 306.288 102.311Q304.96 98.7904 303.466 95.3371Q301.972 91.8837 300.314 88.5056Q298.657 85.1274 296.84 81.8323Z"/>
		<path fill="#2D2A28" d="M316.634 109.114C321.955 119.769 323.943 132.808 325.22 144.547C324.329 144.23 323.352 144.047 322.434 143.813C321.188 132.121 318.388 120.725 316.634 109.114Z"/>
		<path fill="#41403B" d="M322.434 143.813C323.352 144.047 324.329 144.23 325.22 144.547C325.603 147.571 325.634 150.494 325.606 153.535L324.163 154.661C324.041 151.142 322.898 147.361 322.434 143.813Z"/>
		<path fill="#BAB7A8" d="M894.451 871.325C901.627 877.953 914.704 895.666 922.686 898.89C921.858 900.373 921.059 901.885 920.158 903.323C912.512 911.88 903.87 918.751 895.283 926.286Q885.676 912.854 875.74 899.664C881.559 890.064 887.193 879.917 894.451 871.325Z"/>
		<path fill="#BAB7A8" d="M837.059 793.826C845.467 803.225 852.411 814.336 860.025 824.407C866.853 833.438 874.422 841.887 881.272 850.915L871.435 849.139C863.115 848.113 854.897 847.644 846.521 847.475C840.54 836.318 832.809 826.123 825.389 815.9C829.098 808.466 832.63 800.865 837.059 793.826Z"/>
		<path fill="#BAB7A8" d="M760.809 771.631C770.771 767.236 779.584 760.97 787.611 753.674Q799.069 770.603 809.605 788.121C797.733 790.925 786.259 792.962 774.072 793.876C771.315 789.357 768.612 784.792 765.739 780.345C764.439 779.841 763.482 779.646 762.091 779.539C760.689 777.247 759.437 775.016 758.333 772.561C759.128 772.174 759.974 771.919 760.809 771.631Z"/>
		<path fill="#41403B" d="M758.333 772.561C759.128 772.174 759.974 771.919 760.809 771.631C762.544 774.498 764.261 777.335 765.739 780.345C764.439 779.841 763.482 779.646 762.091 779.539C760.689 777.247 759.437 775.016 758.333 772.561Z"/>
		<path fill="#BAB7A8" d="M463.111 183.967C471.371 181.115 479.338 177.745 486.785 173.145C485.05 181.122 485.563 186.56 489.041 193.934C474.82 202.304 461.54 208.773 450.01 221.084C446.716 215.889 442.882 211.065 439.151 206.181C444.167 198.311 447.131 190.152 448.953 181.021L452.654 183.581C457.406 185.85 461.853 187.688 466.957 188.965C467.872 188.636 468.049 188.552 468.713 187.935L468.397 186.93C466.826 185.535 465.005 184.818 463.111 183.967Z"/>
		<path fill="#CAC6B8" d="M452.654 183.581C457.406 185.85 461.853 187.688 466.957 188.965L466.182 189.743C464.768 190.062 463.523 190.235 462.067 190.208C459.244 190.157 454.601 189.547 452.805 187.021C451.901 185.75 452.328 184.956 452.654 183.581Z"/>
		<path fill="#E3E3D8" d="M883.711 851.188C886.211 852.66 887.994 855.095 889.674 857.399C888.294 861.454 886.656 865.139 884.59 868.891C881.374 874.731 877.416 880.142 873.889 885.793C866.571 897.519 858.991 908.857 851.084 920.192C846.825 926.297 842.683 932.746 837.662 938.258L836.83 938.341C834.917 936.625 833.528 933.742 832.154 931.56Q846.298 906.312 862.691 882.463C869.744 872.075 877.788 862.287 883.711 851.188Z"/>
		<path fill="#E3E3D8" d="M390.011 147.941L390.87 148.161C394.328 152.365 397.306 157.109 400.42 161.579Q409.416 174.625 418.687 187.478L449.263 228.799C455.651 237.547 462.529 246.454 467.803 255.923C468.834 257.774 469.978 259.637 469.368 261.763C468.068 262.204 467.767 261.973 466.425 261.585C456.814 253.845 438.357 226.584 430.255 215.441C420.992 202.701 411.273 190.3 402.035 177.552C395.876 169.052 390.164 160.215 384.152 151.607L390.011 147.941Z"/>
		<path fill="#BAB7A8" d="M739.081 747.511C735.944 741.716 732.166 736.155 728.677 730.562L710.132 700.807Q688.276 664.829 664.653 629.987Q641.03 595.144 615.698 561.523L570.143 501.706C566.02 496.354 557.227 487.35 554.285 481.844C553.767 480.874 553.852 480.727 554.162 479.742C555.224 479.442 555.585 479.359 556.684 479.711C558.334 480.238 559.55 481.896 560.621 483.186C565.278 488.801 569.307 495.129 573.719 500.968Q591.225 523.935 608.358 547.183Q636.497 584.653 663.21 623.152C667.219 628.868 671.549 634.295 675.418 640.128C684.241 653.43 692.313 667.264 700.865 680.749C714.847 702.796 729.046 724.501 741.688 747.372C742.746 749.005 743.951 750.53 744.216 752.5L743.774 753.323C742.595 753.163 741.749 752.491 741.081 751.524C740.261 750.337 739.618 748.848 739.081 747.511Z"/>
		<path fill="#BAB7A8" d="M814.238 872.502Q828.775 872.736 843.304 872.208C847.251 877.523 849.897 883.57 852.703 889.53L843.49 904.289C841.051 908.031 838.468 911.635 835.834 915.24C829.615 900.616 822.008 886.345 814.238 872.502Z"/>
		<path fill="#BAB7A8" d="M874.109 902.295C880.767 910.674 886.89 919.481 893.677 927.752C886.279 932.604 878.897 937.314 871.068 941.45C868.084 943.079 865.003 944.445 861.898 945.823C859.305 941.57 856.912 937.205 854.494 932.851Q864.582 917.753 874.109 902.295Z"/>
		<path fill="#E3E3D8" d="M848.695 852.232C854.055 852.261 872.01 851.564 875.667 854.725L875.357 855.568C868.377 859.392 856.72 857.293 848.842 857.611C835.592 858.144 817.003 858.574 804.615 862.922C812.085 862.972 819.578 862.306 827.032 861.85C840.615 861.019 854.09 860.041 867.607 858.424C869.673 857.902 871.86 857.941 873.981 857.849C872.39 860.447 870.542 862.881 868.749 865.342C857.069 866.155 845.341 867.806 833.637 868.106C826.58 868.287 801.038 868.114 796.599 863.864L796.704 862.88C800.233 859.628 806.378 859.575 810.67 857.56C808.862 857.343 807.41 857.932 805.608 857.77C806.121 857.676 806.6 857.563 807.093 857.389C820.007 852.823 835.109 852.63 848.695 852.232Z"/>
		<path fill="#BAB7A8" d="M800.078 740.786C801.341 741.298 802.032 742.436 802.805 743.504C806.059 748.003 808.81 752.941 811.858 757.588C815.367 762.937 819.218 768.039 823.086 773.13C820.286 779.037 817.068 783.586 812.462 788.231Q800.999 770.107 788.961 752.361C792.821 748.648 796.434 744.708 800.078 740.786Z"/>
		<path fill="#DEDAC9" d="M746.585 771.156C744.086 769.214 741.53 767.073 739.451 764.68C738.163 763.197 736.881 761.673 737.036 759.611C737.262 759.333 737.371 758.884 737.712 758.777C739.251 758.296 744.831 759.127 746.98 759.01C754.661 758.59 761.941 754.568 768.183 750.361C774.058 746.401 779.681 741.16 784.343 735.836C786.173 733.747 792.397 725.025 794.519 724.782L795.094 726.202C795.354 726.314 796.176 726.673 796.382 726.735C798.613 727.411 799.529 728.61 801.11 730.245C799.689 732.946 798.197 735.154 796.22 737.467C792.84 741.702 786.26 750.074 781.186 752.211C774.12 757.808 766.601 762.268 758.613 766.419C758.878 765.437 759.927 762.611 759.647 761.774C758.739 763.312 757.86 765.57 756.32 766.447C755.695 764.643 756.438 762.773 756.096 760.885L755.37 760.806C753.807 762.792 754.943 765.969 753.571 768.193C752.565 767.964 752.465 767.832 751.916 766.975C751.159 765.794 750.752 764.172 750.32 762.843C750.263 764.842 750.485 767.804 749.264 769.408C748.287 767.314 747.523 764.318 745.418 763.328C744.608 765.838 745.887 768.711 746.585 771.156Z"/>
		<path fill="#CAC6B8" d="M781.186 752.211C780.709 751.716 780.312 751.511 779.713 751.188C778.605 751.399 778.178 751.526 777.067 751.213C777.88 750.642 778.364 750.359 778.897 749.503C778.019 749.136 777.627 749.013 776.98 748.288C786.941 744.213 784.272 743.419 790.669 736.462C791.569 735.483 792.332 735.323 793.593 735.205C794.637 735.864 795.363 736.591 796.22 737.467C792.84 741.702 786.26 750.074 781.186 752.211Z"/>
		<path fill="#CAC6B8" d="M745.418 763.328C747 763.187 748.776 763.185 750.32 762.843C750.263 764.842 750.485 767.804 749.264 769.408C748.287 767.314 747.523 764.318 745.418 763.328Z"/>
		<path fill="#BAB7A8" d="M354.755 231.743L356.5 231.452C357.816 231.228 359.095 230.95 360.43 231.208C363.179 231.739 365.128 233.729 366.891 235.773C370.013 239.389 372.419 243.809 375.103 247.768L391.769 272.108Q398.18 281.234 405.479 289.667C409.329 294.098 413.781 298.47 417.091 303.304C413.8 304.666 411.134 306.256 408.385 308.553Q406.271 299.812 403.999 291.11C404.188 295.141 404.484 299.169 404.661 303.199C400.604 297.697 396.879 291.919 392.617 286.576C392.988 281.686 392.994 277.807 390.382 273.46C390.429 276.598 390.725 279.723 390.977 282.85C384.88 274.596 379.351 265.833 373.498 257.394C367.455 248.68 361.071 240.256 354.755 231.743Z"/>
		<path fill="#E3E3D8" d="M829.033 773.348C830.493 774.879 831.778 776.595 833.108 778.24C831.035 782.547 829.123 787.016 826.837 791.207C820.279 803.233 812.958 814.302 807.677 827.024C806.34 830.246 799.415 852.687 799.056 853.048C798.452 853.657 798.741 853.496 797.859 853.475C795.229 847.703 804.844 825.306 807.859 818.876C809.75 814.844 812.564 810.597 813.743 806.365L812.984 806.934C807.638 816.531 802.707 826.987 799.058 837.36C796.777 843.846 795.41 850.677 792.527 856.935C792.396 848.349 794.668 841.04 797.406 832.992C806.037 807.62 815.087 795.773 829.033 773.348Z"/>
		<path fill="#E3E3D8" d="M510.734 350.277C513.503 351.158 515.609 353.428 517.725 355.334C515.101 361.246 513.778 367.862 512.17 374.108Q506.794 394.319 502.889 414.865L502.465 415.281L501.763 415.108C499.322 412.009 497.665 409.18 497.228 405.194C496.092 394.843 502.296 367.256 506.437 357.318C507.549 354.65 508.923 352.504 510.734 350.277Z"/>
		<path fill="#BAB7A8" d="M345.671 196.398C347.049 197.429 348.542 198.941 350.312 199.016C355.281 204.891 359.728 211.468 364.252 217.701L386.912 248.891Q394.207 258.82 401.645 268.642C403.94 271.682 406.789 274.833 408.717 278.1C408.333 279.543 408.506 279.637 409.262 280.938C411.177 284.236 417.212 289.567 417.886 292.529C418.49 293.829 419.029 294.862 419.029 296.334L418.374 296.768C418.159 296.69 417.941 296.622 417.729 296.536C415.671 295.699 413.483 293.095 412.017 291.413C402.533 280.534 394.247 268.184 385.754 256.515C380.887 249.828 375.443 243.387 370.884 236.501C365.994 229.115 361.904 221.177 357.027 213.744C353.394 208.206 348.126 202.517 345.671 196.398Z"/>
		<path fill="#E3E3D8" d="M554.186 406.239C557.631 407.695 559.872 409.404 562.352 412.183Q557.58 422.419 553.303 432.872C550.636 439.508 548.442 447.183 544.438 453.157C543.558 454.469 542.684 455.197 541.205 455.8L541.889 457.011C541.988 458.726 541.552 460.154 540.65 461.609C539.484 463.489 537.935 464.732 535.806 465.293C535.146 465.054 534.648 465.096 534.352 464.391C533.041 461.275 535.497 455.628 536.567 452.58C540.77 438.576 545.662 417.869 554.186 406.239Z"/>
		<path fill="#BAB7A8" d="M548.264 433.654C546.565 438.85 540.566 450.429 540.733 455.055L541.205 455.8L541.889 457.011C541.988 458.726 541.552 460.154 540.65 461.609C539.484 463.489 537.935 464.732 535.806 465.293C535.146 465.054 534.648 465.096 534.352 464.391C533.041 461.275 535.497 455.628 536.567 452.58L538.124 454.395L538.841 454.411C541.209 446.88 543.737 440.187 548.264 433.654Z"/>
		<path fill="#E3E3D8" d="M362.177 124.352C366.023 126.174 369.522 127.717 371.177 131.982C372.499 135.388 371.636 139.086 370.134 142.278C366.474 150.056 359.313 155.907 352.407 160.684C350.475 159.301 348.481 158.42 346.119 158.057C343.957 157.724 341.407 157.949 339.612 159.269C332.187 161.309 321.986 166.334 314.517 162.833L314.351 162.167C318.002 159.912 324.825 160.141 329.112 159.144C342.449 156.041 357.865 144.552 361.283 130.735C361.792 128.677 362.008 126.461 362.177 124.352Z"/>
		<path fill="#BAB7A8" d="M824.472 818.281C831.71 826.452 838.116 837.597 842.83 847.453C838.003 847.938 833.151 848.272 828.317 848.694C822.67 849.37 817.102 850.267 811.504 851.26C814.707 840.176 819.172 828.543 824.472 818.281Z"/>
		<path fill="#E3E3D8" d="M580.804 437.321C583.157 440.375 585.153 443.728 587.223 446.979C579.772 454.553 571.294 462.068 561.944 467.24C559.33 467.283 556.2 466.927 553.9 468.322C549.094 469.481 544.025 473.57 539.234 473.807C538.429 473.847 538.298 473.38 537.784 472.843C538.059 471.257 538.679 470.499 539.893 469.445C542.914 466.819 546.722 464.868 550.088 462.7C556.078 458.841 562.155 454.779 567.737 450.343C572.658 446.432 576.917 442.261 580.804 437.321Z"/>
		<path fill="#E3E3D8" d="M808.839 792.533L810.218 792.521L810.453 793.154C808.718 797.979 805.286 803.772 802.046 807.737C790.146 809.971 778.46 809.686 766.457 808.92L760.968 803.832C773.133 806.942 785.593 806.124 797.889 804.314C798.915 803.905 800.265 803.87 801.366 803.712L801.162 803.588L801.331 803.285C795.005 804.294 783.193 804.931 776.702 804.874C769.11 804.807 762.666 803.178 757.233 797.594C775.289 799.657 791.434 797.528 808.839 792.533Z"/>
		<path fill="#E3E3D8" d="M449.182 248.956L447.141 246.67L446.702 246.689C448.154 249.015 449.539 251.224 450.514 253.805C445.413 248.373 439.274 237.691 434.825 231.2C424.353 215.917 413.68 200.593 402.361 185.928C399.128 181.739 380.949 158.422 381.012 154.796C381.026 153.963 381.471 153.829 382.028 153.303C383.435 153.511 383.899 154.297 384.727 155.386C387.459 158.979 389.708 163.091 392.256 166.838Q400.096 178.195 408.316 189.28L441.365 234.762C446.321 241.627 452.267 248.43 456.358 255.807C459.392 259.559 462.953 262.502 466.592 265.634L464.414 271.163C461.517 266.373 457.46 262.51 454.208 257.985C452.216 255.213 450.715 252 449.182 248.956Z"/>
		<path fill="#BAB7A8" d="M519.225 368.361C523.768 378.826 532.8 386.824 538.573 396.7C532.984 397.079 527.46 397.46 522.025 398.895C528.575 399.171 534.903 398.551 541.381 397.698L540.984 398.724C531.11 400.517 520.65 400.781 510.639 401.519L519.225 368.361Z"/>
		<path fill="#DEDAC9" d="M484.648 311.269L490.736 318.61C488.82 320.741 486.906 322.858 484.895 324.901C478.796 331.478 466.936 344.723 458.494 346.969C457.015 346.251 456.826 345.397 456.272 343.886L455.973 343.06C455.373 343.252 455.21 343.274 454.606 343.629C453.538 344.257 452.625 345.325 452.23 346.483C453.482 347.834 455.794 346.695 457.267 348.191C456.873 349.424 456.423 349.932 455.49 350.817C452.683 350.634 450.594 347.653 448.782 345.685C453.302 340.908 458.466 336.745 463.314 332.306Q471.728 324.451 479.672 316.121L484.648 311.269Z"/>
		<path fill="#CAC6B8" d="M484.648 311.269L490.736 318.61C488.82 320.741 486.906 322.858 484.895 324.901C483.425 321.847 481.827 318.75 479.672 316.121L484.648 311.269Z"/>
		<path fill="#BAB7A8" d="M540.618 417.204C541.321 417.049 541.774 417.084 542.483 417.143L542.741 418.207C540.888 423.783 536.441 441.948 533.203 445.313C532.983 444.253 532.863 443.486 532.19 442.617L531.872 443.857C529.575 443.333 526.946 439.021 525.471 437.122C521.248 431.069 517.139 424.482 511.126 420.051C521.127 420.083 530.752 418.644 540.618 417.204Z"/>
		<path fill="#E3E3D8" d="M834.226 780.279C834.641 780.605 835.041 781.125 835.402 781.516C836.008 783.561 835.201 785.618 834.43 787.517C829.257 800.239 821.634 812.898 815.852 825.605C811.974 834.128 809.535 843.084 806.118 851.773C804.91 852.734 803.635 852.68 802.126 852.918C801.479 852.901 801.9 852.942 800.891 852.625C801.058 848.788 803.138 844.302 804.323 840.636C806.938 832.55 809.279 824.646 813.025 816.968C817.11 808.595 822.739 800.696 827.368 792.555C829.564 788.693 831.462 783.654 834.226 780.279Z"/>
		<path fill="#BAB7A8" d="M468.362 347.973C475.638 342.849 482.022 336.591 487.874 329.914C493.114 334.153 497.543 342.423 502.971 345.404C503.877 346.228 504.71 347.079 505.797 347.657L503.131 351.03C491.619 350.159 479.875 347.907 468.362 347.973Z"/>
		<path fill="#BAB7A8" d="M799.451 812.186L800.055 812.981C799.253 817.247 796.83 821.654 795.346 825.769C793.517 830.839 792.143 836.082 790.704 841.273L784.688 831.211C780.959 825.684 777.659 819.723 774.178 814.026C782.769 814.021 790.961 813.654 799.451 812.186Z"/>
		<path fill="#BAB7A8" d="M472.096 365.751C480.993 366.439 490.018 367.189 498.849 368.463C497.608 375.71 495.732 382.951 494.154 390.138C493.933 391.518 493.491 392.912 493.14 394.267C486.404 384.597 479.551 374.879 472.096 365.751Z"/>
		<path fill="#E3E3D8" d="M890.369 858.73C891.884 859.601 893.022 861.268 894.168 862.584C882.618 880.963 870.317 898.895 858.511 917.114C852.658 926.146 845.951 935.457 841.375 945.182L839.949 946.121L839.054 945.882L838.48 944.818C839.589 935.893 857.718 913.088 863.386 904.452C867.753 897.799 871.839 890.94 876.051 884.188C881.245 875.861 886.702 867.892 890.369 858.73Z"/>
		<path fill="#BAB7A8" d="M472.24 167.289C477.991 166.793 483.811 167.005 489.574 167.144C481.04 172.496 472.154 176.697 463.027 180.925L459.544 183.05C456.589 181.642 450.34 178.193 449.039 175.049C448.498 173.742 448.665 173.427 449.134 172.195C454.051 167.582 465.724 167.675 472.24 167.289Z"/>
		<path fill="#E3E3D8" d="M547.267 402.224C548.093 402.103 548.671 402.156 549.493 402.247L549.754 403.101C547.823 407.347 545.198 406.906 542.94 409.807C543.306 410.253 543.663 410.708 544.005 411.173C539.75 412.891 513.914 414.773 508.492 414.252L507.89 413.5L509.327 411.608C511.883 410.514 514.916 410.696 517.675 410.47C514.902 410.292 511.359 410.347 509.034 408.712C508.86 407.806 508.676 407.966 509.198 407.339C512.157 403.787 541.05 402.621 547.267 402.224Z"/>
		<path fill="#DEDAC9" d="M473.837 300.296C476.313 301.381 478.493 304.652 480.169 306.725C474.698 313.794 466.591 324.039 458.655 328.212C454.188 330.561 450.743 334.113 447.213 337.638L452.266 329.563C450.744 331.214 449.222 333.023 447.53 334.492C446.548 335.345 445.436 336.398 444.12 336.36C445.331 334.144 448.118 332.082 449.769 330.016L450.123 329.567L450.387 329.184L450.034 328.82C446.306 331.132 443.065 335.17 439.699 338.052C447.342 325.823 446.109 328.501 458.49 325.73C459.922 325.41 461.311 325.169 462.47 324.211C460.314 322.712 455.04 323.476 452.473 323.567C459.328 315.589 466.934 308.254 473.837 300.296Z"/>
		<path fill="#BAB7A8" d="M174.879 298.632C177.976 299.853 184.976 300.061 186.736 303.09C188.572 306.248 187.961 334.832 187.242 339.143C186.977 338.663 186.727 338.18 186.478 337.692C182.609 330.085 173.911 311.213 173.812 303.275C173.792 301.708 174.398 300.106 174.879 298.632Z"/>
		<path fill="#E3E3D8" d="M236.241 337.275C238.194 339.149 239.559 348.15 240.672 351.242C242.295 355.749 244.482 359.659 247.104 363.655Q245.465 364.093 243.842 364.589C239.122 366.032 237.317 367.878 235.052 372.152C235.896 366.573 236.651 361.935 235.554 356.3C235.486 357.606 235.683 360.087 234.892 361.043L234.57 359.895C234.308 358.411 234.002 357.014 233.555 355.575C232.302 357.888 233.41 370.676 233.463 373.982L229.509 364.836L222.246 362.109C228.995 354.731 232.675 346.485 236.241 337.275Z"/>
		<path fill="#E3E3D8" d="M466.082 357.109L466.828 356.265C465.804 355.569 464.857 355.364 463.676 355.054L463.535 354.541C466.439 351.962 472.098 352.484 475.766 352.715C484.555 353.266 493.334 354.837 502.013 356.282C501.232 358.907 500.507 361.573 499.635 364.168C488.753 362.961 477.917 361.516 467.051 360.194C466.54 359.19 466.338 358.199 466.082 357.109Z"/>
		<path fill="#BAB7A8" d="M561.202 427.277C563.289 430.155 566.142 435.085 569.307 436.764C570.216 437.616 570.262 438.039 570.635 439.25C569.543 440.219 569.2 442.655 568.093 443.91C563.221 449.435 551.197 456.437 544.348 459.386C551.5 449.923 556.113 437.998 561.202 427.277Z"/>
		<path fill="#BAB7A8" d="M455.111 296.214C456.703 294.248 458.387 291.703 460.987 291.121C460.239 295.525 459.608 299.983 457.87 304.131C457.219 306.044 456.326 308.055 456.121 310.064C459.504 307.884 461.346 302.612 462.715 298.958C464.511 298.111 466.195 297.012 467.894 295.986C468.551 297.735 468.77 298.777 467.99 300.537C466.088 304.832 461.768 308.834 458.044 311.617C456.151 313.737 454.102 315.754 452.132 317.804C450.165 315.043 448.477 309.488 445.465 307.972C443.517 306.991 441.214 306.798 439.217 305.77C441.051 303.45 446.99 301.879 449.728 300.3C451.659 299.187 453.401 297.638 455.111 296.214Z"/>
		<path fill="#DEDAC9" d="M455.111 296.214C456.703 294.248 458.387 291.703 460.987 291.121C460.239 295.525 459.608 299.983 457.87 304.131C457.123 302.754 457.212 301.581 457.12 300.068C456.995 298.021 456.665 297.568 455.111 296.214Z"/>
		<path fill="#BAB7A8" d="M690.636 661.775C691.26 662.192 691.819 662.608 692.322 663.168C695.716 666.948 698.63 671.753 701.534 675.924Q711.352 690.11 720.922 704.466Q731.153 719.755 741.168 735.186C744.64 740.56 748.687 746.182 751.439 751.967C751.813 752.752 751.912 753.368 751.892 754.23C750.577 754.489 749.518 754.659 748.166 754.59C737.103 733.056 723.41 712.235 710.09 692.029C703.48 682.001 696.391 672.343 690.636 661.775Z"/>
		<path fill="#E3E3D8" d="M922.686 898.89L925.789 899.19L927.309 899.916C927.728 901.13 927.636 901.759 927.11 902.95C925.345 906.943 921.09 910.743 918.036 913.765C900.864 930.754 876.816 947.21 853.726 954.781C850.618 955.801 847.201 957.227 843.952 956.48L844.261 956.943L843.946 956.481C846.596 954.692 858.77 950.443 863.07 948.395C884.639 938.124 907.49 923.471 922.403 904.554C921.637 904.24 920.884 903.731 920.158 903.323C921.059 901.885 921.858 900.373 922.686 898.89Z"/>
		<path fill="#41403B" d="M922.686 898.89L925.789 899.19C924.716 900.98 923.707 902.925 922.403 904.554C921.637 904.24 920.884 903.731 920.158 903.323C921.059 901.885 921.858 900.373 922.686 898.89Z"/>
		<path fill="#CAC6B8" d="M293.386 356.674L295.665 351.881C296.595 357.839 297.441 363.3 299.826 368.89L303.117 374.068C297.973 376.255 294.966 378.349 290.735 381.949C289.819 381 289.855 380.363 289.567 379.12C288.652 376.264 287.52 373.989 285.51 371.74L279.29 368.819L286.409 365.13C289.12 362.695 291.313 359.648 293.386 356.674Z"/>
		<path fill="#DEDAC9" d="M286.409 365.13C289.12 362.695 291.313 359.648 293.386 356.674C293.713 359.014 294.098 361.338 293.05 363.548C290.107 368.352 292.621 375.035 289.567 379.12C288.652 376.264 287.52 373.989 285.51 371.74L279.29 368.819L286.409 365.13Z"/>
		<path fill="#E3E3D8" d="M279.29 368.819L286.409 365.13C287.09 366.97 287.166 368.484 286.344 370.316C285.931 371.239 286.06 370.984 285.51 371.74L279.29 368.819Z"/>
		<path fill="#E3E3D8" d="M293.386 356.674L295.665 351.881C296.595 357.839 297.441 363.3 299.826 368.89Q297.174 369.579 294.542 370.34C294.519 372.637 294.638 374.622 293.745 376.782C292.142 374.877 292.961 366.343 293.05 363.548C294.098 361.338 293.713 359.014 293.386 356.674Z"/>
		<path fill="#E3E3D8" d="M321.633 197.084C322.533 195.891 322.588 195.603 323.993 195.18C326.843 195.736 329.34 197.858 331.157 200.089C334.361 203.285 355.978 227.959 356.038 229.57C354.177 229.38 352.615 228.753 351.015 227.773C348.227 226.063 345.457 222.724 343.004 220.473C339.173 216.957 335.162 213.559 331.114 210.295C327.863 208.239 322.651 205.755 321.056 202.151C320.235 200.295 320.947 198.827 321.633 197.084Z"/>
		<path fill="#BAB7A8" d="M321.633 197.084C322.533 195.891 322.588 195.603 323.993 195.18C326.843 195.736 329.34 197.858 331.157 200.089C330.09 201.355 329.881 202.205 329.62 203.775C331.094 206.14 331.459 207.538 331.114 210.295C327.863 208.239 322.651 205.755 321.056 202.151C320.235 200.295 320.947 198.827 321.633 197.084Z"/>
		<path fill="#DEDAC9" d="M321.633 197.084C322.533 195.891 322.588 195.603 323.993 195.18C326.843 195.736 329.34 197.858 331.157 200.089C330.09 201.355 329.881 202.205 329.62 203.775C327.068 201.44 324.298 199.291 321.633 197.084Z"/>
		<path fill="#DEDAC9" d="M312.147 280.863C312.575 282.651 312.369 284.447 312.294 286.269C311.933 294.988 312.032 299.012 316.956 306.588C313.44 307.869 310.092 309.363 306.714 310.97C308.706 305.297 308.867 300.061 308.712 294.119C307.923 297.101 307.426 300.07 306.963 303.116C306.444 307.428 305.47 311.376 304.047 315.473Q304.064 309.436 303.953 303.4C301.15 300.449 298.38 299.066 294.693 297.546C302.046 292.638 306.855 287.949 312.147 280.863Z"/>
		<path fill="#DEDAC9" d="M196.628 273.784C197.298 275.418 197.282 277.141 197.354 278.876C197.681 286.707 198.254 289.436 202.662 296.162L195.749 295.426C193.621 296.42 191.68 297.525 189.773 298.902C189.03 299.438 189.515 299.247 188.31 299.221C185.606 297.649 183.112 296.638 180.15 295.684C186.457 288.801 191.913 281.854 196.628 273.784Z"/>
		<path fill="#DEDAC9" d="M339.612 159.269C341.407 157.949 343.957 157.724 346.119 158.057C348.481 158.42 350.475 159.301 352.407 160.684C345.433 164.863 337.401 168.761 329.462 170.574C325.778 171.416 319.757 172.52 316.515 170.254C315.032 169.216 314.258 166.939 314.034 165.226L314.515 164.615C315.413 164.924 316.322 165.23 317.251 165.433C323.727 166.843 333.555 163.64 338.874 159.82C339.123 159.641 339.366 159.453 339.612 159.269Z"/>
		<path fill="#DEDAC9" d="M254.392 271.948L254.41 278.461C255.421 282.274 256.623 285.781 258.302 289.355C254.206 289.769 251.519 290.652 248.085 292.939C247.569 293.669 247.293 293.964 246.553 294.526C243.754 290.713 244.033 288.689 239.384 286.317C245.468 282.152 249.962 277.843 254.392 271.948Z"/>
		<path fill="#E3E3D8" d="M248.085 292.939C248.031 292.433 247.957 291.93 247.989 291.42C248.248 287.376 251.431 281.033 254.41 278.461C255.421 282.274 256.623 285.781 258.302 289.355C254.206 289.769 251.519 290.652 248.085 292.939Z"/>
		<path fill="#BAB7A8" d="M428.305 309.707C433.487 310.267 438.723 309.777 443.822 310.418C447.218 312.589 448.705 315.637 449.603 319.449C449.229 321.053 448.503 321.339 447.272 322.387L443.434 325.473C438.427 320.504 432.457 315.389 428.305 309.707Z"/>
		<path fill="#DEDAC9" d="M806.889 871.45C807.821 871.575 808.87 871.664 809.763 871.955C810.642 872.24 810.979 872.662 811.461 873.414C814.135 877.593 816.155 882.535 818.366 886.983C822.259 894.82 826.239 902.548 830.355 910.267C832.491 914.273 834.407 915.788 833.026 920.345L831.988 920.211C829.376 915.87 827.391 911.103 824.969 906.643Q818.766 895.357 812.95 883.867C810.886 879.854 808.378 875.704 806.889 871.45Z"/>
		<defs>
			<linearGradient id="gradient_0" gradientUnits="userSpaceOnUse" x1="536.07996" y1="397.21442" x2="527.17078" y2="363.85214">
				<stop offset="0" stop-color="#C2BDB0"/>
				<stop offset="1" stop-color="#EBE5DE"/>
			</linearGradient>
		</defs>
		<path fill="url(#gradient_0)" d="M541.381 397.698C542.132 397.473 543.233 397.354 543.714 396.74C543.387 396.736 543.061 396.736 542.734 396.728C540.863 396.677 540.093 396.159 538.844 394.803C535.088 390.725 520.307 370.289 519.827 365.779L520.251 364.866L521.472 364.632C525.319 368.061 528.278 373.603 531.391 377.809C536.319 384.464 541.668 390.917 546.355 397.735L540.984 398.724L541.381 397.698Z"/>
		<path fill="#BAB7A8" d="M858.703 870.798C861.087 870.552 863.502 870.466 865.894 870.316C863.498 875.157 858.943 882.626 854.917 886.276L854.263 885.816L846.266 872.126C850.329 871.412 854.592 871.262 858.703 870.798Z"/>
		<path fill="#DEDAC9" d="M370.033 152.36C373.294 154.448 376.78 156.114 379.588 158.831C356.936 159.316 353.903 169.373 334.797 178.236C334.625 178.296 334.454 178.358 334.281 178.414C334.026 178.497 333.768 178.57 333.512 178.652C333.219 178.746 332.93 178.856 332.635 178.942C331.26 179.346 328.479 179.135 327.301 178.318C326.843 178 326.942 178.019 326.87 177.517C327.384 176.195 329.726 175.923 331.089 175.512C346.637 170.82 358.175 163.42 370.033 152.36Z"/>
		<path fill="#BAB7A8" d="M508.359 420.174C511.521 421.043 520.125 435.851 522.864 439.198C524.957 441.755 527.629 443.878 530.138 446.013L529.925 445.484C531.031 446.268 531.61 446.894 532.34 448.035C532.684 449.903 532.09 451.63 531.639 453.434L530.899 454.689L530.27 454.642C523.468 446.319 516.708 436.999 510.868 427.973C509.237 425.452 507.694 423.245 508.359 420.174Z"/>
		<path fill="#DEDAC9" d="M840.846 967.787C840.216 966.348 839.659 965.345 839.983 963.729C840.547 963.135 840.664 962.733 841.53 962.648C843.955 962.411 845.319 963.729 847.084 965.167C856.232 972.486 866.782 968.903 877.204 969.636C874.024 972.824 868.009 973.85 863.61 973.834C863.43 973.834 863.25 973.818 863.069 973.81C862.21 973.714 861.354 973.598 860.496 973.492C853.744 972.652 849.722 969.693 843.917 968.498C842.566 968.863 842.074 968.339 840.846 967.787Z"/>
		<path fill="#BAB7A8" d="M464.942 364.212C466.342 364.343 467.879 364.551 469.04 365.396C471.116 366.909 488.997 392.547 491.111 396.048C491.963 397.459 492.431 398.66 492.751 400.272C492.58 400.245 492.406 400.23 492.237 400.19C488.892 399.399 468.005 369.158 464.942 364.212Z"/>
		<path fill="#DEDAC9" d="M810.394 884.131C813.591 890.121 829.755 918.92 830.206 923.515L829.737 924.211C825.478 922.749 811.851 891.958 808.873 886.032C809.618 885.437 809.902 884.932 810.394 884.131Z"/>
		<path fill="#CAC6B8" d="M758.333 772.561C759.437 775.016 760.689 777.247 762.091 779.539C763.658 782.865 770.19 790.212 770.201 793.111L769.231 793.547C768.43 793.349 767.76 793.161 767.065 792.698C763.466 790.297 755.971 779.24 755.093 774.917C755.904 773.513 756.907 773.286 758.333 772.561Z"/>
		<path fill="#CAC6B8" d="M502.971 345.404C502.891 345.282 502.814 345.158 502.733 345.036C499.991 340.882 490.897 332.681 491.59 327.796C491.617 327.605 491.675 327.421 491.717 327.234C493.132 327.225 494.045 328.243 495.015 329.215C499.623 333.833 503.368 339.597 507.17 344.891C507.057 346.263 506.622 346.585 505.797 347.657C504.71 347.079 503.877 346.228 502.971 345.404Z"/>
		<path fill="#DEDAC9" d="M327.482 184.887C329.688 181.529 332.833 181.224 336.478 180.224C335.589 182.544 334.786 184.917 333.545 187.076C333.369 190.134 333.825 193.098 334.22 196.122C331.959 194.075 327.902 192.378 326.746 189.468C326.167 188.01 326.994 186.276 327.482 184.887Z"/>
		<path fill="#E3E3D8" d="M327.482 184.887C329.688 181.529 332.833 181.224 336.478 180.224C335.589 182.544 334.786 184.917 333.545 187.076C331.525 186.226 329.45 185.941 327.482 184.887Z"/>
		<path fill="#DEDAC9" d="M408.717 278.1Q418.357 290.442 428.697 302.204C426.077 302.681 423.432 303.106 420.826 303.646L417.606 297.638L423.852 301.405C421.96 298.39 420.148 295.284 417.886 292.529C417.212 289.567 411.177 284.236 409.262 280.938C408.506 279.637 408.333 279.543 408.717 278.1Z"/>
		<path fill="#CAC6B8" d="M553.9 468.322C556.2 466.927 559.33 467.283 561.944 467.24C557.314 470.884 549.687 478.127 543.54 477.667C542.695 477.603 542.337 477.504 541.667 477.03L541.707 476.574C545.515 474.128 550.928 471.69 553.9 468.322Z"/>
		<path fill="#CAC6B8" d="M840.846 967.787C842.074 968.339 842.566 968.863 843.917 968.498C846.527 972.089 849.829 974.169 854.239 974.866C857.124 975.322 860.022 975.194 862.918 974.94L863.419 975.213L863.238 975.854C859.255 977.521 854.605 977.681 850.356 978.082C845.658 975.351 843.367 972.486 840.846 967.787Z"/>
		<path fill="#DEDAC9" d="M562.061 422.631C566.334 425.977 573.738 433.083 574.635 438.585L574.127 439.612C572.486 439.968 572.303 440.106 570.795 439.354C570.738 439.326 570.688 439.284 570.635 439.25C570.262 438.039 570.216 437.616 569.307 436.764C566.607 432.166 563.786 427.71 562.061 422.631Z"/>
		<path fill="#BAB7A8" d="M852.486 935.812C852.867 936.034 853.077 936.128 853.402 936.492C855.26 938.577 858.631 944.06 858.063 946.809C857.901 947.591 856.658 948.258 856.041 948.737C855.835 948.684 855.315 948.555 855.187 948.496C852.717 947.353 850.795 942.547 849.543 940.201L852.486 935.812Z"/>
		<path fill="#DEDAC9" d="M337.822 180.784C340.455 177.945 344.285 176.393 347.753 174.814L343.471 185.107L343.885 185.793C342.589 186.058 341.57 185.517 340.374 185.069C339.539 184.756 339.399 184.932 338.561 185.142C337.83 183.731 337.918 182.347 337.822 180.784Z"/>
		<path fill="#BAB7A8" d="M337.822 180.784L338.788 182.522C340.191 181.994 341.118 180.07 342.432 180.121C342.932 181.967 342.292 183.599 343.471 185.107L343.885 185.793C342.589 186.058 341.57 185.517 340.374 185.069C339.539 184.756 339.399 184.932 338.561 185.142C337.83 183.731 337.918 182.347 337.822 180.784Z"/>
		<path fill="#DEDAC9" d="M749.473 774.617C750.069 774.742 750.37 774.777 750.905 774.97C755.009 776.449 759.472 787.63 761.209 791.315C760.727 791.219 760.563 791.207 760.063 790.984C755.07 788.751 751.053 779.584 749.473 774.617Z"/>
		<path fill="#DEDAC9" d="M464.75 284.634C466.737 287.727 470.342 292.312 470.469 296.113C469.195 295.712 468.406 294.238 467.793 293.075C466.86 291.303 466.125 288.851 463.953 288.304C463.804 288.267 463.649 288.268 463.496 288.25L463.28 288.819C464.684 291.304 466.283 293.633 467.894 295.986C466.195 297.012 464.511 298.111 462.715 298.958C463.199 297.201 463.777 295.326 463.694 293.483C463.621 291.852 463.025 291.064 461.914 289.978C461.616 288.796 461.651 289.107 462.22 288.167C462.976 286.916 463.85 285.783 464.75 284.634Z"/>
		<path fill="#DEDAC9" d="M338.561 185.142C339.399 184.932 339.539 184.756 340.374 185.069C341.57 185.517 342.589 186.058 343.885 185.793C344.671 190.746 347.712 194.849 350.312 199.016C348.542 198.941 347.049 197.429 345.671 196.398C342.984 192.812 340.549 189.163 338.561 185.142Z"/>
		<path fill="#E3E3D8" d="M376.414 143.896C379.628 144.199 382.888 144.852 386.086 145.335C384.207 146.623 382.23 147.581 380.186 148.567C377.346 149.731 374.417 150.447 371.45 151.205L376.414 143.896Z"/>
		<path fill="#E3E3D8" d="M808.873 886.032C806.697 882.349 801.72 875.346 802.56 871.13C805.372 872.217 808.88 881.135 810.394 884.131C809.902 884.932 809.618 885.437 808.873 886.032Z"/>
		<path fill="#BAB7A8" d="M847.609 943.234C849.012 944.365 851.096 946.583 851.221 948.486C851.328 950.113 850.637 950.511 849.643 951.598C848.228 950.55 846.656 949.627 845.902 947.979C845.703 946.093 846.703 944.798 847.609 943.234Z"/>
		<path fill="#DEDAC9" d="M467.051 360.194Q466.062 360.121 465.084 359.959C462.689 359.584 461.38 359.138 459.905 357.087L460.23 356.317C462.469 355.623 463.997 356.325 466.082 357.109C466.338 358.199 466.54 359.19 467.051 360.194Z"/>
	</g>
	<g/>
</svg>
