<?xml version="1.0" encoding="utf-8" ?>
<svg xmlns="http://www.w3.org/2000/svg" xmlns:xlink="http://www.w3.org/1999/xlink" width="1024" height="1024">
	<g>
		<path d="M348.172 54.6566L348.583 53.8749C348.811 53.435 349.031 52.9905 349.268 52.5555C351.45 48.5585 355.478 46.2322 359.774 45.0353C367.391 42.913 374.851 43.8463 381.713 47.7164C405.91 45.7456 431.533 46.1755 455.576 49.719C462.577 50.7508 469.272 53.4895 476.299 54.3533C488.066 55.7997 500.108 55.5397 511.965 56.9335Q519.938 57.8522 527.868 59.0907Q535.797 60.3292 543.671 61.8854Q551.544 63.4416 559.349 65.313Q567.153 67.1845 574.876 69.3681Q582.599 71.5517 590.228 74.044Q597.857 76.5363 605.38 79.3333Q612.902 82.1302 620.306 85.2273Q627.71 88.3243 634.984 91.7165C696.24 120.288 746.786 163.667 787.198 217.593Q797.408 231.187 806.599 245.489Q815.79 259.791 823.913 274.726C838.025 301.258 848.99 329.182 859.266 357.368C861.227 357.546 863.326 357.696 865.221 358.241C868.029 359.048 870.768 360.832 872.017 363.55C873.696 367.2 872.858 370.753 871.622 374.365C885.127 385.39 906.901 401.299 924.479 402.003C932.025 402.305 939.847 400.374 947.247 402.581C951.179 403.754 955.482 406.59 957.307 410.39C958.201 412.251 958.238 414.228 957.465 416.137C956.117 419.473 952.896 421.724 949.743 423.182C941.73 426.887 932.024 428.241 923.502 430.57C904.184 435.851 884.201 441.234 865.507 448.416C860.262 467.615 860.92 487.186 861.388 506.872Q861.497 512.078 861.73 517.28Q861.964 522.482 862.321 527.677Q862.678 532.873 863.16 538.058Q863.641 543.243 864.246 548.415Q864.851 553.587 865.579 558.743Q866.308 563.899 867.159 569.036Q868.01 574.173 868.984 579.289Q869.958 584.404 871.053 589.495Q872.149 594.586 873.365 599.649Q874.582 604.712 875.92 609.745Q877.257 614.778 878.714 619.777Q880.171 624.776 881.747 629.739Q883.323 634.702 885.018 639.627Q886.712 644.551 888.523 649.433Q890.334 654.315 892.262 659.152Q894.189 663.99 896.231 668.78C903.495 685.453 912.14 701.264 920.431 717.415C920.149 719.622 920.33 721.33 920.798 723.5C923.665 729.916 927.54 735.865 930.862 742.046C940.483 759.947 950.505 777.965 958.832 796.503C972.307 829.1 978.536 863.447 964.375 897.16C961.427 904.178 957.551 910.766 953.634 917.278C954.909 917.985 954.893 918.425 955.299 919.78C955.325 919.865 955.344 919.95 955.366 920.035C944.779 939.612 913.099 971.634 895.636 984.974C873.295 984.021 850.9 984.43 828.546 983.422Q774.584 980.48 721.16 972.328C695.781 968.384 670.452 963.792 645.703 956.825C562.221 933.327 496.375 887.288 445.202 817.282C409.441 830.914 373.182 843.994 338.404 859.993C333.958 871.881 328.67 883.51 318.728 891.827C287.394 918.038 192.051 938.317 150.81 943.434C130.14 945.999 108.277 947.525 87.5093 945.569C78.0849 944.682 61.0218 942.719 54.6939 934.54C49.857 928.288 56.6257 920.241 60.3357 915.203C67.1601 905.935 73.9585 896.641 80.0623 886.874C105.056 846.881 132.606 787.508 137.741 740.417C138.277 735.502 139.999 724.994 135.865 721.256C133.765 719.357 131.021 717.943 129.311 715.654C127.713 713.514 127.235 710.757 127.621 708.147C128.126 704.729 130.562 702.453 133.207 700.487C127.849 681.925 121.928 663.515 116.587 644.935C112.337 644.544 108.917 643.914 105.899 640.541C104.078 638.505 103.117 635.893 103.285 633.162C103.528 629.198 105.467 626.925 108.328 624.394C95.2776 595.624 83.5109 566.337 74.8153 535.928C49.084 445.945 53.5236 343.211 99.6044 260.419Q103.805 252.98 108.332 245.735Q112.859 238.49 117.705 231.454Q122.55 224.418 127.704 217.604Q132.857 210.791 138.309 204.214Q143.761 197.636 149.501 191.308Q155.24 184.98 161.255 178.914Q167.27 172.848 173.55 167.055Q179.829 161.262 186.36 155.755C194.789 148.616 204.145 142.762 212.588 135.717C219.329 130.093 226.45 116.858 234.357 109.353C265.601 79.6956 307.655 66.1789 348.172 54.6566ZM794.245 886.512L793.875 864.18C794.24 863.125 794.501 862.2 794.604 861.081C794.977 857.034 795.809 848.478 793.107 845.228C790.912 806.542 787.616 764.756 778.391 727.052C763.216 728.004 747.939 728.711 732.851 730.621C680.831 737.205 618.451 753.867 570.288 774.346C578.271 784.234 587.804 793.395 597.169 801.962C634.774 836.361 678.448 861.152 727.788 874.224C749.76 880.046 771.893 882.813 794.245 886.512ZM856.948 746.226C855.862 749.118 856.671 751.722 856.23 754.642C859.292 779.449 862.711 804.224 864.959 829.123C866.187 842.72 866.58 856.374 867.559 869.989C869.753 873.661 868.035 878.242 870.487 882.118C870.713 883.119 870.845 884.238 871.333 885.141C871.489 885.075 871.65 885.019 871.802 884.944C876.418 882.685 881.039 877.986 884.948 874.631C905.982 856.58 911.967 847.275 921.937 821.324C908.486 792.931 885.072 748.647 855.457 735.118C856.389 738.576 856.752 742.644 856.948 746.226Z"/>
		<path fill="#626262" d="M370.044 650.081C375.505 645.089 381.297 640.366 387.137 635.823Q396.474 671.089 409.485 705.171C446.16 799.676 510.463 879.004 604.572 920.377Q622.608 928.097 641.27 934.15Q659.932 940.203 679.066 944.54C716.417 953.12 860.774 974.156 891.161 961.988C912.201 953.563 944.213 911.046 952.868 890.336C965.314 860.557 965.022 832.025 952.787 802.43C954.669 800.266 956.692 798.403 958.832 796.503C972.307 829.1 978.536 863.447 964.375 897.16C961.427 904.178 957.551 910.766 953.634 917.278C940.42 937.822 920.742 965.357 898.196 975.974C879.717 984.676 850.763 981.02 830.613 980.026C783.416 977.698 736.399 973.194 689.997 964.014Q671.715 960.566 653.754 955.714Q635.793 950.861 618.262 944.634C519.919 909.383 450.062 839.193 407.515 744.751C398.308 724.314 390.625 703.241 382.732 682.275C378.682 671.517 374.962 660.478 370.044 650.081Z"/>
		<path fill="#626262" d="M481.495 586.869Q490.431 583.066 499.489 579.564Q499.372 583.122 499.343 586.683Q499.314 590.243 499.373 593.803Q499.432 597.363 499.58 600.92Q499.727 604.477 499.963 608.03Q500.198 611.582 500.522 615.128Q500.845 618.673 501.257 622.21Q501.668 625.746 502.167 629.272Q502.666 632.797 503.251 636.309Q503.837 639.82 504.51 643.317Q505.183 646.813 505.942 650.291Q506.701 653.77 507.547 657.228Q508.392 660.687 509.322 664.123Q510.253 667.56 511.269 670.972Q512.284 674.385 513.384 677.771Q514.483 681.157 515.667 684.515Q516.85 687.873 518.116 691.201Q519.382 694.528 520.73 697.823Q522.079 701.119 523.508 704.38Q524.938 707.64 526.447 710.865Q527.957 714.089 529.546 717.275Q531.136 720.461 532.803 723.607Q534.471 726.752 536.216 729.855Q537.961 732.959 539.783 736.018Q541.604 739.077 543.501 742.09Q545.397 745.103 547.368 748.068Q549.339 751.033 551.383 753.949Q553.427 756.864 555.542 759.728Q557.657 762.592 559.843 765.402Q562.028 768.213 564.283 770.969Q566.537 773.724 568.859 776.423Q571.182 779.122 573.57 781.762Q575.958 784.403 578.411 786.983C589.632 798.998 601.979 809.817 614.83 820.046C681.534 873.142 752.439 888.479 836.256 891.288C863.962 892.217 871.26 892.515 892.041 872.983C911.637 854.565 926.164 832.051 926.995 804.47C927.784 778.318 917.303 753.815 907.633 730.082C909.34 730.058 911.039 729.716 912.722 729.446C917.818 739.385 923.33 749.297 927.699 759.579C930.562 766.318 932.507 773.388 934.393 780.449C939.998 801.429 941.369 817.871 934.55 838.821C926.342 864.037 909.513 887.404 885.43 899.477C877.258 903.574 868.774 905.82 859.718 906.894C847.352 908.361 834.446 907.34 822.047 906.691C778.924 904.434 734.953 899.142 693.866 885.299C614.232 858.469 546.004 795.512 508.86 720.575C488.991 680.489 476.008 634.148 475.454 589.218L479.915 587.486C482.15 667.84 520.102 753.746 578.573 809.04C634.259 861.7 698.831 888.804 774.521 897.56Q787.362 899.076 800.226 900.39C803.642 900.743 807.42 901.481 810.839 901.361C811.263 901.346 811.922 901.252 812.31 901.204C807.779 899.421 786.078 898.377 779.609 897.564Q755.697 894.582 732.144 889.491Q727.542 888.49 722.971 887.353Q718.401 886.216 713.866 884.944Q709.332 883.671 704.837 882.264Q700.342 880.857 695.892 879.317Q691.441 877.777 687.038 876.105Q682.635 874.433 678.283 872.631Q673.932 870.829 669.636 868.898Q665.341 866.967 661.104 864.91Q656.868 862.852 652.694 860.669Q648.521 858.486 644.415 856.18Q640.308 853.874 636.272 851.446Q632.236 849.019 628.274 846.473Q624.312 843.926 620.427 841.263Q616.543 838.6 612.739 835.823Q608.935 833.045 605.216 830.156Q601.497 827.266 597.865 824.267Q594.234 821.269 590.693 818.163Q587.152 815.057 583.705 811.848Q580.258 808.638 576.909 805.328Q573.559 802.017 570.309 798.608Q567.059 795.199 563.912 791.695Q560.765 788.191 557.724 784.595Q554.683 780.999 551.75 777.314Q548.817 773.629 545.995 769.858Q543.173 766.087 540.465 762.234Q537.756 758.381 535.164 754.449Q532.571 750.517 530.096 746.51Q527.622 742.503 525.268 738.423Q522.913 734.344 520.682 730.197Q518.45 726.049 516.343 721.838Q514.235 717.625 512.254 713.353Q510.273 709.08 508.42 704.75C492.553 668.253 481.171 626.924 481.495 586.869Z"/>
		<path fill="#6E4600" d="M847.398 454.353C852.522 452.953 857.565 451.127 862.581 449.383L862.381 450.176C856.48 474.067 857.468 500.327 859.508 524.654C864.605 585.417 877.666 638.467 904.759 693.192C909.793 703.359 914.968 713.764 920.798 723.5C923.665 729.916 927.54 735.865 930.862 742.046C940.483 759.947 950.505 777.965 958.832 796.503C956.692 798.403 954.669 800.266 952.787 802.43C940.85 777.358 927.244 752.982 914.813 728.135L893.689 685.645C889.74 677.829 885.945 668.434 880.355 661.702C883.256 669.265 887.433 676.32 890.916 683.634Q901.626 706.632 912.722 729.446C911.039 729.716 909.34 730.058 907.633 730.082C900.401 714.479 892.933 698.806 886.519 682.847C883.337 674.931 881.049 666.816 878.197 658.794C873.97 646.904 869.681 635.161 866.144 623.035C850.091 567.996 845.177 511.488 847.398 454.353Z"/>
		<path fill="#626262" d="M331.118 97.0114C366.007 98.507 398.022 104.648 430.252 118.352C491.103 144.226 545.023 192.46 569.904 254.483C600.404 330.509 586.095 388.805 555.06 461.6L512.376 477.75Q448.933 501.398 385.149 524.113C355.576 455.933 329.861 384.533 313.91 311.871C298.468 241.527 290.421 160.719 331.118 97.0114Z"/>
		<path d="M473.467 403.123C478.394 402.768 483.345 403.047 487.854 405.274C493.482 408.054 497.619 413.261 499.432 419.236Q499.597 419.765 499.735 420.301Q499.874 420.838 499.985 421.38Q500.097 421.923 500.181 422.47Q500.266 423.017 500.323 423.568Q500.38 424.119 500.41 424.672Q500.44 425.226 500.442 425.779Q500.444 426.333 500.419 426.887Q500.394 427.44 500.341 427.991Q500.288 428.543 500.208 429.091Q500.128 429.639 500.021 430.182Q499.914 430.726 499.78 431.263Q499.646 431.801 499.485 432.331Q499.325 432.861 499.138 433.382Q498.952 433.904 498.739 434.416Q498.527 434.927 498.29 435.428Q498.052 435.928 497.79 436.416C494.444 442.6 488.903 445.759 482.381 447.66C476.585 448.405 470.656 448.004 465.49 445.02Q465.019 444.745 464.563 444.448Q464.107 444.15 463.665 443.83Q463.224 443.51 462.799 443.169Q462.374 442.828 461.967 442.466Q461.559 442.104 461.17 441.723Q460.781 441.342 460.41 440.942Q460.04 440.542 459.691 440.124Q459.341 439.706 459.012 439.271Q458.683 438.837 458.376 438.387Q458.069 437.936 457.785 437.472Q457.5 437.007 457.239 436.529Q456.978 436.05 456.74 435.56Q456.503 435.069 456.29 434.568Q456.077 434.066 455.889 433.554Q455.702 433.043 455.539 432.523Q455.377 432.003 455.24 431.475Q455.091 430.916 454.97 430.35Q454.849 429.785 454.758 429.214Q454.666 428.643 454.603 428.068Q454.54 427.493 454.506 426.915Q454.472 426.338 454.467 425.759Q454.463 425.181 454.488 424.603Q454.512 424.025 454.566 423.449Q454.62 422.873 454.703 422.301Q454.786 421.728 454.898 421.161Q455.009 420.593 455.15 420.032Q455.29 419.471 455.458 418.918Q455.627 418.364 455.823 417.82Q456.019 417.276 456.243 416.743Q456.466 416.209 456.717 415.688Q456.967 415.166 457.243 414.658Q457.519 414.15 457.821 413.656C461.409 407.809 466.892 404.565 473.467 403.123Z"/>
		<path fill="#626262" d="M474.768 405.613C479.227 405.438 483.474 405.862 487.447 408.091C492.072 410.685 495.352 415.297 496.753 420.364Q496.888 420.843 496.999 421.328Q497.11 421.813 497.196 422.303Q497.283 422.793 497.345 423.286Q497.407 423.78 497.444 424.276Q497.481 424.772 497.494 425.27Q497.506 425.767 497.494 426.264Q497.481 426.762 497.444 427.258Q497.407 427.754 497.345 428.248Q497.283 428.741 497.196 429.231Q497.109 429.721 496.999 430.206Q496.888 430.691 496.753 431.17Q496.618 431.649 496.459 432.12Q496.3 432.592 496.118 433.055Q495.936 433.518 495.731 433.971Q495.526 434.424 495.299 434.867Q495.071 435.309 494.822 435.74C491.64 441.122 486.587 443.616 480.714 444.991C476.548 445.167 472.395 444.946 468.547 443.182C463.798 441.005 460.29 436.879 458.677 431.932Q458.513 431.434 458.374 430.928Q458.236 430.422 458.124 429.909Q458.012 429.396 457.926 428.879Q457.84 428.361 457.781 427.84Q457.722 427.318 457.69 426.795Q457.658 426.271 457.653 425.746Q457.648 425.222 457.669 424.698Q457.691 424.173 457.74 423.651Q457.788 423.128 457.864 422.609Q457.939 422.09 458.041 421.575Q458.143 421.061 458.271 420.552Q458.4 420.043 458.554 419.542Q458.708 419.04 458.888 418.547Q459.068 418.054 459.273 417.571Q459.478 417.088 459.707 416.616Q459.937 416.144 460.19 415.685C463.417 409.9 468.627 407.28 474.768 405.613Z"/>
		<path d="M466.125 411.855L466.741 412.436C466.276 414.297 464.612 416.132 463.505 417.693C463.415 419.601 463.317 421.627 463.473 423.537C463.826 427.879 466.279 432.27 469.629 435.016C472.712 437.543 476.579 438.893 480.57 438.347C487.727 437.369 490.261 432.869 494.343 427.759L494.9 427.852L494.973 429.654C494.045 431.823 492.979 434.016 491.295 435.701C488.03 438.966 483.68 440.496 479.109 440.498Q478.185 440.502 477.266 440.416Q476.346 440.329 475.44 440.152Q474.533 439.975 473.648 439.71Q472.763 439.445 471.909 439.094Q471.055 438.743 470.239 438.309Q469.423 437.876 468.654 437.364Q467.885 436.852 467.171 436.267Q466.456 435.683 465.802 435.03C462.714 431.917 460.822 427.69 460.859 423.279C460.897 418.73 462.965 414.989 466.125 411.855Z"/>
		<path fill="#6E4600" d="M407.038 49.2105C443.889 47.3596 470.024 54.4904 504.315 66.1799C517.582 70.7026 530.81 75.6291 543.289 82.0586C586.878 104.516 628.122 142.604 656.704 182.21C671.817 203.152 683.994 226.075 697.921 247.798C722.276 285.786 756.5 325.636 793.832 351.376C803.299 357.904 813.333 363.274 823.551 368.519C755.765 390.633 687.916 412 621.228 437.31C608.517 442.456 595.836 447.342 582.627 451.072C586.663 439.574 591.269 428.406 594.84 416.723C611.661 361.698 613.579 310.445 593.859 255.898C569.001 187.14 512.788 131.145 447.06 100.491C402.471 79.6955 352.431 69.3243 303.598 78.9545C290.109 81.6147 277.302 85.8893 264.401 90.5819C269.372 87.012 275.539 84.3967 281.107 81.8443Q297.187 74.4979 313.835 68.5487Q330.482 62.5994 347.576 58.0906C349.454 61.4873 351.125 63.2058 354.881 64.5054C361.418 66.7672 370.795 65.5649 376.874 62.357C382.119 59.5896 382.875 56.3447 384.509 51.033C391.699 49.2706 399.674 49.5015 407.038 49.2105Z"/>
		<path d="M701.122 348.563C706.399 348.035 711.134 348.595 715.826 351.241C721.813 354.617 726.272 360.627 728.024 367.249C729.66 373.433 728.926 380.282 725.58 385.786C721.921 391.805 716.509 394.281 709.954 395.885C704.921 396.308 699.789 395.478 695.327 393.048C689.198 389.711 684.763 383.695 682.99 376.986C681.392 370.937 682.124 364.387 685.363 358.997C689.102 352.773 694.408 350.346 701.122 348.563Z"/>
		<path fill="#6E4600" d="M703.552 351.169C704.702 351.051 705.795 351.066 706.95 351.153C712.437 351.568 716.938 354.352 720.373 358.589C724.168 363.271 726.825 369.785 726.041 375.889C725.604 379.291 724.041 382.418 721.201 384.422C717.353 387.139 711.814 387.604 707.286 386.852C701.479 385.887 696.086 382.811 692.664 377.973C688.424 371.978 689.929 366.821 691.17 360.104L690.808 360.339C688.027 366.234 687.548 370.3 689.345 376.492C691.97 381.662 695.438 385.514 700.977 387.667C708.642 390.646 715.77 388.861 722.978 385.751C718.87 388.901 714.98 391.689 709.725 392.602Q709.236 392.685 708.743 392.743Q708.25 392.801 707.754 392.834Q707.259 392.868 706.763 392.876Q706.266 392.885 705.77 392.869Q705.274 392.853 704.78 392.812Q704.285 392.772 703.793 392.706Q703.301 392.641 702.813 392.551Q702.324 392.462 701.841 392.348Q701.358 392.234 700.881 392.096Q700.404 391.958 699.935 391.796Q699.466 391.635 699.005 391.45Q698.544 391.266 698.093 391.058Q697.642 390.851 697.202 390.621Q696.762 390.392 696.334 390.14Q695.906 389.889 695.491 389.617Q695.076 389.345 694.675 389.052Q694.197 388.707 693.738 388.338Q693.278 387.97 692.838 387.578Q692.397 387.186 691.978 386.773Q691.558 386.359 691.16 385.925Q690.761 385.491 690.386 385.037Q690.01 384.583 689.658 384.11Q689.306 383.638 688.978 383.148Q688.651 382.658 688.348 382.152Q688.046 381.646 687.77 381.126Q687.494 380.605 687.244 380.071Q686.995 379.537 686.773 378.992Q686.551 378.446 686.357 377.889Q686.163 377.333 685.998 376.767Q685.833 376.202 685.696 375.628Q685.56 375.055 685.453 374.476Q685.346 373.896 685.268 373.312C684.577 368.035 685.701 362.412 689.08 358.209C692.764 353.626 697.916 351.849 703.552 351.169Z"/>
		<path d="M636.934 209.537C640.972 209.354 644.739 209.514 648.528 211.076C654.556 213.563 659.109 218.796 661.407 224.83C663.45 230.196 663.767 236.529 661.23 241.793C658.476 247.503 653.656 249.84 647.976 251.79C643.64 252.144 639.541 251.834 635.5 250.097C629.602 247.563 625.145 242.645 622.929 236.646C620.924 231.22 620.807 224.986 623.388 219.726C626.241 213.909 631.087 211.461 636.934 209.537Z"/>
		<path fill="#6E4600" d="M637.98 212.151C641.647 211.944 644.966 212.331 648.262 214.029C653.34 216.645 657.138 221.712 658.826 227.108C660.25 231.656 660.324 236.979 657.999 241.25C655.662 245.541 651.969 247.273 647.513 248.58C642.944 249.099 638.661 248.372 634.662 246.03Q634.2 245.754 633.753 245.454Q633.306 245.154 632.875 244.832Q632.443 244.51 632.029 244.166Q631.615 243.822 631.219 243.458Q630.823 243.093 630.447 242.708Q630.07 242.324 629.714 241.92Q629.358 241.517 629.022 241.096Q628.687 240.675 628.374 240.237Q628.061 239.799 627.771 239.346Q627.481 238.892 627.214 238.425Q626.947 237.957 626.705 237.476Q626.463 236.996 626.246 236.503Q626.029 236.011 625.837 235.508Q625.645 235.005 625.48 234.493Q625.314 233.98 625.175 233.46Q625.036 232.94 624.924 232.414C623.912 227.76 624.511 222.606 627.217 218.608C629.812 214.774 633.542 212.942 637.98 212.151Z"/>
		<path d="M511.486 80.6297C518.426 80.0416 524.976 80.992 530.906 84.9383C535.669 88.1079 539.408 93.1895 540.396 98.8929C540.865 101.594 540.508 104.307 538.874 106.565C536.133 110.354 531.691 111.669 527.325 112.449C521.074 112.714 514.763 111.756 509.194 108.787C504.203 106.127 499.927 101.662 498.403 96.1157C497.612 93.2349 497.723 90.2972 499.315 87.7079C501.952 83.4178 506.851 81.7118 511.486 80.6297Z"/>
		<path fill="#6E4600" d="M511.883 83.1232C517.427 82.3206 522.899 83.2577 527.777 86.057C532.219 88.6063 536.369 92.9862 537.565 98.0936C538.091 100.335 537.936 102.674 536.612 104.615C534.312 107.989 530.344 108.709 526.619 109.399Q525.646 109.464 524.671 109.463Q523.696 109.462 522.724 109.395Q521.751 109.328 520.785 109.195Q519.82 109.061 518.865 108.863Q517.911 108.664 516.972 108.401Q516.033 108.138 515.115 107.812Q514.196 107.486 513.301 107.098Q512.407 106.71 511.541 106.262C507.013 103.892 502.586 100.055 501.158 94.9603C500.549 92.7868 500.586 90.4477 501.806 88.4908C503.934 85.0787 508.198 83.9017 511.883 83.1232Z"/>
		<defs>
			<linearGradient id="gradient_0" gradientUnits="userSpaceOnUse" x1="448.2543" y1="840.59424" x2="923.32642" y2="706.36212">
				<stop offset="0" stop-color="#7F5303"/>
				<stop offset="1" stop-color="#A36F05"/>
			</linearGradient>
		</defs>
		<path fill="url(#gradient_0)" d="M471.294 590.419C471.932 590.51 472.354 590.333 472.653 590.991C473.843 593.603 473.502 604.296 473.794 607.982Q475.322 627.413 479.256 646.503Q480.249 651.067 481.373 655.601Q482.497 660.135 483.752 664.635Q485.006 669.135 486.389 673.596Q487.772 678.058 489.283 682.478Q490.794 686.898 492.432 691.273Q494.07 695.647 495.833 699.973Q497.596 704.299 499.483 708.572Q501.369 712.845 503.378 717.063Q505.387 721.28 507.517 725.437Q509.646 729.595 511.895 733.689Q514.143 737.784 516.508 741.812Q518.874 745.84 521.354 749.799Q523.834 753.757 526.427 757.642Q529.02 761.527 531.724 765.337Q534.428 769.146 537.241 772.875Q540.053 776.605 542.972 780.252Q554.121 793.83 566.497 806.301Q578.873 818.772 592.365 830.025C652.437 880.589 713.706 899.445 790.917 907.355C814.856 909.807 854.033 913.131 876.592 906.044C886.385 902.968 895.14 897.683 903.048 891.193C926.287 872.121 938.9 844.547 941.839 814.981Q949.261 818.113 956.814 820.912C960.646 834.253 962.528 859.455 956.816 872.631C955.235 868.542 953.278 864.26 949.301 861.984C946.098 860.152 942.012 860.158 938.542 861.177Q937.87 861.374 937.222 861.641Q936.574 861.908 935.957 862.241Q935.341 862.574 934.763 862.97Q934.185 863.366 933.652 863.821Q933.118 864.275 932.636 864.783Q932.153 865.291 931.726 865.847Q931.3 866.403 930.933 867Q930.567 867.597 930.266 868.23Q929.907 868.963 929.626 869.729Q929.344 870.495 929.143 871.285Q928.941 872.076 928.821 872.883Q928.702 873.69 928.666 874.505Q928.629 875.32 928.677 876.135Q928.724 876.95 928.855 877.755Q928.985 878.56 929.198 879.348Q929.41 880.136 929.702 880.898C931.166 884.792 934.143 888.276 938.069 889.816C942.661 891.617 946.677 890.488 951 888.7L945.855 898.793Q945.328 899.86 944.748 900.9C934.737 919.063 905.683 955.482 885.721 960.911C857.701 968.531 738.293 953.075 704.509 947.193Q679.947 942.981 655.983 936.143Q645.131 933.171 634.481 929.538Q623.831 925.906 613.425 921.627Q603.018 917.349 592.893 912.44Q582.769 907.531 572.964 902.01C553.731 891.028 536.006 877.581 519.366 863.011C449.13 801.51 413.408 722.344 389.194 633.823C398.98 626.561 408.695 619.301 419.369 613.374C435.958 604.163 453.874 597.811 471.294 590.419Z"/>
		<path d="M487.466 748.138C491.077 747.862 494.709 748.334 497.936 750.066C501.863 752.172 504.448 755.881 505.627 760.129Q505.764 760.64 505.876 761.158Q505.988 761.675 506.074 762.198Q506.16 762.72 506.22 763.246Q506.279 763.772 506.313 764.3Q506.346 764.828 506.353 765.358Q506.36 765.887 506.341 766.416Q506.322 766.945 506.276 767.472Q506.231 768 506.159 768.524Q506.087 769.049 505.989 769.569Q505.891 770.089 505.767 770.604Q505.643 771.119 505.494 771.627Q505.345 772.134 505.171 772.634Q504.996 773.134 504.797 773.625Q504.598 774.115 504.375 774.595Q504.152 775.075 503.905 775.543Q503.658 776.012 503.388 776.467C500.103 782.102 495.448 784.481 489.415 786.144C485.691 785.864 482.26 785.186 479.011 783.254Q478.601 783.012 478.204 782.749Q477.807 782.486 477.424 782.204Q477.041 781.922 476.672 781.62Q476.304 781.319 475.951 780.999Q475.598 780.68 475.262 780.343Q474.925 780.006 474.607 779.652Q474.288 779.299 473.987 778.93Q473.687 778.56 473.405 778.177Q473.124 777.793 472.862 777.395Q472.6 776.997 472.359 776.587Q472.117 776.177 471.897 775.755Q471.677 775.333 471.478 774.9Q471.279 774.468 471.102 774.026Q470.926 773.584 470.772 773.133Q470.617 772.683 470.486 772.225Q470.355 771.768 470.247 771.304Q470.142 770.849 470.059 770.39Q469.977 769.93 469.918 769.467Q469.86 769.004 469.825 768.538Q469.79 768.073 469.779 767.606Q469.768 767.139 469.78 766.672Q469.793 766.206 469.829 765.74Q469.866 765.275 469.926 764.812Q469.986 764.349 470.07 763.889Q470.153 763.43 470.26 762.976Q470.367 762.521 470.497 762.073Q470.627 761.624 470.78 761.183Q470.932 760.742 471.107 760.309Q471.282 759.876 471.479 759.453Q471.676 759.029 471.894 758.616Q472.112 758.204 472.351 757.803Q472.59 757.401 472.849 757.013C476.337 751.736 481.532 749.484 487.466 748.138Z"/>
		<path fill="#626262" d="M486.278 751.112C489.855 750.578 493.34 750.899 496.497 752.778C499.59 754.619 501.642 757.774 502.511 761.228Q502.728 762.112 502.859 763.013Q502.99 763.914 503.034 764.823Q503.078 765.732 503.034 766.641Q502.99 767.55 502.859 768.451Q502.728 769.352 502.511 770.236Q502.293 771.12 501.992 771.979Q501.691 772.838 501.308 773.664Q500.925 774.49 500.465 775.275C497.773 779.763 494.097 781.775 489.17 782.986C486.403 783.056 483.799 782.415 481.32 781.177C477.404 779.22 474.58 775.671 473.37 771.481Q473.151 770.71 473.011 769.921Q472.87 769.133 472.81 768.334Q472.751 767.534 472.772 766.734Q472.793 765.932 472.894 765.138Q472.996 764.343 473.178 763.563Q473.359 762.782 473.618 762.024Q473.878 761.266 474.212 760.538Q474.547 759.81 474.953 759.119C477.587 754.572 481.424 752.533 486.278 751.112Z"/>
		<path d="M486.386 752.571C488.221 752.437 490.301 752.172 492.081 752.727C495.05 753.654 497.579 756.155 498.839 758.957C500.339 762.294 500.501 766.375 498.993 769.739C497.528 773.009 495.378 774.492 492.139 775.769C490.626 775.872 489.041 775.977 487.542 775.695C484.571 775.136 481.779 773.44 480.069 770.932Q479.735 770.433 479.454 769.903Q479.173 769.373 478.949 768.816Q478.724 768.26 478.557 767.683Q478.391 767.107 478.285 766.516Q478.179 765.925 478.134 765.327Q478.089 764.728 478.106 764.129Q478.123 763.529 478.201 762.934Q478.28 762.339 478.419 761.755C479.541 757.108 482.481 754.835 486.386 752.571Z"/>
		<path fill="#626262" d="M488.17 754.028C490.046 753.917 491.753 753.784 493.479 754.653C495.582 755.711 497.043 757.564 497.742 759.799C498.648 762.701 498.295 766.022 496.874 768.701C495.377 771.525 493.573 772.285 490.623 773.185C489.384 772.947 488.157 772.683 486.985 772.205C483.055 770.6 481.679 767.148 480.096 763.527C481.997 758.702 483.535 756.488 488.17 754.028Z"/>
		<path d="M429.355 625.076C432.598 624.929 435.695 624.997 438.743 626.278C443.128 628.122 446.278 631.653 447.864 636.112Q448.027 636.572 448.166 637.041Q448.306 637.509 448.421 637.983Q448.536 638.458 448.626 638.938Q448.717 639.418 448.783 639.902Q448.848 640.386 448.889 640.872Q448.93 641.359 448.946 641.847Q448.962 642.335 448.952 642.824Q448.943 643.312 448.909 643.799Q448.875 644.286 448.815 644.771Q448.756 645.256 448.672 645.737Q448.588 646.218 448.479 646.694Q448.371 647.171 448.238 647.64Q448.105 648.11 447.948 648.573Q447.791 649.035 447.61 649.489Q447.43 649.943 447.226 650.387Q447.023 650.831 446.797 651.264C443.888 656.734 439.514 658.876 433.871 660.552C430.094 660.426 426.691 660.164 423.212 658.486C418.874 656.394 415.538 652.659 414.162 648.02Q413.913 647.179 413.75 646.318Q413.586 645.456 413.511 644.582Q413.435 643.709 413.448 642.832Q413.461 641.955 413.563 641.084Q413.664 640.213 413.853 639.357Q414.042 638.5 414.316 637.667Q414.59 636.834 414.947 636.033Q415.303 635.232 415.739 634.471C418.787 629.207 423.727 626.719 429.355 625.076Z"/>
		<path fill="#626262" d="M429.322 627.541C432.605 627.39 435.246 627.555 438.227 629.08Q438.864 629.409 439.463 629.802Q440.063 630.195 440.619 630.647Q441.176 631.099 441.683 631.605Q442.19 632.112 442.643 632.668Q443.095 633.223 443.489 633.823Q443.882 634.422 444.212 635.058Q444.542 635.694 444.805 636.361Q445.068 637.028 445.262 637.718C446.427 641.767 445.973 646.367 443.837 650.021C441.295 654.368 437.511 656.32 432.778 657.479C429.72 657.594 426.885 657.341 424.091 655.976C420.573 654.257 418.057 651.235 416.914 647.501C415.725 643.617 416.286 639.352 418.211 635.803C420.711 631.196 424.528 629.076 429.322 627.541Z"/>
		<path d="M429.231 630.025C434.614 629.641 437.53 630.997 441.583 634.422C443.043 638.111 443.84 641.851 442.404 645.692C440.896 649.721 437.59 651.729 433.851 653.331C432.073 653.522 430.32 653.639 428.558 653.245C424.104 652.249 421.773 648.813 419.577 645.158C419.509 641.992 419.603 638.983 421.09 636.108C422.869 632.668 425.715 631.244 429.231 630.025Z"/>
		<path fill="#626262" d="M430.208 631.079C432.02 631.063 433.821 631.275 435.467 632.075C437.829 633.223 439.627 635.214 440.436 637.72Q440.601 638.245 440.709 638.784Q440.818 639.323 440.869 639.87Q440.921 640.418 440.914 640.968Q440.908 641.518 440.844 642.064Q440.78 642.61 440.659 643.146Q440.537 643.683 440.361 644.203Q440.184 644.724 439.953 645.223Q439.723 645.723 439.441 646.195C437.697 649.131 435.38 650.224 432.177 651.023C430.442 650.89 428.571 650.681 427.014 649.858C424.625 648.597 422.828 646.492 422.052 643.895C421.297 641.37 421.643 638.712 422.907 636.412C424.5 633.513 427.138 632.009 430.208 631.079Z"/>
		<path d="M622.346 872.127C626.061 871.956 629.322 872.232 632.644 874.048C636.858 876.351 639.671 880.391 640.807 885.015C641.943 889.641 641.378 894.763 638.785 898.817C635.862 903.385 631.878 904.893 626.852 906.009C623.19 906.027 619.57 905.539 616.294 903.807Q615.57 903.427 614.888 902.977Q614.205 902.526 613.571 902.01Q612.937 901.494 612.357 900.918Q611.777 900.341 611.257 899.71Q610.738 899.079 610.284 898.399Q609.829 897.719 609.445 896.997Q609.061 896.275 608.75 895.519Q608.44 894.763 608.206 893.979Q608.079 893.556 607.974 893.128Q607.87 892.699 607.787 892.266Q607.704 891.833 607.644 891.396Q607.584 890.958 607.546 890.519Q607.508 890.079 607.493 889.638Q607.478 889.198 607.485 888.756Q607.493 888.315 607.523 887.875Q607.553 887.435 607.606 886.997Q607.659 886.559 607.734 886.124Q607.809 885.69 607.907 885.259Q608.004 884.829 608.124 884.404Q608.243 883.979 608.384 883.561Q608.525 883.143 608.688 882.733Q608.85 882.323 609.033 881.922Q609.216 881.52 609.42 881.129Q609.624 880.737 609.847 880.357C612.707 875.557 617.142 873.422 622.346 872.127Z"/>
		<path fill="#626262" d="M623.509 874.612C626.541 874.43 629.474 875.042 632.095 876.63C635.426 878.649 637.517 882.023 638.287 885.797C639.108 889.827 638.621 894.367 636.219 897.795C633.479 901.705 630.221 902.647 625.808 903.534C622.79 903.184 619.772 902.824 617.099 901.268C613.768 899.328 611.321 896.316 610.371 892.554Q610.194 891.852 610.087 891.136Q609.981 890.421 609.948 889.698Q609.914 888.975 609.953 888.252Q609.991 887.53 610.103 886.815Q610.214 886.099 610.396 885.399Q610.578 884.699 610.83 884.02Q611.081 883.341 611.4 882.692Q611.718 882.042 612.1 881.427C614.746 877.23 618.845 875.568 623.509 874.612Z"/>
		<path d="M614.164 883.348C614.707 885.691 614.359 888.207 614.753 890.597C615.483 895.032 617.42 896.911 620.97 899.448C625.963 899.697 629.971 899.747 634.179 896.628C635.036 895.992 635.364 895.651 636.407 895.377L635.973 896.83C634.665 898.318 633.353 899.68 631.603 900.651Q631.05 900.957 630.469 901.205Q629.888 901.453 629.285 901.641Q628.682 901.828 628.063 901.954Q627.443 902.08 626.815 902.142Q626.186 902.204 625.554 902.202Q624.923 902.2 624.294 902.134Q623.666 902.068 623.047 901.939Q622.429 901.809 621.827 901.618Q621.22 901.423 620.635 901.167Q620.051 900.91 619.495 900.596Q618.94 900.282 618.419 899.914Q617.898 899.545 617.417 899.126Q616.936 898.706 616.5 898.24Q616.065 897.774 615.678 897.266Q615.292 896.758 614.959 896.214Q614.626 895.669 614.35 895.094C612.498 891.271 612.835 887.266 614.164 883.348Z"/>
		<path d="M762.831 912.511C766.392 912.398 769.543 912.457 772.842 913.962Q773.589 914.298 774.298 914.71Q775.006 915.121 775.669 915.604Q776.332 916.086 776.941 916.633Q777.551 917.181 778.101 917.788Q778.652 918.395 779.137 919.056Q779.622 919.716 780.036 920.423Q780.451 921.13 780.791 921.876Q781.13 922.621 781.392 923.398Q781.665 924.168 781.859 924.962Q782.054 925.755 782.17 926.564Q782.285 927.373 782.32 928.189Q782.354 929.005 782.308 929.821Q782.262 930.637 782.135 931.444Q782.008 932.251 781.802 933.041Q781.596 933.832 781.312 934.598Q781.029 935.365 780.671 936.099C778.109 941.229 773.836 943.254 768.671 944.909C765.622 945.061 762.78 945.026 759.852 944.016C755.685 942.578 752.363 939.594 750.606 935.539Q750.278 934.781 750.028 933.994Q749.777 933.207 749.608 932.399Q749.438 931.591 749.351 930.77Q749.263 929.949 749.259 929.123Q749.254 928.297 749.333 927.475Q749.412 926.653 749.573 925.843Q749.734 925.033 749.976 924.244Q750.218 923.454 750.538 922.693C752.938 917.051 757.442 914.642 762.831 912.511Z"/>
		<path fill="#6E4600" d="M763.302 915.102C767.634 914.707 771.579 915.119 775.021 918.047C777.859 920.46 779.5 924.255 779.667 927.946C779.733 929.389 779.543 930.855 779.381 932.287C779.283 932.535 779.176 932.78 779.068 933.025C777.257 937.132 775.005 939.337 770.761 940.882C766.872 942.297 762.535 942.677 758.764 940.691C755.663 939.059 753.476 936.11 752.55 932.755Q752.359 932.053 752.238 931.336Q752.117 930.619 752.068 929.894Q752.018 929.168 752.041 928.442Q752.064 927.715 752.158 926.994Q752.253 926.273 752.418 925.565Q752.584 924.857 752.818 924.168Q753.053 923.48 753.355 922.818Q753.656 922.157 754.022 921.528C756.165 917.906 759.366 916.196 763.302 915.102Z"/>
		<path fill="#626262" d="M763.302 915.102C767.634 914.707 771.579 915.119 775.021 918.047C777.859 920.46 779.5 924.255 779.667 927.946C779.733 929.389 779.543 930.855 779.381 932.287C773.938 929.095 775.263 923.087 770.909 919.323C768.866 917.557 765.695 916.387 763.302 915.102Z"/>
		<path d="M881.26 912.109C884.145 912.279 887.144 912.384 889.908 913.289C894.386 914.754 898.164 917.799 900.135 922.127Q900.463 922.832 900.717 923.568Q900.97 924.304 901.146 925.061Q901.322 925.819 901.419 926.591Q901.515 927.363 901.531 928.141Q901.547 928.919 901.483 929.694Q901.418 930.47 901.273 931.234Q901.129 931.999 900.906 932.744Q900.683 933.49 900.384 934.208C898.175 939.413 893.801 942.038 888.76 943.936C885.205 944.149 881.855 943.962 878.573 942.459Q877.773 942.091 877.015 941.644Q876.256 941.197 875.547 940.676Q874.837 940.155 874.184 939.565Q873.53 938.975 872.939 938.322Q872.349 937.669 871.827 936.96Q871.305 936.251 870.857 935.494Q870.409 934.736 870.039 933.936Q869.67 933.137 869.383 932.305C867.974 928.267 868.048 923.702 870.099 919.893C872.497 915.439 876.634 913.48 881.26 912.109Z"/>
		<path fill="#6E4600" d="M898.638 928.734C898.267 930.396 897.851 932.559 897.043 934.064C895.999 936.009 893.26 937.577 891.179 938.076C887.984 938.842 884.139 938.213 881.366 936.45Q880.873 936.142 880.413 935.785Q879.954 935.429 879.533 935.027Q879.112 934.625 878.734 934.183Q878.357 933.74 878.026 933.262Q877.696 932.783 877.416 932.273Q877.135 931.763 876.909 931.228Q876.682 930.692 876.511 930.136Q876.34 929.58 876.227 929.009C875.62 926.08 875.955 923.157 877.731 920.69C880.408 916.971 884.322 915.764 888.566 914.984C892.46 916.347 895.529 918.081 897.287 921.997C898.259 924.162 898.528 926.389 898.638 928.734Z"/>
		<path fill="#626262" d="M888.566 914.984C892.46 916.347 895.529 918.081 897.287 921.997C898.259 924.162 898.528 926.389 898.638 928.734C895.542 926.925 892.375 925.675 889.787 923.114C888.907 920.415 888.598 917.813 888.566 914.984Z"/>
		<path fill="#626262" d="M880.63 914.371L881.371 914.723C879.684 916.157 877.834 917.166 876.486 918.98C874.276 921.958 873.463 925.882 874.181 929.505C874.852 932.897 876.779 935.802 879.706 937.66C885.023 941.034 888.201 939.285 893.629 938.121L892.925 938.989C889.393 940.813 885.529 941.507 881.617 940.478Q880.938 940.299 880.28 940.053Q879.623 939.808 878.993 939.498Q878.363 939.188 877.767 938.817Q877.171 938.446 876.615 938.017Q876.059 937.589 875.548 937.107Q875.037 936.625 874.577 936.094Q874.117 935.564 873.712 934.991Q873.307 934.417 872.961 933.806C871.195 930.708 870.647 927.009 871.665 923.572C873.082 918.788 876.506 916.593 880.63 914.371Z"/>
		<path fill="#626262" d="M300.007 100.751L300.262 101.189C294.983 110.75 290.203 120.007 286.389 130.272C273.585 164.738 271.518 201.552 273.777 237.98C275.7 268.983 281.672 299.508 288.507 329.75Q293.394 351.609 299.208 373.241Q305.022 394.872 311.752 416.236Q318.482 437.6 326.116 458.658Q333.749 479.716 342.273 500.43C346.939 511.846 351.468 523.353 356.622 534.559C348.806 537.112 341.131 539.868 333.549 543.049C321.048 514.53 305.689 480.572 278.398 463.374C263.559 454.023 245.888 452.29 228.983 456.251C210.4 460.606 196.108 471.026 186.035 487.167C184.773 489.299 183.711 491.636 182.777 493.929C169.512 526.488 178.792 567.478 192.024 598.865Q188.513 599.969 185.017 601.121C167.291 560.785 154.699 512.81 148.204 469.248C135.533 384.267 145.765 304.507 182.359 226.476C192.63 204.574 204.301 183.355 218.753 163.909C229.636 149.264 257.461 114.896 273.189 107.072C281.286 103.044 291.15 102.065 300.007 100.751Z"/>
		<path fill="#6E4600" d="M705.399 503.493C705.546 503.577 705.706 503.642 705.841 503.744C708.262 505.585 714.553 520.3 716.152 523.635Q721.33 534.39 726.133 545.318Q730.936 556.246 735.359 567.333Q739.782 578.42 743.819 589.653Q747.856 600.886 751.503 612.253Q755.149 623.619 758.401 635.104Q761.653 646.589 764.506 658.18Q767.36 669.77 769.811 681.453Q772.262 693.135 774.308 704.895C768.186 705.702 761.891 705.856 755.73 706.366Q740.492 707.631 725.334 709.641C675.518 716.223 613.513 730.389 567.372 750.744L556.209 756.191C548.316 745.523 541.442 733.695 535.281 721.952C511.26 676.166 502.135 629.816 502.039 578.403C513.826 574.882 525.272 569.842 536.77 565.464L594.365 543.783C631.204 529.867 668.604 517.519 705.399 503.493Z"/>
		<path fill="#6E4600" d="M218.99 464.132C227.347 463.629 235.784 465.552 243.456 468.765C278.419 483.406 295.76 522.779 309.163 555.759C334.394 617.846 353.54 690.227 347.792 757.755C346.548 772.366 344.488 787.338 338.683 800.911C332.682 814.942 322.485 827.467 308.087 833.319L300.319 836.01C293.653 824.691 289.993 811.824 285.415 799.58Q277.548 778.678 268.524 758.25C256.932 731.745 245.06 705.074 232.442 679.042C218.622 650.53 204.278 622.766 193.263 592.974C189.419 582.576 185.685 572.27 183.33 561.409C178.086 537.226 176.299 506.727 190.415 485.222C196.779 475.528 207.438 466.541 218.99 464.132Z"/>
		<path d="M221.417 481.557C224.495 481.342 227.637 481.334 230.691 481.822C248.884 484.732 263.493 499.785 273.762 514.063C289.061 535.336 298.801 561.359 307.23 585.954C324.804 637.231 342.958 708.562 334.051 763.034C330.981 781.807 324.545 803.451 308.411 815.065C304.677 812.607 302.391 807.69 300.459 803.778C286.794 776.101 276.806 746.782 263.706 718.823C249.758 689.056 235.17 659.613 221.512 629.705C214.266 613.838 206.645 597.917 201.098 581.357C192.575 555.915 188.289 522.58 200.919 497.72C205.524 488.656 212.009 484.618 221.417 481.557Z"/>
		<path fill="#6E4600" d="M222.448 484.553C224.952 484.432 227.423 484.399 229.912 484.763C246.437 487.179 260.639 500.994 270.029 513.939C303.039 559.448 327.638 654.533 332.205 710.011C333.761 728.909 333.613 747.652 330.64 766.41C328.52 779.789 320.456 803.101 309.013 811.405L308.073 811.215C300.885 800.032 296.349 787.471 291.254 775.257Q281.651 751.806 271.265 728.69C255.955 695.011 239.236 661.988 223.84 628.344C215.509 610.138 206.49 591.879 201.083 572.539C194.693 549.677 192.429 519.113 204.655 497.667C208.8 490.396 214.555 486.745 222.448 484.553Z"/>
		<path d="M227.48 502.512Q228.607 502.56 229.724 502.716Q230.84 502.872 231.937 503.135Q233.034 503.398 234.1 503.765Q235.166 504.133 236.192 504.601C243.022 507.712 247.98 513.788 250.388 520.813C252.766 527.749 252.696 536 249.335 542.59C246.38 548.386 241.782 551.323 235.826 553.353C232.213 553.616 228.609 553.015 225.33 551.452C219.343 548.599 215.047 542.865 212.839 536.716C210.219 529.421 210.176 520.401 213.708 513.411C216.768 507.354 221.321 504.632 227.48 502.512Z"/>
		<path fill="#6E4600" d="M226.287 506.059C228.134 505.957 229.931 506.003 231.742 506.426C237.756 507.832 242.685 512.15 245.673 517.448C248.973 523.3 250.041 530.899 248.016 537.346C246.104 543.436 241.957 546.951 236.488 549.75C232.611 550.752 229.549 550.621 225.952 548.715C220.741 545.955 216.946 540.213 215.232 534.693C213.184 528.096 213.173 519.321 216.683 513.279C218.933 509.404 222.021 507.216 226.287 506.059Z"/>
		<path d="M227.399 510.113C229.543 510.1 231.819 510.492 233.801 511.319C237.847 513.007 240.831 516.28 242.362 520.369C244.2 525.278 244.074 531.215 241.794 535.959C239.63 540.46 236.441 542.546 231.949 544.237C229.223 544.328 227.068 544.152 224.629 542.829C220.298 540.479 217.432 536.112 216.23 531.407C214.958 526.425 215.316 520.592 218.133 516.178C220.396 512.63 223.366 510.963 227.399 510.113Z"/>
		<path fill="#626262" d="M227.034 512.058C228.651 512.184 230.489 512.23 232.014 512.813C235.228 514.044 237.836 516.939 239.229 520.022C241.129 524.226 241.466 529.717 239.669 534.012C238.002 537.994 235.551 539.746 231.642 541.278C229.95 541.114 228.202 540.989 226.601 540.379C222.969 538.995 220.039 535.889 218.555 532.337C216.938 528.468 216.787 523.737 218.452 519.858C220.223 515.735 223.021 513.768 227.034 512.058Z"/>
		<path d="M302.706 744.021C303.894 743.969 305.032 743.928 306.208 744.146C310.048 744.86 313.473 747.397 315.588 750.632C318.418 754.96 319.451 760.69 318.258 765.728C316.998 771.044 314.077 773.714 309.583 776.34C307.632 776.445 305.805 776.444 303.918 775.852C300.086 774.648 297.114 771.689 295.325 768.162C293.026 763.633 292.165 757.562 293.918 752.709C295.586 748.09 298.474 746.037 302.706 744.021Z"/>
		<path fill="#626262" d="M302.003 746.487C303.038 746.395 304.116 746.335 305.15 746.495C308.024 746.941 310.888 749.644 312.566 751.879L312.131 751.982C309.755 750.252 307.542 749.208 304.807 748.161C307.747 750.837 310.828 753.474 312.438 757.215C316.283 766.149 306.172 767.162 304.442 771.489L305.191 772.024C306.479 771.991 307.426 771.809 308.637 771.338C312.493 769.84 313.743 767.42 315.347 763.821C315.516 762.174 315.54 760.665 315.045 759.07C315.005 758.939 314.696 758.003 314.67 757.839C314.497 756.744 314.487 756.441 315.055 755.531C315.923 758.122 316.727 761.132 316.398 763.879C316.009 767.132 314.496 770.37 311.833 772.366C310.138 773.637 308.049 774.245 305.951 773.815C302.587 773.126 299.613 769.887 297.915 767.071C295.682 763.366 294.437 758.566 295.532 754.292C296.505 750.492 298.799 748.508 302.003 746.487Z"/>
		<path fill="#626262" d="M236.116 702.669C237.273 702.495 238.049 702.478 239.194 702.73C243.371 707.018 245.855 715.75 248.402 721.247Q263.083 752.325 276.094 784.139C283.537 802.551 290.014 821.274 298.395 839.31C302.795 839.761 307.134 840.058 311.557 840.144C310.706 847.728 310.175 856.879 305.553 863.301C293.876 879.524 223.887 896.791 203.63 901.133Q173.788 907.404 143.576 911.541C131.797 912.833 119.959 914.113 108.106 914.421C98.7046 914.664 78.0877 914.795 71.2526 908.317C70.6292 904.353 76.2403 897.454 78.3766 894.225C91.2611 874.746 101.717 854.98 111.422 833.743C127.604 798.33 140.924 761.4 141.527 722.024C173.18 715.78 204.132 707.505 236.116 702.669Z"/>
		<path fill="#6E4600" d="M781.447 476.529C802.387 519.79 816.143 565.132 827.84 611.608Q836.839 646.963 843.941 682.747Q851.044 718.531 856.23 754.642C859.292 779.449 862.711 804.224 864.959 829.123C866.187 842.72 866.58 856.374 867.559 869.989C867.644 875.559 868.246 881.212 868.543 886.782C844.857 890.79 820.77 888.104 796.963 886.934C796.408 878.736 796.592 870.467 796.253 862.252Q795.143 834.592 792.692 807.018C784.936 723.286 763.78 629.615 732.246 551.696C725.394 534.766 716.238 519.059 708.836 502.419C716.496 500.051 724.061 496.902 731.626 494.213L781.447 476.529Z"/>
		<path fill="#6E4600" d="M868.939 376.633C874.442 380.363 879.529 384.617 884.98 388.402C894.347 394.906 905.548 400.372 916.444 403.751C823.315 429.06 732.906 463.878 642.203 496.599Q591.148 514.678 540.552 534.007C530.132 538.017 519.934 542.561 509.519 546.577C479.405 558.192 448.827 568.803 419.949 583.358C395.914 595.472 379.427 606.277 359.768 624.432C356.898 616.496 355.251 607.929 352.84 599.816C349.103 587.243 344.743 574.872 340.934 562.323C354.803 558.172 368.298 552.992 381.862 547.958Q416.525 535.106 450.976 521.696L649.256 448.059C667.784 441.145 686.183 433.74 704.823 427.145Q745.517 413.033 786.654 400.273C806.55 393.954 826.709 386.662 847.068 382.063C844.094 386.553 841.4 391.423 842.547 397C843.496 401.614 846.639 405.884 850.669 408.29C854.642 410.663 860.587 411.065 865 409.848C868.384 408.915 871.025 406.801 872.642 403.682C874.608 399.889 874.691 395.51 873.212 391.539C871.708 387.498 868.6 383.67 864.524 382.042C861.672 380.903 858.781 381.072 856.006 382.347C853.203 383.635 851.022 385.895 849.105 388.257L847.409 387.007C850.397 382.149 853.797 380.028 859.319 378.72C862.509 377.964 865.731 377.312 868.939 376.633Z"/>
		<path d="M630.661 462.104C634.021 462.044 637.274 462.478 640.304 464.004Q640.969 464.334 641.597 464.729Q642.226 465.123 642.812 465.579Q643.398 466.034 643.936 466.546Q644.474 467.057 644.958 467.62Q645.442 468.183 645.868 468.791Q646.293 469.399 646.656 470.047Q647.018 470.694 647.315 471.375Q647.611 472.055 647.838 472.762Q648.085 473.526 648.254 474.311Q648.423 475.097 648.511 475.895Q648.599 476.693 648.606 477.496Q648.613 478.3 648.538 479.099Q648.464 479.899 648.308 480.687Q648.153 481.475 647.919 482.243Q647.685 483.012 647.373 483.752Q647.062 484.493 646.678 485.198C643.888 490.361 639.466 492.543 634.072 494.028C630.533 494.009 627.243 493.871 623.932 492.421C620.362 490.858 617.509 488.124 616.163 484.43C614.834 480.782 615.173 476.768 616.797 473.272C619.608 467.22 624.752 464.417 630.661 462.104Z"/>
		<path fill="#626262" d="M629.594 464.569C634.105 464.301 637.618 464.66 641.202 467.725C643.933 470.061 645.309 473.331 645.436 476.885C645.574 480.738 644.307 484.424 641.513 487.133C638.665 489.895 634.751 491.182 630.823 491.12C627.348 491.065 624.095 489.89 621.681 487.337C619.102 484.607 618.177 481.095 618.414 477.387C618.493 476.144 618.567 475.354 619.498 474.474C620.5 475.682 620.443 477.017 620.692 478.548C621.596 481.692 623.138 484.455 626.024 486.186C628.618 487.743 631.929 487.89 634.787 487.044C639.774 485.569 642.197 482.175 644.641 477.914C642.155 479.545 640.058 481.667 637.586 483.286C635.376 484.734 632.544 485.263 629.974 484.619C627.033 483.883 624.681 481.822 623.298 479.153C621.925 476.504 621.575 473.387 622.604 470.562C623.867 467.095 626.418 465.942 629.594 464.569Z"/>
		<path d="M473.177 521.098C476.807 520.917 480.128 520.897 483.512 522.485Q484.183 522.793 484.82 523.168Q485.457 523.542 486.053 523.978Q486.649 524.414 487.198 524.908Q487.747 525.402 488.244 525.948Q488.741 526.494 489.181 527.088Q489.62 527.681 489.998 528.316Q490.376 528.95 490.689 529.62Q491.001 530.289 491.245 530.986Q491.485 531.669 491.656 532.373Q491.827 533.077 491.927 533.794Q492.028 534.511 492.057 535.235Q492.086 535.958 492.043 536.681Q492 537.404 491.886 538.119Q491.772 538.835 491.588 539.535Q491.404 540.235 491.151 540.914Q490.899 541.593 490.58 542.243C488.18 547.192 483.867 549.727 478.854 551.439C475.759 551.86 472.769 551.837 469.829 550.653Q469.144 550.382 468.491 550.042Q467.838 549.701 467.224 549.295Q466.609 548.889 466.041 548.421Q465.472 547.953 464.954 547.429Q464.437 546.905 463.977 546.33Q463.517 545.755 463.119 545.136Q462.72 544.516 462.389 543.859Q462.057 543.201 461.795 542.513Q461.504 541.763 461.289 540.988Q461.074 540.212 460.939 539.419Q460.803 538.626 460.747 537.823Q460.691 537.021 460.717 536.217Q460.742 535.412 460.848 534.615Q460.953 533.817 461.139 533.034Q461.324 532.251 461.586 531.491Q461.849 530.73 462.187 530C464.457 525.13 468.357 522.855 473.177 521.098Z"/>
		<path fill="#626262" d="M473.425 523.683C475.995 523.497 478.249 523.452 480.72 524.284C483.967 525.377 486.696 527.728 488.059 530.894Q488.315 531.487 488.507 532.103Q488.7 532.719 488.827 533.352Q488.954 533.984 489.015 534.627Q489.075 535.27 489.068 535.915Q489.061 536.56 488.987 537.202Q488.912 537.843 488.771 538.473Q488.63 539.103 488.425 539.714Q488.219 540.326 487.95 540.913C486.084 544.931 482.867 546.851 478.885 548.393C475.994 548.673 473.258 549.011 470.518 547.8Q469.988 547.568 469.484 547.285Q468.98 547.002 468.506 546.67Q468.032 546.339 467.594 545.962Q467.155 545.585 466.756 545.166Q466.357 544.748 466.002 544.291Q465.646 543.835 465.338 543.346Q465.029 542.857 464.771 542.34Q464.512 541.822 464.306 541.282Q464.07 540.668 463.896 540.033Q463.722 539.397 463.613 538.748Q463.504 538.099 463.461 537.442Q463.417 536.785 463.44 536.127Q463.462 535.469 463.551 534.817Q463.639 534.165 463.792 533.524Q463.946 532.884 464.162 532.262Q464.379 531.641 464.657 531.044C466.503 527.134 469.526 525.206 473.425 523.683Z"/>
		<path d="M467.176 531.31C467.697 532.806 467.576 534.67 468.001 536.248C471.659 549.833 479.852 540.557 483.661 542.667L483.404 543.513C482.992 543.803 482.586 544.101 482.163 544.376C479.681 545.987 476.276 546.664 473.386 545.895Q472.96 545.781 472.547 545.625Q472.135 545.47 471.74 545.274Q471.344 545.079 470.97 544.845Q470.596 544.612 470.247 544.343Q469.898 544.074 469.577 543.771Q469.255 543.469 468.966 543.137Q468.676 542.804 468.42 542.445Q468.165 542.086 467.946 541.703C466.052 538.446 466.198 534.825 467.176 531.31Z"/>
		<path d="M762.508 416.098C765.459 415.976 768.209 416.209 770.932 417.449Q771.595 417.748 772.225 418.112Q772.854 418.477 773.443 418.904Q774.032 419.331 774.574 419.816Q775.117 420.301 775.607 420.838Q776.097 421.376 776.53 421.96Q776.963 422.545 777.334 423.171Q777.705 423.797 778.01 424.457Q778.316 425.117 778.552 425.805Q778.823 426.55 779.014 427.319Q779.206 428.088 779.316 428.873Q779.427 429.658 779.455 430.451Q779.483 431.243 779.429 432.034Q779.374 432.825 779.237 433.605Q779.1 434.386 778.883 435.149Q778.666 435.911 778.37 436.647Q778.075 437.382 777.704 438.083C775.031 443.023 770.616 445.093 765.463 446.521C761.754 446.49 758.384 446.227 755.103 444.261Q754.474 443.889 753.886 443.454Q753.298 443.02 752.757 442.528Q752.216 442.036 751.728 441.492Q751.24 440.948 750.809 440.357Q750.379 439.767 750.01 439.135Q749.642 438.504 749.34 437.838Q749.037 437.172 748.804 436.48Q748.571 435.787 748.409 435.074Q748.233 434.315 748.136 433.543Q748.039 432.77 748.022 431.992Q748.005 431.214 748.067 430.438Q748.13 429.661 748.272 428.896Q748.414 428.13 748.633 427.383Q748.853 426.636 749.148 425.916Q749.443 425.195 749.81 424.509Q750.177 423.822 750.613 423.177C753.484 418.938 757.675 417.156 762.508 416.098Z"/>
		<path fill="#626262" d="M764.382 418.09C765.034 418.145 765.671 418.21 766.317 418.321C769.397 418.853 773.22 420.731 774.935 423.465C776.428 425.846 776.867 429.019 776.047 431.709C775.19 434.521 772.967 436.719 770.328 437.922C767.742 439.101 764.639 439.433 761.989 438.268C758.577 436.769 756.635 433.706 755.289 430.399C755.495 427.982 755.972 425.765 755.81 423.316L755.739 423.441L754.897 422.754L755.197 422.296L755.643 423.282L754.606 423.372C754.542 423.567 754.467 423.759 754.415 423.958C753.218 428.596 753.226 431.843 755.66 436.046C756.806 437.234 757.959 438.305 759.395 439.14C764.425 442.063 769.951 440.267 775.107 438.794C772.545 440.627 770.166 442.33 767.038 443.08C763.388 443.955 759.625 443.509 756.464 441.412Q755.916 441.048 755.409 440.63Q754.901 440.212 754.44 439.743Q753.978 439.275 753.567 438.762Q753.156 438.248 752.8 437.696Q752.444 437.143 752.147 436.556Q751.849 435.969 751.614 435.355Q751.379 434.741 751.208 434.106Q751.037 433.471 750.933 432.822Q750.836 432.251 750.797 431.674Q750.759 431.096 750.778 430.518Q750.797 429.939 750.875 429.365Q750.952 428.792 751.086 428.229Q751.221 427.666 751.411 427.119Q751.602 426.572 751.846 426.047Q752.09 425.523 752.386 425.025Q752.682 424.527 753.026 424.062C755.786 420.33 759.982 418.868 764.382 418.09Z"/>
		<path fill="#626262" d="M212.24 139.98L212.618 140.003C212.653 141.033 209.642 143.792 208.825 144.7C179.655 177.12 153.77 228.918 139.878 270.037C108.898 361.737 112.471 446.878 137.937 539.269C144.353 562.544 150.887 586.414 161.626 608.115C154.427 609.943 114.9 622.143 111.791 621.956C111.093 621.914 110.426 620.641 110.006 620.089C100.878 604.128 95.0898 586.02 88.9692 568.756C81.6509 548.114 75.075 527.353 70.4031 505.934Q69.2327 500.618 68.2201 495.269Q67.2075 489.921 66.3535 484.545Q65.4995 479.169 64.805 473.77Q64.1104 468.371 63.5759 462.954Q63.0413 457.537 62.6672 452.106Q62.2932 446.676 62.0799 441.236Q61.8667 435.797 61.8144 430.354Q61.7621 424.911 61.8709 419.469Q61.9797 414.026 62.2494 408.589Q62.5191 403.153 62.9495 397.726Q63.38 392.3 63.9707 386.889Q64.5615 381.477 65.312 376.086Q66.0626 370.694 66.9724 365.328Q67.8821 359.961 68.9502 354.623Q70.0183 349.285 71.2438 343.982Q72.4693 338.678 73.8512 333.413C91.0533 269.956 126.444 215.619 174.057 170.69C185.687 159.716 198.311 147.956 212.24 139.98Z"/>
		<path d="M92.42 521.029C94.1831 520.916 95.8436 520.844 97.5626 521.33C102.664 522.772 106.583 526.998 109.171 531.454C113.025 538.092 115.932 548.065 113.66 555.615C112.252 560.297 109.689 562.758 105.454 564.974C103.495 565.08 101.36 565.3 99.4402 564.834C94.9108 563.732 91.3691 559.945 88.9969 556.124C84.8243 549.402 81.6302 539.848 83.6452 531.953C84.9932 526.671 87.912 523.707 92.42 521.029Z"/>
		<path fill="#626262" d="M90.5819 527.944C91.5088 527.993 92.4643 528.024 93.3709 528.239C96.5833 528.998 99.4981 532.142 101.255 534.772C104.294 539.32 106.564 545.861 105.224 551.347C104.47 554.431 103.159 555.977 100.495 557.6C97.4229 557.297 94.686 555.931 92.4423 553.831C86.818 548.567 85.5766 540.655 85.4354 533.355C86.9106 531.026 88.2288 529.446 90.5819 527.944Z"/>
		<path fill="#626262" d="M93.2012 523.426C96.4399 523.479 99.729 524.994 102.185 527.043C107.665 531.613 110.837 540.07 111.363 547.097C111.706 551.681 111.109 556.885 107.899 560.445C106.393 562.114 104.378 563.182 102.107 563.219C97.7806 563.289 94.7111 560.463 91.7965 557.663C91.447 557.168 91.3267 556.807 91.1406 556.237C92.7304 557.412 94.3988 558.745 96.2996 559.369C98.8331 560.202 101.719 559.991 104.055 558.677C106.195 557.472 107.548 555.481 108.16 553.131C109.695 547.232 107.604 539.659 104.512 534.477C100.623 527.959 97.1218 527.344 90.3148 525.684C91.1224 524.7 92.15 524.128 93.2012 523.426Z"/>
		<path fill="#626262" d="M544.425 79.8796C556.56 80.2263 570.139 85.5182 581.549 89.5297C630.625 106.783 677.51 131.159 716.679 165.803C767.161 210.454 804.441 267.95 828.28 330.731C830.341 336.158 838.427 357.047 838.689 361.331C838.015 362.916 837.721 362.804 836.209 363.489C833.19 364.593 830.295 366.042 827.382 367.398C820.043 362.616 811.838 359.23 804.341 354.671C789.34 345.548 775.451 333.436 762.766 321.364Q753.499 312.419 744.775 302.944Q736.051 293.469 727.9 283.496Q719.748 273.524 712.199 263.089Q704.649 252.654 697.726 241.793C686.67 224.553 676.783 206.561 665.229 189.637C633.039 142.483 593.738 108.143 544.425 79.8796Z"/>
		<path d="M791.124 298.487C792.702 298.443 794.301 298.385 795.879 298.482C801.454 298.823 806.649 301.856 810.162 306.12C813.671 310.377 815.682 316.225 814.905 321.744C814.17 326.967 811.179 330.249 807.186 333.318C804.903 334.009 802.352 334.313 799.984 333.958C795.399 333.272 791.544 330.576 788.794 326.917C785.131 322.042 783.337 315.229 784.266 309.188C785.029 304.224 787.206 301.38 791.124 298.487Z"/>
		<path fill="#626262" d="M794.017 305.331C794.803 304.511 795.626 303.721 796.628 303.162C798.831 301.932 801.202 302.502 803.456 303.207C807.812 306.349 811.093 310.022 811.865 315.56C812.234 318.209 812.096 321.356 810.407 323.566C809.257 325.07 807.51 325.901 805.648 326.093C802.251 326.443 798.98 325.05 796.488 322.795C793.809 320.372 791.721 316.755 791.612 313.084C791.528 310.258 792.264 307.564 794.017 305.331Z"/>
		<path fill="#8C8B8C" d="M794.017 305.331C794.803 304.511 795.626 303.721 796.628 303.162C798.831 301.932 801.202 302.502 803.456 303.207C801.398 304.353 797.723 306.255 795.276 305.818C794.607 305.699 794.539 305.617 794.017 305.331Z"/>
		<path fill="#626262" d="M792.654 300.77L793.603 301.219C793.357 303.768 790.263 306.808 789.291 309.425C788.214 312.325 789.615 317.174 790.873 319.829C792.697 323.677 796.166 327.39 800.32 328.688C803.077 329.549 805.718 328.964 808.208 327.628C809.041 327.182 809.576 326.9 810.495 326.61L810.191 327.785Q809.828 328.16 809.452 328.523C807.266 330.617 804.774 331.759 801.703 331.623C797.926 331.455 794.586 329.14 792.204 326.338C788.514 321.996 786.523 315.821 787.186 310.138C787.686 305.853 789.272 303.347 792.654 300.77Z"/>
		<defs>
			<linearGradient id="gradient_1" gradientUnits="userSpaceOnUse" x1="664.48419" y1="543.78687" x2="648.10321" y2="496.94754">
				<stop offset="0" stop-color="#5A3701"/>
				<stop offset="1" stop-color="#A36D06"/>
			</linearGradient>
		</defs>
		<path fill="url(#gradient_1)" d="M937.269 404.212C941.939 403.713 947.001 405.017 950.802 407.79C952.71 409.182 954.795 411.372 954.921 413.876C955.069 416.815 952.29 418.924 949.965 420.13C940.731 424.919 928.982 426.33 918.967 429.135C905.844 432.811 892.835 437.076 879.82 441.129Q814.501 461.864 749.933 484.829Q664.192 514.744 579.185 546.687Q529.281 564.849 479.871 584.314C458.529 592.711 436.77 600.896 416.459 611.607C400.863 619.832 386.204 631.701 373.17 643.491C370.603 645.765 368.274 648.09 365.999 650.656C363.794 643.297 362.462 635.685 360.54 628.245C377.547 610.265 398.914 596.704 420.987 585.794C452.011 570.458 484.92 559.266 517.122 546.696Q623.699 504.766 732.018 467.565C778.619 451.191 824.809 433.833 872.132 419.585C893.569 413.131 914.817 405.959 937.269 404.212Z"/>
		<path fill="#6E4600" d="M367.351 651.817C370.931 655.316 382.394 688.515 384.769 694.751C398.003 729.507 411.973 763.503 431.225 795.441Q405.989 804.716 380.904 814.391C367.402 819.65 353.607 826.305 339.298 828.883C339.506 831.243 339.718 833.627 339.754 835.996C340.007 852.459 332.417 874.816 320.69 886.607C312.211 895.134 299.225 900.814 288.216 905.508C236.707 927.467 160.211 943.417 104.558 943.613C92.3074 943.567 70.6815 942.823 60.4045 935.809C58.5523 934.545 56.9424 932.781 56.5989 930.488C55.6367 924.066 65.138 914.631 68.6564 909.537C75.2326 914.272 82.81 915.6 90.7231 916.351C140.221 921.048 226.988 900.969 274.444 883.31C283.755 879.845 295.884 876.115 303.433 869.562C311.865 862.242 313.155 849.799 314.116 839.415C324.602 836.571 334.672 832.213 343.141 825.345C351.151 818.85 357.616 811.674 362.477 802.544C378.597 772.267 377.201 721.885 372.688 688.317C371.514 679.584 366.136 660.251 367.199 652.729C367.242 652.424 367.3 652.121 367.351 651.817Z"/>
		<path fill="#6E4600" d="M843.51 455.546L844.123 456.035C844.914 461.199 844.17 466.98 844.058 472.218Q843.8 485.458 843.927 498.7Q844.167 510.832 845.038 522.934Q845.909 535.037 847.408 547.078Q848.907 559.119 851.03 571.066Q853.153 583.013 855.894 594.833Q861.431 617.03 868.377 638.828Q875.323 660.626 883.649 681.935C897.135 716.008 919.586 753.356 923.305 790.004C924.222 799.035 923.617 807.921 922.736 816.914C911.443 790.727 893.727 761.45 871.74 742.978C866.758 738.793 861.365 735.432 855.747 732.197C853.059 727.306 852.612 716.765 851.71 710.891C868.416 717.055 882.839 727.832 894.942 740.737C898.586 744.623 901.388 749.083 905.551 752.474L906.152 752.959C903.624 748.586 900.214 744.704 896.908 740.9C884.118 726.19 869.916 715.518 851.619 708.605C845.808 683.771 841.988 658.457 836.237 633.578Q831.636 613.251 826.09 593.16Q820.544 573.07 814.066 553.261Q807.587 533.452 800.191 513.967Q792.794 494.482 784.495 475.364C804.391 469.488 823.876 462.234 843.51 455.546Z"/>
		<path fill="#6E4600" d="M331.95 78.2099C360.436 76.302 389.014 81.6631 415.888 90.8174Q418.445 91.6863 420.985 92.6023Q423.526 93.5183 426.049 94.4811Q428.572 95.444 431.077 96.4532Q433.581 97.4625 436.067 98.518Q438.553 99.5734 441.019 100.675Q443.484 101.776 445.929 102.922Q448.374 104.069 450.798 105.26Q453.221 106.452 455.622 107.688Q458.023 108.924 460.401 110.205Q462.779 111.485 465.132 112.809Q467.486 114.133 469.815 115.501Q472.143 116.868 474.447 118.278Q476.75 119.688 479.026 121.141Q481.303 122.593 483.552 124.088Q485.802 125.582 488.023 127.118Q490.244 128.653 492.437 130.23Q494.63 131.806 496.793 133.423Q498.956 135.04 501.089 136.696Q503.221 138.352 505.323 140.048Q507.425 141.744 509.495 143.478Q511.565 145.212 513.603 146.984Q515.641 148.756 517.646 150.565Q519.65 152.375 521.621 154.221Q523.592 156.067 525.528 157.95Q527.465 159.832 529.366 161.75Q531.267 163.668 533.133 165.62Q534.998 167.573 536.827 169.56Q538.656 171.546 540.448 173.567Q542.24 175.587 543.995 177.64Q545.749 179.693 547.465 181.778Q549.182 183.863 550.859 185.979Q552.536 188.096 554.174 190.243C564.032 202.987 573.146 216.241 580.269 230.729C607.248 285.6 611.171 345.325 595.724 404.173C591.425 420.548 585.078 436.553 579.614 452.579Q569.361 456.436 558.994 459.979C570.055 428.157 585.686 396.749 588.398 362.619C589.838 349.888 590.548 336.942 589.702 324.143C586.965 282.726 570.382 239.711 546.475 205.978C507.343 150.765 438.774 109.017 372.197 97.7683C358.204 95.4041 343.458 93.8803 329.249 94.1614C301.549 94.7096 265.404 102.295 240.933 115.554C233.817 119.41 227.525 124.549 220.953 129.231Q224.798 124.592 228.771 120.062C254.786 90.6856 294.103 80.45 331.95 78.2099Z"/>
		<path fill="#6E4600" d="M241.819 457.702C256.597 456.515 270.043 460.624 281.791 469.588C328.631 505.328 361.878 629.127 369.22 685.382C374.079 722.614 377.872 779.908 353.551 811.109Q352.508 812.445 351.4 813.728Q350.293 815.011 349.125 816.239Q347.956 817.467 346.729 818.637Q345.503 819.806 344.22 820.914Q342.938 822.023 341.603 823.068Q340.269 824.112 338.884 825.091Q337.5 826.069 336.07 826.979Q334.64 827.889 333.168 828.728Q331.695 829.567 330.183 830.333Q328.672 831.1 327.124 831.791Q325.577 832.483 323.998 833.099Q322.419 833.715 320.811 834.253Q319.204 834.791 317.573 835.25Q315.941 835.709 314.289 836.089Q312.637 836.468 310.969 836.766Q309.3 837.064 307.619 837.281L305.725 837.394C305.88 836.889 306.836 836.713 307.292 836.529C313.596 833.987 319.014 831.146 324.125 826.565C345.352 807.539 350.452 773.736 351.775 746.598Q352.419 733.218 351.891 719.833Q351.363 706.448 349.667 693.16C342.388 638.264 311.47 528.261 274.254 487.541C260.123 472.079 243.501 462.305 222.325 461.277C228.792 459.572 235.156 458.328 241.819 457.702Z"/>
		<path fill="#6E4600" d="M861.893 360.199C863.369 360.277 864.836 360.444 866.044 361.37C869.306 363.871 869.637 368.68 870.238 372.434C856.137 378.034 840.511 380.777 825.944 385.198Q771.452 401.574 717.649 420.089Q652.197 443.734 587.109 468.367L342.128 559.508L340.567 559.827C337.827 557.652 335.749 548.945 334.528 545.46C344.045 542.311 353.446 538.584 362.88 535.17L421.355 514.052L609.199 445.263C639.973 433.993 670.555 422.235 701.477 411.366Q736.249 399.275 771.393 388.316Q793.135 381.455 814.646 373.898C828.315 369.178 847.851 361.774 861.893 360.199Z"/>
		<path fill="#626262" d="M314.387 98.1744C315.636 98.0497 316.738 97.717 317.905 98.2233C314.26 103.309 311.023 108.526 308.651 114.335C298.108 140.155 291.862 169.907 290.699 197.75C289.9 216.889 291.497 236.16 293.612 255.169C301.573 326.732 323.235 394.597 347.879 461.873C356.041 484.151 364.106 506.373 373.202 528.294L361.651 532.464C360.521 532.87 360.311 533.168 359.118 532.825C352.925 521.542 347.986 507.568 343.194 495.549Q331.38 466.154 321.317 436.114Q311.253 406.074 302.976 375.494C283.826 305.578 264.53 217.633 284.126 146.342C288.644 129.905 295.348 114.894 303.773 100.114C307.277 99.2387 310.82 98.7183 314.387 98.1744Z"/>
		<path fill="#6E4600" d="M200.468 621.125C204.224 624.389 224.891 670.402 229.012 679.156C217.593 681.878 205.869 683.819 194.363 686.193Q170.23 691.188 146.294 697.055Q141.091 698.349 135.915 699.747C131.22 680.997 123.588 663.075 119.177 644.322Q159.503 631.603 200.468 621.125Z"/>
		<path fill="#626262" d="M247.474 115.055C247.357 116.071 246.943 116.537 246.296 117.295C243.118 121.019 239.11 124.119 235.676 127.62C231.384 131.997 227.364 136.895 223.382 141.561C197.491 171.89 178.413 206.398 163.521 243.326C127.142 333.53 124.024 424.213 146.85 518.156Q152.207 540.232 159.261 561.825Q166.315 583.418 175.024 604.399C171.678 605.385 168.032 606.811 164.582 607.213Q162.763 603.897 161.116 600.493C152.132 581.597 146.871 560.508 141.214 540.44C114.791 446.712 112.019 357.642 144.515 265.02Q147.267 257.07 150.356 249.244Q153.445 241.419 156.866 233.732Q160.287 226.046 164.033 218.512Q167.778 210.979 171.843 203.613Q175.907 196.246 180.282 189.06Q184.657 181.874 189.335 174.881Q194.013 167.889 198.986 161.102Q203.958 154.316 209.216 147.748C214.703 141.012 220.212 133.998 226.776 128.268C232.985 122.846 240.061 118.612 247.474 115.055Z"/>
		<path fill="#6E4600" d="M768.944 707.711C770.942 707.397 773.107 707.451 775.134 707.352L778.332 724.92C762.562 726.247 746.789 726.845 731.064 728.802C691.664 733.706 652.789 743.337 614.955 755.251C606.199 758.009 597.423 760.867 588.854 764.165C582.353 766.668 576.025 769.739 569.388 771.854L568.629 772.092Q563.058 765.421 557.767 758.525C574.491 748.038 594.89 742.086 613.665 736.551C664.687 721.505 715.826 711.409 768.944 707.711Z"/>
		<path fill="#626262" d="M487.472 57.6805C500.858 56.8371 515.397 59.8466 528.541 62.1985C583.205 71.98 630.807 88.5601 677.95 118.409C751.196 164.786 805.031 234.592 839.278 313.591Q845.182 327.21 850.613 341.024C852.418 345.616 854.791 350.663 855.751 355.502C855.993 356.721 856.015 356.907 855.378 357.906L848.575 359.907Q845.923 349.947 842.309 340.295C806.688 243.853 744.502 162.258 654.009 111.776C635.122 101.239 615.574 91.6829 595.021 84.8354Q567.522 75.51 539.127 69.4366C522.571 65.9627 502.781 64.7248 487.472 57.6805Z"/>
		<path fill="#626262" d="M264.457 108.471L264.831 108.785C264.425 110.901 261.135 113.056 259.489 114.459C250.893 121.787 243.148 130.164 235.672 138.618C215.446 161.488 198.854 186.461 184.98 213.651C131.455 318.553 129.49 424.758 160.136 536.763C163.618 549.491 167.409 562.395 171.864 574.805C175.062 583.716 178.906 592.427 181.825 601.432C180.957 602.771 179.968 602.999 178.55 603.686C177.243 601.903 176.228 599.853 175.337 597.833C166.935 578.775 161.166 557.857 155.494 537.85C127.917 440.567 127.106 346.345 163.527 251.232C175.582 219.752 190.895 188.768 210.959 161.575C216.486 154.085 222.639 147.038 228.632 139.922C239.214 127.358 249.118 115.307 264.457 108.471Z"/>
		<path fill="#626262" d="M322.105 97.0701C323.608 97.0998 325.236 96.8813 326.477 97.8506C326.357 102.938 319.059 111.981 316.688 116.998C313.795 123.119 311.706 130.002 309.621 136.447C290.481 195.629 298.847 260.315 312.378 319.808C324.375 372.554 341.743 423.786 361.355 474.138Q367.268 489.433 373.781 504.483C376.498 510.73 379.84 517.108 381.964 523.562C382.183 524.227 382.082 524.098 381.975 524.975L380.993 525.505L376.05 527.342C367.966 507.767 360.751 487.871 353.351 468.033C332.737 412.775 313.85 356.851 302.953 298.75C291.502 237.698 285.086 151.142 322.105 97.0701Z"/>
		<path fill="#6E4600" d="M431.579 797.985C434.806 799.5 441.237 811.119 443.575 814.758C426.479 822.916 408.21 828.987 390.483 835.655Q369.697 843.662 349.25 852.5L339.725 856.378Q341.204 849.961 341.879 843.411Q342.554 836.861 342.415 830.277C355.841 826.608 368.656 821.501 381.675 816.634L431.579 797.985Z"/>
		<path fill="#6E4600" d="M229.529 682.205C233.535 684.762 236.579 695.118 238.358 699.555C222.404 702 206.518 704.558 190.755 708.069C173.535 711.904 156.6 716.784 139.117 719.333C137.883 719.128 136.878 718.893 135.802 718.226C133.336 716.7 131.3 713.727 130.651 710.915C130.203 708.976 130.453 707.197 131.596 705.554C132.9 703.68 135.962 702.596 138.04 701.897C144.652 699.675 151.716 698.617 158.493 696.952C181.841 691.215 205.76 685.842 229.529 682.205Z"/>
		<path fill="#6E4600" d="M192.478 601.594C195.503 603.679 198.658 614.933 199.934 618.764C170.679 624.013 143.237 635.84 114.285 641.839C113.516 641.719 112.814 641.497 112.098 641.197C109.556 640.132 107.473 637.68 106.501 635.118C105.905 633.548 106.035 631.924 106.814 630.443C108.311 627.598 111.481 625.704 114.336 624.481C123.042 620.754 133.5 619.124 142.658 616.54C159.344 611.832 175.867 606.558 192.478 601.594Z"/>
		<path fill="#626262" d="M518.027 68.3452C528.054 68.995 538.713 71.6321 548.502 73.8783Q553 74.8997 557.472 76.0277Q561.944 77.1558 566.388 78.3898Q570.832 79.6239 575.245 80.9633Q579.659 82.3027 584.039 83.7466Q588.42 85.1906 592.764 86.7383Q597.109 88.2859 601.416 89.9365Q605.723 91.5871 609.989 93.3396Q614.255 95.0921 618.479 96.9456Q622.702 98.799 626.88 100.752Q631.058 102.706 635.189 104.758Q639.319 106.81 643.4 108.96Q647.481 111.11 651.509 113.356Q655.537 115.602 659.511 117.943Q663.485 120.285 667.402 122.72Q671.318 125.155 675.176 127.683Q679.034 130.21 682.831 132.829C748.276 177.708 797.323 241.984 828.785 314.467C834.634 327.944 843.036 346.898 845.687 361.147C845.024 361.265 843.036 361.676 842.454 361.327C840.765 360.312 836.449 344.841 835.472 341.989Q832.642 333.703 829.478 325.539Q826.314 317.375 822.821 309.346Q819.327 301.318 815.51 293.438Q811.693 285.558 807.559 277.84Q803.425 270.121 798.98 262.578Q794.535 255.034 789.787 247.677Q785.039 240.321 779.996 233.163Q774.953 226.006 769.623 219.059Q767.431 216.198 765.186 213.379Q762.94 210.56 760.642 207.783Q758.345 205.007 755.995 202.274Q753.645 199.541 751.245 196.852Q748.844 194.164 746.394 191.521Q743.943 188.878 741.444 186.282Q738.944 183.686 736.396 181.137Q733.848 178.588 731.252 176.087Q728.657 173.586 726.015 171.135Q723.373 168.683 720.686 166.282Q717.999 163.88 715.267 161.53Q712.535 159.179 709.759 156.88Q706.983 154.581 704.165 152.334Q701.347 150.088 698.487 147.895Q695.627 145.702 692.726 143.563Q689.825 141.423 686.885 139.339Q683.945 137.255 680.966 135.226Q677.987 133.197 674.971 131.225Q671.954 129.253 668.901 127.337Q665.848 125.422 662.76 123.564Q659.672 121.706 656.549 119.906Q653.426 118.107 650.27 116.366Q647.114 114.626 643.926 112.945Q640.738 111.263 637.519 109.643Q634.3 108.022 631.051 106.461Q627.802 104.901 624.525 103.402Q621.247 101.903 617.942 100.466Q614.637 99.0288 611.305 97.6539Q607.974 96.279 604.617 94.9669Q601.26 93.6548 597.879 92.4059Q594.499 91.157 591.095 89.9718Q587.691 88.7866 584.266 87.6655C575.787 84.8647 567.115 82.2422 558.41 80.2354C544.499 77.0284 530.853 75.1575 518.027 68.3452Z"/>
		<defs>
			<linearGradient id="gradient_2" gradientUnits="userSpaceOnUse" x1="938.39044" y1="879.30798" x2="950.49701" y2="866.43781">
				<stop offset="0" stop-color="#7B5B26"/>
				<stop offset="1" stop-color="#886D4A"/>
			</linearGradient>
		</defs>
		<path fill="url(#gradient_2)" d="M936.457 864.928C940.479 863.357 944.635 862.174 948.788 864.121C951.574 865.427 953.404 867.992 954.252 870.896C955.127 873.893 954.79 876.819 954.297 879.847C953.665 881.19 953.029 882.994 951.779 883.843C949.99 885.058 947.294 885.418 945.197 885.067C941.354 884.426 938.474 882.07 936.193 879.051C934.233 873.73 935.763 870.833 936.678 865.557L936.457 864.928Z"/>
		<path fill="#6E4600" d="M936.193 879.051C942.267 878.746 948.244 879.508 954.297 879.847C953.665 881.19 953.029 882.994 951.779 883.843C949.99 885.058 947.294 885.418 945.197 885.067C941.354 884.426 938.474 882.07 936.193 879.051Z"/>
		<path fill="#626262" d="M856.703 384.646C859.714 383.808 862.212 383.451 865.01 385.138C868.08 386.989 870.054 390.13 870.883 393.573C871.61 396.59 871.419 399.822 869.757 402.507C868.882 403.919 867.955 404.939 866.52 405.764C865.337 404.423 864.562 404.661 862.796 404.524C862.543 404.505 862.289 404.496 862.036 404.479C858.617 404.251 853.827 402.825 851.516 400.151C850.197 398.625 849.819 396.815 850.068 394.841C850.612 390.525 852.261 387.806 855.714 385.312C856.036 385.079 856.367 384.858 856.703 384.646Z"/>
		<path d="M857.152 394.405C858.688 394.421 860.823 394.329 862.194 395.147C863.475 395.911 863.839 396.687 864.305 398.048C863.283 398.297 862.13 398.638 861.075 398.452C858.988 398.084 858.084 396.057 857.152 394.405Z"/>
		<path fill="#6E4600" d="M367.194 46.1609C368.268 46.2173 369.508 46.2004 370.551 46.4473C371.988 46.7871 373.741 48.2588 374.324 49.6326C374.741 50.6152 374.747 51.944 374.147 52.8468C370.505 58.3213 359.123 54.8402 353.62 56.0784L353.777 56.6327C357.966 58.9135 361.566 59.3323 366.294 58.6783C378.632 56.9716 373.121 51.0119 375.741 47.6338L376.869 47.8123C378.336 48.9061 379.744 49.93 380.285 51.7862C380.734 53.3275 380.411 54.7978 379.561 56.1177C377.503 59.3128 373.091 61.0437 369.576 61.9277C364.784 63.1331 357.669 63.8086 353.405 60.9973C351.961 60.045 350.864 58.5493 350.709 56.7805C350.597 55.4967 351.11 54.4948 351.859 53.5149C355.567 48.6626 361.441 46.9413 367.194 46.1609Z"/>
		<path d="M856.23 754.642C856.671 751.722 855.862 749.118 856.948 746.226C859.73 760.299 861.161 774.926 862.961 789.162C866.696 818.711 870.809 852.508 870.487 882.118C868.035 878.242 869.753 873.661 867.559 869.989C866.58 856.374 866.187 842.72 864.959 829.123C862.711 804.224 859.292 779.449 856.23 754.642Z"/>
		<path fill="#6E4600" d="M935.117 774.699C939.637 778.037 951.999 808.925 954.593 815.699C950.249 813.178 946.054 810.951 941.312 809.251C945.356 812.676 948.994 814.684 953.916 816.639L954.483 817.173L954.313 817.605C949.974 816.79 945.543 814.628 941.414 813.042L941.529 807.075C944.221 808.506 946.863 809.684 949.726 810.734L949.917 810.469C947.553 808.51 944.675 807.394 941.901 806.138C940.221 795.562 937.571 785.118 935.117 774.699Z"/>
		<path fill="#6E4600" d="M940.149 887.985C937.527 886.473 935.172 884.626 933.562 882.026C931.726 879.063 930.699 875.345 931.555 871.886C932.268 869.009 933.963 866.512 936.457 864.928L936.678 865.557C935.765 866.285 934.967 867.179 934.409 868.211C932.694 871.383 933.175 875.46 934.299 878.742C937.803 888.97 945.175 884.365 950.072 886.784L949.654 887.299L949.665 887.279C946.453 887.847 943.408 887.981 940.149 887.985Z"/>
		<path fill="#626262" d="M847.409 387.007L849.105 388.257C847.919 392.605 847.348 396.514 849.627 400.684C851.301 403.745 854.071 405.927 857.475 406.738C860.686 407.504 863.521 406.963 866.52 405.764C866.091 406.117 865.679 406.486 865.196 406.764C862.675 408.215 858.195 408.908 855.436 407.982C851.764 406.749 848.896 403.983 847.274 400.489C845.077 395.757 845.769 391.704 847.409 387.007Z"/>
		<path d="M793.107 845.228C795.809 848.478 794.977 857.034 794.604 861.081C794.501 862.2 794.24 863.125 793.875 864.18C793.094 858.043 793.323 851.433 793.107 845.228Z"/>
		<path d="M920.431 717.415C926.461 727.719 931.903 738.394 937.716 748.827C960.243 789.256 984.566 835.545 971.927 883.272C968.606 895.812 962.918 909.43 955.366 920.035C955.344 919.95 955.325 919.865 955.299 919.78C954.893 918.425 954.909 917.985 953.634 917.278C957.551 910.766 961.427 904.178 964.375 897.16C978.536 863.447 972.307 829.1 958.832 796.503C950.505 777.965 940.483 759.947 930.862 742.046C927.54 735.865 923.665 729.916 920.798 723.5C920.33 721.33 920.149 719.622 920.431 717.415Z"/>
	</g>
	<g/>
</svg>
