<?xml version="1.0" encoding="utf-8" ?>
<svg xmlns="http://www.w3.org/2000/svg" xmlns:xlink="http://www.w3.org/1999/xlink" width="1024" height="1024">
	<g>
		<path d="M914.304 24.6713C916.795 24.3587 919.487 24.4566 921.995 24.529C943.019 25.1362 962.527 35.3149 976.747 50.5132C990.702 65.4275 999.856 85.2801 999.081 105.987C998.57 119.624 993.248 132.729 983.138 142.065C966.826 157.13 945.283 156.12 924.622 155.43C920.93 161.135 916.599 166.568 912.538 172.027Q900.013 188.867 887.009 205.341C854.805 246.23 821.164 286.195 783.498 322.194C767.856 337.143 750.607 350.374 734.636 364.985C745.701 377.401 756.731 389.935 767.539 402.574C792.192 431.403 817.181 462.042 851.831 479.181C841.184 505.243 820.524 522.767 794.976 533.7C789.033 522.642 784.223 511.045 778.004 500.08C759.5 467.453 735.857 437.53 710.578 409.927C696.959 425.163 681.841 438.929 667.164 453.116Q641.431 478.227 616.026 503.668Q507.421 612.374 397.364 719.609L253.308 861.831L217.036 897.665C207.028 907.693 197.292 918.099 186.182 926.939C173.54 936.998 159.093 944.471 144.94 952.132Q115.899 968.213 85.6288 981.837C69.5056 989.479 52.1718 996.858 34.9649 1001.59C31.2677 1002.6 25.9158 1004.34 22.3761 1002.33C21.6951 1001.27 21.5341 1000.42 21.5224 999.18C21.4581 992.4 25.307 984.611 27.5218 978.257C34.2068 959.079 41.3505 940.412 50.009 922.015C57.8716 905.31 66.8978 889.09 75.8969 872.973C82.1419 861.788 88.193 849.919 96.011 839.743C101.523 832.569 108.158 826.231 114.391 819.689L143.992 788.493Q176.847 754.268 210.418 720.747L286.472 643.739L441.731 486.781Q526.249 398.97 613.073 313.439C604.635 306.952 596.892 298.821 588.826 291.783Q570.221 275.666 549.765 261.973C538.949 254.61 527.328 248.135 515.857 241.836C508.092 237.571 498.658 233.678 492.052 227.774C491.378 225.978 491.733 224.725 492.506 222.998C497.704 211.384 514.583 190.349 524.235 182.661C529.774 178.249 536.112 174.959 542.691 172.417C548.104 180.524 552.18 189.394 558.236 197.1C566.347 207.421 576.21 216.462 585.716 225.473C609.943 248.437 635.814 269.639 661.21 291.293C673.558 275.669 686.336 259.976 699.802 245.306C750.463 190.116 809.209 144.351 868.831 99.4044C869.265 80.2493 866.881 58.9006 879.312 42.7617C887.901 31.6102 900.696 26.4985 914.304 24.6713Z"/>
		<path fill="#626162" d="M699.407 399.013C703.212 399.984 705.588 403.417 707.909 406.326C706.827 408.061 705.726 409.784 704.484 411.409C699.173 418.356 692.116 424.101 685.818 430.137L658.738 456.514L557.197 556.489L338.617 774.206C317.888 794.622 296.131 814.011 275.376 834.427L217.218 891.527C209.194 899.508 188.229 922.043 180.588 926.482C173.383 930.668 141.787 931.328 131.684 932.365Q115.347 934.15 99.0632 936.369Q94.4991 936.799 89.9235 937.081C99.8179 929.67 108.402 920.301 117.567 912.015C131.651 899.281 146.346 887.123 160.88 874.901Q188.42 851.425 216.527 828.63C232.464 815.777 249.053 803.326 264.198 789.554C300.246 756.773 333.958 721.286 368.382 686.82L509.707 546.141L593.556 461.962Q610.012 445.446 626.729 429.195C635.706 420.366 644.335 411.491 654.033 403.428C669.752 404.337 684.408 404.566 699.407 399.013Z"/>
		<path d="M271.919 821.481L272.183 822.194C265.449 831.662 256.438 840.177 248.537 848.695C225.834 873.171 202.734 897.698 176.996 919.017L176.659 918.56C180.005 913.419 195.236 898.762 200.393 893.427C223.841 869.169 247.334 844.585 271.919 821.481Z"/>
		<path d="M567.951 531.952L568.304 532.354C567.476 535.17 508.406 595.268 500.209 603.255C493.338 609.949 486.376 616.375 479.042 622.558L478.668 621.824C482.686 616.001 493.203 606.379 498.665 600.643Q531.994 564.973 567.951 531.952Z"/>
		<path d="M422.463 675.523L422.735 676.175C418.787 682.956 409.014 691.783 403.21 697.731Q375.424 725.82 346.981 753.245L346.696 753.104C346.911 747.487 414.32 683.308 422.463 675.523Z"/>
		<path d="M696.716 407.049C696.411 411.83 636.379 467.327 629.038 474.053L629.076 473.128C633.904 465.841 641.346 459.182 647.504 452.963C663.372 436.942 679.531 421.656 696.716 407.049Z"/>
		<path fill="#626162" d="M87.9247 934.481C88.1941 914.345 91.272 894.22 93.7685 874.267C94.9289 864.993 95.3687 854.636 98.1493 845.737C99.0125 842.975 100.573 840.807 102.384 838.599C109.696 829.682 118.496 821.464 126.493 813.129L162.368 775.294C195.995 740.356 230.539 706.231 264.595 671.706L490.439 442.83Q531.82 400.272 573.642 358.144C583.248 348.373 605.689 322.248 616.275 316.654L617.043 316.897C621.806 324.01 618.917 370.884 618.005 380.431C614.95 382.479 612.408 385.204 609.373 387.232C607.143 387.721 605.098 389.82 603.425 391.294C586.198 406.478 570.419 423.537 553.906 439.51L437.396 553.382L306.245 683.889C279.819 710.486 252.749 736.815 227.68 764.7C209.786 784.603 194.019 806.008 177.818 827.265Q157.393 853.997 136.211 880.133C129.075 889.033 122.157 898.152 114.801 906.87C106.527 916.678 96.6043 925.028 87.9247 934.481Z"/>
		<path d="M367.416 579.994C367.719 580.267 367.54 580.054 367.647 580.795Q317.843 634.391 264.084 684.018L263.752 683.326C267.718 676.408 279.521 665.438 285.423 659.378Q309.125 635.249 333.53 611.83C344.661 601.095 355.751 590.15 367.416 579.994Z"/>
		<path d="M493.435 452.994L493.771 453.545C488.956 464.219 405.59 541.18 391.519 553.839L391.2 553.473C393.181 549.563 400.13 543.68 403.421 540.255Q447.234 495.393 493.435 452.994Z"/>
		<path d="M198.467 749.988L198.656 750.207C198.211 754.59 131.741 821.131 123.209 829.365Q114.377 837.891 104.982 845.791L104.672 845.156C118.833 827.482 136.8 811.056 153.095 795.228Q175.994 772.821 198.467 749.988Z"/>
		<path fill="#969595" d="M609.373 387.232C612.408 385.204 614.95 382.479 618.005 380.431C617.614 387.286 617.385 392.457 613.359 398.38L612.94 399.005L612.684 399.378L617.259 397.161C628.207 399.558 639.391 400.328 650.359 402.511C613.246 433.833 580.155 470.786 545.703 504.936L309.84 740.265C290.794 758.937 271.669 777.675 251.49 795.128C235.864 808.643 219.502 821.279 203.467 834.3Q165.978 864.999 128.965 896.268C145.155 874.086 162.888 852.773 179.78 831.099C195.877 810.445 211.239 789.086 228.624 769.476C261.591 732.29 297.586 697.652 332.706 662.522Q405.016 589.953 478.208 518.278C522.351 475.001 566.902 432.172 609.373 387.232Z"/>
		<path d="M608.899 414.491L609.209 414.842C608.7 416.826 606.299 418.938 604.896 420.401Q577.702 448.35 549.778 475.569L481.257 544.043L221.704 803.518L221.342 803.225C224.241 792.314 545.411 474.612 576.912 444.11Q592.487 428.849 608.899 414.491Z"/>
		<path fill="#626162" d="M916.84 28.69C917.212 28.6479 917.586 28.6374 917.96 28.6233C937.682 27.8752 956.899 36.2938 971.186 49.6538C985.262 62.8158 994.848 81.5012 995.376 100.935C995.727 113.875 991.968 127.523 982.83 137.01C971.577 148.692 954.866 151.777 939.278 151.958C919.805 152.184 905.323 144.557 891.654 131.026C878.696 118.199 872.188 109.509 872.103 91.0164C875.355 98.9313 879.168 106.171 884.077 113.181C889.929 121.019 896.772 128.178 904.75 133.873C918.224 143.49 937.105 149.72 953.712 146.863C964.585 144.992 973.756 139.423 980.089 130.395C971.601 136.911 964.063 142.136 953.169 143.609C935.903 145.944 918.339 139.322 904.782 128.884C890.24 117.687 876.001 100.168 873.718 81.3765C872.179 68.7207 874.859 55.2936 882.836 45.1422C891.355 34.3009 903.577 30.2126 916.84 28.69Z"/>
		<path d="M920.796 41.7453C935.365 42.7297 947.996 47.9913 959.051 57.632C970.898 67.9643 979.389 82.4546 980.331 98.3673C980.825 106.703 978.964 115.518 973.166 121.816C966.937 128.58 957.244 131.392 948.306 131.6C935.182 131.59 923.115 126.178 912.918 118.145C900.964 108.728 890.29 94.353 888.626 78.8323C887.654 69.7652 889.87 59.2237 895.827 52.1288C902.263 44.4633 911.335 42.5071 920.796 41.7453Z"/>
		<path fill="#969595" d="M916.421 46.1839C930.174 45.4884 942.29 49.4712 953.269 57.7947C965.054 66.7295 974.291 80.1611 976.306 95.018C977.377 102.909 976.694 111.914 971.54 118.338C966.643 124.441 959.255 126.885 951.777 127.774C939.258 128.925 927.03 124.123 917.128 116.725C905.805 108.265 894.454 94.8306 892.447 80.3662C891.297 72.0819 892.897 62.2552 898.152 55.5652C902.773 49.684 909.272 47.1875 916.421 46.1839Z"/>
		<path d="M922.673 56.178C931.622 56.0536 937.866 59.5448 944.597 64.9957C937.872 61.945 931.819 59.8057 924.444 59.0464C910.547 60.6452 915.272 64.4139 907.944 68.3083L907.438 67.8607C907.488 65.46 908.106 63.7159 909.615 61.8162C912.71 57.9205 917.995 56.771 922.673 56.178Z"/>
		<path d="M968.945 57.3861C969.175 57.4703 969.414 57.5318 969.634 57.6387C975.964 60.7153 984.058 76.3439 986.601 82.7441C992.037 96.4224 990.191 110.083 984.498 123.327L983.788 124.301C982.82 121.8 986.315 111.756 986.84 108.409C990.011 88.2207 980.363 72.9899 968.945 57.3861Z"/>
		<path fill="#626162" d="M525.789 218.489C526.298 218.519 526.403 218.503 526.966 218.664C535.216 221.023 553.966 236.53 562.005 242.29Q574.901 251.628 587.49 261.375Q600.08 271.123 612.35 281.27Q624.62 291.416 636.558 301.952Q648.495 312.487 660.089 323.4Q671.682 334.314 682.919 345.594Q694.156 356.873 705.025 368.508Q715.894 380.143 726.384 392.121Q736.873 404.099 746.973 416.408C767.76 441.269 788.909 467.622 804.228 496.281C802.522 507.241 799.491 517.767 796.445 528.414L789.754 514.726Q783.123 501.97 775.727 489.641Q768.332 477.313 760.2 465.457Q752.067 453.602 743.229 442.263Q734.39 430.924 724.877 420.145C719.439 413.905 713.586 408.073 708.003 401.971C703.297 396.826 698.972 391.392 694.111 386.374C677.39 369.115 659.665 352.587 642.398 335.852C621.851 315.939 601.645 294.895 578.847 277.552C553.341 258.151 526.042 242.345 497.525 227.856C506.773 224.301 516.41 221.705 525.789 218.489Z"/>
		<path fill="#969595" d="M543.672 181.815C547.083 184.99 550.98 193.204 554.237 197.343Q561.307 206.219 569.025 214.538Q576.744 222.856 585.068 230.568C623.658 266.996 667.068 297.903 703.925 336.288C722.337 355.463 740.162 375.593 757.44 395.787C783.696 426.475 808.287 457.012 842.637 479.097C835.846 482.311 829.153 485.595 822.129 488.282C816.88 490.427 811.523 492.172 806.138 493.937C786.123 459.744 762.123 429.164 736.443 399.11C727.754 388.941 719.157 378.649 710.139 368.771Q695.379 352.616 679.882 337.166Q664.386 321.716 648.187 307.004Q631.988 292.292 615.122 278.35Q598.256 264.408 580.759 251.266C564.079 238.722 547.393 226.184 529.188 215.916C536.663 205.137 541.568 194.798 543.672 181.815Z"/>
		<path fill="#6F4600" d="M698.963 254.686C700.03 248.858 721.906 228.547 727.11 223.585C737.452 265.935 741.157 290.126 769.769 325.442C770.5 326.158 770.9 326.632 771.273 327.59C767.878 333.701 751.244 346.732 744.96 352.197C723.339 330.327 712.441 306.48 704.488 277.322C702.446 269.835 701.114 262.135 698.963 254.686Z"/>
		<path fill="#CC7E06" d="M698.963 254.686C700.03 248.858 721.906 228.547 727.11 223.585C737.452 265.935 741.157 290.126 769.769 325.442L769.176 325.647C767.855 325.295 766.982 324.489 765.939 323.642C741.6 303.877 727.98 261.106 724.838 230.755C719.744 236.516 706.386 253.228 698.963 254.686Z"/>
		<path fill="#6F4600" d="M789.271 167.997C794.943 160.866 810.479 148.808 818.125 143.841C826.516 167.349 834.769 192.616 849.882 212.827C853.948 218.265 859.77 222.135 863.831 227.408C863.156 232.804 839.936 257.337 834.95 262.79Q833.665 261.438 832.404 260.064C812.369 238.215 801.356 209.431 793.238 181.357C792.143 177.57 789.114 171.773 789.271 167.997Z"/>
		<path fill="#CC7E06" d="M789.271 167.997C794.943 160.866 810.479 148.808 818.125 143.841C826.516 167.349 834.769 192.616 849.882 212.827C853.948 218.265 859.77 222.135 863.831 227.408C863.134 227.454 863.059 227.499 862.278 227.332C852.069 225.162 830.639 189.617 826.307 179.379C822.238 169.761 820.649 159.111 815.834 149.809L815.511 149.2C809.373 154.738 802.759 160.061 796.024 164.854C794.218 166.139 791.536 168.371 789.271 167.997Z"/>
		<path fill="#6F4600" d="M786.288 170.216C792.269 198.835 805.462 231.846 822.889 255.422C824.898 257.507 831.397 263.353 831.546 266.153C831.564 266.487 831.512 266.82 831.494 267.153C826.781 271.306 822.676 276.441 818.516 281.144Q811.801 288.752 804.726 296.026C784.445 272.546 773.291 247.269 764.884 217.632C763.016 211.046 761.853 204.261 759.912 197.701C759.457 195.374 759.279 194.145 760.708 192.1C765.889 184.692 778.804 175.68 786.288 170.216Z"/>
		<path fill="#CC7E06" d="M786.288 170.216C792.269 198.835 805.462 231.846 822.889 255.422C822.072 256.01 821.773 256.284 820.756 256.442C799.033 232.47 792.68 206.152 783.56 176.219C775.452 183.132 768.187 190.977 759.912 197.701C759.457 195.374 759.279 194.145 760.708 192.1C765.889 184.692 778.804 175.68 786.288 170.216Z"/>
		<path fill="#B76D07" d="M822.889 255.422C824.898 257.507 831.397 263.353 831.546 266.153C831.564 266.487 831.512 266.82 831.494 267.153C826.892 265.431 823.825 260.111 820.756 256.442C821.773 256.284 822.072 256.01 822.889 255.422Z"/>
		<path fill="#6F4600" d="M755.814 196.126C762.559 225.38 770.345 255.33 787.396 280.522C791.445 286.506 796.154 291.988 800.779 297.526L801.259 297.917L801.35 298.858C793.349 308.429 783.314 316.984 774.285 325.601C769.578 319.655 764.801 313.741 760.757 307.312C749.423 289.298 741.759 267.491 736.656 246.909C734.685 238.956 733.397 230.856 731.388 222.908C732.573 214.953 749.601 201.837 755.814 196.126Z"/>
		<path fill="#CC7E06" d="M755.814 196.126C762.559 225.38 770.345 255.33 787.396 280.522C791.445 286.506 796.154 291.988 800.779 297.526C799.556 297.611 798.662 297.018 797.72 296.311C793.935 293.472 790.9 289.261 787.925 285.603C769.179 262.559 758.605 232.182 753.703 203.073C747.952 208.141 738.537 221.124 731.388 222.908C732.573 214.953 749.601 201.837 755.814 196.126Z"/>
		<path fill="#6F4600" d="M820.863 142.5C822.307 137.951 845.005 122.179 849.977 119.04C857.509 138.816 866.68 161.521 881.437 177.095C883.874 179.667 893.141 186.471 894.158 188.187C894.574 188.889 894.376 189.862 894.2 190.631C889.754 194.334 885.82 200.888 882.265 205.499Q874.513 215.735 865.981 225.33C851.181 208.774 838.771 190.407 831.052 169.444C827.782 160.564 825.621 150.702 820.863 142.5Z"/>
		<path fill="#CC7E06" d="M820.863 142.5C822.307 137.951 845.005 122.179 849.977 119.04C857.509 138.816 866.68 161.521 881.437 177.095C883.874 179.667 893.141 186.471 894.158 188.187C894.574 188.889 894.376 189.862 894.2 190.631C893.611 190.455 893.041 190.251 892.481 189.994C888.273 188.061 885.213 184.171 881.928 181.043C862.4 162.443 856.23 149.449 847.506 124.494C842.417 128.61 826.447 141.984 820.863 142.5Z"/>
		<path fill="#969595" d="M621.597 321.693C626.791 323.794 690.919 388.565 699.143 397.296C697.217 397.518 695.295 397.857 693.378 398.149C668.098 402.888 644.242 398.242 619.194 394.703C623.72 369.944 624.788 346.699 621.597 321.693Z"/>
		<path fill="#626162" d="M95.8617 846.924C95.6911 855.535 91.6083 866.459 90.0776 875.297Q87.2818 890.929 85.8831 906.746Q84.4844 922.564 84.4938 938.444C75.4289 946.561 67.1719 955.542 58.7148 964.278Q42.7044 980.879 26.3292 997.12C25.6738 990.563 30.4024 982.703 32.6327 976.659Q38.7529 959.646 45.7837 942.99Q52.8146 926.333 60.7356 910.08Q68.6566 893.828 77.4445 878.027Q86.2325 862.226 95.8617 846.924Z"/>
		<path d="M81.1711 884.503C81.577 888.106 54.2611 945.292 50.2238 954.322Q45.0887 965.901 40.3782 977.66C40.327 977.484 40.2554 977.313 40.2246 977.132C39.4924 972.826 43.4908 964.961 45.0859 960.808C55.049 934.87 66.2477 908.025 81.1711 884.503Z"/>
		<path fill="#626162" d="M170.868 931.834L170.819 932.09C164.833 938.037 151.577 943.927 143.766 948.079C105.146 968.609 68.5863 987.073 26.6063 1000.08C29.92 996.848 33.177 993.818 37.1589 991.42C43.2649 987.742 50.4856 985.593 57.1124 982.955Q71.0487 977.397 84.6818 971.132C96.878 965.419 108.519 958.603 120.227 951.966C126.074 948.905 131.809 945.845 137.07 941.823C126.031 946.119 115.447 952.049 104.926 957.46Q86.0087 967.14 66.8385 976.309C57.9342 980.614 49.0663 985.114 39.8553 988.735C56.001 972.902 71.6761 956.907 87.2015 940.464C100.961 939.634 114.52 937.846 128.205 936.293L170.868 931.834Z"/>
		<path fill="#6F4600" d="M853.586 116.938C856.82 111.939 863.239 108.149 868.09 104.849C877.07 121.867 888.331 136.911 905.198 146.838C910.102 149.724 915.973 151.248 920.483 154.709C918.966 158.843 900.52 181.52 896.729 186.259C878.479 168.546 869.526 155.013 859.691 131.932C857.606 127.04 854.974 122.066 853.586 116.938Z"/>
		<path fill="#CC7E06" d="M853.586 116.938C856.82 111.939 863.239 108.149 868.09 104.849C877.07 121.867 888.331 136.911 905.198 146.838C910.102 149.724 915.973 151.248 920.483 154.709C919.028 154.999 917.703 154.851 916.269 154.518C910.386 153.155 905.093 149.766 900.149 146.438C883.446 135.194 876.567 126.502 865.664 109.775C862.074 112.713 858.333 116.278 853.586 116.938Z"/>
		<path fill="#6F4600" d="M673.657 284.059C678.111 274.226 687.856 264.684 695.35 256.929C701.795 284.657 708.815 313.578 726.811 336.407C731.509 342.366 737.383 347.13 742.334 352.812L742.448 353.477C741.169 356.724 735.362 360.217 732.516 362.379C724.398 351.186 714.017 340.937 704.17 331.244C689.112 316.423 677.896 305.655 673.657 284.059Z"/>
		<path fill="#CC7E06" d="M673.657 284.059C678.111 274.226 687.856 264.684 695.35 256.929C701.795 284.657 708.815 313.578 726.811 336.407C731.509 342.366 737.383 347.13 742.334 352.812C739.457 352.493 737.429 351.246 735.253 349.359C713.039 330.093 695.795 292.142 693.81 262.798C691.298 266.155 688.68 269.461 686.046 272.723C683.154 276.303 678.383 283.555 673.657 284.059Z"/>
		<path fill="#626162" d="M846.335 481.543C846.75 482.166 846.781 481.959 846.625 482.707C846.009 485.665 843.377 488.917 841.696 491.369C830.994 506.977 817.039 517.619 801.246 527.553L800.912 527.318C800.239 525.807 803.362 518.694 803.949 516.723C805.943 510.025 806.675 503.319 807.205 496.39C821.944 492.204 832.427 486.678 846.335 481.543Z"/>
		<path fill="#626162" d="M538.981 178.401C539.664 179.067 539.608 178.784 539.727 179.61C541.263 190.278 531.573 206.767 525.456 214.993C516.392 217.287 507.621 220.294 498.784 223.315L498.244 223.233L498.107 222.296C507.025 203.445 521.432 189.295 538.981 178.401Z"/>
		<path fill="#B76D07" d="M664.024 294.819C664.621 291.948 667.57 289.269 669.504 287.167L672.517 294.97C674.136 299.014 675.972 302.93 677.84 306.862C673.391 302.787 668.964 298.294 664.024 294.819Z"/>
		<path fill="#CC7E06" d="M664.024 294.819C664.621 291.948 667.57 289.269 669.504 287.167L672.517 294.97C669.646 295.081 666.883 295.186 664.024 294.819Z"/>
	</g>
	<g/>
</svg>
