<?xml version="1.0" encoding="utf-8" ?>
<svg xmlns="http://www.w3.org/2000/svg" xmlns:xlink="http://www.w3.org/1999/xlink" width="523" height="1046">
	<g>
		<path fill="#2D2324" transform="scale(0.510742 0.510742)" d="M401.919 122.017C429.819 102.027 457.722 80.3701 491.37 70.8729C490.37 102.781 486.8 138.36 473.61 167.622C462.136 193.079 437.045 219.833 419.609 242.023Q360.507 318.169 302.321 395.019C286.979 415.475 268.364 435.675 255.957 457.981C251.113 466.689 249.621 475.882 247.987 485.563Q236.151 495.234 223.846 504.302C239.274 516.02 256.405 524.71 271.922 536.102C265.743 543.626 258.384 554.697 247.742 555.592C233.284 556.808 214.488 527.095 202.672 540.434C200.131 543.302 198.073 546.6 196.125 549.887C199.99 556.873 204.393 563.592 202.067 571.927C199.735 580.282 190.385 586.225 183.886 591.299C182.794 612.191 183.121 633.211 180.662 654.003C177.703 679.021 164.741 717.499 170.914 741.34C173.025 749.491 178.116 757.256 182.914 764.106L176.905 773.021C179.892 776.614 183.177 781.304 187.169 783.772C200.439 791.976 238.244 796.744 255.223 798.495C252.617 791.689 247.429 781.168 250.422 773.882C251.309 771.723 253.137 769.771 255.335 768.919C257.227 768.185 259.596 768.419 261.592 768.502C262.297 766.966 263.148 764.887 264.536 763.841C266.123 762.645 268.77 762.437 270.61 761.537C274.618 759.576 277.986 756.34 282.155 754.707C285.083 755.861 286.353 758.255 288.014 760.773L289.221 760.698C293.481 753.809 292.609 730.403 292.657 721.804Q290.517 723.997 288.091 725.869C285.432 727.937 282.215 730.222 278.638 729.594C275.111 728.975 273.223 725.632 271.288 722.942C267.623 722.016 262.706 727.143 258.556 727.471C253.785 727.847 253.73 722.724 251.039 720.112C249.686 720.76 248.065 721.702 246.608 722.041C240.747 723.405 240.118 716.178 235.924 713.984C234.044 713.001 231.102 714.612 229.055 713.363C226.377 711.727 224.483 708.267 223.781 705.282C221.345 694.926 227.558 684.404 232.623 675.857C239.15 663.222 241.009 652.469 238.82 638.424C238.189 636.108 237.534 633.759 237.128 631.391C235.521 622.02 247.632 613.582 245.589 601.206C243.902 590.99 229.78 575.571 234.919 565.838C236.945 562.002 240.96 560.11 244.736 558.395C249.904 556.049 260.026 558.847 266.174 558.24C278.55 550.54 285.173 539.335 295.552 529.723C325.582 501.914 368.28 492.595 407.617 501.798C436.471 508.548 458.233 523.769 473.926 549.197C490.076 575.365 497.463 606.435 490.165 636.67C484.905 658.46 474.506 658.132 466.782 672.187C463.299 678.525 466.306 686.407 459.094 690.992C451.346 695.918 429.593 686.525 427.439 694.885C426.058 700.248 429.159 707.067 431.952 711.505C436.977 719.49 450.537 735.449 459.974 737.327C461.023 737.535 462.079 737.579 463.145 737.578L464.685 736.478C464.836 733.953 465.064 732.423 463.327 730.327C460.23 726.589 454.09 724.727 452.506 719.966C453.229 716.29 455.136 714.549 458.191 712.521C459.857 711.416 461.598 710.449 463.371 709.528C493.486 710.188 534.142 724.967 559.682 741.431C568.047 746.824 575.1 754.119 583.455 759.46C593.533 765.903 603.316 767.671 612.042 776.77C618.413 783.414 624.133 790.854 629.913 798.017C653.813 781.613 676.561 773.386 705.761 778.762C760.983 788.928 806.384 842.396 836.682 886.72C898.204 976.723 936.485 1092.28 945.832 1200.57C948.659 1233.32 949.246 1267.18 943.157 1299.61C937.251 1331.07 922.65 1365.53 895.285 1384.15C873.454 1399.01 847.524 1402.07 822.058 1397.1C807.514 1394.26 791.939 1389.88 778.527 1383.46C737.754 1363.93 699.177 1324.65 674.049 1287.37C671.267 1283.25 668.183 1278.88 666.537 1274.15C663.145 1304.07 645.145 1384.43 623.094 1402.35C622.156 1403.11 621.424 1403.49 620.285 1403.86L619.956 1403.13C618.655 1400.23 616.162 1390.17 613.953 1388.71C608.055 1393.83 595.48 1466.11 594.627 1478.24C593.677 1491.76 593.82 1513.3 602.068 1524.83C606.047 1526.68 614.948 1525.55 619.205 1524.51C626.026 1532.17 631.395 1537.8 630.909 1548.86C630.778 1551.84 630.275 1554.87 629.765 1557.81C633.613 1562.83 637.402 1568.23 642.399 1572.16C658.196 1584.6 673.082 1585.91 669.932 1610.48C669.628 1612.86 669.019 1615.21 668.387 1617.51C675.08 1624.32 687.477 1628.11 695.722 1633.35C714.334 1645.19 732.647 1658.49 748.972 1673.34C767.403 1690.11 783.272 1709.32 799.717 1727.99C808.512 1737.97 817.718 1749.34 828.193 1757.53C834.024 1762.09 841.891 1764.18 848.17 1768.1C851.311 1770.06 854.285 1775.2 857.322 1776.4C857.681 1780.11 857.511 1785.21 858.616 1788.68C861.947 1791.99 867.607 1797.15 871.988 1798.83C877.747 1804.84 889.159 1815.45 897.034 1817.83C901.316 1822.53 907.159 1827.36 910.428 1832.75C913.2 1837.31 913.717 1842.75 912.378 1847.88C908.415 1863.07 892.424 1874.56 883.511 1887.04C871.818 1903.41 865.823 1923.49 853.663 1939.5C849.163 1945.43 843.409 1949.89 836.94 1953.47C813.599 1966.42 761.186 1969.58 735.839 1961.9C730.88 1960.39 726.806 1958.44 724.345 1953.68C722.033 1949.22 722.218 1944.2 723.8 1939.53C730.142 1920.79 751.951 1913.69 767.788 1905.53C797.445 1890.24 805.594 1852.15 815.052 1822.85C814.852 1822.77 814.644 1822.71 814.451 1822.61C807.217 1818.96 793.725 1802.94 784.453 1796.76C738.204 1765.96 636.208 1716.79 616.793 1666.34C615.887 1666.45 614.984 1666.5 614.074 1666.38C608.256 1665.62 601.262 1661.11 597.637 1656.57C590.598 1647.77 589.987 1640.62 591.13 1630C588.182 1628.55 586.328 1626.17 584.48 1623.55C580.759 1626.47 575.49 1627.85 570.828 1628C566.492 1628.14 560.694 1626.88 557.453 1623.85C545.693 1617.36 551.683 1607.03 546.649 1597.82C544.789 1594.42 541.256 1592.07 538.549 1589.37C534.079 1584.92 532.53 1580.11 532.694 1573.82C532.969 1563.27 540.794 1555.69 542.255 1545.5C543.721 1535.27 543.07 1524.28 543.211 1513.95Q543.822 1486.48 543.704 1459C543.226 1460.61 542.673 1462.17 541.925 1463.66C537.891 1471.74 524.941 1488.38 515.795 1490.49C513.15 1491.1 512.445 1490.56 510.314 1489.2C508.766 1483.6 514.033 1476.16 513.165 1469.84C512.874 1467.72 512.457 1466.55 510.723 1465.25C509.962 1465.59 509.233 1465.95 508.532 1466.4C490.022 1478.18 475.581 1518.86 470.956 1539.57C469.043 1539.22 467.945 1538.5 466.452 1537.31C446.152 1521.15 441.09 1486.07 438.172 1461.91C433.28 1472.81 428.538 1485.57 421.7 1495.28C419.674 1494.27 417.31 1489.73 416.076 1487.7C399.976 1461.17 412.051 1419.06 418.779 1391.28C417.774 1392.59 396.613 1412.91 396.408 1413.01C385.075 1400.99 384.296 1360.33 382.759 1343.44C382.312 1344.24 381.831 1345.05 381.255 1345.76C377.866 1349.93 367.536 1360.64 362.018 1361.15C361.007 1356.77 361.01 1351.92 360.674 1347.43C355.222 1358.48 341.257 1369.2 332.418 1378C319.338 1391.02 306.974 1404.72 293.993 1417.83C281.297 1430.66 267.089 1443.28 256.036 1457.57C252.861 1461.67 249.406 1466.31 248.873 1471.62C248.077 1479.53 251.442 1492.89 256.659 1499.18C254.446 1508.95 247.759 1519.71 240.208 1526.36C240.937 1555.43 249.78 1549.57 255.507 1569.86C258.429 1580.21 253.663 1586.32 248.923 1595.02C251.413 1620.78 258.79 1646.42 263.89 1671.79C275.864 1731.37 283.161 1791.27 309.851 1846.68C309.38 1850.78 308.707 1855.33 306.607 1858.92C308.331 1867.26 317.111 1886.5 323.867 1891.87C323.14 1896.41 321.728 1900.96 319.12 1904.76C322.57 1909.16 329.001 1911.44 333.573 1914.63C338.798 1918.28 342.669 1924.26 343.699 1930.59C344.241 1933.93 343.614 1937.24 341.55 1939.95C337.991 1944.62 331.903 1947.23 326.38 1948.68C315.781 1951.46 304.641 1949.03 293.986 1951.15C263.381 1957.21 234.826 1968.24 203.681 1971.85C184.781 1974.05 138.414 1977.71 123.414 1965.37C120.104 1962.64 118.627 1959.14 118.217 1954.93C115.78 1929.88 164.518 1918.24 181.418 1909.53C193.277 1903.43 203.932 1894.15 216.31 1889.07C225.076 1885.47 242.104 1884.77 248.318 1877.06C251.863 1872.65 239.672 1864.52 238.718 1858.97C237.531 1852.07 239.52 1844.28 239.881 1837.28C240.335 1828.49 237.695 1820.43 235.079 1812.19C219.368 1762.71 198.479 1715.44 186.071 1664.85Q180.863 1644.14 178.124 1622.96C176.314 1608.11 175.5 1592.69 172.46 1578.04C169.19 1562.29 160.33 1555.69 158.29 1538.31C154.768 1535.07 150.157 1530.09 148.707 1525.47C145.828 1516.29 154.318 1509.24 156.521 1500.85C159.865 1488.13 148.603 1478.28 155.449 1465.27C162.836 1451.22 173.92 1449.94 187.679 1445.66C193.088 1443.98 198.171 1441.73 202.504 1438.01C213.452 1428.61 223.231 1417.28 233.07 1406.74L276.793 1360.17Q292.707 1343.21 308.971 1326.58C321.344 1314.02 347.23 1290.65 355.026 1275.76C351.278 1278.21 347.004 1279.9 342.495 1278.95C341.005 1277.82 340.144 1277.43 339.659 1275.52C335.753 1260.14 411.664 1190.02 420.745 1173.12C421.208 1169.48 421.351 1164.38 422.945 1161.1C433.81 1138.75 465.324 1151.45 481.206 1145.31C484.049 1144.21 486.039 1142.34 487.217 1139.51C489.245 1134.64 489.155 1123.67 486.979 1118.82C486.342 1117.4 485.525 1116.16 484.228 1115.27C478.636 1111.41 468.934 1114.5 462.432 1112.15C454.501 1109.29 448.439 1102.77 441.14 1098.72C436.215 1095.99 430.352 1094.81 425.11 1092.75C414.479 1088.56 408.414 1076.59 400.426 1068.97C393.466 1062.34 382.785 1060.9 375.438 1054.63C361.703 1042.92 358.329 1024.01 349.142 1009.4C344.57 1002.13 337.143 996.906 333.803 988.767C328.49 975.822 328.372 960.726 325.65 947.114C323.493 936.326 318.536 924.5 318.868 913.457C319.092 906.022 322.39 898.861 325.113 892.067Q315.797 884.549 306.609 876.876C296.339 877.985 288.877 878.063 278.875 874.983C269.26 865.099 265.492 855.483 262.214 842.415C237.766 839.754 214.634 832.389 189.663 833.504C178.141 834.018 164.304 843.973 153.24 841.308C143.072 838.859 138.36 825.72 133.219 817.763C130.908 814.185 128.134 814.262 124.294 813.422C115.994 804.654 112.557 797.829 110.326 786.039C105.348 781.558 101.021 776.493 98.0043 770.493C99.5645 761.379 101.158 752.258 101.329 742.989C101.532 731.906 100.41 720.586 101.272 709.545C102.049 699.574 105.035 689.07 106.915 679.227C107.524 676.038 108.851 671.133 107.024 668.353C103.963 669.336 100.982 670.133 97.7597 670.346C91.8798 670.736 86.9528 669.29 82.5416 665.347C75.3791 658.945 70.6483 648.757 70.1199 639.189C69.895 635.116 70.6026 631.117 72.8506 627.663C76.0803 622.701 82.4832 620.475 86.3028 616.037C94.3942 606.633 99.4471 594.96 107.996 585.482C105.227 582.142 102.582 578.889 100.338 575.157L100.117 574.17C98.6564 567.423 101.128 564.202 104.657 558.779C104.798 557.659 104.967 556.535 105.232 555.436C108.79 540.665 114.698 527.801 127.809 519.553C127.942 518.419 128.348 517.383 128.761 516.326C130.246 512.521 131.709 510.021 135.566 508.334C138.633 508.395 139.555 509.138 142.091 510.706C144.06 505.427 147.542 501.412 151.432 497.419C137.624 488.05 123.998 478.346 109.963 469.324C115.035 460.597 120.274 451.91 125.011 442.997C140.155 451.841 156.523 459.803 170.77 470.027L182.074 442.843C190.015 439.566 195.259 434.937 200.804 428.539C213.074 414.381 222.272 396.954 232.118 381.059L278.246 306.327C283.766 297.237 289.135 284.779 296.273 277.147C299.097 274.127 303.445 272.789 307.226 271.422C307.411 267.87 307.158 262.65 308.658 259.443C313.872 248.293 323.427 236.767 330.224 226.318Q350.762 194.518 371.831 163.066C378.224 153.555 384.352 143.257 391.582 134.375C394.891 134.566 398.323 135.148 401.343 133.502C403.01 129.996 402.099 125.884 401.919 122.017ZM384.484 755.654C380.767 769.274 373.756 781.6 361.119 788.797C360.135 789.357 359.185 789.913 358.119 790.299C353.747 791.349 353.195 797.08 348.673 796.911L348.437 795.254L350.57 792.718L349.873 791.223C348.26 790.997 346.675 790.712 345.042 790.806C346.09 790.028 347.049 788.997 347.818 787.936C348.977 786.337 349.381 784.082 349.006 782.159C348.231 778.183 345.559 776.103 342.38 774.012C340.06 777.779 339.185 781.589 340.249 785.971C340.726 787.938 341.468 789.709 343.323 790.715C343.52 790.821 343.737 790.885 343.943 790.97C343.791 792.402 343.789 793.486 343.937 794.917C344.27 798.133 343.325 798.652 345.038 801.844C340.697 803.607 341.821 807.487 338.431 809.497C334.833 811.632 330.544 806.386 327.243 808.436C325.566 809.476 322.939 816.189 321.459 818.281C319.211 821.457 316.201 824.268 313.173 826.696C309.868 825.096 309.863 818.895 305.128 820.846C303.766 821.407 302.756 822.645 301.778 823.708C300.4 823.524 298.872 823.345 297.58 822.813C295.578 821.989 293.574 820.399 292.823 818.36C295.282 814.835 299.969 817.279 303.378 815.462C304.673 811.966 303.563 809.482 302.391 806.004C301.407 802.719 300.328 796.87 297.742 794.6C295.941 793.021 294.905 793.441 292.63 793.541C289.843 794.29 288.862 794.904 286.106 793.767C284.344 790.652 286.087 783.32 286.349 779.708C286.057 778.646 285.522 777.693 285.041 776.706L282.633 776.839C281.82 775.858 280.691 775.353 279.6 774.716C282.284 772.644 283.6 771.567 284.663 768.267C283.851 765.202 282.462 763.956 280.171 761.915C281.7 760.488 284.821 762.367 288.014 760.773C286.353 758.255 285.083 755.861 282.155 754.707C277.986 756.34 274.618 759.576 270.61 761.537C268.77 762.437 266.123 762.645 264.536 763.841C263.148 764.887 262.297 766.966 261.592 768.502C260.512 770.799 259.675 772.488 259.876 775.114L258.806 776.376L256.474 776.564C256.012 778.648 256.324 779.529 257.484 781.308C260.204 785.479 265.999 789.12 267.141 794.01L265.865 794.74L262.114 790.468L260.731 790.499C260.237 792.866 261.187 795.369 262.561 797.329C264.788 800.507 269.016 801.416 268.312 806.044C267.969 808.298 267.296 811.741 266.145 813.708C262.733 812.478 258.658 805.799 256.344 802.963C261.901 820.117 268.17 839.938 276.868 855.731C279.37 860.272 283.185 866.28 288.551 867.695C297.007 869.926 305.363 863.998 312.316 860.041C316.501 866.24 320.566 872.29 325.719 877.736C345.393 865.082 351.395 837.742 368.09 820.636C384.408 803.916 405.164 794.093 423.539 780.091C421.984 769.009 418.9 758.07 417.254 746.957C414.378 727.535 416.066 707.754 418.275 688.362C411.849 696.473 406.609 705.855 401.319 714.743C394.883 705.024 390.251 695.18 386.64 684.122C386.153 708.296 392.388 731.941 384.484 755.654ZM351.256 1266.59C357.097 1268.4 362.673 1268.38 368.227 1265.46C369.094 1265 369.891 1264.45 370.666 1263.85C367.946 1274.73 363.09 1285.24 359.267 1295.78C359.432 1295.73 359.6 1295.69 359.763 1295.64C365.402 1293.71 367.441 1286.34 374.003 1287.45C376.309 1289.83 376.344 1293.53 376.281 1296.65C375.985 1311.18 371.73 1327.95 367.861 1341.96C368.009 1341.96 368.156 1341.97 368.303 1341.96C375.03 1341.54 378.817 1330.6 386.908 1336.8C392.911 1341.4 393.446 1352.62 394.027 1359.6C394.625 1366.78 393.775 1386.49 398.772 1390.98C405.44 1388.89 423.485 1382.89 428.568 1379.12C427.316 1402.23 413.683 1447.85 421.355 1467.88L422.823 1468.67C426.702 1465.73 427.561 1460.28 430.884 1456.81C433.746 1453.82 438.959 1451.14 442.506 1448.78C442.34 1446.02 441.637 1442.44 442.761 1439.87L444.029 1439.69C444.378 1440.1 444.847 1440.44 445.076 1440.93C446.581 1444.15 446.466 1457.46 447.072 1461.83C448.361 1471.12 457.105 1510.5 464.455 1515.28C464.572 1515.15 464.693 1515.03 464.806 1514.91C469.346 1509.76 471.985 1499.71 475.303 1493.42C480.663 1483.27 502.184 1450.53 514.41 1449.8C515.425 1449.74 516.797 1450.68 517.728 1451.13C522.486 1457.09 521.119 1465.72 520.895 1472.85C531.202 1467.71 545.203 1422.55 550.673 1410.83C556.114 1399.18 583.907 1346.67 598.404 1351.29C612.076 1355.65 614.313 1374.25 623.249 1383.24C634.312 1376.22 648.481 1319.69 651.701 1305.24C652 1303.89 652.331 1302.55 652.499 1301.18C655.485 1292.54 661.293 1272.2 657.067 1263.73C656.994 1263.59 656.91 1263.45 656.832 1263.31L655.32 1263.18C646.492 1272.32 646.367 1307.56 636.798 1312.6C634.977 1310.37 630.905 1271.18 629.686 1264.04C626.769 1265.62 581.205 1269.98 579.008 1269.33C578.325 1269.12 578.444 1269.16 577.915 1268.9C575.378 1289.67 566.923 1326.92 550.32 1341.23C549.19 1342.21 547.788 1342.65 546.346 1342.92C557.601 1325.22 570.652 1290.35 574.099 1270.1L573.531 1270.88C566.601 1280.14 552.761 1282.91 543.109 1288.57C526.742 1298.17 513.742 1313.1 497.654 1322.8C492.806 1325.73 487.195 1328.56 481.522 1329.21C479.212 1329.48 476.433 1329.39 474.503 1327.93C473.605 1327.26 472.883 1326.31 472.214 1325.41C473.328 1323.24 475.796 1322.45 478.088 1321.7C482.657 1320.21 487.877 1319.18 492.087 1316.84C498.422 1313.32 504.231 1307.69 509.716 1302.97C521.343 1292.96 532.366 1284.03 546.309 1277.36C561.237 1270.21 613.983 1253.68 620.913 1244.7C616.668 1243.95 614.092 1242.51 611.604 1238.93C610.816 1237.8 610.209 1236.67 609.696 1235.38C596.78 1242.38 581.681 1245.87 568.038 1251.39C543.821 1261.19 516.069 1276.2 491.349 1282.69C485.633 1284.19 480.49 1284.47 474.78 1282.77C452.683 1276.2 429.706 1240.75 419.596 1221.48C417.24 1216.98 413.321 1203.18 409.247 1201.34C406.046 1206.93 355.646 1265.5 351.779 1266.48C351.607 1266.53 351.43 1266.55 351.256 1266.59ZM293.964 576.139C303.928 562.105 313.794 547.696 327.381 536.906C319.971 555.631 307.653 572.452 294.525 587.525C289.631 580.964 284.086 571.32 277.255 566.869C271.558 563.158 257.017 563.482 250.447 564.873C247.313 565.536 243.957 566.911 242.303 569.847C238.232 577.076 250.995 597.182 253.628 604.92C251.213 613.768 247.114 620.486 242.173 628.081C247.798 649.117 245.322 659.822 237.702 679.648C239.359 681.554 239.993 683.114 242.583 683.433C244.831 680.549 246.248 673.807 248.976 672.082L251.209 672.662C252.992 677.908 249.491 683.709 250.482 689.633L254.466 690.484C256.358 689.255 256.559 689.184 257.124 686.869C258.031 683.146 256.249 680.258 258.832 677.165L261.794 677.236C263.525 679.484 263.286 680.963 262.918 683.735C262.651 685.741 261.508 688.588 262.896 690.233C264.549 692.192 269.047 693.816 271.594 693.706C273.231 693.635 274.541 693.339 275.516 691.945C277.425 689.217 278.157 684.765 279.454 681.633C280.29 686.235 280.424 693.308 284.579 696.099C285.249 696.549 286.158 696.744 286.94 696.904C288.755 696.224 289.315 696.298 290.081 694.396C291.431 691.043 289.149 687.649 291.333 684.47C294.925 686.492 294.86 690.668 297.529 693.197C298.502 694.119 307.447 695.023 309.574 695.837C309.921 693.685 308.244 689.75 308.019 687.316C309.725 686.164 316.212 696.353 321.601 696.837C324.202 697.07 324.699 696.848 326.55 695.258C327.376 690.936 322.769 682.716 321.087 678.422C324.412 681.796 326.885 686.632 331.251 688.818C333.663 690.025 334.365 690.056 336.879 689.279C339.537 684.486 336.151 684.41 337.696 680.813C338.893 680.25 339.539 679.629 340.863 680.048C347.253 682.07 353.283 692.931 356.188 698.581C356.2 692.258 356.804 684.33 353.62 678.663C348.636 669.793 332.158 670.146 323.185 667.776C341.099 664.849 382.338 657.95 398.731 660.724C413.766 663.268 439.864 685.472 453.647 683.617C454.432 683.512 454.776 682.685 455.251 682.09L454.985 680.268C450.413 676.09 441.965 674.236 436.339 671.042C411.75 657.079 391.999 638.52 363.164 633.494C376.6 610.523 385.045 596.579 377.711 569.243C376.087 563.193 374.051 557.227 374.913 550.872C376.529 538.975 387.184 531.87 395.915 525.068Q394.261 527.299 392.65 529.56C372.243 558.26 388.928 559.948 392.822 585.143C395.21 600.595 385.889 613.576 377.251 625.307C394.003 630.79 410.726 640.668 428.564 641.604C439.773 642.193 450.154 638.83 458.515 631.258Q459.524 630.346 460.487 629.385Q461.449 628.423 462.362 627.414Q463.275 626.406 464.137 625.353Q464.998 624.3 465.805 623.205Q466.612 622.11 467.364 620.976Q468.115 619.841 468.809 618.671Q469.502 617.501 470.136 616.297Q470.77 615.093 471.342 613.859Q471.915 612.625 472.425 611.364Q472.935 610.103 473.381 608.818Q473.828 607.533 474.209 606.227Q474.59 604.921 474.905 603.597Q475.22 602.274 475.468 600.936Q475.716 599.599 475.897 598.25Q476.078 596.902 476.191 595.546Q476.304 594.191 476.349 592.831C477.159 573.698 468.762 554.587 455.937 540.649C436.34 519.352 409.214 509.076 380.56 507.987C337.282 506.342 307.488 531.755 277.649 559.474C283.904 564.171 288.944 570.203 293.964 576.139ZM754.878 1311.28C744.164 1309.36 712.649 1262.18 704.73 1250.79C644.75 1164.47 602.205 1006.19 621.243 901.4C626.437 872.804 636.763 839.04 662.04 821.685C676.996 811.417 693.991 808.826 711.664 812.128C760.036 821.166 796.298 866.042 822.526 904.751C844.954 937.852 866.893 976.786 880.074 1014.62C883.694 1013.21 887.301 1011.74 890.954 1010.42C883.684 990.326 854.371 924.905 841.338 910.62C838.312 912.419 836.54 914.085 832.935 914.064C830.456 912.247 829.077 911.032 827.737 908.181C827.156 903.801 829.934 900.331 832.127 896.758C803.834 854.165 757.806 799.4 705.364 788.759C697.393 787.142 688.565 786.283 680.513 787.616C660.119 788.976 641.208 800.986 627.993 816.049C590.033 859.32 585.124 935.374 588.932 990.908C595.576 1087.81 635.129 1204.84 693.853 1282.79C709.519 1303.58 727.336 1321.78 746.967 1338.85C776.54 1364.57 817.053 1388.01 857.685 1385.14Q859.397 1385.01 861.1 1384.8Q862.803 1384.58 864.494 1384.28Q866.184 1383.99 867.858 1383.6Q869.532 1383.22 871.185 1382.76Q872.838 1382.3 874.466 1381.75Q876.094 1381.21 877.693 1380.58Q879.292 1379.96 880.859 1379.26Q882.425 1378.56 883.955 1377.78Q885.485 1377 886.975 1376.15Q888.464 1375.29 889.91 1374.37Q891.356 1373.44 892.754 1372.44Q894.152 1371.45 895.499 1370.38Q896.847 1369.32 898.14 1368.19Q899.433 1367.06 900.669 1365.87Q901.905 1364.68 903.08 1363.43Q904.256 1362.18 905.368 1360.87C936.545 1324.64 939.097 1273.13 938.267 1227.83L937.026 1226.65L936.19 1227.04C933.36 1228.32 931.479 1228.91 928.418 1227.74Q926.176 1226.87 924.009 1225.82C922.722 1266.2 922.956 1311.88 891.288 1341.55C878.595 1353.44 862.396 1358.23 845.168 1357.61C814.89 1356.52 778.084 1336.75 757.639 1314.95C756.569 1313.8 755.633 1312.66 754.878 1311.28ZM411.282 127.519C411.334 132.178 412.163 138.2 408.621 141.784C407.765 142.65 407.204 142.946 405.932 142.983C402.542 143.083 401.278 141.12 397.659 142.137C390.813 149.526 382.573 165.79 376.607 174.932Q353.847 209.619 331.74 244.726C327.658 251.084 322.94 257.074 318.965 263.472C318 265.025 317.227 266.736 317.358 268.615C317.664 273.003 320.379 275.245 319.658 279.906C318.318 281.532 318.167 282.204 315.961 282.366C313.214 282.568 309.005 279.264 307.083 281.541C297.893 292.43 287.365 313.559 279.528 326.391C268.78 343.991 257.212 361.103 246.171 378.522C237.273 392.562 228.897 407.085 219.56 420.827C207.727 438.239 192.087 446.823 182.73 466.835C181.36 469.765 179.597 472.839 179.268 476.097L180.273 477.044C190.271 474.567 199.724 468.392 209.777 465.247C254.586 397.061 302.302 330.949 349.386 264.335L400.376 191.922C408.228 180.929 415.817 169.194 424.445 158.831C425.658 157.374 427.355 155.539 429.25 155.046C429.55 154.968 429.859 154.928 430.163 154.869L430.614 155.338L429.252 155.029L431.008 155.687C429.788 166.104 411.099 190.631 404.032 199.653C359.095 261.032 316.556 324.308 273.217 386.823C257.194 409.936 228.178 444.569 217.354 469.246C213.692 477.593 214.848 490.321 214.646 499.404C223.295 493.226 230.983 485.464 238.795 478.27C241.185 464.943 246.031 454.952 252.966 443.414C271.919 411.882 296.464 383.586 318.869 354.466L413.557 230.636C429.767 209.864 450.245 189.283 461.769 165.534C471.951 144.549 475.145 120.394 477.665 97.4443C466.598 113.596 451.642 138.734 435.41 149.647L433.064 147.952C437.301 133.622 465.996 103.261 468.028 94.5568L466.304 94.3519C447.326 102.542 427.662 114.799 411.282 127.519ZM249.128 1635.22C246.789 1626.35 246.225 1614.77 242.549 1606.59C237.246 1606.53 232.95 1606.69 228.562 1603.29C232.445 1629.17 241.624 1654.6 247.893 1680.01C255.793 1712.04 261.604 1744.64 268.81 1776.84C271.861 1790.47 277.961 1808.36 280.073 1821.11C280.516 1823.78 280.068 1826.05 279.233 1828.58L277.963 1829.9C275.301 1829.87 273.613 1828.63 271.73 1826.76C268.228 1823.29 264.792 1818.28 262.788 1813.73C257.663 1802.1 254.673 1788.14 250.951 1775.94C236.064 1727.13 222.255 1677.84 212.82 1627.67C209.55 1610.28 205.77 1591.67 206.12 1573.95C206.284 1565.63 207.241 1559.01 213.456 1553.13C214.654 1552 215.591 1551.2 216.335 1549.7C215.803 1544.16 215.154 1538.61 214.756 1533.07C211.134 1537.06 204.667 1542.7 199.033 1543.01C190.123 1543.5 185.364 1533.92 177.985 1533.23C177.864 1533.44 177.745 1533.64 177.621 1533.85C175.268 1537.7 167.705 1540.76 168.747 1545.27C170.754 1553.95 180.176 1559.09 182.52 1568.02C187.939 1588.66 187.723 1616.45 191.904 1638.95C200.181 1683.48 215.686 1726.83 230.77 1769.45C236.398 1785.36 252.064 1823.89 251.953 1839.21C251.921 1843.63 249.512 1848.38 248.265 1852.6C247.164 1856.32 248.45 1859.24 251.931 1861.08C254.656 1862.52 257.933 1862.31 260.754 1861.26C265.563 1859.48 268.622 1854.1 273.22 1852.92C281.503 1850.78 291.604 1863.16 297.759 1850.15C299.857 1845.72 297.193 1839.69 295.408 1835.47C292.152 1827.76 288.276 1820.23 285.594 1812.29C274.352 1779.05 267.865 1735.14 261.131 1700.02C256.995 1678.44 251.899 1657.02 249.128 1635.22ZM624.251 1627.83L623.726 1628.43C619.333 1633.34 602.134 1637.56 601.18 1639.53C600.98 1639.94 601.137 1641.67 601.163 1642.12C601.344 1645.32 603.798 1648.15 606.191 1650.06C611.144 1654 617.652 1656.02 622.329 1660.25C638.309 1674.69 647.966 1692.59 666.976 1707.88C696.818 1731.88 731.238 1750.79 763.72 1770.95C774.88 1777.88 788.23 1784.63 798.23 1793.04C805.123 1798.84 810.754 1806.82 816.912 1813.42C819.748 1816.46 823.285 1818.98 827.684 1818.37C830.61 1817.96 832.92 1815.94 834.54 1813.59C836.044 1811.4 837.292 1808.76 838.333 1806.31C837.156 1803.25 835.469 1800.07 836.095 1796.73C839.246 1791.02 848.747 1791.2 846.22 1782.58C845.575 1780.38 844.779 1778.05 842.663 1776.91C837.047 1773.86 829.48 1772.12 824.632 1767.96C815.526 1760.16 807.815 1749.51 799.957 1740.45C787.684 1726.31 774.976 1712.33 762.168 1698.68C752.072 1687.92 736.642 1677.12 728.505 1665.35C718.946 1666.21 677.839 1623.79 660.507 1628.57C659.619 1629.72 658.917 1630.14 659.09 1631.65C659.622 1636.31 664.836 1640.55 668.339 1643.11C682.731 1653.66 699.75 1660.46 714.349 1670.8C734.624 1685.17 813.952 1754.9 817.869 1778.09C818.101 1779.47 817.752 1779.96 817.221 1781.25C814.814 1782.56 812.421 1781.97 809.94 1781.22C784.59 1773.65 702.362 1708.97 680.881 1688.18C670.071 1677.72 658.997 1665.92 651.9 1652.52C647.952 1645.07 644.994 1636.61 647.61 1628.25C650.037 1620.49 662.111 1608.2 658.656 1600.53C656.634 1596.04 652.172 1593.89 647.804 1592.28C626.717 1614.96 638.246 1607.03 634.658 1632.39C634.338 1634.66 634.061 1636.25 631.703 1636.88C628.752 1635.08 625.679 1630.95 624.251 1627.83ZM206.292 1486.32C206.488 1486.54 206.686 1486.76 206.879 1486.98C212.571 1493.56 216.342 1509.44 226.228 1510.49C230.053 1510.89 235.167 1508.97 238.032 1506.48C240.338 1504.48 241.283 1501.72 241.365 1498.74C241.682 1487.12 231.357 1477.49 235.02 1465.59C240.895 1446.49 314.251 1375.89 332.91 1355.11C338.919 1348.42 348.36 1339.7 351.67 1331.46C354.199 1325.17 353.009 1318.34 348.177 1313.48C345.487 1310.77 341.633 1308.1 337.86 1307.31C332.236 1319.38 298.375 1350.51 287.329 1362.25C263.125 1387.96 239.801 1414.82 214.518 1439.48C211.205 1442.72 208.109 1445.64 204.028 1447.89C189.869 1455.68 170.334 1454.68 165.183 1473.22C164.311 1476.36 164.414 1479.69 166.244 1482.5C168.89 1486.56 174.338 1488.45 178.884 1489.23C187.793 1490.75 197.776 1489.04 206.292 1486.32ZM588.505 1419.56C582.3 1428.91 573.742 1433.27 562.855 1435.47C559.932 1445.46 556.577 1455.35 554.731 1465.61C549.559 1494.35 553.034 1524.85 552.958 1553.89C549.53 1560.31 541.852 1570.51 544.484 1578.27C546.138 1583.15 552.218 1585.42 556.461 1587.57L558.501 1587.36C560.938 1589.38 564.845 1591 568.092 1590.47C571.253 1589.97 573.744 1587.73 575.484 1585.16C579.747 1578.88 580.645 1571.08 589.048 1569.46C596.015 1568.12 604.498 1570.54 610.454 1565.53C614.595 1563.67 616.66 1559.94 618.193 1555.84C619.39 1552.63 620.876 1547.93 619.426 1544.61C618.468 1542.41 616.48 1540.9 614.264 1540.12C604.012 1536.5 593.332 1539.09 587.399 1527.51C584.067 1521.01 583.577 1513.38 583.064 1506.22C582.209 1494.27 582.266 1482.42 583.785 1470.53C585.08 1460.39 597.248 1418.63 594.404 1412.6C594.262 1412.77 594.126 1412.94 593.978 1413.1C589.15 1418.41 565.979 1426.24 565.175 1427.47C564.862 1427.94 564.979 1428.59 564.881 1429.15L566.247 1428.93L567.116 1430.72C573.569 1430.05 583.582 1423.85 588.505 1419.56ZM806.469 1121.06C808.888 1123.68 811.461 1124.4 814.974 1124.43C818.57 1124.46 820.935 1122.53 823.237 1120.01C830.963 1111.57 832.792 1099.39 832.143 1088.33C830.934 1067.72 819.438 1041.63 803.742 1027.94C797.119 1022.16 790.691 1018.96 781.879 1019.22C774.268 1021.95 769.015 1025.91 765.429 1033.34C758.606 1047.47 761.87 1067.21 767.062 1081.42C770.783 1091.61 781.951 1112.26 792.228 1116.73C792.786 1116.98 792.83 1116.98 793.341 1117.15C796.31 1115.19 795.726 1110.78 798.748 1110.26C801.963 1114.07 799.486 1118.37 802.642 1121.79C804.014 1121.68 805.163 1121.55 806.469 1121.06ZM620.32 1188.66C615.812 1182 613.358 1173.68 610.928 1166.09C604.166 1166.65 591.842 1166.82 586.455 1162.42C586.294 1162.49 586.136 1162.58 585.971 1162.65C576.329 1166.66 556.117 1151.57 549.549 1162.57C549.372 1164.49 549.091 1165.18 550.365 1166.79C554.149 1171.6 594.21 1178.82 602.057 1179.33C605.212 1179.54 608.004 1179.68 610.985 1178.45C601.87 1191.06 507.447 1245.04 491.745 1247.54C487.325 1248.24 484.181 1247.09 480.611 1244.45C464.217 1232.32 446.264 1193.7 443.598 1173.97C442.915 1168.91 443.688 1163.75 442.864 1158.71C441.963 1158.09 441.22 1157.53 440.181 1157.16C440.026 1157.3 439.873 1157.44 439.716 1157.58C435.035 1161.68 429.551 1162.13 428.998 1169.62C427.482 1190.14 455.537 1243.14 469.471 1258.84C472.644 1262.41 477.521 1267.21 482.543 1267.69C501.777 1269.55 566.748 1226.29 585.528 1214.45C595.053 1208.44 607.297 1202.38 615.535 1194.78C617.43 1193.02 619.233 1191.02 620.32 1188.66ZM814.648 1339.87C819.811 1345.14 834.369 1348.25 841.662 1348.22C844.085 1348.22 845.761 1348.17 847.594 1346.54L847.684 1343.24C841.619 1319.65 839.012 1294.99 834.522 1271.05C828.683 1239.9 821.115 1209.08 813.612 1178.31Q812.967 1178.62 812.307 1178.91Q811.647 1179.19 810.974 1179.44Q810.302 1179.69 809.617 1179.91Q808.933 1180.13 808.239 1180.31Q807.545 1180.49 806.843 1180.64Q806.141 1180.79 805.432 1180.91Q804.723 1181.02 804.01 1181.1Q803.296 1181.18 802.58 1181.23Q801.863 1181.27 801.146 1181.29Q800.428 1181.3 799.71 1181.27Q798.993 1181.25 798.277 1181.19Q797.562 1181.13 796.85 1181.03Q796.138 1180.94 795.432 1180.81Q794.726 1180.68 794.027 1180.52Q793.328 1180.35 792.637 1180.16Q791.947 1179.96 791.267 1179.73C790.03 1179.31 789.142 1178.63 788.287 1177.65C787.921 1194.05 800.792 1241.3 804.245 1261.08Q808.449 1284.18 811.092 1307.52C812.181 1317.54 811.91 1330.44 814.648 1339.87ZM626.002 983.825C642.364 988.151 657.958 991.288 673.363 998.722C682.207 1002.99 692.234 1008.22 700.499 1013.46C705.734 1016.77 710.408 1020.88 715.811 1023.97C717.214 1024.77 718.179 1025.18 719.815 1025.26L721.079 1023.23C722.542 1018.97 723.897 1014.62 725.747 1010.51C717.875 995.288 709.381 980.304 701.758 964.973C678.231 951.221 653.415 933.269 625.844 929.006Q625.479 956.417 626.002 983.825ZM644.595 855.787C655.371 870.691 666.274 884.975 675.61 900.894Q693.08 931.21 709.002 962.368C714.882 974.038 720.12 986.099 726.341 997.587C727.62 999.949 728.478 1002.36 730.87 1003.68L731.711 1002.93C737.71 996.124 743.317 989.732 751.04 984.809C742.269 968.4 673.308 836.359 662.222 831.511C655.907 838.933 648.711 846.85 644.595 855.787ZM429.548 908.058C427.865 901.106 428.554 888.801 423.491 884.04C420.618 882.646 418.184 883.049 415.145 883.517C418.166 922.093 432.994 972.762 454.341 1004.66C460.268 1013.24 487.699 1054.34 495.125 1056.45C492.319 1049.73 489.681 1043.03 487.577 1036.05C485.827 1030.25 485.336 1023.37 482.339 1018.11C475.792 1005.8 472.651 991.767 469.1 978.389C459.788 943.303 453.705 912.719 449.607 876.656L448.385 872.374C441.809 878.972 437.254 880.017 428.355 881.937C429.933 890.935 431.626 898.974 429.548 908.058ZM724.084 1263.87C727.123 1270.48 743.269 1291.29 750.074 1294.51C750.208 1294.57 750.354 1294.61 750.493 1294.66C752.562 1297.57 754.989 1301.95 758.139 1303.63C763.158 1302.63 766.723 1296.72 769.4 1292.7C777.166 1281.04 789.267 1259.39 790.917 1245.46C792.306 1233.74 785.586 1203.72 782.998 1190.9C781.901 1185.47 780.809 1177.59 775.874 1174.37C774.986 1173.79 774.15 1173.44 773.145 1173.13C767.5 1201.73 750.539 1233.39 731.787 1255.58C729.825 1257.9 727.032 1262.12 724.487 1263.68C724.36 1263.75 724.219 1263.8 724.084 1263.87ZM784.726 982.593C787.431 969.69 728.286 843.567 718.443 825.162C709.912 823.042 701.113 821.127 692.308 820.671C706.074 851.96 720.555 882.331 732.969 914.26Q740.779 934.161 747.853 954.335C750.963 963.104 753.45 972.963 758.032 981.048C760.917 981.366 762.842 979.963 765.606 979.867C771.824 979.651 778.695 981.179 784.726 982.593ZM822.131 1173.45C826.074 1190.91 834.624 1208.58 841.15 1225.3Q856.591 1265.02 870.564 1305.28C872.824 1311.98 875.502 1326.9 880.258 1331.33C881.416 1331.21 882.377 1331.12 883.495 1330.75C888.409 1329.29 891.192 1324.27 893.57 1319.93C895.719 1316.02 898.134 1311.42 899.032 1307.04C890.708 1294.22 886.748 1276.45 881.434 1261.99C868.982 1228.11 855.883 1190.53 837.729 1159.44C835.433 1164.98 828.567 1170.99 822.896 1173.17C822.643 1173.27 822.386 1173.36 822.131 1173.45ZM650.914 1113.95C653.033 1121.52 659.816 1148.79 664.505 1152.75L666.921 1154.41C678.462 1150.64 756.182 1113.57 760.246 1109.4C760.438 1109.21 760.639 1109.02 760.829 1108.82C760.943 1108.7 761.049 1108.57 761.159 1108.45C753.087 1100.77 753.347 1089.19 749.347 1079.63C743.538 1085.71 664.517 1113.91 653.875 1114.28C652.84 1114.32 651.91 1114.21 650.914 1113.95ZM876.139 1224.21C882.273 1231.06 900.695 1242.9 909.522 1245.54C910.746 1245.08 911.536 1244.8 912.503 1243.88C914.505 1241.96 914.612 1239.91 914.669 1237.17C914.959 1223.28 912.351 1186.47 908.772 1174.24C905.094 1172.52 900.377 1174.82 896.245 1174.12C878.01 1171.06 859.046 1160.11 845.816 1147.48C844.72 1150.29 842.902 1153.02 843.943 1156.05C845.883 1161.7 874.06 1222.24 876.139 1224.21ZM642.242 1084.64C645.456 1085.79 702.08 1077.94 713.575 1078.18L715.746 1079.29C717.044 1078.75 717.764 1078.74 718.376 1077.39C721.085 1071.4 717.833 1056.69 717.075 1049.85C707.188 1051.01 690.957 1041.91 680.503 1039.98C668.115 1037.69 638.441 1038.9 630.969 1036C630.61 1045.86 636.793 1077.52 642.242 1084.64ZM676.676 1181.48C678.78 1188.65 688.281 1212 693.77 1216.15C693.989 1216.32 694.258 1216.4 694.502 1216.53C699.029 1217.56 702.683 1215.44 706.515 1213.04C721.833 1203.44 750.958 1176.47 757.154 1159.41C748.768 1155.4 745.584 1143.62 738.928 1137.55C731.958 1146.29 687.686 1179.74 677.817 1181.49C677.245 1181.59 677.173 1181.55 676.676 1181.48ZM733.938 1078.02C738.071 1078.79 742.026 1077.09 745.416 1074.79C746.993 1073.72 748.33 1072.54 749.54 1071.06C748.597 1054.47 748.842 1037.58 758.811 1023.37C764.535 1016.65 772.633 1010.4 781.766 1009.72C791.481 1008.99 800.732 1015.48 807.686 1021.66C812.85 1026.25 817.63 1033.33 823.497 1036.71L825.347 1036.02C826.388 1033.63 826.501 1031.93 825.559 1029.48C820.046 1015.15 797.44 996.225 783.205 990.209C778.683 988.298 774.547 987.631 769.7 987.278C758.777 988.337 750.887 991.47 743.795 1000.2C729.658 1017.6 729.641 1047.22 732.063 1068.36C732.42 1071.47 732.708 1075.14 733.938 1078.02ZM800.816 988.215C802.982 963.26 804.897 939.562 814.231 916.053C803.873 900.604 793.954 884.469 780.323 871.625C771.578 886.277 767.533 909.173 771.684 925.754C774.624 937.501 780.214 948.791 784.532 960.079C787.672 968.289 789.93 977.335 793.975 985.125C795.201 987.484 796.95 989.796 799.224 991.224C799.344 991.299 799.469 991.367 799.592 991.438C800.43 990.254 800.611 989.604 800.816 988.215ZM153.767 784.136C154.631 789.013 158.862 799.184 158.02 803.187C153.853 808.131 146.9 811.191 141.926 815.504C145.602 820.741 150.039 828.243 156.739 829.703C160.563 830.537 163.875 829.336 166.95 827.147C169.136 825.591 171.14 823.72 173.124 821.917C187.742 820.124 201.532 821.053 216.126 822.12C222.146 822.877 246.904 828.637 250.868 827.438C251.079 821.406 250.408 815.393 249.889 809.389C228.468 806.263 206.28 801.427 185.291 796.085C182.312 793.43 172.263 778.77 170.365 778.422C164.874 780.746 159.534 782.623 153.767 784.136ZM766.382 1137.18C772.865 1149.44 788.268 1163.27 801.566 1167.36C808.352 1169.44 815.345 1169 821.639 1165.63C832.862 1159.62 839.596 1146.88 842.977 1135.02C846.531 1122.56 850.208 1097.64 842.784 1086.18C842.363 1085.53 841.894 1085.15 841.289 1084.68C840.902 1102.58 838.683 1124.07 824.968 1137.28C820.226 1141.85 814.399 1144.6 807.745 1144.44C795.92 1144.17 781.978 1134.66 774.119 1126.14C771.224 1122.99 768.828 1119.28 764.738 1117.66C762.236 1117.87 762.225 1118.02 760.449 1119.82C759.069 1123.87 758.93 1126.6 760.848 1130.5C761.779 1132.39 763.653 1136.15 765.672 1136.95C765.903 1137.04 766.145 1137.1 766.382 1137.18ZM498.523 979.238C490.406 973.009 482.987 967.116 476.397 959.23L480.444 982.741C482.947 986.315 495.955 990.214 500.335 991.016C515.817 993.853 530.886 986.487 543.16 977.719C553.836 970.092 562.66 960.164 570.293 949.552C570.95 930.707 571.554 911.438 575.611 892.949C577.777 883.08 583.495 872.49 584.181 862.541C584.271 861.229 583.435 859.954 582.589 858.973C579.614 855.528 574.476 852.936 570.583 850.586C575.494 885.041 573.629 919.604 551.922 948.418C543.74 959.277 531.628 970.494 518.304 974.372C511.795 976.266 504.927 977.026 498.523 979.238ZM730.537 1945.01C737.362 1951.28 753.73 1951.44 762.727 1951.05C766.859 1950.86 771.984 1950.81 775.505 1948.45C782.855 1952.54 798.41 1949.98 806.403 1947.77C809.766 1946.84 812.389 1945.61 814.897 1943.17C815.767 1940.77 816.283 1939.77 815.132 1937.28C808.907 1923.8 784.788 1918.52 773.014 1912.27C764.681 1920.29 752.68 1922.44 743.779 1929.44C738.52 1933.58 735.632 1941.74 730.537 1945.01ZM480.676 931.769C477.438 928.729 473.942 925.757 471.033 922.402C472.109 929.681 472.596 942.995 476.453 948.968C508.138 939.564 528.668 927.185 544.849 897.193C551.599 884.681 560.87 859.394 558.822 845.376C555.633 841.734 548.863 840.899 544.395 838.928C541.183 869.547 531.487 900.632 506.57 920.695C498.781 926.967 490.661 930.694 480.676 931.769ZM932.724 1210.14L935.249 1213.12C935.962 1212.75 936.478 1212.75 936.707 1211.93C941.783 1193.81 913.942 1061.9 903.709 1046.73C902.161 1044.43 900.521 1044.58 898.062 1044.16C896.441 1045.92 894.212 1047.47 894.328 1050.06C894.795 1060.41 902.107 1078.52 905.206 1089.39Q910.854 1109.83 914.889 1130.64C918.173 1148.09 920.104 1166.2 921.71 1183.89C922.532 1192.93 921.91 1204.61 924.486 1213.19C927.204 1211.97 929.851 1210.96 932.724 1210.14ZM553.826 1132.25L551.53 1148.14C555.704 1150.88 561.161 1152.56 566.193 1151.51C566.749 1151.39 566.913 1151.31 567.487 1151.11C571.824 1154.94 599.951 1159.59 606.051 1159.35C607.284 1159.3 608.25 1159.03 609.374 1158.54C600.987 1147.76 596.863 1115.22 591.11 1109.65C588.035 1113.7 581.895 1116.46 576.924 1117.17C567.086 1118.56 559.045 1111.25 551.5 1112.11C548.983 1115.64 549.136 1121.59 549.788 1125.81C550.198 1128.45 552.03 1130.41 553.826 1132.25ZM546.428 799.586L558.109 799.566C564.473 798.131 570.948 795.066 574.508 789.368C577.613 784.398 578.302 778.414 576.87 772.77C575.293 766.553 572.681 761.638 567.451 757.878C562.758 773.524 556.587 786.692 546.428 799.586ZM458.629 796.287C456.071 798.831 453.347 800.966 453.281 804.836C453.239 807.274 454.956 809.699 456.634 811.364C457.482 812.207 458.51 812.869 459.525 813.488C461.816 811.201 463.864 809.965 464.086 806.49C464.265 803.683 460.593 798.284 458.629 796.287ZM539.662 1178.3C540.18 1172.94 540.3 1167.73 540.239 1162.36C535.127 1166.31 525.68 1166.09 519.6 1165.32C512.317 1164.39 503.331 1162.16 496.977 1158.48C496.395 1161.83 495.365 1165.35 497.432 1168.34C502.514 1175.71 514.935 1179.01 523.41 1180.4C527 1180.98 535.399 1182.83 538.307 1180.5C539.073 1179.89 539.302 1179.18 539.662 1178.3ZM468.685 859.394C483.564 852.196 495.799 840.612 506.133 827.858L494.246 823.48C487.49 833.567 478.366 840.119 468.07 846.248C465.342 847.872 460.544 850.064 458.616 852.435C457.537 853.762 457.873 855.4 458.188 856.97C458.472 858.382 459.338 859.766 460.045 860.998L461.975 862.124C464.219 861.238 466.486 860.389 468.685 859.394ZM479.873 1049.44C481.067 1060.74 486.599 1083.21 478.768 1092.68C476.785 1095.07 474.044 1096.08 471.025 1096.29C465.85 1096.64 460.145 1094.95 455.094 1093.83L454.368 1094.87C455.897 1097.08 457.428 1099.46 460.344 1099.86C460.831 1099.93 461.001 1099.89 461.531 1099.86C464.348 1103.06 469.501 1105 473.729 1105.22C477.669 1105.42 481.048 1103.63 483.807 1100.93C489.997 1094.89 491.769 1086.64 491.726 1078.28C491.675 1068.27 489.543 1058.7 482.28 1051.4C481.545 1050.66 480.736 1050.02 479.873 1049.44ZM353.471 875.022C365.479 879.411 380.301 886.682 393.296 885.083C396.302 883.717 398.432 882.511 400.233 879.606C400.43 877.536 400.107 876.792 398.75 875.143C393.394 868.633 369.793 868.159 360.753 863.579L353.471 875.022ZM190.46 1502.15C190.328 1502.35 190.199 1502.54 190.065 1502.74C186.663 1507.75 179.929 1509.46 181.065 1516.44C181.728 1520.52 185.01 1524.5 188.344 1526.75C190.58 1528.26 192.818 1528.87 195.434 1529.38C197.752 1528.74 197.953 1528.6 199.488 1526.74C202.45 1527.91 202.971 1528.17 206.193 1527.31C208.238 1525.61 209.233 1523.95 209.473 1521.26C209.905 1516.44 207.673 1511.38 204.546 1507.8C200.996 1503.73 195.573 1502.8 190.46 1502.15ZM865.99 1801.83C865.843 1801.82 865.696 1801.81 865.549 1801.8C860.867 1801.33 857.217 1796.01 852.663 1799.84C850.083 1802 849.116 1806.47 848.999 1809.7C848.907 1812.23 849.165 1816.71 851.085 1818.6C855.774 1823.21 865.371 1825.01 871.742 1825.27C874.639 1823.81 874.761 1822.61 876.167 1819.76L878.104 1817.46C878.987 1811.21 869.727 1807.27 866.378 1802.41C866.246 1802.22 866.12 1802.02 865.99 1801.83ZM865.698 1846.34C868.595 1850.87 873.174 1858.51 878.622 1859.94C873.391 1844.71 869.086 1835.9 853.988 1828.54C849.921 1826.56 845.708 1824.84 841.893 1822.39C841.695 1822.56 841.5 1822.73 841.299 1822.89C835.418 1827.67 823.3 1825.3 819.983 1832.88C825.932 1835.46 834.298 1831.07 840.727 1832.63C850.288 1834.96 856.444 1843.66 865.698 1846.34ZM505.947 726.519C499.116 725.056 492.359 722.412 485.415 721.709C486.265 736.38 486.038 749.13 482.429 763.385C482.264 764.354 482.109 765.324 482.029 766.304C481.804 769.075 482.456 772.003 484.262 774.149L486.14 773.896C495.407 765.521 502.971 738.671 505.947 726.519ZM111.546 571.924C111.651 569.457 111.5 567.298 111.123 564.863C108.974 563.095 108.347 563.524 105.694 563.77C105.817 567.049 105.549 570.546 107.451 573.368L109.344 573.648L111.546 571.924ZM205.039 1956.86C204.929 1956.78 204.818 1956.69 204.709 1956.6C195.714 1949.29 189.904 1937.78 179.071 1932.23C172.624 1928.93 164.974 1928.29 158.423 1925.21C158.279 1925.44 158.138 1925.68 157.99 1925.9C151.773 1935.57 127.515 1938.45 126.153 1950.54C127.97 1953.76 129.916 1954.64 133.445 1955.64C144.339 1958.73 160.137 1961.57 170.796 1957.49C171.021 1957.41 171.261 1957.36 171.494 1957.3C174.742 1960.62 177.502 1960.33 181.986 1960.38C188.702 1960.46 197.878 1960.71 203.889 1957.48C204.129 1957.36 204.376 1957.24 204.615 1957.11C204.76 1957.03 204.898 1956.95 205.039 1956.86ZM903.051 1837.68C898.746 1832.04 894.486 1825.88 891.015 1819.69C887.549 1820.36 884.205 1822.3 880.923 1822.78C880.87 1822.9 880.815 1823.02 880.763 1823.14C879.853 1825.24 878.397 1827.91 878.576 1830.24C878.976 1835.47 886.976 1850.85 891.333 1854.48C891.576 1854.37 891.824 1854.27 892.063 1854.15C896.886 1851.77 901.535 1842.65 903.051 1837.68ZM443.688 785.183C447.067 783.176 448.049 779.44 448.987 775.697C449.854 772.239 450.321 769.263 449.723 765.733C446.757 769.49 440.751 775.52 441.338 780.646C441.531 782.323 442.725 783.857 443.688 785.183ZM137.266 623.506C147.268 625.924 155.166 624.452 164.078 619.092C168.911 616.185 175.2 611.59 176.62 605.713C177.236 603.166 176.239 599.659 175.771 597.112L174.753 595.838C169.891 602.053 162.535 610.8 154.181 611.766C147.337 612.557 142.992 611.289 136.208 613.831C134.977 615.793 134.228 617.615 134.734 620.02C135.122 621.868 135.77 622.505 137.266 623.506ZM413.051 876.298C422.433 874.45 432.527 873.223 440.96 868.533C442.569 866.849 443.033 865.027 443.365 862.789C443.802 859.853 443.506 857.532 441.723 855.207C433.232 858.35 423.719 862.32 414.516 861.154C409.487 860.517 404.855 859.13 399.722 859.009C399.137 860.703 399.441 861.379 399.791 863.107C402.24 865.181 406.489 864.775 409.638 865.439C410.789 869.051 412.005 872.655 413.051 876.298ZM154.258 601.807C163.695 599.013 168.992 593.438 173.7 584.852C177.29 578.303 179.005 571.199 176.821 563.927C176.315 562.241 176.011 562.288 174.605 561.405C164.922 581.532 179.918 576.76 157.105 591.268C153.088 593.823 151.657 595.088 153.273 600.242C153.488 600.926 153.804 601.27 154.258 601.807ZM108.085 661.445C107.911 658.942 108.214 658.208 106.327 656.446C102.392 652.771 86.6227 646.086 78.9535 640.022C80.029 647.095 81.5456 655.063 87.7413 659.538C93.2947 663.549 99.2867 663.058 105.679 661.899Q106.886 661.693 108.085 661.445ZM180.487 548.279C185.485 545.249 193.796 540.418 195.291 534.428C195.771 532.503 195.812 530.86 194.816 529.054C193.707 527.041 191.572 525.832 189.545 524.953C184.78 530.539 174.957 536.15 173.21 543.256C173.557 545.152 173.499 545.803 175.181 546.999C176.583 547.997 178.824 548.183 180.487 548.279ZM188.101 579.277C191.837 575.694 195.107 572.651 195.19 567.17C195.282 561.124 191.126 556.122 187.457 551.722C184.836 553.594 183.321 553.94 182.838 557.376C182.134 562.384 181.377 576.74 183.647 581.063L188.101 579.277ZM120.288 647.217C119.974 644.599 120.267 642.083 117.936 640.352C113.715 637.217 108.224 634.981 103.714 632.108C99.4704 629.405 95.2511 625.487 90.9183 623.162C89.838 622.582 88.5365 622.468 87.3337 622.47C88.709 629.825 93.3465 634.605 99.376 638.752C104.992 642.615 113.493 646.644 120.288 647.217ZM465.874 1161.26L466.432 1161.41C467.89 1161.79 468.973 1162.21 470.311 1162.88C473.344 1164.39 479.446 1164.4 482.65 1163.19C485.796 1161.99 487.891 1159.88 489.921 1157.28C489.962 1156.53 490.279 1155.15 489.779 1154.59C484.649 1148.78 473.905 1153.17 468.372 1149.69C461.78 1151.95 451.391 1152.55 446.491 1157.56C445.708 1159.73 445.193 1160.82 446.403 1163.06C447.694 1165.44 450.798 1166.93 453.379 1167.28C456.35 1167.68 461.608 1166.36 463.879 1164.4C464.824 1163.59 465.378 1162.38 465.874 1161.26ZM165.501 1527.13C168.708 1527.25 169.042 1527.21 171.731 1525.47C173.505 1522.85 174.175 1520.24 173.602 1517.13C173.123 1514.52 172.215 1512.61 170.632 1510.48C168.855 1509.43 167.315 1508.61 165.297 1508.13C160.578 1512.07 158.976 1515.41 158.501 1521.6C158.281 1524.46 158.566 1526.61 160.055 1529.13C161.92 1529.7 161.97 1529.74 163.653 1528.83C164.502 1528.36 164.911 1527.88 165.501 1527.13ZM589.926 1099.06C588.663 1095.21 587.617 1090.02 585.023 1086.9L583.429 1086.35C578.487 1092.18 572.856 1095.9 565.044 1096.44C556.986 1097.01 547.363 1093.42 539.835 1094.92C542.043 1096.73 545.59 1098.54 548.499 1098.56C554.333 1103.95 564.456 1105.8 572.203 1105.54C578.467 1105.32 585.504 1103.88 589.926 1099.06ZM495.524 1043.51C498.948 1055.81 507.117 1065.31 518.156 1071.61C529.125 1077.88 541.898 1080.21 554.185 1076.8C563.24 1074.28 573.154 1068.21 577.781 1059.76C578.445 1058.55 578.99 1057.29 579.509 1056.01C578.372 1049.78 578.498 1037.71 575.454 1032.76C571.551 1045.13 566.851 1058.52 554.516 1064.9C547.746 1068.4 540.235 1068.45 533.094 1066.06C518.605 1061.22 499.25 1046.03 492.401 1032.17C492.089 1031.54 491.807 1030.91 491.527 1030.26C492.265 1034.38 492.665 1040.29 495.524 1043.51ZM165.562 566.495C167.294 562.455 170.687 556.517 169.051 552.124C167.443 547.805 161.614 546.221 157.72 544.753Q157.201 544.559 156.679 544.376C154.484 549.272 153.77 551.998 155.738 557.169C157.514 561.836 160.289 563.985 164.394 566.624L165.562 566.495ZM199.438 492.227L207.899 497.539C207.777 492.882 208.755 481.618 205.54 478.236L204.279 478.029C199.27 479.273 193.988 479.649 189.47 482.207C189.297 483.14 188.875 483.823 189.436 484.645C191.744 488.034 196 490.11 199.438 492.227ZM271.745 703.712C270.576 701.192 269.809 699.266 267.316 697.764C265.341 697.76 264.764 697.544 263.295 699.066C259.78 702.708 258.43 709.895 257.055 714.696C257.379 715.963 257.65 717.611 258.528 718.613C259.664 719.911 260.705 719.661 262.277 719.766C263.657 719.142 265.008 718.449 266.085 717.362C270.383 713.023 271.792 709.786 271.745 703.712ZM290.886 717.102C291.435 710.79 291.123 707.646 287.292 702.546C284.898 701.313 284.85 701.161 282.26 701.796C279.667 703.764 278.931 706.298 277.841 709.245C277.958 713.14 277.782 717.146 279.58 720.703C281.639 721.832 282.576 721.824 284.862 721.178C286.302 720.771 287.457 719.662 288.619 718.771C289.363 718.201 290.135 717.664 290.886 717.102ZM573.505 1614.94C574.708 1615 575.012 1614.64 576.049 1614.09C574.607 1609.77 570.45 1604.15 566.254 1602.23C565.237 1601.76 564.14 1601.52 563.056 1601.27C561.759 1600.97 560.494 1600.5 559.223 1600.1C557.74 1603.37 556.637 1605.86 558.019 1609.45C559.13 1612.34 561.19 1615.22 564.122 1616.45C566.126 1617.28 568.355 1617.07 570.469 1616.92C571.48 1616.29 572.593 1615.7 573.505 1614.94ZM318.203 808.495C319.989 803.805 321.937 799.281 319.852 794.335C318.649 791.48 315.866 789.429 312.996 788.418C311.806 787.999 310.545 787.754 309.307 787.525C307.319 791.833 306.896 798.745 308.609 803.243C309.126 804.599 310.419 807.001 311.762 807.588C314.047 808.587 315.787 808.583 318.203 808.495ZM504.269 786.064L516.226 792.493C528.525 779.061 539.705 761.572 545.802 744.362L534.508 737.689C529.694 749.353 523.21 759.806 515.745 769.957C511.912 775.17 507.33 780.382 504.269 786.064ZM438.376 751.471C435.575 747.366 432.54 741.356 429.115 737.922C426.617 740.743 424.647 742.129 424.947 746.229C425.372 752.036 427.126 756.744 431.289 760.833L433.229 761.384C435.175 758.138 437.033 755.021 438.376 751.471ZM140.135 536.707C142.431 539.36 144.774 542.652 148.024 544.133C148.79 543.614 149.254 543.248 149.681 542.401C150.982 539.821 151.888 536.813 150.823 533.979C150.147 532.18 148.194 530.673 146.43 530.028C143.244 528.863 141.256 530.578 138.476 531.943L140.135 536.707ZM215.825 1897.36C216.009 1897.54 216.19 1897.72 216.375 1897.9C223.09 1904.27 233.078 1905.78 239.892 1913.24C247.981 1922.09 248.645 1934.45 255.818 1943.34C257.063 1943.16 257.562 1943.01 258.494 1942.15C261.75 1942.24 263.995 1942.78 266.878 1941.18C269.225 1936.51 268.088 1928.98 266.558 1924.18C260.941 1906.55 241.813 1898.97 227.07 1890.51C223.824 1892.79 219.703 1896.55 215.825 1897.36ZM234.359 704.588C236.453 700.939 240.776 695.416 240.597 691.118C239.077 688.83 237.891 687.965 235.061 687.358C234.882 687.319 234.698 687.304 234.516 687.277C231.732 691.467 228.518 696.689 229.833 701.999C230.105 703.097 230.534 704.088 231.043 705.092L232.453 705.789L234.359 704.588ZM501.225 784.034C508.866 766.998 521.964 753.496 528.347 735.557C524.122 733.565 517.97 730.213 513.33 729.815C511.839 729.687 511.859 729.862 510.711 730.807C506.524 747.559 499.518 763.506 488.121 776.6C492.184 779.514 496.812 781.7 501.225 784.034ZM117.118 570.501C115.045 573.808 113.514 576.936 114.366 580.951C114.851 583.237 116.264 584.485 118.037 585.856L121.819 586.6C123.32 583.931 124.946 582.215 124.113 578.99C123.378 576.144 119.197 572.629 117.118 570.501ZM438.503 783.819C427.06 796.333 408.771 807.26 400.185 817.479C398.339 819.676 397.611 820.875 397.647 823.724C398.637 824.263 399.28 824.756 400.445 824.624C416.581 818.459 434.817 811.142 444.342 795.696C442.623 791.653 441.075 787.407 438.503 783.819ZM232.502 1554.22L234.815 1553.38C235.878 1550.99 235.626 1548.83 234.773 1546.41C233.961 1544.11 232.02 1540.49 229.589 1539.67C228.646 1539.35 227.527 1539.28 226.539 1539.16C225.219 1544.29 224.688 1549.24 227.035 1554.15L229.024 1555.51C230.292 1555.21 231.44 1555.02 232.502 1554.22ZM866.121 1897.74C866.004 1897.59 865.884 1897.44 865.768 1897.29C853.037 1880.22 852.049 1863.26 826.568 1859.14C824.01 1858.73 820.109 1858.87 817.981 1857.38C814.824 1859.85 814.117 1858.74 811.04 1859.9C808.401 1860.89 805.712 1871.18 804.083 1873.82C804.323 1873.92 804.561 1874.02 804.803 1874.11C814.418 1877.75 823.341 1872.43 833.309 1879.14C839.299 1883.17 853.802 1903.9 856.502 1904.85L858.298 1908.54L859.999 1908.96C863.077 1906.9 864.937 1901.21 866.121 1897.74ZM454.061 865.102C455.648 861.746 456.064 859.032 454.856 855.43C454.089 853.144 452.75 851.549 450.974 849.977L448.052 849.161C447.004 853.937 445.996 859.335 448.639 863.771C451.055 865.463 451.114 865.408 454.061 865.102ZM141.005 601.331C140.571 597.446 139.819 595.564 136.653 593.032C134.099 590.988 130.833 588.901 127.825 587.63C127.327 590.639 126.77 593.234 128.658 595.922C131.083 599.375 136.334 600.731 140.324 601.253C140.551 601.283 140.778 601.305 141.005 601.331ZM464.709 834.434C469.634 831.532 480.821 826.56 482.383 821.07C482.711 819.918 482.852 819.198 482.257 818.074C481.468 816.582 479.407 815.312 478.076 814.303C472.961 820.122 463.039 826.614 460.546 833.921L461.261 835.299C462.513 835.134 463.555 834.998 464.709 834.434ZM601.354 792.569C596.076 789.724 590.82 786.628 585.315 784.245C583.349 789.161 581.523 794.2 579.276 798.993C589.465 802.659 597.368 810.987 604.5 818.806L607.243 821.853C610.13 821.476 611.661 819.37 613.473 817.111C617.027 812.679 619.236 809.266 623.823 805.597C614.115 792.741 599.683 772.308 583.434 767.361C584.24 778.895 594.603 784.141 601.354 792.569ZM539.518 1118.73C541.111 1117.58 541.242 1117.13 542.023 1115.4C538.127 1110.11 533.468 1110.47 527.344 1109.54C519.503 1108.35 500.637 1107.6 494.999 1101.52C494.176 1104.86 492.812 1109.45 494.595 1112.7C496.67 1116.48 502.64 1118.5 506.555 1119.34C514.592 1121.06 532.286 1122.66 539.518 1118.73ZM138.94 577.576C137.421 580.483 136.517 582.226 136.908 585.596C138.062 587.719 138.945 589.424 141.505 590.132C142.977 590.538 144.828 590.433 146.349 590.429C147.216 588.193 148.282 586.753 147.325 584.362C146.097 581.293 141.657 579.176 138.94 577.576ZM350.324 765.815C351.004 770.519 352.138 778.145 356.046 781.267C356.162 781.36 356.286 781.441 356.406 781.527L357.484 781.168C358.274 779.224 359.263 777.279 359.398 775.163C357.887 772.253 355.862 766.75 352.903 765.255C352.251 764.926 351.022 765.584 350.324 765.815ZM528.641 839.385C524.313 838.265 519.9 837.268 515.655 835.866C506.717 853.724 489.894 883.235 469.934 890.498C469.638 890.606 469.348 890.727 469.053 890.838C468.877 890.904 468.698 890.966 468.52 891.03C468.754 896.981 468.863 902.971 469.273 908.911C472.108 907.225 475.448 905.607 477.97 903.508C503.301 889.368 517.011 864.888 528.641 839.385ZM331.383 905.289C329.411 920.663 330.645 932.548 340.432 945.415C350.7 958.915 367.063 967.289 383.747 969.398C393.143 970.585 401.107 969.194 410.086 966.756C411.108 965.671 412.216 964.52 412.753 963.105C414.434 958.675 411.742 954.411 409.776 950.588C401.815 956.293 391.682 957.736 382.124 956.199C365.887 953.588 352.788 941.993 343.587 928.948C338.42 921.623 334.606 913.63 331.383 905.289ZM300.874 1931.08C304.577 1933.94 313.578 1935.83 318.217 1935.34C319.372 1935.22 320.467 1934.8 321.502 1934.29C324.397 1935.34 327.315 1935.54 330.155 1934.16C331.647 1933.43 332.053 1932.39 332.941 1931.03C333.504 1927.74 332.336 1925.08 330.462 1922.43C327.779 1918.64 318.367 1911.11 314 1909.28C311.41 1911.53 310.23 1912.23 306.72 1911.98C304.435 1911.82 303.819 1911.37 301.761 1912.74C299.926 1917.99 300.821 1925.46 300.874 1931.08ZM604.324 1579.59C606.008 1583.39 607.975 1587.8 612.111 1589.46C615.749 1590.92 618.967 1589.78 622.501 1588.67C625.626 1590.72 628.196 1592.16 632.023 1591.28C635.214 1590.54 637.588 1588.72 640.025 1586.63C633.118 1582.47 628.695 1572.49 623.185 1566.7C619.342 1573.64 613.458 1576.98 605.986 1579.14Q605.161 1579.39 604.324 1579.59ZM138.983 513.59C136.574 514.697 135.099 515.19 134.216 517.943C133.296 520.81 134.091 524.485 134.654 527.35C137.412 525.658 140.835 524.17 142.029 520.98C142.311 517.957 140.601 515.949 138.983 513.59ZM318.449 700.249C317.726 703.813 317.124 708.307 319.297 711.527C320.409 713.173 322.391 714.39 324.376 714.553C326.31 714.712 328.349 714.236 330.22 713.794C331.25 710.516 332.224 707.795 331.677 704.32C329.922 702.03 328.904 701.012 325.878 700.662C323.439 700.381 320.904 700.267 318.449 700.249ZM114.207 547.674C112.872 550.419 111.616 553.365 112.74 556.446C113.596 558.789 114.404 559.343 116.438 560.499L117.455 560.363C118.939 557.845 120.961 555.241 120.458 552.189C118.944 549.712 116.717 548.867 114.207 547.674ZM327.672 783.175C326.678 786.968 325.031 791.605 327.227 795.263C328.763 797.823 331.488 798.728 334.182 799.58C335.386 795.866 335.238 792.869 333.43 789.342C332.165 786.874 330.268 784.33 327.672 783.175ZM132.048 536.778L130.605 531.236C127.76 530.319 127.269 529.986 124.349 531.096C122.16 533.398 121.167 535.773 121.255 538.936C121.313 540.989 121.678 542.562 123.033 544.171L124.676 544.12C127.35 540.726 128.064 538.68 132.048 536.778ZM852.605 1916.95C846.485 1903.69 840.282 1890.82 825.752 1885.31C822.355 1884.02 818.679 1883.62 815.301 1882.36C813.52 1881.7 812.135 1880.12 810.306 1879.29C804.747 1884.22 798.275 1880.78 796.051 1889.57C796.611 1891.7 797.053 1891.77 798.87 1892.81C806.887 1897.43 818.854 1898.55 825.872 1904.3C830.992 1908.49 836.673 1923.63 840.5 1925.64L842.412 1928.84C844.613 1928.92 845.369 1928.9 847.065 1927.2C849.47 1924.78 851.794 1920.27 852.605 1916.95ZM112.015 603.126C110.921 606.248 109.817 608.687 110.883 611.981C113.328 615.853 119.449 617.405 123.45 619.359C123.737 615.457 124.284 612.957 121.528 609.763C119.258 607.134 115.216 604.409 112.015 603.126ZM403.935 867.064C401.951 869.721 400.577 871.61 401.176 875.136C401.638 877.85 402.617 880.322 404.279 882.516C406.962 879.385 408.778 877.291 409.002 873.077C407.887 869.94 406.577 868.898 403.935 867.064ZM123.739 559.363C122.344 562.24 121.484 564.538 122.524 567.715C123.49 570.667 125.97 573.365 128.754 574.748C130.111 575.422 131.546 575.941 132.972 576.447C134.032 574.055 135.331 572.424 134.249 569.771C133.05 566.829 127.478 560.487 124.541 559.577C124.277 559.495 124.006 559.434 123.739 559.363ZM877.462 1124.7C880.535 1128.53 886.117 1129.26 890.754 1129.78C894.818 1130.23 898.726 1130.3 902.777 1129.61C901.063 1120.56 894.956 1087.68 890.984 1081.03C886.748 1081.55 883.295 1082.79 879.293 1080.56C871.734 1085.53 863.486 1085.26 854.899 1083.47C853.345 1083.14 852.122 1082.62 850.762 1081.8L850.201 1081.46C849.82 1081.23 849.455 1080.97 849.092 1080.71C850.693 1088.69 851.861 1096.52 852.507 1104.64C852.852 1108.98 852.594 1114.01 853.353 1118.25C859.436 1123.08 869.901 1124.67 877.462 1124.7ZM156.662 582.816C158.24 579.704 159.903 577.001 159.633 573.401C157.567 568.251 151.426 565.647 147.086 562.577C145.566 565.753 144.021 567.61 145.236 571.248C146.658 575.504 151.361 580.28 155.335 582.243C155.767 582.456 156.217 582.631 156.662 582.816ZM341.076 692.65C337.933 694.024 336.677 694.142 334.864 697.134C334.95 700.423 335.32 701.829 337.793 704.147C339.017 705.295 340.532 706.934 342.123 707.513C344.904 705.089 347.523 703.189 348.482 699.469C348.033 697.022 347.953 696.306 345.824 694.735C344.495 693.753 342.623 693.207 341.076 692.65ZM133.382 543.756C131.222 546.541 130.028 547.715 130.578 551.504C131.072 554.904 132.639 557.993 135.467 560.015C137.277 561.309 138.864 561.836 141.107 561.99C141.843 561.577 142.895 561.274 143.13 560.443C143.88 557.797 143.537 554.189 142.286 551.728C141.14 549.47 138.833 547.308 137.111 545.46L133.382 543.756ZM781.561 1905.5C789.134 1912.74 802.014 1914.33 810.68 1920.71L811.161 1921.05C815.068 1923.92 822.612 1939.73 826.463 1939.24C827.208 1939.15 827.824 1938.86 828.497 1938.55C831.664 1937.99 834.025 1936.34 835.897 1933.72C827.517 1918.68 822.239 1909.33 805.206 1903.87C799.732 1902.11 794.866 1900.3 790.344 1896.63C787.737 1899.86 785.257 1903.46 781.561 1905.5ZM890.276 1019.8C887.961 1021.62 885.962 1022.52 885.424 1025.65C885.055 1027.8 885.61 1031.08 886.893 1032.81C887.75 1033.97 889.112 1034.71 890.355 1035.39C892.198 1035.49 892.95 1035.32 894.611 1034.52L897.054 1034.98C898.268 1032.86 898.302 1031.46 897.738 1029.04C896.986 1025.81 895.269 1023.11 893.164 1020.62L890.276 1019.8ZM246.922 692.69C243.699 699.028 241.211 704.54 243.605 711.735C244.277 713.756 244.598 713.98 246.227 715.194C248.674 714.658 249.925 713.814 251.337 711.654C252.431 709.98 253.216 707.929 253.985 706.08C253.945 703.229 253.776 700.437 253.503 697.599C252.315 694.854 249.459 693.9 246.922 692.69ZM309.619 719.124C310.956 714.296 312.773 709.563 310.626 704.726C308.417 702.161 306.446 701.537 303.311 700.56C300.439 702.589 298.869 704.45 298.314 708.002C297.87 710.839 298.343 713.539 300.091 715.889C301.302 717.518 302.893 718.913 304.957 719.204C306.436 719.413 308.131 719.222 309.619 719.124ZM370.332 847.28C368.954 850.319 368.018 851.413 368.587 854.759C372.967 860.339 382.01 860.836 388.562 862.207C388.78 858.986 388.47 857.494 386.312 855.002C382.656 850.78 375.754 848.064 370.332 847.28ZM296.028 1863.55C295.878 1863.68 295.732 1863.81 295.579 1863.93C291.134 1867.42 283.45 1866.66 280.287 1871.01L280.331 1871.52C280.711 1876.16 280.266 1878.82 278.026 1882.91C278.98 1887.26 289.453 1894.8 292.72 1899.4L295.5 1900.08C297.647 1902.05 301.77 1902.85 304.622 1902.61C306.879 1902.42 308.26 1900.78 309.526 1899.08C311.524 1896.38 311.424 1891.99 310.872 1888.83C309.522 1881.08 302.316 1868.19 296.028 1863.55ZM129.135 806.499C133.915 806.196 137.878 806.044 141.26 802.304C144.202 799.051 146.18 794.756 146.05 790.295C145.973 787.633 145.132 787.023 143.394 785.208L140.129 785.018C134.594 786.718 128.331 787.855 124.101 792.009C123.192 794.479 122.626 795.769 123.704 798.368C124.883 801.211 126.88 804.387 129.135 806.499ZM158.745 631.948C168.071 658.535 153.906 699.176 148.628 726.56C147.111 734.426 147.254 745.991 143.854 753.076C142.869 755.129 141.591 757.141 140.391 759.076C141.286 764.473 141.318 771.241 145.706 774.868C147.916 774.634 149.441 773.781 151.363 772.744C158.907 771.255 166.295 768.679 173.636 766.4C162.13 753.331 158.075 740.395 159.172 723.106C160.123 708.123 176.715 633.316 171.089 625.336C171.001 625.212 170.878 625.116 170.773 625.007L158.745 631.948ZM603.501 1622.61C605.853 1624.44 607.409 1625.2 610.474 1624.9C615.255 1624.43 619.335 1620.67 622.19 1617.09C625.372 1611.72 626.676 1604.26 627.812 1598.18C624.011 1600.12 616.406 1600.9 612.274 1599.53C602.467 1596.28 598.872 1586.46 591.375 1580.64C588.965 1585.53 584.664 1593.88 579.055 1595.79C578.532 1595.97 578.089 1595.98 577.531 1596.03C579.103 1599.49 580.799 1602.29 583.13 1605.28C587.756 1605.35 590.727 1600.88 595.329 1601.09C596.545 1607.07 588.629 1614.88 594.401 1619.8C596.224 1621.36 601.209 1622.73 603.501 1622.61ZM218.463 1559.21C216.471 1564.23 215.461 1568.65 217.675 1573.81C219.8 1578.76 223.918 1583.52 229.083 1585.36C231.933 1586.38 234.886 1586.27 237.615 1584.96C239.9 1583.86 241.516 1582.39 242.498 1580.01C244.686 1578.69 245.981 1577.5 246.694 1574.97C247.481 1572.17 247.1 1568.12 245.43 1565.72C244.162 1563.89 243.063 1563.6 241.091 1562.74C235.594 1563.78 229.986 1567.1 224.875 1563.6C222.714 1562.12 221.109 1559.72 218.463 1559.21ZM494.079 1184.49C493.202 1187.95 490.419 1195.11 492.57 1198.29C497.172 1205.09 513.537 1209.04 521.528 1209.83C525.813 1210.25 530.564 1210.5 534.034 1207.59C534.199 1207.45 534.355 1207.3 534.516 1207.16L537.362 1207.24C539.341 1203.6 538.474 1199.52 538.068 1195.47C525.843 1197.76 505.777 1192.56 495.458 1185.65C494.931 1185.3 494.533 1184.93 494.079 1184.49ZM827.965 1837.99C827.812 1838.11 827.661 1838.23 827.505 1838.34C822.044 1842.2 816.478 1840.78 812.552 1847.57C812.865 1848.99 812.709 1849.61 814.027 1850.42C817.166 1852.34 821.734 1852.45 825.332 1852.84C849.968 1855.52 852.119 1863.28 866.454 1882.43C867.769 1885.05 868.205 1886.83 870.732 1888.38C874.681 1886.2 875.901 1880.84 877.309 1876.75C867.689 1863.7 858.612 1842.37 840.664 1839.36C836.671 1838.69 831.626 1839.61 827.965 1837.99ZM180.835 1915.77C179.204 1917.03 174.042 1919.87 173.666 1921.57C179.185 1925.17 185.935 1926.75 191.158 1930.57C200.67 1937.53 205.188 1948.39 213.479 1956.07C215.782 1956.69 217.663 1956.48 219.992 1956.26C221.862 1955 222.751 1954.18 223.572 1952.06L223.139 1947.7C221.286 1945.15 220.767 1941.82 219.452 1938.96C213.35 1925.71 193.228 1920.59 180.835 1915.77ZM496.945 1129.21C496.381 1134.32 496.049 1139.17 496.245 1144.33C503.406 1150.51 520.995 1152.39 530.191 1151.79C534.114 1151.54 537.702 1151.14 540.515 1148.16C541.786 1143.04 542.133 1138.12 542.413 1132.88C537.702 1136.61 527.47 1136.14 521.793 1135.5Q518.598 1135.14 515.435 1134.57Q512.271 1133.99 509.155 1133.2Q506.038 1132.41 502.982 1131.41Q499.926 1130.41 496.945 1129.21ZM456.011 876.799C460.709 923.539 467.086 962.05 481.547 1007.04C482.945 999.175 467.675 930.345 465.79 914.029C464.177 900.065 467.483 882.118 462.832 869.051C462.151 867.137 462 866.524 460.139 865.649C459.651 865.974 459.193 866.311 458.783 866.736C456.061 869.564 455.953 873.119 456.011 876.799ZM551 746.779Q550.613 748.516 550.144 750.232Q549.675 751.948 549.125 753.64Q548.576 755.332 547.947 756.997Q547.317 758.661 546.61 760.293Q545.902 761.926 545.118 763.523Q544.334 765.12 543.476 766.678Q542.617 768.237 541.685 769.752Q540.754 771.268 539.751 772.738Q538.749 774.208 537.678 775.629Q536.607 777.05 535.47 778.418Q534.333 779.786 533.132 781.1Q531.932 782.413 530.67 783.667Q529.409 784.922 528.089 786.115Q526.77 787.309 525.395 788.438Q524.02 789.568 522.594 790.631Q521.167 791.695 519.692 792.689C523.782 793.873 528.039 795.444 532.217 796.189C535.228 796.818 538.678 798.081 541.594 796.8C548.967 789.068 560.929 767.687 560.325 756.779C560.201 754.531 559.219 752.986 557.56 751.485C555.636 749.744 553.227 748.115 551 746.779ZM473.23 723.67C474.178 732.215 474.075 740.282 472.682 748.777C469.934 765.535 462.78 780.322 478.495 792.858C493.873 805.124 525.017 817.315 544.771 814.935C552.353 814.021 565.438 810.587 570.342 804.29C571.311 803.046 572.069 801.312 571.956 799.696C571.945 799.549 571.899 799.406 571.87 799.261L571.163 799.676L570.705 798.263L570.648 799.794C565.424 802.348 560.437 805.184 554.516 805.418C525.724 806.553 508.8 794.871 484.993 781.922C483.704 781.004 482.355 780.042 481.316 778.839C475.87 772.53 476.715 763.586 477.431 755.886C479.64 743.355 481.277 731.576 478.705 718.956C475.002 717.86 470.673 716.066 466.803 716.476C466.801 717.448 466.562 717.658 467.279 718.38C469.166 720.282 471.156 721.976 473.23 723.67ZM450.91 809.901C437.26 826.042 424.046 835.377 402.475 837.53C400.93 837.684 399.481 837.642 397.943 837.48L397.398 837.428C394.187 837.087 389.895 832.341 388.314 832.921C388.273 836.864 389.489 840.374 390.637 844.107C401.655 848.74 418.245 847.353 429.005 842.991C437.235 839.655 450.798 832.437 454.247 823.979C455.859 820.027 454.255 816.288 452.639 812.661C452.159 811.582 451.818 810.704 450.91 809.901ZM150.385 636.632C144.933 649.574 133.284 699.351 132.503 713.033C132.046 721.042 133.061 728.552 135.375 736.214C142.537 715.704 157.336 658.98 152.381 638.688L150.385 636.632ZM405.421 883.326C400.259 900.521 412.307 921.762 414.775 939.124C416.976 946.077 418.956 953.253 421.805 959.967C434.797 990.852 457.732 1019.67 478.619 1045.82L479.893 1046.03C479.851 1041.92 457.354 1013.55 453.304 1005.95C443.584 991.961 434.434 976.823 428.328 960.865C419.517 937.833 418.767 913.819 411.299 892.579C409.972 888.806 408.744 885.716 405.421 883.326ZM458.057 1023.9C458.521 1037.03 463.331 1060.8 453.469 1071.27C450.869 1074.03 447.395 1075.19 443.655 1075.16C435.678 1075.1 424.951 1066.83 418.573 1068.37C417.684 1070.55 417.556 1072.01 418.645 1074.24C419.988 1076.99 423.16 1079.41 426.129 1080.16C426.686 1080.3 427.006 1080.29 427.607 1080.33C429.596 1082.39 432.251 1085.02 435.231 1085.52C435.565 1085.57 435.908 1085.53 436.246 1085.53C441.929 1087.47 450.615 1086.41 455.932 1083.71C462.417 1080.42 466.841 1073.8 468.945 1067Q469.235 1066.03 469.477 1065.04Q469.719 1064.06 469.912 1063.06Q470.105 1062.07 470.248 1061.06Q470.391 1060.06 470.485 1059.05Q470.578 1058.04 470.621 1057.02Q470.665 1056.01 470.658 1054.99Q470.651 1053.98 470.594 1052.97Q470.537 1051.95 470.43 1050.95Q470.323 1049.94 470.166 1048.93Q470.009 1047.93 469.803 1046.94Q469.596 1045.95 469.341 1044.96Q469.086 1043.98 468.783 1043.01Q468.479 1042.05 468.128 1041.09Q467.778 1040.14 467.38 1039.21Q466.982 1038.27 466.539 1037.36Q466.096 1036.45 465.608 1035.56C463.434 1031.55 460.675 1027.65 458.057 1023.9ZM200.108 1905.87C198.483 1907.58 196.868 1909.3 195.159 1910.93C199.71 1916.47 215.013 1922.68 224.019 1932.91C227.019 1937.57 229.68 1947.45 233.339 1950.95C234.496 1952.06 235.811 1951.82 237.277 1951.81C240.789 1951.77 242.471 1951.01 244.875 1948.52C246.136 1944.8 245.667 1941.8 244.485 1938.1C241.709 1929.41 233.695 1913.62 225.344 1909.43C220.386 1906.94 214.848 1905.9 209.895 1903.25L209.183 1902.87C208.893 1903.12 208.603 1903.38 208.299 1903.61C205.669 1905.68 203.399 1906.28 200.108 1905.87ZM121.725 460.556C121.29 462.846 120.706 463.774 121.976 465.825C123.547 468.359 127.372 471.153 129.891 472.853C140.303 479.874 151.59 485.966 162.231 492.707C175.344 501.014 241.416 546.001 250.545 548.045C251.813 548.329 253.413 548.08 254.686 547.897L254.597 545.224C241.884 534.481 226.065 526.021 211.901 517.185C191.516 504.468 172.045 490.376 151.715 477.617C142.005 471.524 131.16 466.934 121.725 460.556ZM245.292 1885.15C242.923 1886.33 240.542 1887.48 238.303 1888.91C244.246 1894.78 258.673 1895.11 268.297 1909.29C272.906 1916.08 272.47 1933.56 278.82 1937.08C280.458 1936.26 281.987 1935.44 283.495 1934.39C286.029 1934.41 287.551 1933.84 289.787 1932.69C292.307 1929.75 292.626 1926.76 292.338 1923.05C291.625 1913.85 286.112 1901.76 278.992 1895.75C273.536 1891.15 261.341 1888.1 254.27 1886.74C251.315 1886.18 247.918 1886.68 245.292 1885.15ZM348.599 884.057C344.888 887.152 341.799 890.092 338.803 893.909C345.566 908.224 356.109 919.724 371.277 925.317C380.251 928.627 390.842 929.456 400.142 926.998C402.453 924.901 403.64 923.666 403.741 920.39C403.814 918.047 403.523 916.276 402.381 914.182L400.274 912.629C390.915 915.763 386.228 917.896 376.56 913.005C365.416 907.366 354.424 895.01 348.599 884.057ZM441.632 1009.23C438.795 1021.47 436.136 1038.45 424.535 1045.5C420.212 1048.12 415.364 1048.36 410.565 1047.02C396.864 1043.2 382.253 1030.56 372.295 1020.79C368.701 1017.26 365.663 1013.21 361.589 1010.21C363.067 1014.34 365.404 1023.71 369.455 1025.75C370.164 1033.24 376.552 1040.79 382.111 1045.44C393.072 1054.59 407.673 1059.5 421.959 1058.12C430.166 1057.32 438.102 1054.04 443.295 1047.43C449.689 1039.3 449.982 1027.87 448.7 1018C448.366 1015.43 447.733 1013.12 445.573 1011.47C444.386 1010.56 443.032 1009.75 441.632 1009.23ZM829.432 1044.62C831.322 1051.55 835.321 1069.65 840.982 1073.85L844.472 1072.65C850.732 1074.6 866.977 1066.44 872.826 1063.35C876.583 1061.37 881.003 1059.15 883.462 1055.59C878.742 1048.85 876.663 1029.92 869.114 1027.37C863.321 1031.56 836.135 1045.99 830.262 1044.82C829.983 1044.77 829.709 1044.69 829.432 1044.62ZM569.494 972.872C567.964 988.734 564.026 1006.87 551.033 1017.55C543.984 1023.34 535.302 1025.37 526.322 1024.39C507.397 1022.34 494.813 1008.69 482.101 996.107C483.718 1001.48 485.176 1006.97 487.096 1012.25C492.99 1023.4 503.414 1032.39 515.547 1036.07C528.69 1040.05 542.402 1038.13 554.373 1031.58C561.688 1027.58 568.071 1022.18 573.603 1015.97C573.124 1009.48 572.152 975.751 569.494 972.872ZM830.624 1020.59Q843.919 1007.38 858.537 995.653C854.134 985.233 846.512 965.367 838.604 957.768C827.578 969.603 817.874 986.327 812.926 1001.69L828.468 1021.2L829.993 1021.37L830.624 1020.59ZM432.15 994.32C430.495 991.12 427.756 983.38 425.283 981.349C423.667 983.674 422.942 986.481 421.313 988.663C417.389 993.921 409.933 997.788 403.567 998.925C392.831 1000.84 381.081 996.325 372.482 990.104C360.969 981.774 347.638 960.993 336.896 955.947C337.864 971.54 341.822 984.896 354.061 995.608C367.541 1007.41 387.457 1013.11 405.183 1011.73C413.118 1011.11 422.985 1009.29 428.296 1002.82C429.639 1001.19 432.421 997.317 432.256 995.159C432.234 994.878 432.185 994.6 432.15 994.32ZM129.085 629.541C125.743 656.026 115.977 680.841 111.924 707.109C109.962 719.829 112.917 732.417 111.727 744.974C111.013 752.499 105.035 766.297 109.76 772.452C111.993 775.361 116.348 776.555 119.822 776.956Q122.351 777.223 124.892 777.306C127.974 775.41 129.92 774.054 130.883 770.339C133.737 759.323 125.462 745.727 122.691 735.105C121.545 730.711 121.283 725.68 121.121 721.146C120.821 712.77 121.491 703.915 123.074 695.69C125.823 681.404 139.451 643.539 136.152 631.68C134.203 629.691 131.69 629.775 129.085 629.541Z"/>
		<path fill="#13100F" transform="scale(0.510742 0.510742)" d="M261.592 768.502C262.297 766.966 263.148 764.887 264.536 763.841C266.123 762.645 268.77 762.437 270.61 761.537C274.618 759.576 277.986 756.34 282.155 754.707C285.083 755.861 286.353 758.255 288.014 760.773C284.821 762.367 281.7 760.488 280.171 761.915C278.576 766.78 278.076 769.695 279.6 774.716C280.691 775.353 281.82 775.858 282.633 776.839C278.969 780.695 272.537 783.45 270.051 787.693L270.65 789.422C273.71 790.568 276.681 790.301 279.887 790.177C283.722 787.497 284.713 783.978 286.349 779.708C286.087 783.32 284.344 790.652 286.106 793.767C288.862 794.904 289.843 794.29 292.63 793.541C290.183 796.275 288.861 798.328 289.016 802.167C289.161 805.732 290.588 809.593 293.412 811.911C294.435 812.751 295.623 813.06 296.893 813.307C299.176 812.427 300.479 811.79 301.5 809.337C301.943 808.275 302.171 807.129 302.391 806.004C303.563 809.482 304.673 811.966 303.378 815.462C299.969 817.279 295.282 814.835 292.823 818.36C293.574 820.399 295.578 821.989 297.58 822.813C298.872 823.345 300.4 823.524 301.778 823.708C300.471 826.449 299.046 828.398 296.304 829.538C292.792 828.191 290.357 822.853 288.064 819.856C285.942 819.949 282.822 825.646 280.026 827.159C268.992 827.517 272.532 817.9 266.145 813.708C267.296 811.741 267.969 808.298 268.312 806.044C269.016 801.416 264.788 800.507 262.561 797.329C261.187 795.369 260.237 792.866 260.731 790.499L262.114 790.468L265.865 794.74L267.141 794.01C265.999 789.12 260.204 785.479 257.484 781.308C256.324 779.529 256.012 778.648 256.474 776.564L258.806 776.376L259.876 775.114C259.675 772.488 260.512 770.799 261.592 768.502ZM282.934 811.424C283.556 807.306 284.557 802.028 281.712 798.478C279.862 796.171 277.517 795.837 274.776 795.477C274.455 799.255 273.341 805.045 275.779 808.182C277.18 809.985 279.565 811.134 281.854 811.416C282.165 811.455 282.645 811.43 282.934 811.424ZM272.432 778.813C273.418 775.764 275.282 771.704 274.233 768.597C271.418 766.58 268.808 766.798 265.392 766.993C265.355 770.858 264.943 776.316 267.896 779.272C268.459 779.836 269.595 779.715 270.381 779.786L272.432 778.813Z"/>
		<path fill="#2D2324" transform="scale(0.510742 0.510742)" d="M418.525 1255.43C422.065 1255.99 424.341 1258.18 426.696 1260.72C437.947 1272.82 454.659 1301.45 454.003 1318.31L452.961 1318.92C444.71 1313.26 426.766 1278.62 422.497 1268.27L420.415 1268.53C412.724 1273.68 403.427 1298.58 397.044 1307.77C393.621 1312.7 390.228 1316.79 384.105 1317.88C395.739 1308.35 406.686 1271.34 418.525 1255.43Z"/>
		<path fill="#2D2324" transform="scale(0.510742 0.510742)" d="M518.411 1341.69C519.401 1343.75 520.309 1345.71 520.336 1348.04C520.522 1363.92 501.783 1420.97 491.593 1431.56L490.236 1433.52C489.864 1428.99 515.354 1349.57 518.411 1341.69Z"/>
		<path fill="#2D2324" transform="scale(0.510742 0.510742)" d="M335.859 593.356C341.637 592.981 348.369 593.621 353.129 597.277C356.312 599.721 358.023 603.459 358.455 607.389C359.863 620.215 351.006 634.07 343.173 643.563C336.223 645.208 329.831 645.579 322.767 644.989C316.118 644.399 310.854 642.838 305.337 638.918C301.411 636.129 298.653 632.035 297.866 627.253C296.925 621.536 298.586 616.25 302.034 611.672C309.971 601.133 323.105 595.124 335.859 593.356Z"/>
		<path fill="#2D2324" transform="scale(0.510742 0.510742)" d="M264.574 583.911C275.169 590.738 276.08 603.897 283.016 606.88C287.063 606.834 290.582 603.191 293.622 600.783C288.167 610.163 281.946 617.64 274.366 625.392C271.793 628.134 268.886 631.754 265.446 633.43C263.134 634.556 261.631 634.105 259.371 633.386C256.986 631.141 256.231 628.77 255.883 625.595C254.869 616.342 259.007 591.031 264.574 583.911Z"/>
		<path fill="#2D2324" transform="scale(0.510742 0.510742)" d="M284.1 623.494L285.555 624.096C288.022 626.921 289.051 631.047 289.73 634.657C291.315 643.073 291.131 656.9 286.072 664.005C284.931 665.608 284.841 665.678 282.921 665.976C279.163 662.166 279.377 654.523 279.267 649.458C276.724 651.575 275.102 654.957 273.023 657.548C271.515 659.427 270.516 660.492 268.087 660.809C267.03 659.336 266.464 658.068 266.244 656.249C264.891 645.066 277.586 631.514 284.1 623.494Z"/>
		<path fill="#2D2324" transform="scale(0.510742 0.510742)" d="M458.283 548.608C459.918 551.437 460.815 555.756 461.133 558.99C462.844 576.391 447.814 592.907 437.434 605.293L436.684 605.537C435.869 601.742 446.794 583.986 449.017 579.074C453.499 569.163 456.194 559.256 458.283 548.608Z"/>
	</g>
	<g>
		<path fill="#13100F" transform="scale(0.510742 0.510742)" d="M345.042 790.806C346.675 790.712 348.26 790.997 349.873 791.223L350.57 792.718L348.437 795.254L348.673 796.911C353.195 797.08 353.747 791.349 358.119 790.299C357.569 794.072 357.228 797.364 355.055 800.586C352.543 802.241 350.565 803.156 347.485 802.483C346.659 802.303 345.848 802.083 345.038 801.844C343.325 798.652 344.27 798.133 343.937 794.917C343.789 793.486 343.791 792.402 343.943 790.97L345.042 790.806Z"/>
		<path fill="#2D2324" transform="scale(0.510742 0.510742)" d="M404.462 1220.56C404.643 1220.64 404.833 1220.69 405.005 1220.78C408.953 1222.92 411.469 1230.2 412.523 1234.3C413.536 1238.24 414.216 1244.18 412.089 1247.87L409.223 1247.15C406.635 1242.96 405.438 1237.62 404.393 1232.86C400.767 1238.43 395.826 1244.49 389.724 1247.39C387.923 1250.04 385.165 1252.24 382.387 1253.8C380.054 1255.1 376.431 1256.78 373.836 1256.09C378.237 1249.55 384.639 1244.03 390.027 1238.28C395.238 1232.71 399.943 1226.7 404.462 1220.56Z"/>
		<path fill="#2D2324" transform="scale(0.510742 0.510742)" d="M397.403 1324.69C397.695 1324.86 397.991 1325.01 398.28 1325.18C404.748 1328.99 407.029 1337.97 408.682 1344.85C410.196 1351.14 413.765 1367.64 410.502 1373L408.796 1372.9C405.236 1368.12 398.879 1335.8 395.835 1327.34L397.403 1324.69Z"/>
		<path fill="#2D2324" transform="scale(0.510742 0.510742)" d="M717.956 1287.94Q718.223 1287.84 718.497 1287.75Q718.77 1287.67 719.049 1287.6Q719.327 1287.53 719.609 1287.49Q719.891 1287.44 720.176 1287.41Q720.461 1287.38 720.747 1287.37Q721.033 1287.36 721.319 1287.37Q721.606 1287.38 721.891 1287.4Q722.176 1287.43 722.458 1287.48Q722.741 1287.52 723.02 1287.59Q723.298 1287.65 723.572 1287.74Q723.846 1287.82 724.114 1287.92Q724.382 1288.02 724.643 1288.14Q724.904 1288.26 725.156 1288.39Q725.408 1288.53 725.651 1288.68Q725.894 1288.83 726.126 1289Q726.358 1289.17 726.579 1289.35Q726.8 1289.53 727.008 1289.73Q727.216 1289.93 727.411 1290.14Q727.605 1290.34 727.786 1290.57Q727.966 1290.79 728.132 1291.02Q728.297 1291.26 728.447 1291.5Q728.596 1291.74 728.73 1292Q728.863 1292.25 728.979 1292.51Q729.095 1292.77 729.194 1293.04Q729.293 1293.31 729.373 1293.59Q729.454 1293.86 729.516 1294.14Q729.579 1294.42 729.623 1294.7Q729.666 1294.98 729.691 1295.27Q729.717 1295.56 729.723 1295.84Q729.729 1296.13 729.716 1296.41Q729.703 1296.7 729.672 1296.98Q729.64 1297.27 729.59 1297.55Q729.54 1297.83 729.471 1298.11Q729.402 1298.39 729.315 1298.66Q729.228 1298.93 729.123 1299.2Q729.018 1299.47 728.895 1299.72Q728.773 1299.98 728.634 1300.23Q728.495 1300.48 728.34 1300.72Q728.184 1300.96 728.014 1301.19Q727.843 1301.42 727.657 1301.64Q727.472 1301.86 727.272 1302.06Q727.072 1302.27 726.86 1302.46Q726.647 1302.65 726.422 1302.83Q726.197 1303.01 725.961 1303.17Q725.725 1303.33 725.479 1303.48Q725.233 1303.62 724.977 1303.75Q724.722 1303.88 724.458 1303.99Q724.195 1304.11 723.925 1304.2Q723.726 1304.27 723.524 1304.33Q723.322 1304.39 723.118 1304.44Q722.913 1304.49 722.706 1304.53Q722.5 1304.57 722.291 1304.6Q722.083 1304.63 721.873 1304.65Q721.663 1304.67 721.453 1304.68Q721.242 1304.69 721.032 1304.69Q720.821 1304.69 720.611 1304.68Q720.401 1304.66 720.191 1304.64Q719.981 1304.62 719.773 1304.59Q719.565 1304.56 719.358 1304.52Q719.152 1304.48 718.948 1304.42Q718.743 1304.37 718.542 1304.31Q718.34 1304.25 718.142 1304.18Q717.944 1304.11 717.749 1304.03Q717.554 1303.95 717.364 1303.86Q717.174 1303.77 716.988 1303.67Q716.802 1303.57 716.621 1303.46Q716.44 1303.35 716.265 1303.24Q716.089 1303.12 715.92 1303Q715.75 1302.87 715.587 1302.74Q715.424 1302.6 715.267 1302.46Q715.111 1302.32 714.961 1302.17Q714.812 1302.03 714.67 1301.87Q714.527 1301.72 714.393 1301.55Q714.259 1301.39 714.132 1301.22Q714.006 1301.05 713.888 1300.88Q713.77 1300.71 713.66 1300.53Q713.551 1300.35 713.45 1300.16Q713.35 1299.98 713.258 1299.79Q713.167 1299.6 713.085 1299.4Q713.003 1299.21 712.93 1299.01Q712.857 1298.81 712.795 1298.61Q712.732 1298.41 712.679 1298.21Q712.626 1298 712.583 1297.8Q712.54 1297.59 712.507 1297.38Q712.474 1297.17 712.451 1296.96Q712.428 1296.76 712.415 1296.55Q712.403 1296.34 712.4 1296.12Q712.398 1295.91 712.406 1295.7Q712.414 1295.49 712.432 1295.28Q712.45 1295.07 712.478 1294.86Q712.506 1294.66 712.545 1294.45Q712.583 1294.24 712.631 1294.04Q712.68 1293.83 712.738 1293.63Q712.796 1293.43 712.864 1293.23Q712.932 1293.03 713.01 1292.83Q713.088 1292.64 713.175 1292.45Q713.262 1292.25 713.358 1292.07Q713.454 1291.88 713.56 1291.7Q713.665 1291.51 713.779 1291.34Q713.893 1291.16 714.016 1290.99Q714.138 1290.82 714.269 1290.65Q714.399 1290.49 714.538 1290.33Q714.676 1290.17 714.822 1290.02Q714.968 1289.87 715.122 1289.72Q715.275 1289.58 715.435 1289.44Q715.595 1289.3 715.762 1289.17Q715.928 1289.05 716.101 1288.93Q716.274 1288.8 716.452 1288.69Q716.63 1288.58 716.814 1288.48Q716.997 1288.37 717.186 1288.28Q717.374 1288.19 717.567 1288.1Q717.759 1288.02 717.956 1287.94Z"/>
		<path fill="#2D2324" transform="scale(0.510742 0.510742)" d="M619.922 829.899C622.406 829.951 625.235 829.857 627.463 831.09C629.568 832.255 631.169 834.169 631.588 836.571C632.283 840.543 630.458 843.542 628.363 846.682C625.5 846.566 622.654 846.314 620.215 844.661C618.426 843.448 617.03 841.519 616.683 839.362C616.08 835.608 617.86 832.78 619.922 829.899Z"/>
		<path fill="#2D2324" transform="scale(0.510742 0.510742)" d="M690.646 1112.27C692.225 1112.75 693.752 1113.3 695.074 1114.32C698.082 1116.65 699.51 1121.2 699.784 1124.86C699.969 1127.33 699.564 1129.41 697.909 1131.33C695.211 1131.89 694.974 1131.46 692.504 1130.12C692.376 1130.23 692.255 1130.35 692.12 1130.44C690.111 1131.88 688.343 1132.23 685.928 1131.95C684.134 1129.95 683.391 1128.33 683.546 1125.55C683.9 1119.19 686.011 1116.38 690.646 1112.27Z"/>
		<path fill="#2D2324" transform="scale(0.510742 0.510742)" d="M865.11 1041.22C865.247 1041.24 865.384 1041.26 865.522 1041.28C867.127 1041.48 868.924 1041.61 870.437 1042.21C872.989 1043.23 874.641 1045.78 875.8 1048.12C875.791 1050.41 875.859 1050.63 874.481 1052.43C871.665 1053.86 870.073 1054.45 866.836 1054.17C864.943 1052.99 864.152 1052.71 863.357 1050.51C862.158 1047.19 863.642 1044.13 865.11 1041.22Z"/>
	</g>
</svg>
